<svg xmlns="http://www.w3.org/2000/svg" xmlns:xlink="http://www.w3.org/1999/xlink" viewBox="0 0 1125 100"><defs><style>.a{fill:#fff;}.b{fill:url(#a);}.c{fill:url(#b);}.d{fill:url(#c);}.e{fill:url(#d);}.f{fill:url(#e);}.g{fill:url(#f);}.h{fill:url(#g);}.i{fill:url(#h);}.j{fill:url(#i);}.k{fill:url(#j);}.l{fill:url(#k);}.m{fill:url(#l);}</style><linearGradient id="a" x1="237.4" y1="51.39" x2="963.8" y2="51.39" gradientUnits="userSpaceOnUse"><stop offset="0" stop-color="#faaffa"/><stop offset="0.25" stop-color="#f2f279"/><stop offset="0.45" stop-color="#4cfff0"/><stop offset="0.6" stop-color="#5fcc29"/><stop offset="0.9" stop-color="#0045a6"/><stop offset="1" stop-color="#001466"/></linearGradient><linearGradient id="b" x1="237.4" y1="51.33" x2="963.8" y2="51.33" xlink:href="#a"/><linearGradient id="c" x1="237.4" y1="54.38" x2="963.8" y2="54.38" xlink:href="#a"/><linearGradient id="d" x1="237.4" y1="51.19" x2="963.8" y2="51.19" xlink:href="#a"/><linearGradient id="e" x1="237.4" y1="54.22" x2="963.8" y2="54.22" xlink:href="#a"/><linearGradient id="f" x1="237.4" y1="60.37" x2="963.8" y2="60.37" xlink:href="#a"/><linearGradient id="g" x1="237.4" y1="51.64" x2="963.8" y2="51.64" xlink:href="#a"/><linearGradient id="h" x1="237.4" y1="49.66" x2="963.8" y2="49.66" xlink:href="#a"/><linearGradient id="i" x1="237.4" y1="50.72" x2="963.8" y2="50.72" xlink:href="#a"/><linearGradient id="j" x1="237.4" y1="54.87" x2="963.8" y2="54.87" xlink:href="#a"/><linearGradient id="k" x1="237.4" y1="54.39" x2="963.8" y2="54.39" xlink:href="#a"/><linearGradient id="l" x1="237.4" y1="54.62" x2="963.8" y2="54.62" xlink:href="#a"/></defs><path class="a" d="M285.94,33.66a2.2,2.2,0,0,0-1.14.33c-.69.4-1.33.79-1.94,1.16a37.89,37.89,0,0,1-5.44,2.92h0l0,0a1.22,1.22,0,0,0-.68,1.35,1.33,1.33,0,0,0,1.43,1,14.08,14.08,0,0,1,2,.16c1,.2,1.12.35,1.12,1.36v2.24a25.86,25.86,0,0,0-4.76-.42c-8.88,0-13.39,4.71-15.29,7.52a1.49,1.49,0,0,0-.13,1.55,1.4,1.4,0,0,0,1.24.72,1.69,1.69,0,0,0,1.05-.38,18.8,18.8,0,0,1,10.85-4.29c2.84,0,7,1.32,7,4.16v12.9c0,.56-.05,1.47-.09,1.72h0v.07a1.14,1.14,0,0,0,.2,1l.3.37h.5a1.69,1.69,0,0,0,1.11-.58l0,0,0,0c.06,0,.35-.26,1.27-.86l.1-.07,3.26-1.78.53-.29V37.31C288.47,35.54,287.58,33.66,285.94,33.66Zm1.5,3.23a.19.19,0,0,0,0-.08A.19.19,0,0,1,287.44,36.89Zm-.07-.49a.19.19,0,0,1,0-.07A.19.19,0,0,0,287.37,36.4Zm-.13-.46v0Zm-.16-.38a.43.43,0,0,1,0-.07A.43.43,0,0,0,287.08,35.56Zm-.23-.37,0,0Zm-.26-.28h0Zm-.34-.19.06,0Zm-.29-.06h0ZM262.08,52.48Zm.19.05h0Zm.19,0,.07,0Zm19.67,15.4a.53.53,0,0,0,0,.16A.53.53,0,0,1,282.13,67.91Zm0,.18s0,0,0,0h0S282.13,68.1,282.12,68.09Zm.14,0,.05,0Z"/><path class="a" d="M316.87,52.87a8.89,8.89,0,0,0-1.19.13,30.82,30.82,0,0,1-4.45.35h-2.05c3.87-2.12,7.25-4.73,7.25-7.82,0-.65,0-2.17-1.46-2.17a2,2,0,0,0-.46,0h-.07a21.46,21.46,0,0,1-5.31.68,1.34,1.34,0,0,0-1.48,1v0h-.21c-.66,0-.6.36-.24.54a2.64,2.64,0,0,1,1.44,2.28c0,.54-.55,1.2-1.37,1.87a28,28,0,0,1-5.06,2.58V37.25c0-1.77-.89-3.65-2.53-3.65h0a2.2,2.2,0,0,0-1.14.33c-.69.4-1.33.79-2,1.17A38.63,38.63,0,0,1,291.17,38h0l0,0a1.17,1.17,0,0,0-.59.61l-.65.28c-.24.12-.24.42.3.42h.26v0a1.33,1.33,0,0,0,1.43,1,14,14,0,0,1,2,.16l.21.05a3,3,0,0,1,.22,1.31v24a15,15,0,0,1-.12,2c-.06.3,0,.3.48-.12a1.9,1.9,0,0,1,.25-.19v0h0v.06a1.16,1.16,0,0,0,.2,1l.3.37h.5a1.69,1.69,0,0,0,1.11-.58l0,0,0,0s.3-.22,1.27-.87l.1-.06,3.26-1.78.53-.29V58.71h8.55c-.32,2.81-2.69,5.6-4.91,7.38l-.2.14h0l0,0a2.32,2.32,0,0,0-.28.24c-.28.21-.55.4-.82.57-.42.3-.3.54.3.36l.14-.05a1.21,1.21,0,0,0,.05.33,1.14,1.14,0,0,0,1.15.78,2.16,2.16,0,0,0,.63-.1c5.05-1.57,12.54-5.92,12.54-11.46C319.31,54.54,318.3,52.87,316.87,52.87Zm-1.59-8.37a.3.3,0,0,0-.08-.08A.3.3,0,0,1,315.28,44.5Zm.15,1c0-.12,0-.23,0-.33C315.42,45.3,315.43,45.41,315.43,45.53Zm0-.42a1.15,1.15,0,0,0,0-.19A1.15,1.15,0,0,1,315.41,45.11Zm0-.27,0-.13Zm0-.2-.05-.1Zm-.32-.27h0Zm.15,0-.1,0Zm-14-7.58a.19.19,0,0,0,0-.08A.19.19,0,0,1,301.18,36.83Zm-.07-.49a.19.19,0,0,1,0-.07A.19.19,0,0,0,301.11,36.34Zm-.13-.47h0Zm-.16-.37a.43.43,0,0,1,0-.07A.43.43,0,0,0,300.82,35.5Zm-.23-.37,0-.05Zm-.26-.28h0Zm-.28-.17-.06,0Zm-.37-.08h0Zm-.26,0-.08,0Zm-3.55,33.21a.53.53,0,0,0,0,.16A.53.53,0,0,1,295.87,67.85Zm0,.18s0,0,0,0h0S295.87,68,295.86,68Zm.19-.06L296,68Zm10.14-.9a.74.74,0,0,0-.2.19A.74.74,0,0,1,306.19,67.07Zm-.22.24a.1.1,0,0,0,0,.09A.1.1,0,0,1,306,67.31Zm0,.13a.32.32,0,0,0,.14,0A.32.32,0,0,1,306,67.44Zm.17,0h0a1.48,1.48,0,0,0,.36-.06A1.41,1.41,0,0,1,306.14,67.49Z"/><path class="a" d="M351.15,51.08a12.19,12.19,0,0,0-1.88.25c-.32,0-1.68.12-3.06.18-1-4.83-5.29-9.44-13-9.44a13.74,13.74,0,0,0-8.84,3,14.51,14.51,0,0,0-5.57,7c-.24.72.18.48.48.24l.16-.12a1.21,1.21,0,0,0,.19.91,1.08,1.08,0,0,0,.89.45,1.7,1.7,0,0,0,1.07-.46A10.25,10.25,0,0,1,325,51.34a1.54,1.54,0,0,0,1-1.67C326,48.42,328.11,46,332,46a5.29,5.29,0,0,1,2.69.73,9,9,0,0,1,2.54,4.89h-5.34l-.29.29-.12.12-.62.59h-.24l-.12.12c-.84.78-3.12,3.06-3.54,3.36s-.47.47.36.38a.86.86,0,0,0,.05.27,1.13,1.13,0,0,0,1.19.76,13.09,13.09,0,0,0,1.88-.24c.67-.11,5.38-.29,6.13-.29h.84a7.75,7.75,0,0,1-2.84,5,27.83,27.83,0,0,1-4.23,2.18,1.79,1.79,0,0,0-.9.75l-.38.17c-.6.24-.72.72,0,.66l.21,0v0a1.28,1.28,0,0,0,1.36,1h.2c4.84-.34,13-3.27,15.07-9.72h1.88l.29-.29.12-.12c.29-.27.8-.76,1.34-1.29.74-.72,1.85-1.8,2.08-2s.94-.69.69-1.46A1.13,1.13,0,0,0,351.15,51.08Zm.2,1-.05,0Zm-.16,0h0Zm-1.56.2.45-.08-.45.08Zm1.33-.19-.22,0Zm-.38,0-.33,0Zm-22.21,4.25v0Zm0,.08.05,0Zm.16,0h0Zm1.11-.12.64-.11Zm-.88.11.23,0Zm.38,0,.34-.05Zm1.14,9.1h0Zm0,0,0,0Zm.33.1h-.06a1.07,1.07,0,0,0,.18,0Zm-.23,0,.08,0Zm20.84-13.34,0,0Zm.1-.12v0Z"/><path class="a" d="M406.3,33.66a2.27,2.27,0,0,0-1.15.33l-1.93,1.16a37.89,37.89,0,0,1-5.44,2.92h0l0,0a1.25,1.25,0,0,0-.59.61l-.64.28c-.24.12-.24.42.3.42H397v0a1.32,1.32,0,0,0,1.42,1,14.1,14.1,0,0,1,2,.16l.2,0a3,3,0,0,1,.23,1.31V49c0,6.78,0,9.84-1.32,11.58a2.91,2.91,0,0,1-.24.27,8.43,8.43,0,0,1-3.89,1,5.74,5.74,0,0,1-1.6-.21,41.73,41.73,0,0,0,.31-5.29v-19c0-1.77-.88-3.65-2.52-3.65a2.27,2.27,0,0,0-1.15.33l-1.93,1.16a37.89,37.89,0,0,1-5.44,2.92h0l0,0a1.23,1.23,0,0,0-.6.61l-.64.28c-.24.12-.24.42.3.42h.26v0a1.32,1.32,0,0,0,1.42,1,14.1,14.1,0,0,1,2,.16l.2,0a3,3,0,0,1,.23,1.31V49c0,8,0,10.8-1.73,12.45a3.31,3.31,0,0,1-1.64.44A9.17,9.17,0,0,1,379,60.55l-.32-.16V37.31c0-1.77-.88-3.65-2.52-3.65A2.2,2.2,0,0,0,375,34c-.69.4-1.33.79-2,1.17a38.19,38.19,0,0,1-5.43,2.91h0l0,0a1.23,1.23,0,0,0-.6.61l-.64.28c-.24.12-.24.42.3.42h.26v0a1.32,1.32,0,0,0,1.42,1,14.1,14.1,0,0,1,2,.16l.21,0a3,3,0,0,1,.22,1.31V65.27a15,15,0,0,1-.12,2c-.06.3,0,.3.48-.12l.24-.19v0h0l0,.07a1.19,1.19,0,0,0,.21,1l.3.37h.5a1.69,1.69,0,0,0,1.11-.58l0,0,0,0s.3-.23,1.28-.88l.09,0,3.26-1.78.52-.29v-.59h0l1.41.92c2.29,1.54,5.15,3.45,7.91,3.45,2.34,0,4-1.16,5-3.55l.88.6c2.3,1.58,4.49,3.07,7.17,3.07,3.55,0,7.78-2.37,7.78-13.66V37.31C408.82,35.54,407.94,33.66,406.3,33.66Zm1.5,3.23s0-.06,0-.08S407.8,36.86,407.8,36.89Zm-.08-.49s0,0,0-.07S407.72,36.38,407.72,36.4Zm-.13-.46v0Zm-.16-.38,0-.07Zm-.22-.37,0,0Zm-.26-.28h0Zm-.28-.17-.06,0Zm-.35-.08h0Zm-13.56.83,0,.07Zm.19.43v0Zm.12.41s0,.05,0,.07S393.07,36.35,393.07,36.33Zm.08.48s0,0,0,.08S393.15,36.83,393.15,36.81Zm.21,25.7a5.36,5.36,0,0,1-.6-.24A5.36,5.36,0,0,0,393.36,62.51Zm.88.22.4.05Zm-12.18.09-.44-.09.45.09Zm-1.15-.3.54.16ZM406,34.7l-.08,0ZM394,62.68l-.43-.11Zm-1.42-27.49,0,0Zm-.26-.28h0Zm-.28-.17-.06,0Zm-.35-.08h0Zm-.28,0-.08,0ZM379.5,61.92l-.57-.29Zm1.35.58-.6-.24Zm-.76-.31-.46-.21Zm-1.82-.9.42.22Zm-.59-24.4a.19.19,0,0,0,0-.08A.19.19,0,0,1,377.68,36.89Zm-.08-.49s0,0,0-.07S377.6,36.38,377.6,36.4Zm-.13-.46v0Zm-.15-.38a.16.16,0,0,1,0-.07A.16.16,0,0,0,377.32,35.56Zm-.23-.37,0,0Zm-.26-.28h0Zm-.28-.17-.06,0Zm-.35-.08h0Zm-.28,0-.08,0Zm-3.56,32.55a.47.47,0,0,0,0,.16A.47.47,0,0,1,372.36,67.25Zm0,.18s0,0,0,0h0S372.37,67.44,372.36,67.43Zm.19-.06-.05,0Z"/><path class="a" d="M465.36,71.27a1.32,1.32,0,0,0-1,.5,6.41,6.41,0,0,1-1.86,1.55l.23-.43c.18-.42-.18-.84-.48-.48a8.06,8.06,0,0,1-1.59,1.45h-.15c-.81,0-3,0-3-6.38V65.05c3.71-1.23,6.06-3.91,6.06-7,0-4.67-5.19-7.54-8.92-7.54A15,15,0,0,0,448.14,52a14.09,14.09,0,0,0-1.7.56v-7.1c0-1.77-.88-3.65-2.52-3.65h0a2.2,2.2,0,0,0-1.14.33l-1.31.78a1,1,0,0,0-1.07.08,58.27,58.27,0,0,1-7.5,4.14h0A10.77,10.77,0,0,0,429,43.4a12.54,12.54,0,0,0-6-1.68h0A10.81,10.81,0,0,0,416,44.35a14.45,14.45,0,0,0-2.86,2.5c-3.36,3.54-6.18,9.48-1.68,15.3a8.37,8.37,0,0,0,2.2,2,11.54,11.54,0,0,0,7.4,2.6,13,13,0,0,0,10.4-5.51c3.26-4.29,3.33-8.1,2.82-10.55a10.78,10.78,0,0,0-1.17-3.09h.07c.36,0,.94,0,1.48.08a1.32,1.32,0,0,0,1.4.92c.24,0,.58,0,.93,0a2.68,2.68,0,0,1,.33,1.48V63.83a15,15,0,0,1-.12,2c-.06.3,0,.3.48-.12.17-.17,1.22-.86,1.5-1,0,.39,0,.75-.06.89h0l0,.06a1.22,1.22,0,0,0,.2,1l.3.37h.51a1.69,1.69,0,0,0,1.11-.58l0,0,0,0s.3-.23,1.28-.88l.09,0,3.26-1.78.52-.29V59.7c1.24-1.76,3.64-4.25,5.68-4.6a5.09,5.09,0,0,1,1.48,3.63,3.86,3.86,0,0,1-1.88,3.47c-.39.07-.79.13-1.19.18l-.3,0a1.82,1.82,0,0,0-1.39.8c-.57.1-1.06.15-1.36.19-1,.18-.78.66,0,.9l1,.24v4.26c0,5.34,2.14,8.35,5.89,9a8.62,8.62,0,0,0,4.49,1.13c3.26,0,6.61-3.32,7.69-5.62a1.51,1.51,0,0,0-.1-1.46A1.25,1.25,0,0,0,465.36,71.27Zm-40.28-9.88a10,10,0,0,1-7.22-3.51c-2-2.59-2.74-7.75-.73-9.86a3.5,3.5,0,0,1,2.54-.88,8.89,8.89,0,0,1,4.61,1.51c3,2.61,5.19,9.06,2.16,12.53A4.18,4.18,0,0,1,425.08,61.39ZM418.59,60c-.22-.17-.43-.36-.63-.54C418.16,59.64,418.37,59.83,418.59,60Zm-.84-.75a7.06,7.06,0,0,1-.69-.76A7.06,7.06,0,0,0,417.75,59.25Zm-.63-12.47c.09-.06.19-.09.28-.14C417.31,46.69,417.21,46.72,417.12,46.78Zm.88-.38.36-.1Zm.78,13.75c.28.21.57.4.88.59C419.35,60.55,419.06,60.36,418.78,60.15Zm1.08.7c.25.15.5.28.76.41C420.36,61.13,420.11,61,419.86,60.85Zm1,.53a8.47,8.47,0,0,0,.94.39A8.47,8.47,0,0,1,420.89,61.38Zm1,.41c.32.11.65.21,1,.29C422.52,62,422.19,61.9,421.87,61.79Zm1.25.35.77.15Zm1,.18h0Zm-3.83,3.35h0Zm8.91-3.41c-.25.24-.5.49-.75.7C428.69,62.75,428.94,62.5,429.19,62.26ZM428,63.33c-.24.18-.47.36-.71.52C427.48,63.69,427.71,63.51,428,63.33Zm-1.13-19.82.35.14Zm-3.7-.78h0Zm2.66.42-.23-.07Zm-1.43-.32-.29,0ZM421,65.71l.65,0c-.19,0-.39,0-.59,0Zm5.68-1.55c-.23.14-.46.28-.69.39C426.24,64.44,426.47,64.3,426.7,64.16Zm-1.26.64c-.22.09-.45.2-.68.28C425,65,425.22,64.89,425.44,64.8Zm-1.26.45c-.23.07-.45.14-.67.19C423.73,65.39,424,65.32,424.18,65.25Zm-1.26.29-.67.11Zm6.67-3.66a15.73,15.73,0,0,0,1.09-1.29A15.73,15.73,0,0,1,429.59,61.88Zm35.93,10.46,0,0Zm-.14-.06h0Zm-.1,0h0ZM445.42,45.05s0-.06,0-.08S445.42,45,445.42,45.05Zm-.08-.49s0-.05,0-.07S445.34,44.54,445.34,44.56Zm-.13-.47h0Zm-.16-.37,0-.07Zm-.22-.37,0-.05Zm-.26-.28h0Zm-.28-.17-.06,0Zm-.37-.08h0Zm-.26,0-.08,0Zm-3.56,23a.47.47,0,0,0,0,.16A.47.47,0,0,1,440.1,65.81Zm0,.18s0,0,0,0h0S440.11,66,440.1,66Zm.14,0,.05,0Zm25.41,6.73v0Zm0-.23v0Z"/><path class="a" d="M490.22,63.74a12.12,12.12,0,0,0-1.87.25c-.67.1-5.38.28-6.13.28H481V58.83h3.38l.29-.29.12-.12c.29-.27.8-.76,1.34-1.29.73-.72,1.85-1.8,2.08-2s.94-.69.69-1.46a1.13,1.13,0,0,0-1.2-.76,12.12,12.12,0,0,0-1.87.25c-.46.07-2.93.17-4.4.22l-.43,0V37.31c0-1.77-.88-3.65-2.52-3.65h0a2.27,2.27,0,0,0-1.15.33l-1.3.78a1,1,0,0,0-1.07.08,58.27,58.27,0,0,1-7.5,4.14c-.24.12-.24.42.3.42.36,0,.94,0,1.48.08a1.32,1.32,0,0,0,1.4.92c.24,0,.58,0,.93,0a2.68,2.68,0,0,1,.33,1.48V53.47h-1.49l-.3.29-.11.12c-.16.14-.37.35-.62.59h-1.44l-.12.12c-.84.78-3.12,3.06-3.54,3.36-.65.48-.42.54,1.57.19a.93.93,0,0,0,0,.46,1.13,1.13,0,0,0,1.19.76,12.19,12.19,0,0,0,1.88-.25c.32,0,1.66-.11,2.94-.16v9.68h1.88v1H486.9l.29-.29.12-.12,1.35-1.3c.73-.71,1.84-1.79,2.07-2s.94-.69.69-1.46A1.14,1.14,0,0,0,490.22,63.74Zm.21,1-.05,0Zm-.16,0h0Zm-1.11.12-.64.11Zm.88-.11-.22,0Zm-.38,0-.33,0ZM467,58.12l0,0Zm20.88-3.94s0,0,0,0S487.85,54.17,487.83,54.18Zm.11-.12v0Zm0-.08-.05,0Zm-.16,0h0Zm-1.11.12-.64.11Zm.88-.11-.23,0Zm-.38,0-.33,0ZM480,36.89s0-.06,0-.08S480,36.86,480,36.89Zm-.08-.49a.19.19,0,0,0,0-.07A.19.19,0,0,1,479.9,36.4Zm-.13-.46v0Zm-.16-.38,0-.07Zm-.22-.37,0,0Zm-.26-.28h0Zm-.28-.17-.06,0Zm-.35-.08h0Zm-.28,0-.08,0ZM466.85,58.24v0Zm0,.08.05,0Zm.17,0h0Zm1.11-.12.63-.11Zm-.88.11.22,0Zm.37,0,.34-.05ZM490.35,65l0,0Zm.11-.12v0Z"/><path class="a" d="M520.77,44.88a16.73,16.73,0,0,0-7.59-1.8c-.38,0-.77,0-1.16,0V35.57c0-1.77-.88-3.65-2.53-3.65h0a2.26,2.26,0,0,0-1.14.33l-1.3.78a1,1,0,0,0-1.07.08,58.27,58.27,0,0,1-7.5,4.14c-.24.12-.24.42.3.42.36,0,.94,0,1.48.08a1.32,1.32,0,0,0,1.4.92c.23,0,.58,0,.93,0a2.68,2.68,0,0,1,.33,1.48v5.4c-4.56,1.86-13.26,7.5-13.26,13,0,3.22,3,5.22,6.91,6.39,5,2.29,12.28,2.47,14.33,2.47a30.94,30.94,0,0,0,5.29-.38,4.28,4.28,0,0,0,1.89-1.3c.16-.16.33-.33.52-.5,1.61-1.61,2.26-2.26,1.91-3.11a1.1,1.1,0,0,0-1-.67h-.15c-2.29.17-4.5.26-6.54.26H512V48.06a12.25,12.25,0,0,1,1.82,1.43c.12.12.24-.12.42-.36l.15-.19A11.45,11.45,0,0,1,516,50.21a1,1,0,0,0,.76.31,1.3,1.3,0,0,0,1.07-.68l.08-.11a30.2,30.2,0,0,1,2.91-3l0,0,0,0,.07-.07a1.08,1.08,0,0,0,.4-1A1.06,1.06,0,0,0,520.77,44.88Zm-.45.89-.82-.38Zm-1.09-.49-.62-.24Zm-1-.36-.65-.2Zm-1-.3-.83-.2Zm-1-.24q-.53-.1-1.08-.18Q515.74,44.28,516.27,44.38Zm-1.4-.21c-.28,0-.56-.05-.85-.06C514.31,44.12,514.59,44.14,514.87,44.17Zm-1.28-.08q-.42,0-.87,0h.87Zm-1.25,0-.61,0h0Zm-12.44,13a11,11,0,0,1,3-6.73V60.46C499.91,59.33,499.9,57.72,499.9,57.11Zm9.53,9.28.78,0-.79,0Zm5.9-.23-.37,0Zm-.61.07-.37,0Zm-.66.06-.38,0Zm-.69,0-.41,0Zm3.32-3.73.61,0-.61,0ZM511,35.07s0,0,0,.08S511,35.09,511,35.07Zm-.07-.41a.19.19,0,0,0,0-.07A.19.19,0,0,1,510.92,34.66Zm-.13-.46v0Zm-.16-.38,0-.07Zm-.22-.37,0-.05Zm-.26-.28h0Zm-.29-.17-.05,0Zm-.37-.08h0Zm-.25,0-.08,0Zm1,33.45h0Zm2.39,0h0Zm-.78,0h0Zm3.68-.27.48-.08Zm2.4-1.64.38-.38Zm.46-.46.28-.28Zm.41-.42.2-.21Zm.31-.34c.06-.06.11-.13.16-.19S519.16,63.21,519.1,63.27Zm.25-.3.12-.15Zm.17-.24.06-.11Zm.06-.17a.15.15,0,0,0,0-.07A.15.15,0,0,1,519.58,62.56Zm-.11-.11,0,0a.25.25,0,0,0-.1,0Zm-2.75-13a.1.1,0,0,0,.08,0h0A.11.11,0,0,1,516.72,49.49Zm.11,0,.06,0Zm.1-.08a.86.86,0,0,0,.07-.1A.86.86,0,0,1,516.93,49.42Z"/><path class="a" d="M565.24,34.68a7.49,7.49,0,0,0-3.76-1.14h-.78a8,8,0,0,0-2.64,1h-.24c-1,0-5.59,2.72-8,4.26,0-.06,0-.12,0-.18a5.5,5.5,0,0,0-5-5.32,4.49,4.49,0,0,0-2.63,1l-.25,0c-2.34,0-4.92,4-6.18,5.58-.36.48.12.48.6.18a4.06,4.06,0,0,1,1.33-.54,1.2,1.2,0,0,0-.06,1.13,1.15,1.15,0,0,0,1,.62,2.22,2.22,0,0,0,1.09-.36,3,3,0,0,1,1.07-.42,2.14,2.14,0,0,1,.5,1.25c0,2-7.44,7.08-7.44,13.8,0,5.54,5,9.36,10.15,10.86a19,19,0,0,0,7.55,1.72c9.59,0,21.76-9.88,21.76-21C573.46,43.39,572,38.17,565.24,34.68ZM563,52.89a16.86,16.86,0,0,1-5.42,8.29V52.89Zm-5.42-12.74.09,0a10.41,10.41,0,0,1,5.47,7.36h-5.56Zm6.44-4.93c.22.1.46.21.72.35C564.52,35.43,564.28,35.32,564.06,35.22ZM562,34.56l.28,0Zm.38.06a2.53,2.53,0,0,1,.42.1A2.53,2.53,0,0,0,562.36,34.62Zm.51.13c.12,0,.25.08.39.13C563.12,34.83,563,34.78,562.87,34.75Zm.57.2.42.18Zm-1.58-.4h0Zm-.35,0h0Zm-13,27.58a8.93,8.93,0,0,1-4.64-7.71c0-3.31,1.55-5.75,3-8.1.55-.86,1.11-1.74,1.59-2.66Zm-9.88-22.06a.08.08,0,0,1,0,0A.08.08,0,0,0,538.64,40.06Zm0,.11s0,0,0,0S538.62,40.19,538.62,40.17Zm0,.07,0,0Zm.1,0h0Zm.26,0,0,0Z"/><path class="a" d="M871.27,54.53l.11-.1c.2-.17.37-.32.54-.49a11,11,0,0,0-2.58-18l-.09,0a29.55,29.55,0,0,0-3.17-1.32c-.45-7.17-5.78-12.65-12.49-12.65a12.25,12.25,0,0,0-6.21,1.71l-.76.45a10.86,10.86,0,0,0-4.91-1.16,11.27,11.27,0,0,0-5.7,1.57c-.73.42-1.4.84-2,1.23a30.71,30.71,0,0,1-4.2,2.29q-.33.14-.66.3a10.23,10.23,0,0,0-4.89,5.21,26,26,0,0,0-8.75-1.45,24.8,24.8,0,0,0-8,1.28,26.33,26.33,0,0,0-3.9-.28,23,23,0,0,0-13.7,4.3,12.08,12.08,0,0,0-16.12-4,11,11,0,0,0-3.51-.57,11.21,11.21,0,0,0-5.69,1.57c-.41.23-.81.47-1.19.7a24.8,24.8,0,0,0-12.23-3,24.53,24.53,0,0,0-7.15,1l-1.13,0a25.36,25.36,0,0,0-4.21.35c-.92-6.6-6-11.5-12.38-11.5a12.29,12.29,0,0,0-5,1.09,11.8,11.8,0,0,0-1.46-.09,11.27,11.27,0,0,0-5.7,1.57c-.72.42-1.4.84-2.05,1.23a30.71,30.71,0,0,1-4.2,2.29q-.33.14-.66.3a10.25,10.25,0,0,0-5.28,6.3c-1.19,0-2.5.1-2.9.1h-4.53a10.12,10.12,0,0,0-2.85.41,11.9,11.9,0,0,0-7.35-2.52,12.06,12.06,0,0,0-4.87,1,11.18,11.18,0,0,0-4.91,1.54l-1.5.9a21.23,21.23,0,0,0-12.39-4A12.78,12.78,0,0,0,655,33.4a13.08,13.08,0,0,0-1.42.46,13.71,13.71,0,0,0-5.9-1.31A14.13,14.13,0,0,0,641.54,34a13.49,13.49,0,0,0-4,1.76c-.17.12-.34.23-.5.36-.36.27-.92.72-1.56,1.24S634,38.59,633.42,39l-.12.09a10.08,10.08,0,0,0-2,2h-.13a12.48,12.48,0,0,0-11.8-9,12.25,12.25,0,0,0-5.48,1.31,11.45,11.45,0,0,0-2.43.89,12.08,12.08,0,0,0-1.82-.14,18.5,18.5,0,0,0-3.21.33c-1,.07-4.13.19-4.79.2h-4.53a10.12,10.12,0,0,0-2.85.41,11.9,11.9,0,0,0-7.35-2.52,12.18,12.18,0,0,0-5.48,1.31,11.54,11.54,0,0,0-1.69.56,25.81,25.81,0,0,0-9.92-8.69,17.22,17.22,0,0,0-8.32-2.24h-.78a13.81,13.81,0,0,0-5.6,1.33,16,16,0,0,0-2.4.86,14.53,14.53,0,0,0-7.78-2.43,13.49,13.49,0,0,0-5.9,1.37c-5.29,1.32-8.67,5.86-10.62,8.48-.16.23-.31.43-.44.59l-.1.14a10.67,10.67,0,0,0-1.47,2.71,10.14,10.14,0,0,0-1.15-.67l-.09,0A29.41,29.41,0,0,0,522,34.57c-.46-7.17-5.78-12.65-12.5-12.65A12.2,12.2,0,0,0,504,23.23a11.11,11.11,0,0,0-3.1,1.26c-.73.42-1.41.84-2.06,1.23a30.71,30.71,0,0,1-4.2,2.29c-.22.09-.44.19-.65.3a10.2,10.2,0,0,0-4,3.56,12.41,12.41,0,0,0-11.54-8.21A12.23,12.23,0,0,0,473,25a11,11,0,0,0-3.1,1.26l-2.07,1.24a31,31,0,0,1-4.19,2.28c-.22.09-.44.19-.65.3a10.17,10.17,0,0,0-5.56,10.69c-.6-.09-1.2-.15-1.79-.18a12.47,12.47,0,0,0-11.72-8.74,12.12,12.12,0,0,0-5.48,1.31,11,11,0,0,0-3.1,1.26l-1,.58-.63-.36a22.39,22.39,0,0,0-10.78-2.89,20.05,20.05,0,0,0-4.95.63,12.45,12.45,0,0,0-11.69-8.69,12.24,12.24,0,0,0-6.21,1.71l-1.21.72a11.89,11.89,0,0,0-7.24-2.43,12.25,12.25,0,0,0-6.18,1.7l-1.69,1a11.88,11.88,0,0,0-7.59-2.72,12.22,12.22,0,0,0-6.2,1.7l-2,1.19-.1.07a29.73,29.73,0,0,1-4.07,2.21l-.7.33A10.82,10.82,0,0,0,361,30.58a10.15,10.15,0,0,0-4.47,10.94,8.92,8.92,0,0,0,.31,1,11.25,11.25,0,0,0-4.55-1.43c-3.81-5.17-10.2-9.06-19.05-9.06a24.14,24.14,0,0,0-12,3.1A11.56,11.56,0,0,0,315,33.36a12.23,12.23,0,0,0-2.41.24l-.75.18c-1.37-5.92-6.21-10.18-12.13-10.18a12.3,12.3,0,0,0-6.2,1.7l-.78.47a11.81,11.81,0,0,0-6.76-2.11,12.21,12.21,0,0,0-6.2,1.71c-.73.42-1.41.83-2.08,1.24a28.55,28.55,0,0,1-4.1,2.23c-.22.09-.47.21-.69.32a11.26,11.26,0,0,0-5.44,5.91,26.78,26.78,0,0,0-14.55,10.65,11.4,11.4,0,0,0,9.43,17.82A11.81,11.81,0,0,0,269.53,61a12,12,0,0,1,1.72-1.13v6c0,.13,0,.3,0,.46a11.14,11.14,0,0,0,2.39,8.7l.3.37a10,10,0,0,0,7.49,3.65h.74A11.2,11.2,0,0,0,289,76.75a10,10,0,0,0,6.13,2.3h.74a11.05,11.05,0,0,0,5.64-1.54,11.34,11.34,0,0,0,4.61,1,12.12,12.12,0,0,0,3.5-.52l.11,0A36.09,36.09,0,0,0,321,72.1a10.2,10.2,0,0,0,2.47,2.11,11.51,11.51,0,0,0,7.16,2.48l.93,0c7.29-.51,16-4.1,20.92-10.86A9.87,9.87,0,0,0,354.89,64l.3-.3,1.35-1.3L358,61a11.78,11.78,0,0,0,2.79-3.17v7.42c0,.15,0,.36,0,.55a10.2,10.2,0,0,0,2.16,8,9.86,9.86,0,0,0,2,1.83,10,10,0,0,0,6.72,2.82h.74a11.13,11.13,0,0,0,6.68-2.23A19.34,19.34,0,0,0,388,78.61a15.36,15.36,0,0,0,6.17-1.26A17.81,17.81,0,0,0,401,78.73a17,17,0,0,0,10.82-4,22,22,0,0,0,19.53-.54,10.28,10.28,0,0,0,3.24,1.54A10.1,10.1,0,0,0,439.39,77h.42a16.38,16.38,0,0,0,11,10.22,18.85,18.85,0,0,0,8,1.69c7.18,0,12.77-5,15.57-9.3H486.9A10,10,0,0,0,494,76.68l.28-.29c.31-.28.74-.7,1.22-1.17a53.18,53.18,0,0,0,15.41,2.19,41.62,41.62,0,0,0,7.16-.55l.29-.06a13.78,13.78,0,0,0,6.73-3.93l.59-.57a21.16,21.16,0,0,0,3.26-4,25.71,25.71,0,0,0,11.76,7.47,29,29,0,0,0,11,2.32c6.54,0,13.69-2.86,19.55-7.59a9.8,9.8,0,0,0,1.2,1.92,10,10,0,0,0,5.16,3.33,10,10,0,0,0,4.76,1.34h.73a11.09,11.09,0,0,0,6.25-1.92A22.54,22.54,0,0,0,598,76.87a18.91,18.91,0,0,0,9.82-2.69,10,10,0,0,0,2.23.89,10,10,0,0,0,4.76,1.34h.73a11.09,11.09,0,0,0,5.27-1.32,9.22,9.22,0,0,0,1.06.3,11.31,11.31,0,0,0,5.25,1.27,12,12,0,0,0,2.65-.3,37.07,37.07,0,0,0,8.1-2.56A22.49,22.49,0,0,0,641,75a28.54,28.54,0,0,0,11.17,2.15,31.76,31.76,0,0,0,16.56-4.55,10.08,10.08,0,0,0,6.82,3.49,10.05,10.05,0,0,0,4.17,1h.73a11,11,0,0,0,6-1.77c.4.09.8.16,1.21.22a22.85,22.85,0,0,0,7.69,1.28,18.88,18.88,0,0,0,10-2.83,42.39,42.39,0,0,0,10.25,2.11,58.67,58.67,0,0,0,12,1.26,41.62,41.62,0,0,0,7.16-.55l.29-.06a12.62,12.62,0,0,0,3.31-1.27,10.75,10.75,0,0,0,1.9.16,8.24,8.24,0,0,0,.84,0c.71,0,1.44-.13,2.17-.24a11.42,11.42,0,0,0,5.27,1.27l.93,0a31.47,31.47,0,0,0,10.71-2.78,10.09,10.09,0,0,0,6.2,2.14,10.34,10.34,0,0,0,2.15-.23c2.51,8.33,9.55,12.14,16.54,12.14a14.1,14.1,0,0,0,2.59-.24,19.38,19.38,0,0,0,6.9,1.24c8.37,0,14.6-6.8,16.74-11.38l.12-.28c.1-.21.18-.42.26-.64a11.51,11.51,0,0,0,1.18.06l.93,0a31.93,31.93,0,0,0,11.77-3.3c5.89,2.54,12.86,3,17.47,3h1a60.3,60.3,0,0,0,10.85,1,41.69,41.69,0,0,0,7.16-.55l.28-.06a13.71,13.71,0,0,0,6.73-3.93l.59-.57c2.09-2.09,7-7,4.09-14A11,11,0,0,0,871.27,54.53Z"/><path class="a" d="M865.47,45.69a1,1,0,0,0-.61-.81,16.69,16.69,0,0,0-7.58-1.8c-.38,0-.77,0-1.16,0V35.57c0-1.77-.89-3.65-2.53-3.65h0a2.2,2.2,0,0,0-1.14.33c-.69.4-1.32.79-1.94,1.16a38.32,38.32,0,0,1-5.43,2.92h0l0,0a1.23,1.23,0,0,0-.68,1.35,1.34,1.34,0,0,0,1.43,1,14,14,0,0,1,2,.16c1,.2,1.12.35,1.12,1.36v4.29a16.18,16.18,0,0,0-5.67-.27V35.57c0-1.5-.84-3.24-2.16-2.46a58.27,58.27,0,0,1-7.5,4.14c-.24.12-.24.42.31.42a14.3,14.3,0,0,1,2.21.18c1.5.3,1.92.9,1.92,2.34v5.4a33.57,33.57,0,0,0-9.21,5.91h-.32c-1-4.83-5.28-9.44-13-9.44a14.17,14.17,0,0,0-7,1.75,15.14,15.14,0,0,0-4.87-.75A13.09,13.09,0,0,0,791.5,50.6a8.7,8.7,0,0,0-1-.07,15,15,0,0,0-6.67,1.54,9.64,9.64,0,0,0-1.57-.42V45.47c0-1.77-.89-3.65-2.53-3.65h0a2.23,2.23,0,0,0-1.14.33c-.69.4-1.33.79-1.94,1.17A43.63,43.63,0,0,1,771.77,46v-.51c0-1.5-.84-3.24-2.15-2.46a60.41,60.41,0,0,1-7.42,4.1c-2.12-2.9-5.78-5-11.06-5a14.3,14.3,0,0,0-5.85,1.18,17.13,17.13,0,0,0-2.43-.18,13.28,13.28,0,0,0-6.16,1.42A16.5,16.5,0,0,0,730,43.08c-.38,0-.77,0-1.16,0V35.57c0-1.77-.89-3.65-2.53-3.65h0a2.23,2.23,0,0,0-1.14.33l-1.93,1.16-2,1.19c-.27-1.16-1-2.1-2-1.49a58.27,58.27,0,0,1-7.5,4.14c-.24.12-.24.42.3.42a14.42,14.42,0,0,1,2.22.18c1.5.3,1.92.9,1.92,2.34v5.4c-3.75,1.53-10.29,5.62-12.5,10.06a13.17,13.17,0,0,0-3.83-5.58h3.9l.3-.29.12-.12,1.34-1.29c.73-.72,1.84-1.8,2.07-2s1-.69.69-1.46a1.12,1.12,0,0,0-1.19-.76,12.34,12.34,0,0,0-1.88.25c-.67.1-5.38.28-6.12.28h-4.53l-.29.26-.8.74h-2.6l-2.95,2.7a4.06,4.06,0,0,0-.54.66c0,.24.25.3,1,.12a3,3,0,0,1,2.32.57.25.25,0,0,0,0,.07,1.2,1.2,0,0,0,.65.41,10.73,10.73,0,0,1,1.33,1.29c-.33,0-.76.1-1.38.22s-2.89.18-4.41.24V46.25c0-1.77-.89-3.65-2.53-3.65a2.23,2.23,0,0,0-1.14.33l-1.93,1.16-.09,0a1.08,1.08,0,0,0-1.55-.35,58.27,58.27,0,0,1-7.5,4.14c-.24.12-.24.42.3.42a14.42,14.42,0,0,1,2.22.18,3.63,3.63,0,0,1,.55.15,1.34,1.34,0,0,0,1,.62,2.59,2.59,0,0,1,.38,1.57V52h-1l-.29.3-.12.12c-.15.13-.37.34-.61.58h-2.64l-.12.12-1.05,1a13,13,0,0,0,.19-2.08c0-7.34-6.12-10-10.24-10a5.08,5.08,0,0,0-2.43,1l-.46,0c-1,0-3.52,2-6,3.44a4.07,4.07,0,0,0-6.35-3.26l0,0,0,0-.34.27a3.11,3.11,0,0,0-1.94.53c-.72.54-2.46,2-3.78,3-.24.18-.18.42.24.24a3.27,3.27,0,0,1,1.54-.24.94.94,0,0,0,0,.55,1.09,1.09,0,0,0,1.07.75,1.69,1.69,0,0,0,.6-.12,3.24,3.24,0,0,1,.25,1c.13,2.57-2.68,4.13-4,6.9-.57-2.42-2.57-5.14-8.71-5.14a11,11,0,0,0-4.48,1.22,17.11,17.11,0,0,0-3.94,1.65V45.77c0-1.77-.89-3.65-2.53-3.65a2.26,2.26,0,0,0-1.14.33l-1.3.78a1,1,0,0,0-1.07.08c-2.33,1.37-4.11,2.56-6.26,3.59.26-.25.46-.44.54-.5.27-.19,1-.69.7-1.46a1.14,1.14,0,0,0-1.2-.76,12.12,12.12,0,0,0-1.87.25c-.68.1-5.38.28-6.13.28h-4.53l-.29.26-.8.74h-1.4l-2.94,2.7a3.17,3.17,0,0,0-.54.66c-.06.24.24.3,1,.12a2,2,0,0,1,.92,0,1.2,1.2,0,0,0,.23.66,1.3,1.3,0,0,0,1.07.47,3.52,3.52,0,0,0,.72-.1c1.85,1.44,3.6,4.09,3.6,6.43A3.84,3.84,0,0,1,596.78,60a9.58,9.58,0,0,1-1.16.1c-2.9,0-4.75-.88-5.59-2.68h2.35l.29-.29.12-.12,1.34-1.29c.73-.72,1.85-1.8,2.07-2s.95-.69.7-1.46a1.14,1.14,0,0,0-1.2-.76,12.12,12.12,0,0,0-1.87.25c-.47.08-2.89.18-4.41.24V46.25c0-1.77-.88-3.65-2.53-3.65a2.26,2.26,0,0,0-1.14.33l-1.3.78a1,1,0,0,0-1.07.08,58.27,58.27,0,0,1-7.5,4.14c-.24.12-.24.42.3.42.35,0,.94,0,1.47.08a1.34,1.34,0,0,0,1.41.92c.23,0,.58,0,.93,0a2.68,2.68,0,0,1,.33,1.48V52H578.1l-.29.3-.12.12c-.15.13-.36.34-.61.58h-1.44l-.12.12c-.84.78-3.12,3.06-3.54,3.36-.66.48-.42.54,1.57.19a1,1,0,0,0,0,.47,1.13,1.13,0,0,0,1.19.75,12.34,12.34,0,0,0,1.88-.25c.38-.05,2.12-.14,3.66-.2V64a15,15,0,0,1-.12,2c-.06.3,0,.3.48-.12.16-.17,1.22-.86,1.5-1,0,.39,0,.75-.06.9h0v.06a1.2,1.2,0,0,0,.2,1l.3.37h.5a1.69,1.69,0,0,0,1.12-.58l0,0,0,0s.3-.23,1.29-.88l.08,0,3-1.65a9.68,9.68,0,0,0,3.64,1.63,12.15,12.15,0,0,0,5.72,1.3,8.45,8.45,0,0,0,8.62-8.44c0-4.08-2.56-6.78-4.24-8.36h3.89l.3-.29.12-.12c.28-.27.8-.76,1.34-1.29l.52-.51h.07c.35,0,.94,0,1.47.08a1.34,1.34,0,0,0,1.41.92c.23,0,.58,0,.93,0a2.68,2.68,0,0,1,.33,1.48V63.23a15,15,0,0,1-.12,2c-.06.3,0,.3.48-.12.16-.17,1.22-.85,1.5-1,0,.39,0,.75-.06.89h0V65a1.17,1.17,0,0,0,.2,1l.3.37h.5a1.71,1.71,0,0,0,1.12-.58l0,0,0,0s.34-.26,1.26-.86l.11-.07,3.26-1.78.52-.29v-4l.69-.47c1.49-1,4-2.73,5.21-2.73l.52,0a3.93,3.93,0,0,1,1.22,3.12c0,3.66-3.36,5.64-5.34,6.66-.36.18-.12.36.36.24s.91-.2,1.39-.32a1,1,0,0,0,0,.49,1.17,1.17,0,0,0,1.22.87,2,2,0,0,0,.52-.07c3.5-.71,9-2.36,10.88-5.89.69,2.74,3.19,4.19,6,4.89a17.73,17.73,0,0,0,7.71,1.57c8.47,0,15.44-4.35,17.79-10.5.23,0,.56-.05,1-.07a1.12,1.12,0,0,0,0,.57,1.15,1.15,0,0,0,1.2.75,12.12,12.12,0,0,0,1.87-.25c.29,0,1.32-.1,2.47-.15V64a15,15,0,0,1-.12,2c-.06.3,0,.3.48-.12.18-.18,1.38-1,1.56-1.08l1.16-.63c0,.55-.05,1.34-.09,1.57h0v.06a1.16,1.16,0,0,0,.2,1l.3.37h.5a1.71,1.71,0,0,0,1.12-.58l0,0,0,0c.05,0,.31-.23,1.3-.88l.08,0,2.36-1.29a10.31,10.31,0,0,0,4.81,1.52,12.44,12.44,0,0,0,5.21,1.05,8.62,8.62,0,0,0,8.2-5.74c2.08,3.26,8.12,4.68,13.62,5.12a47.32,47.32,0,0,0,10.46,1.16A30.94,30.94,0,0,0,733,67a4.25,4.25,0,0,0,1.88-1.3l.53-.5c1.61-1.61,2.26-2.26,1.91-3.11a1.1,1.1,0,0,0-1-.67h-.14c-2.29.17-4.5.26-6.54.26h-.76V47.79a10.44,10.44,0,0,1,2.78,1.42,14.3,14.3,0,0,0-1.44,2.86c-.24.72.18.48.48.24a11.25,11.25,0,0,1,3.72-1.92c.15,0,.25-.2.28-.53l0,0,.08-.11a29.11,29.11,0,0,1,2.91-3l0,0,0,0,.07-.07a1.05,1.05,0,0,0,.39-1h0a9.25,9.25,0,0,1,3.56-.69l.63,0a16,16,0,0,0-4.86,6.71,1.47,1.47,0,0,0,.08,1.37,1.1,1.1,0,0,0,.9.45,1.66,1.66,0,0,0,1.06-.46A10.31,10.31,0,0,1,743,51.34a1.55,1.55,0,0,0,1-1.67,4,4,0,0,1,2.33-2.79,9.63,9.63,0,0,1,2.54,5.73H742l-.12.12c-.84.78-3.12,3.06-3.54,3.36-.66.48-.42.54,1.62.18.62-.1,3.79-.23,5.42-.28a1,1,0,0,0,0,.75,1.14,1.14,0,0,0,1.2.76,13,13,0,0,0,1.87-.24,2,2,0,0,1,.33,0c-.76,4.08-3.93,5.9-8.3,7.81-.6.24-.72.72,0,.66,4.15-.28,12-2.79,14.09-8.72h1.53c-.6,3.43-3.07,5.1-7.74,7.14a1.5,1.5,0,0,0-1.08,1.6,1.28,1.28,0,0,0,1.36,1h.2c4.85-.34,13-3.27,15.08-9.72h1.87l.29-.29.12-.12.37-.35v7.62a13.45,13.45,0,0,1-.12,2c0,.3,0,.3.49-.12.17-.18,1.37-1,1.55-1.08l3.3-1.8V59.39a17.26,17.26,0,0,1,3.27-3.6v8a16.9,16.9,0,0,1-.09,1.71h0v.06a1.16,1.16,0,0,0,.2,1l.3.37h.5a1.73,1.73,0,0,0,1.12-.58l0,0,0,0a4.69,4.69,0,0,1,.54-.39v2.8c0,6.06,2.76,9.12,7.5,9.12a6.25,6.25,0,0,0,3.52-1.33,7.87,7.87,0,0,0,6,2.33c3.25,0,6.61-3.32,7.68-5.62a1.53,1.53,0,0,0-.09-1.46,1.27,1.27,0,0,0-1.05-.58,1.31,1.31,0,0,0-1,.5,5.33,5.33,0,0,1-3.85,2.1c-.81,0-3,0-3-6.38V65.05c3.7-1.23,6.06-3.91,6.06-7a5.85,5.85,0,0,0-.22-1.58c.32,0,.79-.1,1.5-.22s5.57-.3,6.3-.3h2.63c-.3,5-3.66,7-8.46,9.06-.59.24-.71.72,0,.66,4.13-.28,11.86-2.75,14.06-8.59,1.51-.07,3.22-.13,3.65-.13h1.52c-.6,3.43-3.07,5.1-7.74,7.14a1.5,1.5,0,0,0-1.08,1.6,1.28,1.28,0,0,0,1.36,1h.2c3.61-.25,9.05-1.94,12.45-5.45,3,4.44,13.4,5.4,19.45,5.13a48,48,0,0,0,10,1,30.81,30.81,0,0,0,5.28-.38,4.17,4.17,0,0,0,1.89-1.31l.52-.5c1.61-1.6,2.27-2.25,1.92-3.1a1.12,1.12,0,0,0-1.05-.67h-.14c-2.3.17-4.51.26-6.54.26h-.76V47.79a10.46,10.46,0,0,1,4,2.42,1,1,0,0,0,.75.31,1.32,1.32,0,0,0,1.08-.68l.08-.11a29,29,0,0,1,2.9-3l0,0,0,0,.08-.07A1.05,1.05,0,0,0,865.47,45.69Zm-290.82,11s0,0,0,0S574.63,56.69,574.65,56.68Zm35.1-11.26,0,0Zm.1-.12s0,0,0,0S609.86,45.28,609.85,45.3Zm0-.08-.05,0Zm-.16,0h0Zm-1.11.12-.64.11Zm.87-.11-.22,0Zm-.37,0-.33.05Zm-13.23,7.51,0,0Zm.1-.12s0,0,0,0S595.94,52.6,595.93,52.62Zm0-.08,0,0Zm-.16,0h0Zm-1.11.12-.64.11Zm.87-.11-.22,0Zm-.37,0-.33.05Zm-6.74-6.72s0-.06,0-.08S588.4,45.8,588.4,45.83Zm-.08-.49a.19.19,0,0,0,0-.07A.19.19,0,0,1,588.32,45.34Zm-.13-.46v0ZM588,44.5l0-.07Zm-.22-.37,0-.05Zm-.27-.28h0Zm-.28-.17,0,0Zm-.35-.08h0Zm-.27,0-.08,0ZM574.55,56.8s0,0,0,0S574.54,56.82,574.55,56.8Zm0,.08,0,0Zm.17,0h0Zm1.11-.12.63-.11Zm-.88.11.22,0Zm.37,0,.34,0Zm7.74,9.06a1.37,1.37,0,0,0,0,.16A1.37,1.37,0,0,1,583.08,65.93Zm0,.18s0,0,0,0h0S583.08,66.12,583.08,66.11Zm.14,0,0,0Zm13.39-.28h0Zm24.25-20.45a.25.25,0,0,1,0-.08A.25.25,0,0,0,620.86,45.35Zm-.08-.49a.19.19,0,0,0,0-.07A.19.19,0,0,1,620.78,44.86Zm-.13-.46v0Zm-.16-.38,0-.07Zm-.22-.37,0,0Zm-.27-.28h0Zm-.28-.17-.05,0Zm-.35-.08h0Zm-.27,0-.08,0Zm-3.56,22a1.37,1.37,0,0,0,0,.16A1.37,1.37,0,0,1,615.54,65.21Zm0,.18s0,0,0,0h0S615.54,65.4,615.54,65.39Zm.13,0,.06,0S615.69,65.35,615.67,65.36Zm11.39,0a.39.39,0,0,0-.15.12A.39.39,0,0,1,627.06,65.39Zm-.16.15a.1.1,0,0,0,0,.07A.1.1,0,0,1,626.9,65.54Zm.18.12a.23.23,0,0,1-.13,0A.42.42,0,0,0,627.08,65.66Zm.06,0h0a1.13,1.13,0,0,0,.3,0A1,1,0,0,1,627.14,65.67Zm24.13-2.93a6.57,6.57,0,0,1-1.6-.6l.13-.11a16.84,16.84,0,0,1,1.5-1,8.6,8.6,0,0,1-.07.89h0V62A1.28,1.28,0,0,0,651.27,62.74Zm10.49-10.47h-3.22V48.6c.24,0,.51,0,.8.07A5.5,5.5,0,0,1,661.76,52.27ZM653.88,63l-.78,0,.24-.21,0,0,0,0c.05-.05.34-.26,1.26-.86l.11-.07L658,60l.52-.29V57.63h2.66a9.91,9.91,0,0,1-4.54,5.1A13.07,13.07,0,0,1,653.88,63Zm-1.7-.7a1.37,1.37,0,0,1,0-.16A1.37,1.37,0,0,0,652.18,62.31Zm.05,0h0s0,0,0,0A0,0,0,0,0,652.23,62.36Zm-2.88-.4c-1.52-1-2.27-2.59-2.27-4.91a7.35,7.35,0,0,1,2.36-5.53v8.65C649.44,60.66,649.4,61.55,649.35,62Zm3,.34,0,0Zm-4.12-18.7.13,0Zm.63.19.09.05Zm.48.27.12.08Zm-3-.2.15-.06Zm.43-.17.17,0Zm4,2.87,0-.18Zm-.19-.8v0Zm-.66-1.18,0-.06Zm.38.55-.08-.13Zm-2.51-1.57h0Zm-.55,0,.18,0Zm46.08,9s0,0,0,0S693.32,52.6,693.31,52.62Zm-.3-.12h0Zm.23,0,0,0Zm0,.18,0,0Zm.52-3.39.18.08Zm.52.23.22.13Zm.52.32.24.16Zm.53.38.24.2Zm.52.45.23.22A2.39,2.39,0,0,0,695.86,50.69Zm.5.5.23.25Zm.49.55.21.27Zm.45.6c.06.09.13.18.19.28C697.43,52.52,697.36,52.43,697.3,52.34Zm.41.63.17.29Zm.36.65c0,.1.1.2.14.3C698.17,53.82,698.12,53.72,698.07,53.62Zm.31.68c0,.1.08.2.11.29C698.46,54.5,698.42,54.4,698.38,54.3Zm.24.7c0,.09.06.19.08.28C698.68,55.19,698.65,55.09,698.62,55Zm.17.73c0,.08,0,.15,0,.23C698.82,55.88,698.8,55.81,698.79,55.73Zm-12.92,4.63a0,0,0,0,0,0,0A0,0,0,0,1,685.87,60.36Zm.08,0s-.05,0-.07,0S685.92,60.38,686,60.41Zm.12.18-.1-.16Zm-.24-.19s0,0,0,.06A.13.13,0,0,0,685.83,60.4Zm0,.1v0Zm.28.12.09.14h0Zm21-15.2s0,0,0,0S707.15,45.41,707.13,45.42Zm.1-.12s0,0,0,0S707.24,45.28,707.23,45.3Zm0-.08-.05,0Zm-.17,0h0Zm-1.11.12-.63.11Zm.88-.11-.22,0Zm-.37,0-.33.05Zm-11.65,11.4a3.85,3.85,0,0,1-2,3.43c-2.79,0-4.58-.91-5.4-2.67h2.34l.3-.29.12-.12,1.33-1.29c.74-.72,1.85-1.8,2.08-2a4.12,4.12,0,0,0,.32-.26A7,7,0,0,1,694.79,56.63Zm-2.78-4-.63.11Zm.88-.11-.22,0Zm-.37,0-.33.05Zm-6.74-6.72a.25.25,0,0,1,0-.08A.25.25,0,0,0,685.78,45.83Zm-.08-.49s0-.05,0-.07S685.69,45.32,685.7,45.34Zm-.13-.46v0Zm-.16-.38,0-.07Zm-.22-.37,0-.05Zm-.27-.28h0Zm-.28-.17,0,0Zm-.35-.08h0Zm-.27,0-.09,0Zm-12,13s0,0,0,0S672,56.69,672,56.68Zm-.1.12s0,0,0,0S671.92,56.82,671.93,56.8Zm0,.08,0,0Zm.17,0h0Zm1.1-.12.64-.11Zm-.87.11.22,0Zm.37,0,.34,0Zm7.74,9.06a1.37,1.37,0,0,0,0,.16A1.37,1.37,0,0,1,680.46,65.93Zm0,.18a0,0,0,0,0,0,0h0S680.46,66.12,680.46,66.11Zm.13,0,.06,0ZM694,65.8h0Zm27.33-16.92c.08-.06.17-.15.26-.21V61l-.26-.06Zm0-9.74c.21.18.26.48.26,1v4l-.26,0Zm3,27.15.66,0-.66,0Zm2.67.12-.84,0Zm-1.1,0-.62,0Zm3.93-3.67h0Zm5.78-17.59-.22-.08.22.08Zm-2.36-.7.84.2Zm1.17.3.64.2Zm-1.36-.34c-.35-.07-.71-.13-1.09-.18C732.34,44.25,732.7,44.31,733.05,44.38Zm-1.4-.21c-.28,0-.56-.05-.85-.06C731.09,44.12,731.37,44.14,731.65,44.17Zm-1.28-.08q-.43,0-.87,0h.87Zm-1.25,0c-.43,0-.87.06-1.32.11C728.25,44.16,728.69,44.12,729.12,44.1Zm-1.34-9a.25.25,0,0,1,0-.08A.25.25,0,0,0,727.78,35.15Zm-.08-.49s0,0,0-.07S727.69,34.64,727.7,34.66Zm-.13-.46v0Zm-.16-.38,0-.07Zm-.22-.37,0-.05Zm-.27-.28h0Zm-.28-.17,0,0Zm-.37-.08h0ZM726,33l-.09,0ZM716.1,46.91v1.14a22.93,22.93,0,0,0-6.35,6.12A13.61,13.61,0,0,1,716.1,46.91ZM727,66.41h0Zm1.61,0h0Zm3.68-.27.49-.08Zm-3.33.26h0Zm.77,0,.41,0Zm.72,0,.39,0Zm.68,0,.37,0Zm.61-.07.37,0Zm-.3-3.51.6,0Zm3.26,1.8.38-.38Zm-1.24-1.88.62,0Zm1.7,1.42.28-.28Zm.4-.42.21-.21Zm.32-.34.16-.19Zm.25-.3.11-.15Zm.17-.24.05-.11Zm.06-.17a.15.15,0,0,0,0-.07A.15.15,0,0,1,736.36,62.56Zm-.12-.11.06,0-.1,0ZM864.42,45.77l-.83-.38Zm-1.1-.49L862.7,45Zm-1-.36-.64-.2Zm-1-.3-.84-.2Zm-1-.24c-.35-.07-.72-.13-1.09-.18C859.65,44.25,860,44.31,860.37,44.38ZM859,44.17q-.4,0-.84-.06Q858.56,44.13,859,44.17Zm-1.27-.08c-.29,0-.58,0-.88,0h.88Zm-1.25,0c-.43,0-.87.06-1.32.11C855.57,44.16,856,44.12,856.44,44.1Zm.5,18.61h0Zm-.23,3.67h0Zm-.78,0h0Zm-.84-31.25v0Zm-.07-.49s0,0,0-.07S855,34.64,855,34.66Zm-.13-.46v0Zm-.16-.38a.25.25,0,0,0,0-.07Zm-.23-.37,0-.05Zm-.26-.28h0ZM854,33l-.06,0Zm-.37-.08h0Zm-.26,0-.08,0ZM838,61.85l.06.07h0ZM848.44,49l.46.42V61c-4.9-1.07-4.9-3.17-4.9-3.89C844,54.41,845.93,51.08,848.44,49ZM837.81,61.69q-.16-.19-.3-.39Q837.65,61.5,837.81,61.69Zm-.39-.52c-.11-.18-.22-.36-.31-.54C837.2,60.81,837.31,61,837.42,61.17Zm-.36-.67a3.66,3.66,0,0,1-.18-.46A3.66,3.66,0,0,0,837.06,60.5Zm-.24-.65c0-.15-.07-.3-.1-.45C836.75,59.55,836.78,59.7,836.82,59.85Zm-.13-.64a4.77,4.77,0,0,1-.05-.66A4.65,4.65,0,0,0,836.69,59.21Zm13.6,7-.69-.07Zm-1-.11-.65-.08Zm3,.26-.7,0Zm-.89-.06-.9-.07Zm1.79.1-.62,0ZM845,47c-.59.37-1.18.76-1.78,1.17V46.49A12.42,12.42,0,0,1,845,47Zm-30.69-1c2.3,0,4.95,1.5,5.88,5.62h-4.6a10.33,10.33,0,0,0-3.1-5.43A8.62,8.62,0,0,1,814.32,46Zm19.33,6.21s0,0,0,0S833.66,52.18,833.65,52.2Zm-.31-.12h0Zm.24,0,0,0Zm0,.18s0,0,0,0S833.57,52.29,833.59,52.28Zm-.73-.15-.24,0h0Zm.37,0-.22,0Zm-51,7.61q.24-.35.54-.72a4.08,4.08,0,0,1-.54,1.89Zm6.67-1.63a5.15,5.15,0,0,0-1-3,3.27,3.27,0,0,1,.44,0c1.57,0,2.9,1.69,2.9,3.68,0,2.53-2.22,3.27-4.52,3.59A5.57,5.57,0,0,0,788.93,58.07Zm-7.91-14h0Zm.12.41s0,0,0,.07S781.15,44.51,781.14,44.49Zm.09.48v0Zm-.36-1.25a.25.25,0,0,0,0-.07Zm-.22-.37,0-.05Zm-.27-.28h0Zm-.28-.17-.06,0Zm-.35-.08h0Zm-.28,0-.08,0Zm-33,13.4,0,0Zm9.45-4.65h-1A10.33,10.33,0,0,0,752,46.38C753.67,47.06,755.22,48.66,755.88,51.61Zm8.75-3.86c1.5.3,1.92.9,1.92,2.34v1.29l-2.39.13a11.38,11.38,0,0,0-1.65-3.94A15.29,15.29,0,0,1,764.63,47.75Zm-18.3,8.63a.08.08,0,0,0,0,0A.08.08,0,0,1,746.33,56.38Zm0,.08,0,0Zm.16,0h0Zm1.11-.12.64-.11Zm-.88.11.23,0Zm.38,0,.34-.05Zm1.37,8.71-.1.08Zm.25-.13-.2.1Zm-.39.25-.06.07Zm-.08.12a.14.14,0,0,0,0,.06A.14.14,0,0,1,748.27,65.4Zm0,.1a.13.13,0,0,0,0,.06A.13.13,0,0,1,748.25,65.5Zm0,.09a.1.1,0,0,0,.05,0A.1.1,0,0,1,748.29,65.59Zm.33.1h-.06a1.08,1.08,0,0,0,.18,0Zm-.23,0,.08,0Zm23.38-10.47V48.55l.13,0a13.86,13.86,0,0,1,2,.16c1,.2,1.12.35,1.12,1.36v2.76A10.7,10.7,0,0,0,771.77,55.19Zm4.15,10.62a.53.53,0,0,0,0,.16A.53.53,0,0,1,775.92,65.81Zm0,.18s0,0,0,0h0S775.92,66,775.91,66Zm.2-.06-.06,0Zm10.72,8.94c-2.46,0-4-2-4-7.38V64.31a10.85,10.85,0,0,0,1.63-.58c0,.26,0,1.12,1.38,1.54h0l.21,0v3.48a13,13,0,0,0,1.26,6A5.46,5.46,0,0,1,786.83,74.87Zm14.63-2.18v0Zm0-.23v0Zm-.09-.12s0,0,0,0Zm-.14-.06h0Zm-.09,0h0Zm-2-16.21h0A8.75,8.75,0,0,0,793.41,51c.48-.22,1-.43,1.65-.65.18-.06.3-.24.3-.72,0-2,2.76-4.68,7.07-4.68a6.34,6.34,0,0,1,3.25.89,16.12,16.12,0,0,0-3.88,5.85,1.47,1.47,0,0,0,.08,1.37l.16.17C801,54.26,799.42,55.84,799.08,56.09Zm5.42-3.48a11.79,11.79,0,0,1,2.76-1.27,1.54,1.54,0,0,0,1-1.67,1.84,1.84,0,0,1,.19-.73,11.35,11.35,0,0,1,1.08,3.67Zm8.31,12.55-.1.08Zm.25-.13a.93.93,0,0,0-.2.1A.93.93,0,0,1,813.06,65Zm-.39.25-.06.07Zm-.08.12a.14.14,0,0,0,0,.06A.14.14,0,0,1,812.59,65.4Zm0,.1a.13.13,0,0,0,0,.06A.13.13,0,0,1,812.57,65.5Zm0,.09a.08.08,0,0,0,0,0A.08.08,0,0,1,812.61,65.59Zm.33.1h-.06a1.08,1.08,0,0,0,.18,0Zm-.23,0,.08,0Zm18.4-8.55a7.66,7.66,0,0,1,.12-1.25l.61-.59c.74-.72,1.85-1.8,2.08-2s1-.69.69-1.46a1.13,1.13,0,0,0-1.19-.76h-.11a12.85,12.85,0,0,1,4.7-4.17v6a9.32,9.32,0,0,0-2.37,5.67A5.77,5.77,0,0,0,836.72,62C832.79,61.08,831.11,59.39,831.11,57.11Zm23.21,9.3h0Zm-.86,0,.84,0Zm6.15-.26.49-.08Zm-2.56.23.41,0Zm.72,0,.39,0Zm.68,0,.36,0Zm.61-.07.37,0Zm-.3-3.51.6,0Zm3.26,1.8.37-.38Zm-1.24-1.88.61,0ZM862.46,64l.29-.3Zm.41-.42.21-.22Zm.32-.35.17-.19Zm.26-.3.11-.15Zm.16-.24s0-.08.06-.11S863.63,62.69,863.61,62.73Zm.06-.17a.08.08,0,0,0,0-.07A.08.08,0,0,1,863.67,62.56Zm-.11-.11s0,0,.05,0l-.09,0Zm-2.74-13a.08.08,0,0,0,.08,0h0Zm.11,0,.06,0Zm.09-.08.08-.1Z"/><path class="a" d="M276.49,44.75a23.76,23.76,0,0,1,5.76.66V41.93c0-1.44-.42-2-1.92-2.34a14.42,14.42,0,0,0-2.22-.18c-.54,0-.54-.3-.3-.42a58.27,58.27,0,0,0,7.5-4.14c1.32-.78,2.16,1,2.16,2.46v27.6l-3.3,1.8c-.18.12-1.38.9-1.56,1.08-.48.42-.54.42-.48.12a15,15,0,0,0,.12-2V53c0-3.66-4.92-5.16-8-5.16s-7.56,1.44-11.46,4.5c-.54.42-1.08,0-.72-.54C263.41,49.79,267.55,44.75,276.49,44.75Z"/><path class="b" d="M285.94,34.66c.95,0,1.53,1.41,1.53,2.65v27.6l-3.3,1.8c-.18.12-1.38.9-1.56,1.08s-.4.33-.46.33,0-.07,0-.21a15,15,0,0,0,.12-2V53c0-3.66-4.92-5.16-8-5.16s-7.56,1.44-11.46,4.5a.74.74,0,0,1-.44.17c-.34,0-.54-.32-.28-.71,1.38-2,5.52-7.08,14.46-7.08a23.76,23.76,0,0,1,5.76.66V41.93c0-1.44-.42-2-1.92-2.34a14.42,14.42,0,0,0-2.22-.18c-.54,0-.54-.3-.3-.42a58.27,58.27,0,0,0,7.5-4.14,1.23,1.23,0,0,1,.63-.19m0-1a2.2,2.2,0,0,0-1.14.33c-.69.4-1.33.79-1.94,1.16a37.89,37.89,0,0,1-5.44,2.92h0l0,0a1.22,1.22,0,0,0-.68,1.35,1.33,1.33,0,0,0,1.43,1,14.08,14.08,0,0,1,2,.16c1,.2,1.12.35,1.12,1.36v2.24a25.86,25.86,0,0,0-4.76-.42c-8.88,0-13.39,4.71-15.29,7.52a1.49,1.49,0,0,0-.13,1.55,1.4,1.4,0,0,0,1.24.72,1.69,1.69,0,0,0,1.05-.38,18.8,18.8,0,0,1,10.85-4.29c2.84,0,7,1.32,7,4.16v12.9c0,.56-.05,1.47-.09,1.72h0v.07a1.14,1.14,0,0,0,.2,1l.3.37h.5a1.69,1.69,0,0,0,1.11-.58l0,0,0,0c.06,0,.35-.26,1.27-.86l.1-.07,3.26-1.78.53-.29V37.31c0-1.77-.89-3.65-2.53-3.65Z"/><path class="a" d="M294.07,39.53a14.42,14.42,0,0,0-2.22-.18c-.54,0-.54-.3-.3-.42a58.27,58.27,0,0,0,7.5-4.14c1.32-.78,2.16,1,2.16,2.46v16.5c2.76-.72,9.12-4,9.12-5.82a2.64,2.64,0,0,0-1.44-2.28c-.36-.18-.42-.54.24-.54a21.9,21.9,0,0,0,5.58-.72c.6-.12.72.06.72,1.14,0,3.54-5.94,6.72-10.5,8.82h6.3a50.28,50.28,0,0,0,5.64-.48c.9,0,1.44,1.5,1.44,3.06,0,4.92-7.2,9.06-11.82,10.5-.6.18-.72-.06-.3-.36,2.64-1.68,6.3-5.4,6.3-9v-.36H301.21v7.14l-3.3,1.8c-.18.12-1.38.9-1.56,1.08-.48.42-.54.42-.48.12a15,15,0,0,0,.12-2v-24C296,40.43,295.57,39.83,294.07,39.53Z"/><path class="c" d="M299.68,34.6c.95,0,1.53,1.41,1.53,2.65v16.5c2.76-.72,9.12-4,9.12-5.82a2.64,2.64,0,0,0-1.44-2.28c-.36-.18-.42-.54.24-.54a21.9,21.9,0,0,0,5.58-.72l.26,0c.37,0,.46.28.46,1.17,0,3.54-5.94,6.72-10.5,8.82h6.3a50.28,50.28,0,0,0,5.64-.48c.9,0,1.44,1.5,1.44,3.06,0,4.92-7.2,9.06-11.82,10.5a1.41,1.41,0,0,1-.35.06c-.28,0-.27-.19.05-.42,2.64-1.68,6.3-5.4,6.3-9v-.36H301.21v7.14l-3.3,1.8c-.18.12-1.38.9-1.56,1.08s-.4.33-.46.33-.05-.07,0-.21a15,15,0,0,0,.12-2v-24c0-1.44-.42-2-1.92-2.34a14.42,14.42,0,0,0-2.22-.18c-.54,0-.54-.3-.3-.42a58.27,58.27,0,0,0,7.5-4.14,1.23,1.23,0,0,1,.63-.19m0-1h0a2.2,2.2,0,0,0-1.14.33c-.69.4-1.33.79-2,1.17A38.63,38.63,0,0,1,291.17,38h0l0,0a1.22,1.22,0,0,0-.68,1.35,1.33,1.33,0,0,0,1.43,1,14,14,0,0,1,2,.16c1,.2,1.12.35,1.12,1.36v24a16.9,16.9,0,0,1-.09,1.71h0v.06a1.16,1.16,0,0,0,.2,1l.3.37h.5a1.69,1.69,0,0,0,1.11-.58l0,0,0,0s.3-.22,1.27-.87l.1-.06,3.26-1.78.53-.29V58.71h9.23c-.42,3-3.68,6.17-5.79,7.52h0l0,0a1.25,1.25,0,0,0-.61,1.45,1.14,1.14,0,0,0,1.15.78,2.16,2.16,0,0,0,.63-.1c5.05-1.57,12.54-5.92,12.54-11.46,0-2.39-1-4.06-2.44-4.06a8.89,8.89,0,0,0-1.19.13,30.82,30.82,0,0,1-4.45.35h-2.05c3.87-2.12,7.25-4.73,7.25-7.82,0-.65,0-2.17-1.46-2.17a2,2,0,0,0-.46,0h-.07a21.46,21.46,0,0,1-5.31.68,1.34,1.34,0,0,0-1.48,1,1.31,1.31,0,0,0,.72,1.43c.56.38,1,.71,1,1.42-.17.93-4.11,3.33-7.12,4.45V37.25c0-1.77-.89-3.65-2.53-3.65Z"/><path class="a" d="M333.19,43.07c7.55,0,11.57,4.56,12.18,9.48,1.61-.06,3.59-.18,4.07-.24,2-.36,2.28-.3,1.62.18-.42.3-2.7,2.58-3.54,3.36l-.12.12h-2.22c-1.56,6.66-10,9.42-14.39,9.72-.72.06-.6-.42,0-.66,4.79-2.1,8.16-4.08,8.45-9.06h-2.63c-.73,0-5.53.18-6.3.3-2,.36-2.28.3-1.62-.18.42-.3,2.7-2.58,3.54-3.36l.12-.12h6.77C338.41,47.27,335.23,45,332,45c-4.31,0-7.07,2.7-7.07,4.68,0,.48-.12.66-.3.72A11.25,11.25,0,0,0,321,52.31c-.3.24-.72.48-.48-.24C321.13,50.27,324.31,43.07,333.19,43.07Z"/><path class="d" d="M333.19,43.07c7.55,0,11.57,4.56,12.18,9.48,1.61-.06,3.59-.18,4.07-.24a13.21,13.21,0,0,1,1.71-.23c.37,0,.29.14-.09.41s-2.7,2.58-3.54,3.36l-.12.12h-2.22c-1.56,6.66-10,9.42-14.39,9.72h-.12c-.59,0-.45-.43.12-.66,4.79-2.1,8.16-4.08,8.45-9.06h-2.63c-.73,0-5.53.18-6.3.3a13.21,13.21,0,0,1-1.71.23c-.38,0-.29-.14.09-.41s2.7-2.58,3.54-3.36l.12-.12h6.77C338.41,47.27,335.23,45,332,45c-4.31,0-7.07,2.7-7.07,4.68,0,.48-.12.66-.3.72A11.25,11.25,0,0,0,321,52.31a1,1,0,0,1-.45.24c-.11,0-.15-.12,0-.48.66-1.8,3.84-9,12.72-9m0-1c-9.63,0-13.07,8-13.66,9.66a1.47,1.47,0,0,0,.08,1.37,1.08,1.08,0,0,0,.89.45,1.7,1.7,0,0,0,1.07-.46A10.25,10.25,0,0,1,325,51.34a1.54,1.54,0,0,0,1-1.67C326,48.42,328.11,46,332,46c2.31,0,5,1.5,5.89,5.62h-6l-.29.29-.12.12-1.33,1.28c-.74.72-1.86,1.81-2.09,2s-.94.69-.69,1.46a1.13,1.13,0,0,0,1.19.76,13.09,13.09,0,0,0,1.88-.24c.67-.11,5.38-.29,6.13-.29h1.52c-.6,3.43-3.08,5.1-7.75,7.14a1.49,1.49,0,0,0-1.07,1.6,1.28,1.28,0,0,0,1.36,1h.2c4.84-.34,13-3.27,15.07-9.72h1.88l.29-.29.12-.12c.29-.27.8-.76,1.34-1.29.74-.72,1.85-1.8,2.08-2s.94-.69.69-1.46a1.13,1.13,0,0,0-1.19-.76,12.19,12.19,0,0,0-1.88.25c-.32,0-1.68.12-3.06.18-1-4.83-5.29-9.44-13-9.44Z"/><path class="a" d="M386,39.59a14.42,14.42,0,0,0-2.22-.18c-.54,0-.54-.3-.3-.42a58.27,58.27,0,0,0,7.5-4.14c1.32-.78,2.16,1,2.16,2.46v19a38.6,38.6,0,0,1-.42,5.94c2.82,1.38,7.26,0,8.52-1.68s1.32-4.8,1.32-11.58V41.93c0-1.44-.42-2-1.92-2.34a14.42,14.42,0,0,0-2.22-.18c-.54,0-.54-.3-.3-.42a58.27,58.27,0,0,0,7.5-4.14c1.32-.78,2.16,1,2.16,2.46V55.07c0,9.6-3.12,12.66-6.78,12.66-3.06,0-5.52-2.28-8.58-4.2-1,3.36-2.7,4.08-4.44,4.08-3.72,0-7.92-4.08-10.32-5v1.68l-3.3,1.8c-.18.12-1.38.9-1.56,1.08-.48.42-.54.42-.48.12a15,15,0,0,0,.12-2V41.93c0-1.44-.42-2-1.92-2.34a14.42,14.42,0,0,0-2.22-.18c-.54,0-.54-.3-.3-.42a58.27,58.27,0,0,0,7.5-4.14c1.32-.78,2.16,1,2.16,2.46V61c2.22,1.08,4.86,2.88,7.56,1.2S388,58.37,388,49V41.93C388,40.49,387.54,39.89,386,39.59Z"/><path class="e" d="M406.3,34.66c.95,0,1.52,1.41,1.52,2.65V55.07c0,9.6-3.12,12.66-6.78,12.66-3.06,0-5.52-2.28-8.58-4.2-1,3.36-2.7,4.08-4.44,4.08-3.72,0-7.92-4.08-10.32-5v1.68l-3.3,1.8c-.18.12-1.38.9-1.56,1.08s-.39.33-.45.33-.05-.07,0-.21a15,15,0,0,0,.12-2V41.93c0-1.44-.42-2-1.92-2.34a14.42,14.42,0,0,0-2.22-.18c-.54,0-.54-.3-.3-.42a58.27,58.27,0,0,0,7.5-4.14,1.29,1.29,0,0,1,.64-.19c.95,0,1.52,1.41,1.52,2.65V61c1.57.76,3.35,1.89,5.21,1.89a4.36,4.36,0,0,0,2.35-.69c2.64-1.62,2.7-3.84,2.7-13.2V41.93c0-1.44-.42-2-1.92-2.34a14.42,14.42,0,0,0-2.22-.18c-.54,0-.54-.3-.3-.42a58.27,58.27,0,0,0,7.5-4.14,1.29,1.29,0,0,1,.64-.19c.95,0,1.52,1.41,1.52,2.65v19a38.6,38.6,0,0,1-.42,5.94,6.12,6.12,0,0,0,2.71.56c2.4,0,4.91-1,5.81-2.24,1.32-1.74,1.32-4.8,1.32-11.58V41.93c0-1.44-.42-2-1.92-2.34a14.42,14.42,0,0,0-2.22-.18c-.54,0-.54-.3-.3-.42a58.27,58.27,0,0,0,7.5-4.14,1.29,1.29,0,0,1,.64-.19m0-1a2.27,2.27,0,0,0-1.15.33l-1.93,1.16a37.89,37.89,0,0,1-5.44,2.92h0l0,0a1.21,1.21,0,0,0-.67,1.35,1.32,1.32,0,0,0,1.42,1,14.1,14.1,0,0,1,2,.16c1,.2,1.11.35,1.11,1.36V49c0,6.33,0,9.5-1.11,11-.67.89-2.85,1.84-5,1.84a5.74,5.74,0,0,1-1.6-.21,41.73,41.73,0,0,0,.31-5.29v-19c0-1.77-.88-3.65-2.52-3.65a2.27,2.27,0,0,0-1.15.33l-1.93,1.16a37.89,37.89,0,0,1-5.44,2.92h0l0,0a1.2,1.2,0,0,0-.68,1.35,1.32,1.32,0,0,0,1.42,1,14.1,14.1,0,0,1,2,.16c1,.2,1.11.35,1.11,1.36V49c0,9.46-.15,11.08-2.22,12.35a3.39,3.39,0,0,1-1.83.54A9.17,9.17,0,0,1,379,60.55l-.32-.16V37.31c0-1.77-.88-3.65-2.52-3.65A2.2,2.2,0,0,0,375,34c-.69.4-1.33.79-2,1.17a38.19,38.19,0,0,1-5.43,2.91h0l0,0a1.2,1.2,0,0,0-.68,1.35,1.32,1.32,0,0,0,1.42,1,14.1,14.1,0,0,1,2,.16c1,.2,1.11.35,1.11,1.36V65.27c0,.56-.05,1.47-.08,1.71h0l0,.07a1.19,1.19,0,0,0,.21,1l.3.37h.5a1.69,1.69,0,0,0,1.11-.58l0,0,0,0s.3-.23,1.28-.88l.09,0,3.26-1.78.52-.29v-.59h0l1.41.92c2.29,1.54,5.15,3.45,7.91,3.45,2.34,0,4-1.16,5-3.55l.88.6c2.3,1.58,4.49,3.07,7.17,3.07,3.55,0,7.78-2.37,7.78-13.66V37.31c0-1.77-.88-3.65-2.52-3.65Z"/><path class="a" d="M413.16,62.15c-4.5-5.82-1.68-11.76,1.68-15.3,3.54-4,8.1-5.58,13.62-2.58,4.86,2.7,7.38,9.54,2.22,16.32C425,68.09,416.28,66.23,413.16,62.15ZM425.7,48.41c-3.48-2.64-7.5-2.94-9.3-1.08-2.46,2.58-1.56,8.28.66,11.16,2.64,3.42,8.7,5,10.8,3C431.4,58,428.88,50.93,425.7,48.41Z"/><path class="f" d="M422.94,42.72a11.48,11.48,0,0,1,5.52,1.55c4.86,2.7,7.38,9.54,2.22,16.32a11.93,11.93,0,0,1-9.6,5.12,10.11,10.11,0,0,1-7.92-3.56c-4.5-5.82-1.68-11.76,1.68-15.3,2.28-2.55,5-4.13,8.1-4.13m2.14,19.67a3.9,3.9,0,0,0,2.78-.9c3.54-3.48,1-10.56-2.16-13.08a10.32,10.32,0,0,0-6-2.27,4.45,4.45,0,0,0-3.27,1.19c-2.46,2.58-1.56,8.28.66,11.16a11.05,11.05,0,0,0,8,3.9m-2.14-20.67h0c-3.22,0-6.19,1.5-8.84,4.46-1.87,2-7.56,9-1.73,16.58a11,11,0,0,0,8.71,3.95,13,13,0,0,0,10.4-5.51c3.26-4.29,3.33-8.1,2.82-10.55A10.83,10.83,0,0,0,429,43.4a12.54,12.54,0,0,0-6-1.68Zm2.14,19.67a10,10,0,0,1-7.22-3.51c-2-2.59-2.74-7.75-.73-9.86a3.5,3.5,0,0,1,2.54-.88,9.42,9.42,0,0,1,5.43,2.07,10.9,10.9,0,0,1,3.47,7.29,5.48,5.48,0,0,1-1.41,4.28,3,3,0,0,1-2.08.61Z"/><path class="a" d="M438.3,47.75a14.42,14.42,0,0,0-2.22-.18c-.54,0-.54-.3-.3-.42a58.27,58.27,0,0,0,7.5-4.14c1.32-.78,2.16,1,2.16,2.46v9.72a12.66,12.66,0,0,1,9.24-3.66c3.18,0,7.92,2.52,7.92,6.54,0,3-2.7,5.34-6.06,6.24v3.18c0,5.4,1.5,7.38,4,7.38a6.27,6.27,0,0,0,4.62-2.46c.3-.36.66.06.48.48-.9,1.92-3.9,5-6.78,5-4.74,0-7.5-3.06-7.5-9.12V64.55l-1-.24c-.78-.24-1-.72,0-.9,1.32-.18,6.12-.48,6.12-4.68,0-2.46-1.68-4.68-3.9-4.68-2.76,0-5.82,3.36-7.14,5.34v3.42l-3.3,1.8c-.18.12-1.38.9-1.56,1.08-.48.42-.54.42-.48.12a15,15,0,0,0,.12-2V50.09C440.22,48.65,439.8,48.05,438.3,47.75Z"/><path class="g" d="M443.92,42.82c.95,0,1.52,1.41,1.52,2.65v9.72a12.66,12.66,0,0,1,9.24-3.66c3.18,0,7.92,2.52,7.92,6.54,0,3-2.7,5.34-6.06,6.24v3.18c0,5.4,1.5,7.38,4,7.38a6.27,6.27,0,0,0,4.62-2.46.32.32,0,0,1,.24-.14c.22,0,.38.31.24.62-.9,1.92-3.9,5-6.78,5-4.74,0-7.5-3.06-7.5-9.12V64.55l-1-.24c-.78-.24-1-.72,0-.9,1.32-.18,6.12-.48,6.12-4.68,0-2.46-1.68-4.68-3.9-4.68-2.76,0-5.82,3.36-7.14,5.34v3.42l-3.3,1.8c-.18.12-1.38.9-1.56,1.08s-.39.33-.45.33-.05-.07,0-.21a15,15,0,0,0,.12-2V50.09c0-1.44-.42-2-1.92-2.34a14.42,14.42,0,0,0-2.22-.18c-.54,0-.54-.3-.3-.42a58.27,58.27,0,0,0,7.5-4.14,1.29,1.29,0,0,1,.64-.19m0-1h0a2.27,2.27,0,0,0-1.15.33c-.68.4-1.32.79-1.94,1.17a38.74,38.74,0,0,1-5.43,2.91h0l0,0a1.2,1.2,0,0,0-.68,1.35,1.32,1.32,0,0,0,1.42,1,14.1,14.1,0,0,1,2,.16c1,.2,1.11.35,1.11,1.36V63.83c0,.56-.05,1.47-.08,1.71h0l0,.06a1.22,1.22,0,0,0,.2,1l.3.37h.51a1.69,1.69,0,0,0,1.11-.58l0,0,0,0s.3-.23,1.28-.88l.09,0,3.26-1.78.52-.29V59.7c1.34-1.9,4-4.65,6.14-4.65,1.58,0,2.9,1.69,2.9,3.68,0,2.69-2.5,3.35-5,3.65l-.3,0c-1.29.23-1.52.92-1.54,1.31s0,1.12,1.38,1.54h.05l.2,0v3.48c0,6.43,3.1,10.12,8.5,10.12,3.26,0,6.61-3.32,7.69-5.62a1.51,1.51,0,0,0-.1-1.46,1.25,1.25,0,0,0-1.05-.58,1.32,1.32,0,0,0-1,.5,5.3,5.3,0,0,1-3.85,2.1c-.81,0-3,0-3-6.38V65.05c3.71-1.23,6.06-3.91,6.06-7,0-4.67-5.19-7.54-8.92-7.54A14.5,14.5,0,0,0,446.44,53V45.47c0-1.77-.88-3.65-2.52-3.65Z"/><path class="a" d="M472.86,39.59a14.42,14.42,0,0,0-2.22-.18c-.54,0-.54-.3-.3-.42a58.27,58.27,0,0,0,7.5-4.14c1.32-.78,2.16,1,2.16,2.46V54.47c1.26-.06,5.28-.18,6-.3,2-.36,2.28-.3,1.62.18-.42.3-2.7,2.58-3.54,3.36l-.12.12h-4v7.44h2.22c.72,0,5.52-.18,6.3-.3,2-.36,2.28-.3,1.62.18-.42.3-2.7,2.58-3.54,3.36l-.12.12h-11.7V57.83c-1.26.06-5.28.18-6,.3-2,.36-2.28.3-1.62-.18.42-.3,2.7-2.58,3.54-3.36l.12-.12h4V41.93C474.78,40.49,474.36,39.89,472.86,39.59Z"/><path class="h" d="M478.48,34.66c.95,0,1.52,1.41,1.52,2.65V54.47c1.26-.06,5.28-.18,6-.3a13.36,13.36,0,0,1,1.7-.23c.38,0,.3.14-.08.41s-2.7,2.58-3.54,3.36l-.12.12h-4v7.44h2.22c.72,0,5.52-.18,6.3-.3a13.36,13.36,0,0,1,1.7-.23c.38,0,.3.14-.08.41s-2.7,2.58-3.54,3.36l-.12.12h-11.7V57.83c-1.26.06-5.28.18-6,.3a12.92,12.92,0,0,1-1.7.23c-.38,0-.29-.14.08-.41s2.7-2.58,3.54-3.36l.12-.12h4V41.93c0-1.44-.42-2-1.92-2.34a14.42,14.42,0,0,0-2.22-.18c-.54,0-.54-.3-.3-.42a58.27,58.27,0,0,0,7.5-4.14,1.29,1.29,0,0,1,.64-.19m0-1h0a2.27,2.27,0,0,0-1.15.33c-.68.4-1.32.79-1.94,1.17A38.74,38.74,0,0,1,470,38.07h0l0,0a1.2,1.2,0,0,0-.68,1.35,1.32,1.32,0,0,0,1.42,1,14.1,14.1,0,0,1,2,.16c1,.2,1.11.35,1.11,1.36V53.47h-3.37l-.3.29-.11.12-1.35,1.3c-.73.71-1.84,1.79-2.07,2s-.95.69-.69,1.46a1.13,1.13,0,0,0,1.19.76,12.19,12.19,0,0,0,1.88-.25c.45-.07,2.92-.17,4.39-.22l.43,0V69.63H486.9l.29-.29.12-.12,1.35-1.3c.73-.71,1.84-1.79,2.07-2s.94-.69.69-1.46a1.14,1.14,0,0,0-1.2-.76,12.12,12.12,0,0,0-1.87.25c-.67.1-5.38.28-6.13.28H481V58.83h3.38l.29-.29.12-.12c.29-.27.8-.76,1.34-1.29.73-.72,1.85-1.8,2.08-2s.94-.69.69-1.46a1.13,1.13,0,0,0-1.2-.76,12.12,12.12,0,0,0-1.87.25c-.46.07-2.93.17-4.4.22l-.43,0V37.31c0-1.77-.88-3.65-2.52-3.65Z"/><path class="a" d="M505.8,45.59v-5.4c0-1.44-.42-2-1.92-2.34a14.42,14.42,0,0,0-2.22-.18c-.54,0-.54-.3-.3-.42a58.27,58.27,0,0,0,7.5-4.14c1.32-.78,2.16,1,2.16,2.46v8.64a16,16,0,0,1,9.3,1.56c.12.06.06.06-.12.24a30.21,30.21,0,0,0-3.06,3.12c-.18.24-.3.48-.42.36a11.44,11.44,0,0,0-5.7-3v16.2c2.4.06,5.16,0,8.4-.24.6-.06-.48,1-1.5,2-.78.72-1.38,1.44-1.92,1.56-5,1-23.46.48-23.46-7.5C492.54,53.09,501.24,47.45,505.8,45.59Zm0,16.62V46.91c-3.54,1.68-6.9,6.3-6.9,10.2C498.9,59.63,500.94,61.43,505.8,62.21Z"/><path class="i" d="M509.49,32.92c.95,0,1.53,1.41,1.53,2.65v8.64a18.36,18.36,0,0,1,2.16-.13,15.89,15.89,0,0,1,7.14,1.69c.12.06.06.06-.12.24a30.21,30.21,0,0,0-3.06,3.12c-.15.2-.25.39-.35.39a.11.11,0,0,1-.07,0,11.44,11.44,0,0,0-5.7-3v16.2l1.76,0c2,0,4.17-.08,6.64-.26h.05c.49,0-.55,1-1.55,2-.78.72-1.38,1.44-1.92,1.56a29.49,29.49,0,0,1-5.1.36c-7.32,0-18.36-1.68-18.36-7.86,0-5.46,8.7-11.1,13.26-13v-5.4c0-1.44-.42-2-1.92-2.34a14.42,14.42,0,0,0-2.22-.18c-.54,0-.54-.3-.3-.42a58.27,58.27,0,0,0,7.5-4.14,1.29,1.29,0,0,1,.63-.19M505.8,62.21V46.91c-3.54,1.68-6.9,6.3-6.9,10.2,0,2.52,2,4.32,6.9,5.1m3.69-30.29h0a2.26,2.26,0,0,0-1.14.33l-1.93,1.16A37.89,37.89,0,0,1,501,36.33h0l0,0a1.21,1.21,0,0,0-.67,1.35,1.32,1.32,0,0,0,1.42,1,14.1,14.1,0,0,1,2,.16c1,.2,1.11.35,1.11,1.36v4.74c-4.71,2.09-13.26,7.68-13.26,13.62,0,8.43,16.13,8.86,19.36,8.86a30.94,30.94,0,0,0,5.29-.38,4.28,4.28,0,0,0,1.89-1.3c.16-.16.33-.33.52-.5,1.61-1.61,2.26-2.26,1.91-3.11a1.1,1.1,0,0,0-1-.67h-.15c-2.29.17-4.5.26-6.54.26H512V47.79a10.31,10.31,0,0,1,4,2.42,1,1,0,0,0,.76.31,1.3,1.3,0,0,0,1.07-.68l.08-.11a30.2,30.2,0,0,1,2.91-3l0,0,0,0,.07-.07a1.08,1.08,0,0,0,.4-1,1.06,1.06,0,0,0-.61-.81,16.73,16.73,0,0,0-7.59-1.8c-.38,0-.77,0-1.16,0V35.57c0-1.77-.88-3.65-2.53-3.65ZM504.8,61c-4.9-1.07-4.9-3.17-4.9-3.89,0-2.87,2.17-6.46,4.9-8.44V61Z"/><path class="a" d="M544.92,34.31a4.52,4.52,0,0,1,4,4.32c0,5.76-6,8.88-6,15.78a9.85,9.85,0,0,0,8.52,9.66V39.77c.66-.66,8-5.22,9.3-5.22a6.35,6.35,0,0,1,4.08,1c2.34,1.2,7.68,4.38,7.68,11.58,0,10.62-11.64,20-20.76,20-6.18,0-14.82-4.32-14.82-11.58,0-6.72,7.44-11.76,7.44-13.8a2.69,2.69,0,0,0-2.46-2.34,4.54,4.54,0,0,0-2.52.66c-.48.3-1,.3-.6-.18C540,38.27,542.58,34.31,544.92,34.31Zm21.3,14.22a10.57,10.57,0,0,0-9.6-9.54v9.54Zm-.06,3.36h-9.54V63.41C562.08,61.43,565.38,56,566.16,51.89Z"/><path class="j" d="M544.92,34.31a4.52,4.52,0,0,1,4,4.32c0,5.76-6,8.88-6,15.78a9.85,9.85,0,0,0,8.52,9.66V39.77c.66-.66,8-5.22,9.3-5.22h.78a6.5,6.5,0,0,1,3.3,1c2.34,1.2,7.68,4.38,7.68,11.58,0,10.62-11.64,20-20.76,20-6.18,0-14.82-4.32-14.82-11.58,0-6.72,7.44-11.76,7.44-13.8a2.69,2.69,0,0,0-2.46-2.34,4.54,4.54,0,0,0-2.52.66,1.22,1.22,0,0,1-.56.21c-.18,0-.24-.12,0-.39,1.26-1.62,3.84-5.58,6.18-5.58m11.7,14.22h9.6a10.57,10.57,0,0,0-9.6-9.54v9.54m9.54,3.36h-9.54V63.41c5.46-2,8.76-7.44,9.54-11.52M544.92,33.31c-2.53,0-4.86,3.14-6.41,5.22-.2.28-.39.53-.56.75a1.28,1.28,0,0,0-.22,1.38,1.15,1.15,0,0,0,1,.62,2.22,2.22,0,0,0,1.09-.36,3.5,3.5,0,0,1,2-.51,1.73,1.73,0,0,1,1.46,1.34,11.08,11.08,0,0,1-1.91,2.6c-2.2,2.59-5.53,6.5-5.53,11.2,0,8.1,9.36,12.58,15.82,12.58,9.59,0,21.76-9.88,21.76-21,0-3.76-1.43-9-8.22-12.47a7.49,7.49,0,0,0-3.76-1.14h-.78c-1.76,0-9.5,5-10,5.51l-.29.3V62.88a8.92,8.92,0,0,1-6.52-8.47c0-3.31,1.55-5.75,3-8.1s3-4.64,3-7.68a5.5,5.5,0,0,0-5-5.32Zm12.7,14.22V40.15a9.53,9.53,0,0,1,7.43,7.38Zm0,5.36h7.27a15.15,15.15,0,0,1-7.27,9v-9Z"/><path class="a" d="M605.64,58.43A7.43,7.43,0,0,1,598,65.87c-8.76,0-9.6-7.56-9.6-5v2l-3.3,1.8c-.18.12-1.38.9-1.56,1.08-.48.42-.54.42-.48.12a15,15,0,0,0,.12-2V56.39h-.42c-.72,0-5.52.18-6.3.3-2,.36-2.28.3-1.62-.18.42-.3,2.7-2.58,3.54-3.36l.12-.12h4.68V50.87c0-1.44-.42-2-1.92-2.34a14.42,14.42,0,0,0-2.22-.18c-.54,0-.54-.3-.3-.42a58.27,58.27,0,0,0,7.5-4.14c1.32-.78,2.16,1,2.16,2.46V53c1.56-.06,4.92-.18,5.58-.3,2-.36,2.28-.3,1.62.18-.42.3-2.7,2.58-3.54,3.36l-.12.12h-3.3c.6,2.94,2.76,4.68,7,4.68,2.46,0,5.88-1.14,5.88-4.44,0-3.66-4.26-8.1-6.54-7.44-.72.18-1,.12-1-.12a3.17,3.17,0,0,1,.54-.66l2.94-2.7h4.14c.72,0,5.52-.18,6.3-.3,2-.36,2.28-.3,1.62.18-.42.3-2.7,2.58-3.54,3.36l-.12.12H601C598,49.07,605.64,51.83,605.64,58.43Z"/><path class="k" d="M586.89,43.6c1,0,1.53,1.41,1.53,2.65V53c1.56-.06,4.92-.18,5.58-.3a13.13,13.13,0,0,1,1.7-.23c.38,0,.3.14-.08.41s-2.7,2.58-3.54,3.36l-.12.12h-3.3c.6,2.94,2.76,4.68,7,4.68,2.46,0,5.88-1.14,5.88-4.44s-3.7-7.5-6-7.51a1.93,1.93,0,0,0-.49.07,3,3,0,0,1-.66.11c-.24,0-.34-.08-.3-.23a3.17,3.17,0,0,1,.54-.66l2.94-2.7h4.14c.72,0,5.52-.18,6.3-.3a13.36,13.36,0,0,1,1.7-.23c.38,0,.3.14-.08.41S606.84,48.17,606,49l-.12.12H601c-3,0,4.62,2.76,4.62,9.36A7.43,7.43,0,0,1,598,65.87c-7.48,0-9.19-5.52-9.52-5.52-.06,0-.08.16-.08.54v2l-3.3,1.8c-.18.12-1.38.9-1.56,1.08s-.4.33-.46.33-.05-.07,0-.21a15,15,0,0,0,.12-2V56.39h-.42c-.72,0-5.52.18-6.3.3a13.13,13.13,0,0,1-1.7.23c-.38,0-.3-.14.08-.41s2.7-2.58,3.54-3.36l.12-.12h4.68V50.87c0-1.44-.42-2-1.92-2.34a14.42,14.42,0,0,0-2.22-.18c-.54,0-.54-.3-.3-.42a58.27,58.27,0,0,0,7.5-4.14,1.29,1.29,0,0,1,.63-.19m0-1a2.26,2.26,0,0,0-1.14.33l-1.93,1.16A37.89,37.89,0,0,1,578.38,47h0l0,0a1.21,1.21,0,0,0-.67,1.35,1.32,1.32,0,0,0,1.42,1,14.1,14.1,0,0,1,2,.16c1,.2,1.11.35,1.11,1.36V52h-4.1l-.29.3-.12.12-1.35,1.29c-.73.71-1.83,1.79-2.06,2s-.95.69-.69,1.47a1.13,1.13,0,0,0,1.19.75,12.34,12.34,0,0,0,1.88-.25c.56-.08,4.05-.23,5.54-.27V64c0,.56-.05,1.47-.08,1.72h0v.06a1.2,1.2,0,0,0,.2,1l.3.37h.5a1.69,1.69,0,0,0,1.12-.58l0,0,0,0s.3-.23,1.29-.88l.08,0,3.26-1.78.52-.29v-.17a11,11,0,0,0,8.6,3.52,8.45,8.45,0,0,0,8.62-8.44c0-4.08-2.56-6.78-4.24-8.36h3.89l.3-.29.12-.12c.28-.27.8-.76,1.34-1.29.73-.72,1.85-1.8,2.07-2s1-.69.7-1.46a1.14,1.14,0,0,0-1.2-.76,12.12,12.12,0,0,0-1.87.25c-.68.1-5.38.28-6.13.28h-4.53l-.29.26-2.94,2.7a4.5,4.5,0,0,0-.75.95l-.05.1,0,.11a1.18,1.18,0,0,0,.2,1,1.3,1.3,0,0,0,1.07.47,3.81,3.81,0,0,0,.9-.14.81.81,0,0,1,.25,0c1.71,0,5,3.52,5,6.51,0,3.4-4.68,3.44-4.88,3.44-2.9,0-4.75-.88-5.59-2.68h2.35l.29-.29.12-.12,1.34-1.29c.73-.72,1.85-1.8,2.07-2s.95-.69.7-1.46a1.14,1.14,0,0,0-1.2-.76,12.12,12.12,0,0,0-1.87.25c-.47.08-2.89.18-4.41.24V46.25c0-1.77-.88-3.65-2.53-3.65Z"/><path class="a" d="M632.4,58.73c0-2.7-1.56-4.14-4.62-4.14-1.92,0-5.22,2.58-6.9,3.66v4l-3.3,1.8c-.18.12-1.38.9-1.56,1.08-.48.42-.54.42-.48.12a15,15,0,0,0,.12-2V50.39c0-1.44-.42-2-1.92-2.34a14.42,14.42,0,0,0-2.22-.18c-.54,0-.54-.3-.3-.42a58.27,58.27,0,0,0,7.5-4.14c1.32-.78,2.16,1,2.16,2.46V56c2.16-.9,6.18-4,9.42-4,4.68,0,7.92,1.68,7.92,5.94,0,4.62-6.66,6.78-10.8,7.62-.48.12-.72-.06-.36-.24C629,64.37,632.4,62.39,632.4,58.73Z"/><path class="l" d="M619.35,43.12c.95,0,1.53,1.41,1.53,2.65V56c2.16-.9,6.18-4,9.42-4,4.68,0,7.92,1.68,7.92,5.94,0,4.62-6.66,6.78-10.8,7.62a1,1,0,0,1-.28,0c-.28,0-.36-.14-.08-.28,2-1,5.34-3,5.34-6.66,0-2.7-1.56-4.14-4.62-4.14-1.92,0-5.22,2.58-6.9,3.66v4l-3.3,1.8c-.18.12-1.38.9-1.56,1.08s-.4.33-.46.33,0-.07,0-.21a15,15,0,0,0,.12-2V50.39c0-1.44-.42-2-1.92-2.34a14.42,14.42,0,0,0-2.22-.18c-.54,0-.54-.3-.3-.42a58.27,58.27,0,0,0,7.5-4.14,1.29,1.29,0,0,1,.63-.19m0-1a2.26,2.26,0,0,0-1.14.33l-1.94,1.16a37.78,37.78,0,0,1-5.43,2.92h0l0,0a1.21,1.21,0,0,0-.67,1.35,1.32,1.32,0,0,0,1.42,1,13.86,13.86,0,0,1,2,.16c1,.2,1.12.35,1.12,1.36V63.23c0,.56,0,1.47-.08,1.71h0V65a1.17,1.17,0,0,0,.2,1l.3.37h.5a1.71,1.71,0,0,0,1.12-.58l0,0,0,0s.34-.26,1.26-.86l.11-.07,3.26-1.78.52-.29v-4l.69-.47c1.49-1,4-2.73,5.21-2.73,3.21,0,3.62,1.68,3.62,3.14,0,3-2.74,4.71-4.8,5.77a1.15,1.15,0,0,0-.68,1.3,1.17,1.17,0,0,0,1.22.87,2,2,0,0,0,.52-.07c4.29-.87,11.56-3.16,11.56-8.59,0-2.59-1.16-6.94-8.92-6.94-2.54,0-5.33,1.58-7.57,2.86l-.85.48V45.77c0-1.77-.89-3.65-2.53-3.65Z"/><path class="a" d="M646,44.09c2.1-1.38,4.86-.06,4.86,3.24,0,3-4.74,3.84-4.74,9.72,0,3.6,1.74,7,7.8,7,6.78,0,9.6-4.2,10.56-7.38h-6.9v2.52l-3.3,1.8c-.18.12-1.38.9-1.56,1.08-.48.42-.54.42-.48.12a15,15,0,0,0,.12-2V47.57l2-.9c2.52-1.38,5.22-3.6,6.24-3.6,3.06,0,9.24,1.92,9.24,9,0,8.28-8.4,14.1-17.64,14.1-4.38,0-11-1.32-11-7,0-4.86,4.86-6.48,4.68-9.84-.12-2.4-2.22-2.52-3.48-2-.42.18-.48-.06-.24-.24C643.5,46.13,645.24,44.63,646,44.09Zm18.84,9.18c-.42-4.92-4.68-5.88-7.26-5.64v5.64Z"/><path class="m" d="M660.6,43.07c3.06,0,9.24,1.92,9.24,9,0,8.28-8.4,14.1-17.64,14.1-4.38,0-11-1.32-11-7,0-4.86,4.86-6.48,4.68-9.84a2.09,2.09,0,0,0-2.2-2.24,3.36,3.36,0,0,0-1.28.26.56.56,0,0,1-.25.06c-.18,0-.17-.16,0-.3,1.32-1,3.06-2.46,3.78-3a3.23,3.23,0,0,1,1.74-.54c1.63,0,3.12,1.35,3.12,3.78,0,3-4.74,3.84-4.74,9.72,0,3.6,1.74,7,7.8,7,6.78,0,9.6-4.2,10.56-7.38h-6.9v2.52l-3.3,1.8c-.18.12-1.38.9-1.56,1.08s-.4.33-.46.33-.05-.07,0-.21a15,15,0,0,0,.12-2V47.57l2-.9c2.52-1.38,5.22-3.6,6.24-3.6m-3.06,10.2h7.26c-.38-4.47-3.94-5.67-6.52-5.67-.26,0-.51,0-.74,0v5.64m3.06-11.2c-.88,0-1.92.66-3.84,1.93-.89.59-1.9,1.25-2.84,1.77l-2,.89-.13.05a4.09,4.09,0,0,0-6.38-3.46l0,0,0,0c-.3.22-.74.59-1.26,1-.77.63-1.73,1.41-2.51,2a1.23,1.23,0,0,0-.49,1.36,1.09,1.09,0,0,0,1.07.75,1.51,1.51,0,0,0,.64-.14,2.32,2.32,0,0,1,.89-.18c.79,0,1.16.4,1.2,1.29.06,1.16-.74,2.12-1.76,3.34-1.3,1.54-2.92,3.47-2.92,6.45,0,5.91,6.19,8,12,8,10.45,0,18.64-6.63,18.64-15.1,0-7.34-6.12-10-10.24-10Zm-2.06,10.2V48.6a5,5,0,0,1,5.09,3.67Zm-7.27,10.47c-2.81-.66-4.19-2.53-4.19-5.69s1.37-4.49,2.69-5.89a10.3,10.3,0,0,0,1.55-1.95v11a16.9,16.9,0,0,1-.09,1.71h0V62a1.28,1.28,0,0,0,0,.78Zm7.27-5.11H663c-1.09,2.42-3.56,5.38-9.12,5.38l-.78,0,.24-.21,0,0,0,0c.05-.05.34-.26,1.26-.86l.11-.07L658,60l.52-.29V57.63Z"/><path class="a" d="M703,58.43a7.43,7.43,0,0,1-7.62,7.44c-8.76,0-9.6-7.56-9.6-5v2l-3.3,1.8c-.18.12-1.38.9-1.56,1.08-.48.42-.54.42-.48.12a15,15,0,0,0,.12-2V56.39h-.42c-.72,0-5.52.18-6.3.3-2,.36-2.28.3-1.62-.18.42-.3,2.7-2.58,3.54-3.36l.12-.12h4.68V50.87c0-1.44-.42-2-1.92-2.34a14.42,14.42,0,0,0-2.22-.18c-.54,0-.54-.3-.3-.42a58.27,58.27,0,0,0,7.5-4.14c1.32-.78,2.16,1,2.16,2.46V53c1.56-.06,4.92-.18,5.58-.3,2-.36,2.28-.3,1.62.18-.42.3-2.7,2.58-3.54,3.36l-.12.12H686c.6,2.94,2.76,4.68,7,4.68,2.46,0,5.88-1.14,5.88-4.44,0-3.66-4.26-8.1-6.54-7.44-.72.18-1,.12-1-.12a3.17,3.17,0,0,1,.54-.66l2.94-2.7H699c.72,0,5.52-.18,6.3-.3,2-.36,2.28-.3,1.62.18-.42.3-2.7,2.58-3.54,3.36l-.12.12H698.4C695.4,49.07,703,51.83,703,58.43Z"/><path class="k" d="M684.27,43.6c1,0,1.53,1.41,1.53,2.65V53c1.56-.06,4.92-.18,5.58-.3a13.13,13.13,0,0,1,1.7-.23c.38,0,.3.14-.08.41s-2.7,2.58-3.54,3.36l-.12.12H686c.6,2.94,2.76,4.68,7,4.68,2.46,0,5.88-1.14,5.88-4.44s-3.71-7.5-6.06-7.51a1.85,1.85,0,0,0-.48.07,3.06,3.06,0,0,1-.66.11c-.24,0-.34-.08-.3-.23a3.17,3.17,0,0,1,.54-.66l2.94-2.7H699c.72,0,5.52-.18,6.3-.3a13.13,13.13,0,0,1,1.7-.23c.38,0,.3.14-.08.41s-2.7,2.58-3.54,3.36l-.12.12H698.4c-3,0,4.62,2.76,4.62,9.36a7.43,7.43,0,0,1-7.62,7.44c-7.48,0-9.19-5.52-9.52-5.52-.06,0-.08.16-.08.54v2l-3.3,1.8c-.18.12-1.38.9-1.56,1.08s-.4.33-.46.33-.05-.07,0-.21a15,15,0,0,0,.12-2V56.39h-.42c-.72,0-5.52.18-6.3.3a13.13,13.13,0,0,1-1.7.23c-.38,0-.3-.14.08-.41s2.7-2.58,3.54-3.36l.12-.12h4.68V50.87c0-1.44-.42-2-1.92-2.34a14.42,14.42,0,0,0-2.22-.18c-.54,0-.54-.3-.3-.42a58.27,58.27,0,0,0,7.5-4.14,1.26,1.26,0,0,1,.63-.19m0-1a2.23,2.23,0,0,0-1.14.33l-1.93,1.16A37.89,37.89,0,0,1,675.76,47h0l0,0a1.21,1.21,0,0,0-.67,1.35,1.32,1.32,0,0,0,1.42,1,13.86,13.86,0,0,1,2,.16c1,.2,1.12.35,1.12,1.36V52h-4.1l-.29.3-.12.12c-.29.26-.8.76-1.35,1.29-.73.71-1.84,1.79-2.06,2a1.34,1.34,0,0,0-.7,1.47,1.15,1.15,0,0,0,1.2.75,12.12,12.12,0,0,0,1.87-.25c.57-.08,4.06-.23,5.55-.27V64c0,.56-.05,1.47-.09,1.72h0v.06a1.16,1.16,0,0,0,.2,1l.3.37h.5a1.71,1.71,0,0,0,1.12-.58l0,0,0,0c.05,0,.31-.23,1.3-.88l.08,0,3.26-1.78.52-.29v-.17a11,11,0,0,0,8.6,3.52A8.45,8.45,0,0,0,704,58.43c0-4.08-2.57-6.78-4.25-8.36h3.9l.3-.29.12-.12,1.34-1.29c.73-.72,1.84-1.8,2.07-2s1-.69.69-1.46a1.12,1.12,0,0,0-1.19-.76,12.34,12.34,0,0,0-1.88.25c-.67.1-5.38.28-6.12.28h-4.53l-.29.26-2.94,2.7a4.2,4.2,0,0,0-.75.95l0,.1,0,.11a1.14,1.14,0,0,0,.2,1,1.3,1.3,0,0,0,1.07.47,3.89,3.89,0,0,0,.9-.14.8.8,0,0,1,.24,0c1.72,0,5.06,3.52,5.06,6.51,0,3.4-4.68,3.44-4.88,3.44-2.91,0-4.75-.88-5.59-2.68h2.34l.3-.29.12-.12,1.33-1.29c.74-.72,1.85-1.8,2.08-2s.95-.69.7-1.46a1.14,1.14,0,0,0-1.2-.76,12.12,12.12,0,0,0-1.87.25c-.47.08-2.89.18-4.41.24V46.25c0-1.77-.89-3.65-2.53-3.65Z"/><path class="a" d="M722.58,45.59v-5.4c0-1.44-.42-2-1.92-2.34a14.42,14.42,0,0,0-2.22-.18c-.54,0-.54-.3-.3-.42a58.27,58.27,0,0,0,7.5-4.14c1.32-.78,2.16,1,2.16,2.46v8.64a16,16,0,0,1,9.3,1.56c.12.06.06.06-.12.24a30.21,30.21,0,0,0-3.06,3.12c-.18.24-.3.48-.42.36a11.44,11.44,0,0,0-5.7-3v16.2c2.4.06,5.16,0,8.4-.24.6-.06-.48,1-1.5,2-.78.72-1.38,1.44-1.92,1.56-5,1-23.46.48-23.46-7.5C709.32,53.09,718,47.45,722.58,45.59Zm0,16.62V46.91c-3.54,1.68-6.9,6.3-6.9,10.2C715.68,59.63,717.72,61.43,722.58,62.21Z"/><path class="i" d="M726.27,32.92c1,0,1.53,1.41,1.53,2.65v8.64a18.36,18.36,0,0,1,2.16-.13,15.89,15.89,0,0,1,7.14,1.69c.12.06.06.06-.12.24a30.21,30.21,0,0,0-3.06,3.12c-.15.2-.25.39-.35.39a.09.09,0,0,1-.07,0,11.44,11.44,0,0,0-5.7-3v16.2l1.76,0c2,0,4.16-.08,6.64-.26h0c.5,0-.55,1-1.54,2-.78.72-1.38,1.44-1.92,1.56a29.49,29.49,0,0,1-5.1.36c-7.32,0-18.36-1.68-18.36-7.86,0-5.46,8.7-11.1,13.26-13v-5.4c0-1.44-.42-2-1.92-2.34a14.42,14.42,0,0,0-2.22-.18c-.54,0-.54-.3-.3-.42a58.27,58.27,0,0,0,7.5-4.14,1.26,1.26,0,0,1,.63-.19m-3.69,29.29V46.91c-3.54,1.68-6.9,6.3-6.9,10.2,0,2.52,2,4.32,6.9,5.1m3.69-30.29h0a2.23,2.23,0,0,0-1.14.33l-1.93,1.16a37.89,37.89,0,0,1-5.44,2.92h0l0,0a1.21,1.21,0,0,0-.67,1.35,1.32,1.32,0,0,0,1.42,1,13.86,13.86,0,0,1,2,.16c1,.2,1.12.35,1.12,1.36v4.74c-4.71,2.09-13.26,7.68-13.26,13.62,0,8.43,16.13,8.86,19.36,8.86A30.94,30.94,0,0,0,733,67a4.25,4.25,0,0,0,1.88-1.3l.53-.5c1.61-1.61,2.26-2.26,1.91-3.11a1.1,1.1,0,0,0-1-.67h-.14c-2.29.17-4.5.26-6.54.26h-.76V47.79a10.46,10.46,0,0,1,4,2.42,1,1,0,0,0,.76.31,1.31,1.31,0,0,0,1.07-.68l.08-.11a29.11,29.11,0,0,1,2.91-3l0,0,0,0,.07-.07a1.05,1.05,0,0,0,.39-1,1,1,0,0,0-.6-.81,16.73,16.73,0,0,0-7.59-1.8c-.38,0-.77,0-1.16,0V35.57c0-1.77-.89-3.65-2.53-3.65ZM721.58,61c-4.9-1.07-4.9-3.17-4.9-3.89,0-2.87,2.16-6.46,4.9-8.44V61Z"/><path class="a" d="M751.14,43.07c7.56,0,11.58,4.56,12.18,9.48,1.62-.06,3.6-.18,4.08-.24,2-.36,2.28-.3,1.62.18-.42.3-2.7,2.58-3.54,3.36l-.12.12h-2.22c-1.56,6.66-10,9.42-14.4,9.72-.72.06-.6-.42,0-.66,4.8-2.1,8.16-4.08,8.46-9.06h-2.64c-.72,0-5.52.18-6.3.3-2,.36-2.28.3-1.62-.18.42-.3,2.7-2.58,3.54-3.36l.12-.12h6.78c-.72-5.34-3.9-7.62-7.08-7.62-4.32,0-7.08,2.7-7.08,4.68,0,.48-.12.66-.3.72a11.25,11.25,0,0,0-3.72,1.92c-.3.24-.72.48-.48-.24C739.08,50.27,742.26,43.07,751.14,43.07Z"/><path class="d" d="M751.14,43.07c7.56,0,11.58,4.56,12.18,9.48,1.62-.06,3.6-.18,4.08-.24a13.13,13.13,0,0,1,1.7-.23c.38,0,.29.14-.08.41s-2.7,2.58-3.54,3.36l-.12.12h-2.22c-1.56,6.66-10,9.42-14.4,9.72h-.12c-.59,0-.45-.43.12-.66,4.8-2.1,8.16-4.08,8.46-9.06h-2.64c-.72,0-5.52.18-6.3.3a13.36,13.36,0,0,1-1.7.23c-.38,0-.3-.14.08-.41s2.7-2.58,3.54-3.36l.12-.12h6.78c-.72-5.34-3.9-7.62-7.08-7.62-4.32,0-7.08,2.7-7.08,4.68,0,.48-.12.66-.3.72a11.25,11.25,0,0,0-3.72,1.92,1,1,0,0,1-.44.24c-.12,0-.16-.12,0-.48.66-1.8,3.84-9,12.72-9m0-1c-9.63,0-13.07,8-13.66,9.66a1.47,1.47,0,0,0,.08,1.37,1.1,1.1,0,0,0,.9.45,1.66,1.66,0,0,0,1.06-.46A10.31,10.31,0,0,1,743,51.34a1.55,1.55,0,0,0,1-1.67c0-1.25,2.14-3.68,6.08-3.68,2.3,0,5,1.5,5.88,5.62h-6l-.3.29-.12.12-1.33,1.28c-.74.72-1.86,1.81-2.08,2s-.95.69-.7,1.46a1.14,1.14,0,0,0,1.2.76,13,13,0,0,0,1.87-.24c.67-.11,5.38-.29,6.13-.29h1.52c-.6,3.43-3.07,5.1-7.74,7.14a1.5,1.5,0,0,0-1.08,1.6,1.28,1.28,0,0,0,1.36,1h.2c4.85-.34,13-3.27,15.08-9.72h1.87l.29-.29.12-.12c.29-.27.8-.76,1.34-1.29.74-.72,1.85-1.8,2.08-2s.95-.69.69-1.46a1.12,1.12,0,0,0-1.19-.76,12.34,12.34,0,0,0-1.88.25c-.31,0-1.68.12-3.06.18-1-4.83-5.28-9.44-13-9.44Z"/><path class="a" d="M774.12,47.75a14.42,14.42,0,0,0-2.22-.18c-.54,0-.54-.3-.3-.42A58.27,58.27,0,0,0,779.1,43c1.32-.78,2.16,1,2.16,2.46v9.72a12.66,12.66,0,0,1,9.24-3.66c3.18,0,7.92,2.52,7.92,6.54,0,3-2.7,5.34-6.06,6.24v3.18c0,5.4,1.5,7.38,4,7.38a6.27,6.27,0,0,0,4.62-2.46c.3-.36.66.06.48.48-.9,1.92-3.9,5-6.78,5-4.74,0-7.5-3.06-7.5-9.12V64.55l-1-.24c-.78-.24-1-.72,0-.9,1.32-.18,6.12-.48,6.12-4.68,0-2.46-1.68-4.68-3.9-4.68-2.76,0-5.82,3.36-7.14,5.34v3.42l-3.3,1.8c-.18.12-1.38.9-1.56,1.08-.48.42-.54.42-.48.12a15,15,0,0,0,.12-2V50.09C776,48.65,775.62,48.05,774.12,47.75Z"/><path class="g" d="M779.73,42.82c.95,0,1.53,1.41,1.53,2.65v9.72a12.66,12.66,0,0,1,9.24-3.66c3.18,0,7.92,2.52,7.92,6.54,0,3-2.7,5.34-6.06,6.24v3.18c0,5.4,1.5,7.38,4,7.38a6.27,6.27,0,0,0,4.62-2.46.31.31,0,0,1,.24-.14c.21,0,.37.31.24.62-.9,1.92-3.9,5-6.78,5-4.74,0-7.5-3.06-7.5-9.12V64.55l-1-.24c-.78-.24-1-.72,0-.9,1.32-.18,6.12-.48,6.12-4.68,0-2.46-1.68-4.68-3.9-4.68-2.76,0-5.82,3.36-7.14,5.34v3.42l-3.3,1.8c-.18.12-1.38.9-1.56,1.08s-.4.33-.46.33-.05-.07,0-.21a15,15,0,0,0,.12-2V50.09c0-1.44-.42-2-1.92-2.34a14.42,14.42,0,0,0-2.22-.18c-.54,0-.54-.3-.3-.42A58.27,58.27,0,0,0,779.1,43a1.26,1.26,0,0,1,.63-.19m0-1h0a2.23,2.23,0,0,0-1.14.33c-.69.4-1.33.79-1.94,1.17a39.3,39.3,0,0,1-5.43,2.91h0l0,0a1.21,1.21,0,0,0-.67,1.35,1.31,1.31,0,0,0,1.42,1,13.86,13.86,0,0,1,2,.16c1,.2,1.12.35,1.12,1.36V63.83a16.9,16.9,0,0,1-.09,1.71h0v.06a1.16,1.16,0,0,0,.2,1l.3.37h.5a1.73,1.73,0,0,0,1.12-.58l0,0,0,0s.29-.23,1.28-.88l.08,0,3.27-1.78.52-.29V59.7c1.33-1.9,4-4.65,6.14-4.65,1.57,0,2.9,1.69,2.9,3.68,0,2.69-2.5,3.35-4.95,3.65l-.31,0c-1.29.23-1.51.92-1.54,1.31s0,1.12,1.38,1.54h0l.21,0v3.48c0,6.43,3.1,10.12,8.5,10.12,3.25,0,6.61-3.32,7.68-5.62a1.53,1.53,0,0,0-.09-1.46,1.27,1.27,0,0,0-1.05-.58,1.31,1.31,0,0,0-1,.5,5.33,5.33,0,0,1-3.85,2.1c-.81,0-3,0-3-6.38V65.05c3.7-1.23,6.06-3.91,6.06-7,0-4.67-5.2-7.54-8.92-7.54A14.45,14.45,0,0,0,782.26,53V45.47c0-1.77-.89-3.65-2.53-3.65Z"/><path class="a" d="M815.46,43.07c7.56,0,11.58,4.56,12.18,9.48,1.62-.06,3.6-.18,4.08-.24,2-.36,2.28-.3,1.62.18-.42.3-2.7,2.58-3.54,3.36l-.12.12h-2.22c-1.56,6.66-10,9.42-14.4,9.72-.72.06-.6-.42,0-.66,4.8-2.1,8.16-4.08,8.46-9.06h-2.64c-.72,0-5.52.18-6.3.3-2,.36-2.28.3-1.62-.18.42-.3,2.7-2.58,3.54-3.36l.12-.12h6.78c-.72-5.34-3.9-7.62-7.08-7.62-4.32,0-7.08,2.7-7.08,4.68,0,.48-.12.66-.3.72a11.25,11.25,0,0,0-3.72,1.92c-.3.24-.72.48-.48-.24C803.4,50.27,806.58,43.07,815.46,43.07Z"/><path class="d" d="M815.46,43.07c7.56,0,11.58,4.56,12.18,9.48,1.62-.06,3.6-.18,4.08-.24a12.92,12.92,0,0,1,1.7-.23c.38,0,.29.14-.08.41s-2.7,2.58-3.54,3.36l-.12.12h-2.22c-1.56,6.66-10,9.42-14.4,9.72h-.12c-.59,0-.45-.43.12-.66,4.8-2.1,8.16-4.08,8.46-9.06h-2.64c-.72,0-5.52.18-6.3.3a13.36,13.36,0,0,1-1.7.23c-.38,0-.3-.14.08-.41s2.7-2.58,3.54-3.36l.12-.12h6.78c-.72-5.34-3.9-7.62-7.08-7.62-4.32,0-7.08,2.7-7.08,4.68,0,.48-.12.66-.3.72a11.25,11.25,0,0,0-3.72,1.92,1,1,0,0,1-.44.24c-.12,0-.16-.12,0-.48.66-1.8,3.84-9,12.72-9m0-1c-9.63,0-13.07,8-13.66,9.66a1.47,1.47,0,0,0,.08,1.37,1.1,1.1,0,0,0,.9.45,1.66,1.66,0,0,0,1.06-.46,10.35,10.35,0,0,1,3.42-1.75,1.54,1.54,0,0,0,1-1.67c0-1.25,2.14-3.68,6.08-3.68,2.3,0,4.95,1.5,5.88,5.62h-6l-.3.29-.12.12-1.33,1.28c-.74.72-1.86,1.81-2.08,2s-1,.69-.7,1.46a1.14,1.14,0,0,0,1.2.76,13,13,0,0,0,1.87-.24c.67-.11,5.38-.29,6.13-.29h1.52c-.6,3.43-3.07,5.1-7.74,7.14a1.5,1.5,0,0,0-1.08,1.6,1.28,1.28,0,0,0,1.36,1h.2c4.84-.34,13-3.27,15.08-9.72h1.87l.29-.29.12-.12c.29-.27.8-.76,1.34-1.29.74-.72,1.85-1.8,2.08-2s1-.69.69-1.46a1.13,1.13,0,0,0-1.19-.76,12.19,12.19,0,0,0-1.88.25c-.31,0-1.68.12-3.06.18-1-4.83-5.28-9.44-13-9.44Z"/><path class="a" d="M849.9,45.59v-5.4c0-1.44-.42-2-1.92-2.34a14.42,14.42,0,0,0-2.22-.18c-.54,0-.54-.3-.3-.42a58.27,58.27,0,0,0,7.5-4.14c1.32-.78,2.16,1,2.16,2.46v8.64a16,16,0,0,1,9.3,1.56c.12.06.06.06-.12.24a30.21,30.21,0,0,0-3.06,3.12c-.18.24-.3.48-.42.36a11.44,11.44,0,0,0-5.7-3v16.2c2.4.06,5.16,0,8.4-.24.6-.06-.48,1-1.5,2-.78.72-1.38,1.44-1.92,1.56-5,1-23.46.48-23.46-7.5C836.64,53.09,845.34,47.45,849.9,45.59Zm0,16.62V46.91c-3.54,1.68-6.9,6.3-6.9,10.2C843,59.63,845,61.43,849.9,62.21Z"/><path class="i" d="M853.59,32.92c.95,0,1.53,1.41,1.53,2.65v8.64a18.23,18.23,0,0,1,2.16-.13,15.92,15.92,0,0,1,7.14,1.69c.12.06.06.06-.12.24a30.21,30.21,0,0,0-3.06,3.12c-.15.2-.26.39-.36.39l-.06,0a11.44,11.44,0,0,0-5.7-3v16.2l1.76,0c2,0,4.16-.08,6.64-.26h0c.5,0-.55,1-1.54,2-.78.72-1.38,1.44-1.92,1.56a29.49,29.49,0,0,1-5.1.36c-7.33,0-18.36-1.68-18.36-7.86,0-5.46,8.7-11.1,13.26-13v-5.4c0-1.44-.42-2-1.92-2.34a14.42,14.42,0,0,0-2.22-.18c-.54,0-.54-.3-.3-.42a58.27,58.27,0,0,0,7.5-4.14,1.23,1.23,0,0,1,.63-.19M849.9,62.21V46.91c-3.54,1.68-6.9,6.3-6.9,10.2,0,2.52,2,4.32,6.9,5.1m3.69-30.29h0a2.2,2.2,0,0,0-1.14.33c-.69.4-1.32.79-1.94,1.16a38.32,38.32,0,0,1-5.43,2.92h0l0,0a1.23,1.23,0,0,0-.68,1.35,1.34,1.34,0,0,0,1.43,1,14,14,0,0,1,2,.16c1,.2,1.12.35,1.12,1.36v4.74c-4.71,2.09-13.26,7.68-13.26,13.62,0,8.43,16.13,8.86,19.36,8.86a30.81,30.81,0,0,0,5.28-.38,4.17,4.17,0,0,0,1.89-1.31l.52-.5c1.61-1.6,2.27-2.25,1.92-3.1a1.12,1.12,0,0,0-1.05-.67h-.14c-2.3.17-4.51.26-6.54.26h-.76V47.79a10.46,10.46,0,0,1,4,2.42,1,1,0,0,0,.75.31,1.32,1.32,0,0,0,1.08-.68l.08-.11a29,29,0,0,1,2.9-3l0,0,0,0,.08-.07a1.05,1.05,0,0,0,.39-1,1,1,0,0,0-.61-.81,16.69,16.69,0,0,0-7.58-1.8c-.38,0-.77,0-1.16,0V35.57c0-1.77-.89-3.65-2.53-3.65ZM848.9,61c-4.9-1.07-4.9-3.17-4.9-3.89,0-2.87,2.16-6.46,4.9-8.44V61Z"/><path d="M276,44.75a23.76,23.76,0,0,1,5.76.66V41.93c0-1.44-.42-2-1.92-2.34a14.42,14.42,0,0,0-2.22-.18c-.54,0-.54-.3-.3-.42a58.27,58.27,0,0,0,7.5-4.14c1.32-.78,2.16,1,2.16,2.46v27.6l-3.3,1.8c-.18.12-1.38.9-1.56,1.08-.48.42-.54.42-.48.12a15,15,0,0,0,.12-2V53c0-3.66-4.92-5.16-8-5.16s-7.56,1.44-11.46,4.5c-.54.42-1.08,0-.72-.54C262.92,49.79,267.06,44.75,276,44.75Z"/><path d="M292.38,39.53a14.42,14.42,0,0,0-2.22-.18c-.54,0-.54-.3-.3-.42a58.27,58.27,0,0,0,7.5-4.14c1.32-.78,2.16,1,2.16,2.46v16.5c2.76-.72,9.12-4,9.12-5.82a2.64,2.64,0,0,0-1.44-2.28c-.36-.18-.42-.54.24-.54a21.9,21.9,0,0,0,5.58-.72c.6-.12.72.06.72,1.14,0,3.54-5.94,6.72-10.5,8.82h6.3a50.28,50.28,0,0,0,5.64-.48c.9,0,1.44,1.5,1.44,3.06,0,4.92-7.2,9.06-11.82,10.5-.6.18-.72-.06-.3-.36,2.64-1.68,6.3-5.4,6.3-9v-.36H299.52v7.14l-3.3,1.8c-.18.12-1.38.9-1.56,1.08-.48.42-.54.42-.48.12a15,15,0,0,0,.12-2v-24C294.3,40.43,293.88,39.83,292.38,39.53Z"/><path d="M331.5,43.07c7.56,0,11.58,4.56,12.18,9.48,1.62-.06,3.6-.18,4.08-.24,2-.36,2.28-.3,1.62.18-.42.3-2.7,2.58-3.54,3.36l-.12.12H343.5c-1.56,6.66-10,9.42-14.4,9.72-.72.06-.6-.42,0-.66,4.8-2.1,8.16-4.08,8.46-9.06h-2.64c-.72,0-5.52.18-6.3.3-2,.36-2.28.3-1.62-.18.42-.3,2.7-2.58,3.54-3.36l.12-.12h6.78c-.72-5.34-3.9-7.62-7.08-7.62-4.32,0-7.08,2.7-7.08,4.68,0,.48-.12.66-.3.72a11.25,11.25,0,0,0-3.72,1.92c-.3.24-.72.48-.48-.24C319.44,50.27,322.62,43.07,331.5,43.07Z"/><path d="M384.36,39.59a14.42,14.42,0,0,0-2.22-.18c-.54,0-.54-.3-.3-.42a58.27,58.27,0,0,0,7.5-4.14c1.32-.78,2.16,1,2.16,2.46v19a38.6,38.6,0,0,1-.42,5.94c2.82,1.38,7.26,0,8.52-1.68s1.32-4.8,1.32-11.58V41.93c0-1.44-.42-2-1.92-2.34a14.42,14.42,0,0,0-2.22-.18c-.54,0-.54-.3-.3-.42a58.27,58.27,0,0,0,7.5-4.14c1.32-.78,2.16,1,2.16,2.46V55.07c0,9.6-3.12,12.66-6.78,12.66-3.06,0-5.52-2.28-8.58-4.2-1,3.36-2.7,4.08-4.44,4.08-3.72,0-7.92-4.08-10.32-5v1.68l-3.3,1.8c-.18.12-1.38.9-1.56,1.08-.48.42-.54.42-.48.12a15,15,0,0,0,.12-2V41.93c0-1.44-.42-2-1.92-2.34a14.42,14.42,0,0,0-2.22-.18c-.54,0-.54-.3-.3-.42a58.27,58.27,0,0,0,7.5-4.14c1.32-.78,2.16,1,2.16,2.46V61c2.22,1.08,4.86,2.88,7.56,1.2s2.7-3.84,2.7-13.2V41.93C386.28,40.49,385.86,39.89,384.36,39.59Z"/><path d="M411.48,62.15c-4.5-5.82-1.68-11.76,1.68-15.3,3.54-4,8.1-5.58,13.62-2.58,4.86,2.7,7.38,9.54,2.22,16.32C423.3,68.09,414.6,66.23,411.48,62.15ZM424,48.41c-3.48-2.64-7.5-2.94-9.3-1.08-2.46,2.58-1.56,8.28.66,11.16,2.64,3.42,8.7,5,10.8,3C429.72,58,427.2,50.93,424,48.41Z"/><path d="M435.42,47.75a14.42,14.42,0,0,0-2.22-.18c-.54,0-.54-.3-.3-.42A58.27,58.27,0,0,0,440.4,43c1.32-.78,2.16,1,2.16,2.46v9.72a12.66,12.66,0,0,1,9.24-3.66c3.18,0,7.92,2.52,7.92,6.54,0,3-2.7,5.34-6.06,6.24v3.18c0,5.4,1.5,7.38,4,7.38a6.27,6.27,0,0,0,4.62-2.46c.3-.36.66.06.48.48-.9,1.92-3.9,5-6.78,5-4.74,0-7.5-3.06-7.5-9.12V64.55l-1-.24c-.78-.24-1-.72,0-.9,1.32-.18,6.12-.48,6.12-4.68,0-2.46-1.68-4.68-3.9-4.68-2.76,0-5.82,3.36-7.14,5.34v3.42l-3.3,1.8c-.18.12-1.38.9-1.56,1.08-.48.42-.54.42-.48.12a15,15,0,0,0,.12-2V50.09C437.34,48.65,436.92,48.05,435.42,47.75Z"/><path d="M470,39.59a14.42,14.42,0,0,0-2.22-.18c-.54,0-.54-.3-.3-.42a58.27,58.27,0,0,0,7.5-4.14c1.32-.78,2.16,1,2.16,2.46V54.47c1.26-.06,5.28-.18,6-.3,2-.36,2.28-.3,1.62.18-.42.3-2.7,2.58-3.54,3.36l-.12.12h-4v7.44h2.22c.72,0,5.52-.18,6.3-.3,2-.36,2.28-.3,1.62.18-.42.3-2.7,2.58-3.54,3.36l-.12.12H471.9V57.83c-1.26.06-5.28.18-6,.3-2,.36-2.28.3-1.62-.18.42-.3,2.7-2.58,3.54-3.36l.12-.12h4V41.93C471.9,40.49,471.48,39.89,470,39.59Z"/><path d="M502.92,45.59v-5.4c0-1.44-.42-2-1.92-2.34a14.42,14.42,0,0,0-2.22-.18c-.54,0-.54-.3-.3-.42a58.27,58.27,0,0,0,7.5-4.14c1.32-.78,2.16,1,2.16,2.46v8.64a16,16,0,0,1,9.3,1.56c.12.06.06.06-.12.24a30.21,30.21,0,0,0-3.06,3.12c-.18.24-.3.48-.42.36a11.44,11.44,0,0,0-5.7-3v16.2c2.4.06,5.16,0,8.4-.24.6-.06-.48,1-1.5,2-.78.72-1.38,1.44-1.92,1.56-5,1-23.46.48-23.46-7.5C489.66,53.09,498.36,47.45,502.92,45.59Zm0,16.62V46.91c-3.54,1.68-6.9,6.3-6.9,10.2C496,59.63,498.06,61.43,502.92,62.21Z"/><path d="M542,34.31a4.52,4.52,0,0,1,4,4.32c0,5.76-6,8.88-6,15.78a9.85,9.85,0,0,0,8.52,9.66V39.77c.66-.66,8-5.22,9.3-5.22a6.35,6.35,0,0,1,4.08,1c2.34,1.2,7.68,4.38,7.68,11.58,0,10.62-11.64,20-20.76,20-6.18,0-14.82-4.32-14.82-11.58,0-6.72,7.44-11.76,7.44-13.8A2.69,2.69,0,0,0,539,39.41a4.54,4.54,0,0,0-2.52.66c-.48.3-1,.3-.6-.18C537.12,38.27,539.7,34.31,542,34.31Zm21.3,14.22a10.57,10.57,0,0,0-9.6-9.54v9.54Zm-.06,3.36h-9.54V63.41C559.2,61.43,562.5,56,563.28,51.89Z"/><path d="M602.76,58.43a7.43,7.43,0,0,1-7.62,7.44c-8.76,0-9.6-7.56-9.6-5v2l-3.3,1.8c-.18.12-1.38.9-1.56,1.08-.48.42-.54.42-.48.12a15,15,0,0,0,.12-2V56.39h-.42c-.72,0-5.52.18-6.3.3-2,.36-2.28.3-1.62-.18.42-.3,2.7-2.58,3.54-3.36l.12-.12h4.68V50.87c0-1.44-.42-2-1.92-2.34a14.42,14.42,0,0,0-2.22-.18c-.54,0-.54-.3-.3-.42a58.27,58.27,0,0,0,7.5-4.14c1.32-.78,2.16,1,2.16,2.46V53c1.56-.06,4.92-.18,5.58-.3,2-.36,2.28-.3,1.62.18-.42.3-2.7,2.58-3.54,3.36l-.12.12h-3.3c.6,2.94,2.76,4.68,7,4.68,2.46,0,5.88-1.14,5.88-4.44,0-3.66-4.26-8.1-6.54-7.44-.72.18-1,.12-1-.12a3.17,3.17,0,0,1,.54-.66l2.94-2.7h4.14c.72,0,5.52-.18,6.3-.3,2-.36,2.28-.3,1.62.18-.42.3-2.7,2.58-3.54,3.36l-.12.12h-4.86C595.14,49.07,602.76,51.83,602.76,58.43Z"/><path d="M629.52,58.73c0-2.7-1.56-4.14-4.62-4.14-1.92,0-5.22,2.58-6.9,3.66v4L614.7,64c-.18.12-1.38.9-1.56,1.08-.48.42-.54.42-.48.12a15,15,0,0,0,.12-2V50.39c0-1.44-.42-2-1.92-2.34a14.42,14.42,0,0,0-2.22-.18c-.54,0-.54-.3-.3-.42a58.27,58.27,0,0,0,7.5-4.14c1.32-.78,2.16,1,2.16,2.46V56c2.16-.9,6.18-4,9.42-4,4.68,0,7.92,1.68,7.92,5.94,0,4.62-6.66,6.78-10.8,7.62-.48.12-.72-.06-.36-.24C626.16,64.37,629.52,62.39,629.52,58.73Z"/><path d="M643.08,44.09c2.1-1.38,4.86-.06,4.86,3.24,0,3-4.74,3.84-4.74,9.72,0,3.6,1.74,7,7.8,7,6.78,0,9.59-4.2,10.55-7.38h-6.89v2.52l-3.3,1.8c-.18.12-1.38.9-1.56,1.08-.48.42-.54.42-.48.12a15,15,0,0,0,.12-2V47.57l2-.9c2.52-1.38,5.22-3.6,6.23-3.6,3.07,0,9.25,1.92,9.25,9,0,8.28-8.4,14.1-17.64,14.1-4.38,0-11-1.32-11-7,0-4.86,4.86-6.48,4.68-9.84-.12-2.4-2.22-2.52-3.48-2-.42.18-.48-.06-.24-.24C640.62,46.13,642.36,44.63,643.08,44.09Zm18.84,9.18c-.42-4.92-4.68-5.88-7.26-5.64v5.64Z"/><path d="M698.93,58.43a7.42,7.42,0,0,1-7.61,7.44c-8.76,0-9.6-7.56-9.6-5v2l-3.3,1.8c-.18.12-1.38.9-1.56,1.08-.48.42-.54.42-.48.12a15,15,0,0,0,.12-2V56.39h-.42c-.72,0-5.52.18-6.3.3-2,.36-2.28.3-1.62-.18.42-.3,2.7-2.58,3.54-3.36l.12-.12h4.68V50.87c0-1.44-.42-2-1.92-2.34a14.42,14.42,0,0,0-2.22-.18c-.54,0-.54-.3-.3-.42a58.27,58.27,0,0,0,7.5-4.14c1.32-.78,2.16,1,2.16,2.46V53c1.56-.06,4.92-.18,5.57-.3,2-.36,2.29-.3,1.63.18-.42.3-2.71,2.58-3.54,3.36l-.13.12H682c.6,2.94,2.76,4.68,7,4.68,2.46,0,5.87-1.14,5.87-4.44,0-3.66-4.25-8.1-6.54-7.44-.71.18-1,.12-1-.12a4.06,4.06,0,0,1,.54-.66l2.95-2.7h4.14c.71,0,5.51-.18,6.29-.3,2-.36,2.28-.3,1.62.18-.41.3-2.7,2.58-3.54,3.36l-.12.12h-4.85C691.32,49.07,698.93,51.83,698.93,58.43Z"/><path d="M716.1,45.59v-5.4c0-1.44-.42-2-1.92-2.34a14.42,14.42,0,0,0-2.22-.18c-.54,0-.54-.3-.3-.42a58.27,58.27,0,0,0,7.5-4.14c1.32-.78,2.16,1,2.16,2.46v8.64a16,16,0,0,1,9.3,1.56c.12.06,0,.06-.12.24a30.28,30.28,0,0,0-3.07,3.12c-.18.24-.3.48-.42.36a11.36,11.36,0,0,0-5.69-3v16.2c2.39.06,5.16,0,8.39-.24.61-.06-.47,1-1.5,2-.78.72-1.38,1.44-1.92,1.56-5,1-23.45.48-23.45-7.5C702.84,53.09,711.54,47.45,716.1,45.59Zm0,16.62V46.91c-3.54,1.68-6.9,6.3-6.9,10.2C709.2,59.63,711.24,61.43,716.1,62.21Z"/><path d="M742.86,43.07c7.56,0,11.57,4.56,12.18,9.48,1.61-.06,3.59-.18,4.07-.24,2-.36,2.28-.3,1.62.18-.42.3-2.7,2.58-3.54,3.36l-.12.12h-2.22c-1.56,6.66-10,9.42-14.39,9.72-.72.06-.6-.42,0-.66,4.79-2.1,8.16-4.08,8.46-9.06h-2.64c-.73,0-5.53.18-6.3.3-2,.36-2.28.3-1.62-.18.42-.3,2.7-2.58,3.54-3.36l.12-.12h6.77c-.71-5.34-3.89-7.62-7.08-7.62-4.31,0-7.07,2.7-7.07,4.68,0,.48-.12.66-.3.72a11.25,11.25,0,0,0-3.72,1.92c-.3.24-.72.48-.48-.24C730.8,50.27,734,43.07,742.86,43.07Z"/><path d="M764.63,47.75a14.2,14.2,0,0,0-2.21-.18c-.54,0-.54-.3-.3-.42a58.94,58.94,0,0,0,7.5-4.14c1.31-.78,2.15,1,2.15,2.46v9.72A12.66,12.66,0,0,1,781,51.53c3.18,0,7.92,2.52,7.92,6.54,0,3-2.7,5.34-6.06,6.24v3.18c0,5.4,1.5,7.38,4,7.38a6.27,6.27,0,0,0,4.62-2.46c.3-.36.66.06.48.48-.9,1.92-3.9,5-6.78,5-4.74,0-7.5-3.06-7.5-9.12V64.55l-1-.24c-.77-.24-1-.72,0-.9,1.32-.18,6.12-.48,6.12-4.68,0-2.46-1.68-4.68-3.9-4.68-2.76,0-5.82,3.36-7.14,5.34v3.42l-3.3,1.8c-.18.12-1.38.9-1.55,1.08-.49.42-.54.42-.49.12a13.45,13.45,0,0,0,.12-2V50.09C766.55,48.65,766.13,48.05,764.63,47.75Z"/><path d="M803.58,43.07c7.55,0,11.57,4.56,12.17,9.48,1.62-.06,3.6-.18,4.08-.24,2-.36,2.28-.3,1.62.18-.42.3-2.7,2.58-3.54,3.36l-.12.12h-2.22c-1.56,6.66-10,9.42-14.4,9.72-.71.06-.59-.42,0-.66,4.8-2.1,8.16-4.08,8.46-9.06H807c-.73,0-5.53.18-6.3.3-2,.36-2.28.3-1.62-.18.42-.3,2.7-2.58,3.54-3.36l.12-.12h6.77c-.72-5.34-3.89-7.62-7.08-7.62-4.31,0-7.07,2.7-7.07,4.68,0,.48-.12.66-.3.72a11.41,11.41,0,0,0-3.73,1.92c-.29.24-.71.48-.47-.24C791.52,50.27,794.7,43.07,803.58,43.07Z"/><path d="M838,45.59v-5.4c0-1.44-.42-2-1.92-2.34a14.3,14.3,0,0,0-2.21-.18c-.55,0-.55-.3-.31-.42a58.27,58.27,0,0,0,7.5-4.14c1.32-.78,2.16,1,2.16,2.46v8.64a16,16,0,0,1,9.3,1.56c.12.06.06.06-.12.24a30.21,30.21,0,0,0-3.06,3.12c-.18.24-.3.48-.42.36a11.44,11.44,0,0,0-5.7-3v16.2c2.4.06,5.16,0,8.4-.24.6-.06-.48,1-1.5,2-.78.72-1.38,1.44-1.92,1.56-5,1-23.46.48-23.46-7.5C824.75,53.09,833.46,47.45,838,45.59Zm0,16.62V46.91c-3.54,1.68-6.9,6.3-6.9,10.2C831.11,59.63,833.15,61.43,838,62.21Z"/></svg>