<svg xmlns="http://www.w3.org/2000/svg" xmlns:xlink="http://www.w3.org/1999/xlink" viewBox="0 0 1125 155"><defs><style>.a{fill:#fff;}.b{fill:url(#a);}.c{fill:url(#b);}</style><radialGradient id="a" cx="573.4" cy="15.9" r="83.16" gradientUnits="userSpaceOnUse"><stop offset="0" stop-color="#faaffa"/><stop offset="0.25" stop-color="#f2f279"/><stop offset="0.45" stop-color="#4cfff0"/><stop offset="0.6" stop-color="#5fcc29"/><stop offset="0.9" stop-color="#0045a6"/><stop offset="1" stop-color="#001466"/></radialGradient><radialGradient id="b" cx="675.8" cy="108.7" r="52" xlink:href="#a"/></defs><path class="a" d="M306.19,32.49a14.42,14.42,0,0,0-2.22-.18c-.54,0-.54-.3-.3-.42a58.27,58.27,0,0,0,7.5-4.14c1.32-.78,2.16,1,2.16,2.46v14a20.86,20.86,0,0,1,9.24-2,16.7,16.7,0,0,1,12.24,5.58c.24.24.06.36-.12.48A20.6,20.6,0,0,0,330,52.71c-.24.36-.42.48-.6.06-1.14-2.52-3.78-7.8-9.18-7.8-3.12,0-6.84,1.74-6.84,5.64v7.2l-3.3,1.8c-.18.12-1.38.9-1.56,1.08-.48.42-.54.42-.48.12a15,15,0,0,0,.12-2v-24C308.11,33.39,307.69,32.79,306.19,32.49Z"/><path class="a" d="M339.67,40.47a14.42,14.42,0,0,0-2.22-.18c-.54,0-.54-.3-.3-.42a58.27,58.27,0,0,0,7.5-4.14c1.32-.78,2.16,1,2.16,2.46v1.62h8.28c.72,0,5.52-.18,6.3-.3,2-.36,2.28-.3,1.62.18-.42.3-2.7,2.58-3.54,3.36l-.12.12H346.81v6c2.94-1.62,7.38-4.56,9.24-4.56,4,0,7.5,2.58,7.5,7,0,4.86-6.06,6.72-9.84,6.72-3.18,0-5.52-1.86-6.9-2.46v.48c0,4.26-8.7,12.06-9.9,12.66-.36.18-.66,0-.3-.36,1.08-1,5-7.68,5-11.52V42.81C341.59,41.37,341.17,40.77,339.67,40.47ZM355.33,56c2.4,0,2.94-.18,2.94-2.88,0-3.3-2.82-5.52-4.74-5.52-1.68,0-4.08,2.16-6.18,3.12C349.45,53.25,352.75,56,355.33,56Z"/><path class="a" d="M395.53,51.33a7.43,7.43,0,0,1-7.62,7.44c-8.76,0-9.6-7.56-9.6-5v2l-3.3,1.8c-.18.12-1.38.9-1.56,1.08-.48.42-.54.42-.48.12a15,15,0,0,0,.12-2V49.29h-.42c-.72,0-5.52.18-6.3.3-2,.36-2.28.3-1.62-.18.42-.3,2.7-2.58,3.54-3.36l.12-.12h4.68V43.77c0-1.44-.42-2-1.92-2.34a14.42,14.42,0,0,0-2.22-.18c-.54,0-.54-.3-.3-.42a58.27,58.27,0,0,0,7.5-4.14c1.32-.78,2.16,1,2.16,2.46v6.78c1.56-.06,4.92-.18,5.58-.3,2-.36,2.28-.3,1.62.18-.42.3-2.7,2.58-3.54,3.36l-.12.12h-3.3c.6,2.94,2.76,4.68,7,4.68,2.46,0,5.88-1.14,5.88-4.44,0-3.66-4.26-8.1-6.54-7.44-.72.18-1,.12-1-.12a3.17,3.17,0,0,1,.54-.66l2.94-2.7h4.14c.72,0,5.52-.18,6.3-.3,2-.36,2.28-.3,1.62.18-.42.3-2.7,2.58-3.54,3.36l-.12.12h-4.86C387.91,42,395.53,44.73,395.53,51.33Z"/><path class="a" d="M412.69,38.49v-5.4c0-1.44-.42-2-1.92-2.34a14.42,14.42,0,0,0-2.22-.18c-.54,0-.54-.3-.3-.42a58.27,58.27,0,0,0,7.5-4.14c1.32-.78,2.16,1,2.16,2.46v8.64a16,16,0,0,1,9.3,1.56c.12.06.06.06-.12.24A30.21,30.21,0,0,0,424,42c-.18.24-.3.48-.42.36a11.44,11.44,0,0,0-5.7-3v16.2c2.4.06,5.16,0,8.4-.24.6-.06-.48,1-1.5,2-.78.72-1.38,1.44-1.92,1.56-5,1-23.46.48-23.46-7.5C399.43,46,408.13,40.35,412.69,38.49Zm0,16.62V39.81c-3.54,1.68-6.9,6.3-6.9,10.2C405.79,52.53,407.83,54.33,412.69,55.11Z"/><path class="a" d="M432,40.47a14.42,14.42,0,0,0-2.22-.18c-.54,0-.54-.3-.3-.42a58.27,58.27,0,0,0,7.5-4.14c1.32-.78,2.16,1,2.16,2.46v1.62h8.28c.72,0,5.52-.18,6.3-.3,2-.36,2.28-.3,1.62.18-.42.3-2.7,2.58-3.54,3.36l-.12.12H439.15v6c2.94-1.62,7.38-4.56,9.24-4.56,4,0,7.5,2.58,7.5,7,0,4.86-6.06,6.72-9.84,6.72-3.18,0-5.52-1.86-6.9-2.46v.48c0,4.26-8.7,12.06-9.9,12.66-.36.18-.66,0-.3-.36,1.08-1,5-7.68,5-11.52V42.81C433.93,41.37,433.51,40.77,432,40.47ZM447.67,56c2.4,0,2.94-.18,2.94-2.88,0-3.3-2.82-5.52-4.74-5.52-1.68,0-4.08,2.16-6.18,3.12C441.79,53.25,445.09,56,447.67,56Z"/><path class="a" d="M487.87,51.33a7.43,7.43,0,0,1-7.62,7.44c-8.76,0-9.6-7.56-9.6-5v2l-3.3,1.8c-.18.12-1.38.9-1.56,1.08-.48.42-.54.42-.48.12a15,15,0,0,0,.12-2V49.29H465c-.72,0-5.52.18-6.3.3-2,.36-2.28.3-1.62-.18.42-.3,2.7-2.58,3.54-3.36l.12-.12h4.68V43.77c0-1.44-.42-2-1.92-2.34a14.42,14.42,0,0,0-2.22-.18c-.54,0-.54-.3-.3-.42a58.27,58.27,0,0,0,7.5-4.14c1.32-.78,2.16,1,2.16,2.46v6.78c1.56-.06,4.92-.18,5.58-.3,2-.36,2.28-.3,1.62.18-.42.3-2.7,2.58-3.54,3.36l-.12.12h-3.3c.6,2.94,2.76,4.68,7,4.68,2.46,0,5.88-1.14,5.88-4.44,0-3.66-4.26-8.1-6.54-7.44-.72.18-1,.12-1-.12a3.17,3.17,0,0,1,.54-.66l2.94-2.7h4.14c.72,0,5.52-.18,6.3-.3,2-.36,2.28-.3,1.62.18-.42.3-2.7,2.58-3.54,3.36l-.12.12h-4.86C480.25,42,487.87,44.73,487.87,51.33Z"/><path class="a" d="M496,40.89a14.42,14.42,0,0,0-2.22-.18c-.54,0-.54-.3-.3-.42a58.27,58.27,0,0,0,7.5-4.14c1.32-.78,2.16,1,2.16,2.46V55.83l-3.3,1.8c-.18.12-1.38.9-1.56,1.08-.48.42-.54.42-.48.12a15,15,0,0,0,.12-2V43.23C497.89,41.79,497.47,41.19,496,40.89Z"/><path class="a" d="M519.79,36c7.56,0,11.58,4.56,12.18,9.48,1.62-.06,3.6-.18,4.08-.24,2-.36,2.28-.3,1.62.18-.42.3-2.7,2.58-3.54,3.36l-.12.12h-2.22c-1.56,6.66-10,9.42-14.4,9.72-.72.06-.6-.42,0-.66,4.8-2.1,8.16-4.08,8.46-9.06h-2.64c-.72,0-5.52.18-6.3.3-2,.36-2.28.3-1.62-.18.42-.3,2.7-2.58,3.54-3.36l.12-.12h6.78c-.72-5.34-3.9-7.62-7.08-7.62-4.32,0-7.08,2.7-7.08,4.68,0,.48-.12.66-.3.72a11.25,11.25,0,0,0-3.72,1.92c-.3.24-.72.48-.48-.24C507.73,43.17,510.91,36,519.79,36Z"/><path class="a" d="M544.87,32.49a14.42,14.42,0,0,0-2.22-.18c-.54,0-.54-.3-.3-.42a58.27,58.27,0,0,0,7.5-4.14c1.32-.78,2.16,1,2.16,2.46V47.37c1.26-.06,5.28-.18,6-.3,2-.36,2.28-.3,1.62.18-.42.3-2.7,2.58-3.54,3.36l-.12.12h-4v7.44h2.22c.72,0,5.52-.18,6.3-.3,2-.36,2.28-.3,1.62.18-.42.3-2.7,2.58-3.54,3.36l-.12.12h-11.7V50.73c-1.26.06-5.28.18-6,.3-2,.36-2.28.3-1.62-.18.42-.3,2.7-2.58,3.54-3.36l.12-.12h4V34.83C546.79,33.39,546.37,32.79,544.87,32.49Z"/><path class="a" d="M580.75,32.49a14.42,14.42,0,0,0-2.22-.18c-.54,0-.54-.3-.3-.42a58.27,58.27,0,0,0,7.5-4.14c1.32-.78,2.16,1,2.16,2.46V44.37a10.79,10.79,0,0,1,6.18-2.1,11.38,11.38,0,0,1,7.68,3.48V42.81c0-1.44-.42-2-1.92-2.34a14.42,14.42,0,0,0-2.22-.18c-.54,0-.54-.3-.3-.42a58.27,58.27,0,0,0,7.5-4.14c1.32-.78,2.16,1,2.16,2.46v1.62h7.32c.72,0,5.52-.18,6.3-.3,2-.36,2.28-.3,1.62.18-.42.3-2.7,2.58-3.54,3.36l-.12.12H607v5.94c2.82-1.62,7.14-4.5,9.84-4.5,2.52,0,5.82,2.58,5.82,6.6,0,5.22-5.7,7.08-8.46,7.08a12.37,12.37,0,0,1-7.2-2.76v.78c0,4.26-8.7,12.06-9.9,12.66-.36.18-.66,0-.3-.36,1.08-1,5-7.68,5-11.52V51c-3.06-2.88-5.76-5.58-8.4-5.58a6.39,6.39,0,0,0-5.46,4v8.4l-3.3,1.8c-.18.12-1.38.9-1.56,1.08-.48.42-.54.42-.48.12a15,15,0,0,0,.12-2v-24C582.67,33.39,582.25,32.79,580.75,32.49ZM615.13,56c2,0,2.88-1.74,2.88-3.42a5.16,5.16,0,0,0-4.62-5c-1.74,0-4,2.16-6.06,3.12C609.31,53.25,612.49,56,615.13,56Z"/><path class="a" d="M654.61,51.33A7.43,7.43,0,0,1,647,58.77c-8.76,0-9.6-7.56-9.6-5v2l-3.3,1.8c-.18.12-1.38.9-1.56,1.08-.48.42-.54.42-.48.12a15,15,0,0,0,.12-2V49.29h-.42c-.72,0-5.52.18-6.3.3-2,.36-2.28.3-1.62-.18.42-.3,2.7-2.58,3.54-3.36l.12-.12h4.68V43.77c0-1.44-.42-2-1.92-2.34a14.42,14.42,0,0,0-2.22-.18c-.54,0-.54-.3-.3-.42a58.27,58.27,0,0,0,7.5-4.14c1.32-.78,2.16,1,2.16,2.46v6.78c1.56-.06,4.92-.18,5.58-.3,2-.36,2.28-.3,1.62.18-.42.3-2.7,2.58-3.54,3.36l-.12.12h-3.3c.6,2.94,2.76,4.68,7,4.68,2.46,0,5.88-1.14,5.88-4.44,0-3.66-4.26-8.1-6.54-7.44-.72.18-1,.12-1-.12a3.17,3.17,0,0,1,.54-.66l2.94-2.7h4.14c.72,0,5.52-.18,6.3-.3,2-.36,2.28-.3,1.62.18-.42.3-2.7,2.58-3.54,3.36l-.12.12H650C647,42,654.61,44.73,654.61,51.33Z"/><path class="a" d="M671.77,38.49v-5.4c0-1.44-.42-2-1.92-2.34a14.42,14.42,0,0,0-2.22-.18c-.54,0-.54-.3-.3-.42a58.27,58.27,0,0,0,7.5-4.14c1.32-.78,2.16,1,2.16,2.46v8.64a16,16,0,0,1,9.3,1.56c.12.06.06.06-.12.24A30.21,30.21,0,0,0,683.11,42c-.18.24-.3.48-.42.36a11.44,11.44,0,0,0-5.7-3v16.2c2.4.06,5.16,0,8.4-.24.6-.06-.48,1-1.5,2-.78.72-1.38,1.44-1.92,1.56-5,1-23.46.48-23.46-7.5C658.51,46,667.21,40.35,671.77,38.49Zm0,16.62V39.81c-3.54,1.68-6.9,6.3-6.9,10.2C664.87,52.53,666.91,54.33,671.77,55.11Z"/><path class="a" d="M691.09,40.47a14.42,14.42,0,0,0-2.22-.18c-.54,0-.54-.3-.3-.42a58.27,58.27,0,0,0,7.5-4.14c1.32-.78,2.16,1,2.16,2.46v1.62h8.28c.72,0,5.52-.18,6.3-.3,2-.36,2.28-.3,1.62.18-.42.3-2.7,2.58-3.54,3.36l-.12.12H698.23v6c2.94-1.62,7.38-4.56,9.24-4.56,4,0,7.5,2.58,7.5,7,0,4.86-6.06,6.72-9.84,6.72-3.18,0-5.52-1.86-6.9-2.46v.48c0,4.26-8.7,12.06-9.9,12.66-.36.18-.66,0-.3-.36,1.08-1,5-7.68,5-11.52V42.81C693,41.37,692.59,40.77,691.09,40.47ZM706.75,56c2.4,0,2.94-.18,2.94-2.88,0-3.3-2.82-5.52-4.74-5.52-1.68,0-4.08,2.16-6.18,3.12C700.87,53.25,704.17,56,706.75,56Z"/><path class="a" d="M747,51.33a7.43,7.43,0,0,1-7.62,7.44c-8.76,0-9.6-7.56-9.6-5v2l-3.3,1.8c-.18.12-1.38.9-1.56,1.08-.48.42-.54.42-.48.12a15,15,0,0,0,.12-2V49.29h-.42c-.72,0-5.52.18-6.3.3-2,.36-2.28.3-1.62-.18.42-.3,2.7-2.58,3.54-3.36l.12-.12h4.68V43.77c0-1.44-.42-2-1.92-2.34a14.42,14.42,0,0,0-2.22-.18c-.54,0-.54-.3-.3-.42a58.27,58.27,0,0,0,7.5-4.14c1.32-.78,2.16,1,2.16,2.46v6.78c1.56-.06,4.92-.18,5.58-.3,2-.36,2.28-.3,1.62.18-.42.3-2.7,2.58-3.54,3.36l-.12.12H730c.6,2.94,2.76,4.68,7,4.68,2.46,0,5.88-1.14,5.88-4.44,0-3.66-4.26-8.1-6.54-7.44-.72.18-1,.12-1-.12a3.17,3.17,0,0,1,.54-.66l2.94-2.7h4.14c.72,0,5.52-.18,6.3-.3,2-.36,2.28-.3,1.62.18-.42.3-2.7,2.58-3.54,3.36l-.12.12h-4.86C739.33,42,747,44.73,747,51.33Z"/><path class="a" d="M755.05,40.89a14.42,14.42,0,0,0-2.22-.18c-.54,0-.54-.3-.3-.42a58.27,58.27,0,0,0,7.5-4.14c1.32-.78,2.16,1,2.16,2.46V55.83l-3.3,1.8c-.18.12-1.38.9-1.56,1.08-.48.42-.54.42-.48.12a15,15,0,0,0,.12-2V43.23C757,41.79,756.55,41.19,755.05,40.89Z"/><path class="a" d="M778.87,36c7.56,0,11.58,4.56,12.18,9.48,1.62-.06,3.6-.18,4.08-.24,2-.36,2.28-.3,1.62.18-.42.3-2.7,2.58-3.54,3.36l-.12.12h-2.22c-1.56,6.66-10,9.42-14.4,9.72-.72.06-.6-.42,0-.66,4.8-2.1,8.16-4.08,8.46-9.06h-2.64c-.72,0-5.52.18-6.3.3-2,.36-2.28.3-1.62-.18.42-.3,2.7-2.58,3.54-3.36l.12-.12h6.78c-.72-5.34-3.9-7.62-7.08-7.62-4.32,0-7.08,2.7-7.08,4.68,0,.48-.12.66-.3.72a11.25,11.25,0,0,0-3.72,1.92c-.3.24-.72.48-.48-.24C766.81,43.17,770,36,778.87,36Z"/><path class="a" d="M804,32.49a14.42,14.42,0,0,0-2.22-.18c-.54,0-.54-.3-.3-.42a58.27,58.27,0,0,0,7.5-4.14c1.32-.78,2.16,1,2.16,2.46V47.37c1.26-.06,5.28-.18,6-.3,2-.36,2.28-.3,1.62.18-.42.3-2.7,2.58-3.54,3.36l-.12.12h-4v7.44h2.22c.72,0,5.52-.18,6.3-.3,2-.36,2.28-.3,1.62.18-.42.3-2.7,2.58-3.54,3.36l-.12.12h-11.7V50.73c-1.26.06-5.28.18-6,.3-2,.36-2.28.3-1.62-.18.42-.3,2.7-2.58,3.54-3.36l.12-.12h4V34.83C805.87,33.39,805.45,32.79,804,32.49Z"/><path class="a" d="M218,97.65a23.76,23.76,0,0,1,5.76.66V94.83c0-1.44-.42-2-1.92-2.34a14.42,14.42,0,0,0-2.22-.18c-.54,0-.54-.3-.3-.42a58.27,58.27,0,0,0,7.5-4.14c1.32-.78,2.16,1,2.16,2.46v27.6l-3.3,1.8c-.18.12-1.38.9-1.56,1.08-.48.42-.54.42-.48.12a15,15,0,0,0,.12-2v-12.9c0-3.66-4.92-5.16-8-5.16s-7.56,1.44-11.46,4.5c-.54.42-1.08,0-.72-.54C204.88,102.69,209,97.65,218,97.65Z"/><path class="a" d="M234.34,92.43a14.42,14.42,0,0,0-2.22-.18c-.54,0-.54-.3-.3-.42a58.27,58.27,0,0,0,7.5-4.14c1.32-.78,2.16,1,2.16,2.46v16.5c2.76-.72,9.12-4,9.12-5.82a2.64,2.64,0,0,0-1.44-2.28c-.36-.18-.42-.54.24-.54a21.9,21.9,0,0,0,5.58-.72c.6-.12.72.06.72,1.14,0,3.54-5.94,6.72-10.5,8.82h6.3a50.28,50.28,0,0,0,5.64-.48c.9,0,1.44,1.5,1.44,3.06,0,4.92-7.2,9.06-11.82,10.5-.6.18-.72-.06-.3-.36,2.64-1.68,6.3-5.4,6.3-9v-.36H241.48v7.14l-3.3,1.8c-.18.12-1.38.9-1.56,1.08-.48.42-.54.42-.48.12a15,15,0,0,0,.12-2v-24C236.26,93.33,235.84,92.73,234.34,92.43Z"/><path class="a" d="M273.46,96c7.56,0,11.58,4.56,12.18,9.48,1.62-.06,3.6-.18,4.08-.24,2-.36,2.28-.3,1.62.18-.42.3-2.7,2.58-3.54,3.36l-.12.12h-2.22c-1.56,6.66-10,9.42-14.4,9.72-.72.06-.6-.42,0-.66,4.8-2.1,8.16-4.08,8.46-9.06h-2.64c-.72,0-5.52.18-6.3.3-2,.36-2.28.3-1.62-.18.42-.3,2.7-2.58,3.54-3.36l.12-.12h6.78c-.72-5.34-3.9-7.62-7.08-7.62-4.32,0-7.08,2.7-7.08,4.68,0,.48-.12.66-.3.72a11.25,11.25,0,0,0-3.72,1.92c-.3.24-.72.48-.48-.24C261.4,103.17,264.58,96,273.46,96Z"/><path class="a" d="M342.16,101.79c2-.36,2.28-.3,1.62.18-.42.3-2.7,2.58-3.54,3.36l-.12.12h-5v12.36c-1.62.66-3,2.58-7,2.58-6.6,0-19.14-5.28-19.14-14.1,0-11.4,21.12-18.24,25.08-18.24,1.26,0,1.44.24.6.6-7.68,3.06-18.6,8.1-18.6,16,0,6.6,7.44,10.14,13.8,11.94V105.45h-1.14c-.72,0-5.52.18-6.3.3-2,.36-2.28.3-1.62-.18.42-.3,2.7-2.58,3.54-3.36l.12-.12h11.34C336.58,102.09,341.38,101.91,342.16,101.79Z"/><path class="a" d="M347.92,100.47a14.42,14.42,0,0,0-2.22-.18c-.54,0-.54-.3-.3-.42a58.27,58.27,0,0,0,7.5-4.14c1.32-.78,2.16,1,2.16,2.46v1.62h8.28c.72,0,5.52-.18,6.3-.3,2-.36,2.28-.3,1.62.18-.42.3-2.7,2.58-3.54,3.36l-.12.12H355.06v6c2.94-1.62,7.38-4.56,9.24-4.56,4,0,7.5,2.58,7.5,7,0,4.86-6.06,6.72-9.84,6.72-3.18,0-5.52-1.86-6.9-2.46v.48c0,4.26-8.7,12.06-9.9,12.66-.36.18-.66,0-.3-.36,1.08-1,5-7.68,5-11.52V102.81C349.84,101.37,349.42,100.77,347.92,100.47ZM363.58,116c2.4,0,2.94-.18,2.94-2.88,0-3.3-2.82-5.52-4.74-5.52-1.68,0-4.08,2.16-6.18,3.12C357.7,113.25,361,116,363.58,116Z"/><path class="a" d="M388,104.85a17.58,17.58,0,0,1,4.2.48V103c0-1.44-.42-2-1.92-2.34a14.42,14.42,0,0,0-2.22-.18c-.54,0-.54-.3-.3-.42a58.27,58.27,0,0,0,7.5-4.14c1.32-.78,2.16,1,2.16,2.46V126l-3.3,1.8c-.18.12-1.38.9-1.56,1.08-.48.42-.54.42-.48.12a15,15,0,0,0,.12-2V112.47c0-2.64-2.82-4.5-6.78-4.5-2.58,0-6.48,1.38-10.5,4.5-.6.48-1.32.06-.9-.48A16.16,16.16,0,0,1,388,104.85Z"/><path class="a" d="M414.1,96c7.56,0,11.58,4.56,12.18,9.48,1.62-.06,3.6-.18,4.08-.24,2-.36,2.28-.3,1.62.18-.42.3-2.7,2.58-3.54,3.36l-.12.12H426.1c-1.56,6.66-10,9.42-14.4,9.72-.72.06-.6-.42,0-.66,4.8-2.1,8.16-4.08,8.46-9.06h-2.64c-.72,0-5.52.18-6.3.3-2,.36-2.28.3-1.62-.18.42-.3,2.7-2.58,3.54-3.36l.12-.12H420c-.72-5.34-3.9-7.62-7.08-7.62-4.32,0-7.08,2.7-7.08,4.68,0,.48-.12.66-.3.72a11.25,11.25,0,0,0-3.72,1.92c-.3.24-.72.48-.48-.24C402,103.17,405.22,96,414.1,96Z"/><path class="a" d="M454.54,111.63c0-2.7-1.56-4.14-4.62-4.14-1.92,0-5.22,2.58-6.9,3.66v4l-3.3,1.8c-.18.12-1.38.9-1.56,1.08-.48.42-.54.42-.48.12a15,15,0,0,0,.12-2V103.29c0-1.44-.42-2-1.92-2.34a14.42,14.42,0,0,0-2.22-.18c-.54,0-.54-.3-.3-.42a58.27,58.27,0,0,0,7.5-4.14c1.32-.78,2.16,1,2.16,2.46v10.26c2.16-.9,6.18-4,9.42-4,4.68,0,7.92,1.68,7.92,5.94,0,4.62-6.66,6.78-10.8,7.62-.48.12-.72-.06-.36-.24C451.18,117.27,454.54,115.29,454.54,111.63Z"/><path class="a" d="M480.1,115.05c-4.5-5.82-1.68-11.76,1.68-15.3,3.54-4,8.1-5.58,13.62-2.58,4.86,2.7,7.38,9.54,2.22,16.32C491.92,121,483.22,119.13,480.1,115.05Zm12.54-13.74c-3.48-2.64-7.5-2.94-9.3-1.08-2.46,2.58-1.56,8.28.66,11.16,2.64,3.42,8.7,5,10.8,3C498.34,110.91,495.82,103.83,492.64,101.31Z"/><path class="a" d="M504,100.47a14.42,14.42,0,0,0-2.22-.18c-.54,0-.54-.3-.3-.42a58.27,58.27,0,0,0,7.5-4.14c1.32-.78,2.16,1,2.16,2.46v9.54a14.89,14.89,0,0,1,7.32-1.92c5.52,0,9.6,3.78,10.86,5.34.24.3-.3.6-.48.78a27,27,0,0,0-3.9,3.54c-.18.24-.36.3-.54,0-1.2-2.4-3.9-7.74-7.74-7.74-3.54,0-5.52,1.86-5.52,5.28v12.78l-3.3,1.8c-.18.12-1.38.9-1.56,1.08-.48.42-.54.42-.48.12a15,15,0,0,0,.12-2v-24C506,101.37,505.54,100.77,504,100.47Z"/><path class="a" d="M563.62,116.55V102c0-1-1.44-1.08-1.44-1.44s10.2-4.5,12.48-4.5c1.2,0,7.74,3,7.74,8.7,0,10.5-11.94,15.06-18.18,15.06s-13.68-4.68-13.68-12.3V94.29c0-1.44-.42-2-1.92-2.34a14.42,14.42,0,0,0-2.22-.18c-.54,0-.54-.3-.3-.42a58.27,58.27,0,0,0,7.5-4.14c1.32-.78,2.16,1,2.16,2.46V104C555.76,109.71,558.76,114.93,563.62,116.55Zm12.72-9.9c0-4-5-6.78-7-6.78a1.66,1.66,0,0,0-.54.06v16.86C574.66,115.53,576.34,109.05,576.34,106.65Z"/><path class="a" d="M588,100.47a14.42,14.42,0,0,0-2.22-.18c-.54,0-.54-.3-.3-.42a58.27,58.27,0,0,0,7.5-4.14c1.32-.78,2.16,1,2.16,2.46v1.62h8.28c.72,0,5.52-.18,6.3-.3,2-.36,2.28-.3,1.62.18-.42.3-2.7,2.58-3.54,3.36l-.12.12H595.18v6c2.94-1.62,7.38-4.56,9.24-4.56,4,0,7.5,2.58,7.5,7,0,4.86-6.06,6.72-9.84,6.72-3.18,0-5.52-1.86-6.9-2.46v.48c0,4.26-8.7,12.06-9.9,12.66-.36.18-.66,0-.3-.36,1.08-1,5-7.68,5-11.52V102.81C590,101.37,589.54,100.77,588,100.47ZM603.7,116c2.4,0,2.94-.18,2.94-2.88,0-3.3-2.82-5.52-4.74-5.52-1.68,0-4.08,2.16-6.18,3.12C597.82,113.25,601.12,116,603.7,116Z"/><path class="a" d="M643.9,111.33a7.43,7.43,0,0,1-7.62,7.44c-8.76,0-9.6-7.56-9.6-5v2l-3.3,1.8c-.18.12-1.38.9-1.56,1.08-.48.42-.54.42-.48.12a15,15,0,0,0,.12-2v-7.56H621c-.72,0-5.52.18-6.3.3-2,.36-2.28.3-1.62-.18.42-.3,2.7-2.58,3.54-3.36l.12-.12h4.68v-2.16c0-1.44-.42-2-1.92-2.34a14.42,14.42,0,0,0-2.22-.18c-.54,0-.54-.3-.3-.42a58.27,58.27,0,0,0,7.5-4.14c1.32-.78,2.16,1,2.16,2.46v6.78c1.56-.06,4.92-.18,5.58-.3,2-.36,2.28-.3,1.62.18-.42.3-2.7,2.58-3.54,3.36l-.12.12h-3.3c.6,2.94,2.76,4.68,7,4.68,2.46,0,5.88-1.14,5.88-4.44,0-3.66-4.26-8.1-6.54-7.44-.72.18-1,.12-1-.12a3.17,3.17,0,0,1,.54-.66l2.94-2.7h4.14c.72,0,5.52-.18,6.3-.3,2-.36,2.28-.3,1.62.18-.42.3-2.7,2.58-3.54,3.36l-.12.12h-4.86C636.28,102,643.9,104.73,643.9,111.33Z"/><path class="a" d="M661.06,98.49v-5.4c0-1.44-.42-2-1.92-2.34a14.42,14.42,0,0,0-2.22-.18c-.54,0-.54-.3-.3-.42a58.27,58.27,0,0,0,7.5-4.14c1.32-.78,2.16,1,2.16,2.46v8.64a16,16,0,0,1,9.3,1.56c.12.06.06.06-.12.24A30.21,30.21,0,0,0,672.4,102c-.18.24-.3.48-.42.36a11.44,11.44,0,0,0-5.7-3v16.2c2.4.06,5.16,0,8.4-.24.6-.06-.48,1-1.5,2-.78.72-1.38,1.44-1.92,1.56-5,1-23.46.48-23.46-7.5C647.8,106,656.5,100.35,661.06,98.49Zm0,16.62V99.81c-3.54,1.68-6.9,6.3-6.9,10.2C654.16,112.53,656.2,114.33,661.06,115.11Z"/><path class="a" d="M680.2,100.47a12.41,12.41,0,0,0-2.1-.18c-.48,0-.48-.3-.3-.42a51.05,51.05,0,0,0,7.14-4.14c1.26-.78,2.1,1,2.1,2.46v1.62h7.86c.66,0,5.22-.18,6-.3l.48-.06a11.8,11.8,0,0,1,8.7-3.48c7,0,10.74,4.74,11.1,9.78,1.5-.06,5.16-.18,5.82-.3,2-.36,2.28-.3,1.62.18-.42.3-2.7,2.58-3.54,3.36l-.12.12h-4c-1.56,6.48-9.3,9.18-13.38,9.48-.66.06-.54-.42,0-.66,4.44-2,7.5-4,7.92-8.82h-3.36c-.72,0-5.52.18-6.3.3-2,.36-2.28.3-1.62-.18.42-.3,2.7-2.58,3.54-3.36l.12-.12h7.5c-.9-5.4-5-7.08-7.92-7.08-4,0-7.14,3.3-8.22,6.72a6.53,6.53,0,0,1,3.72,6.18c0,4.86-5.76,6.72-9.36,6.72-3,0-5.22-1.86-6.54-2.46v.48c0,4.26-8.28,12.06-9.42,12.66-.36.18-.66,0-.3-.36,1-1,4.74-7.68,4.74-11.52V102.81C682.06,101.37,681.64,100.77,680.2,100.47Zm15.6,4.14a8.07,8.07,0,0,1,2.1.3c.18-.42.42-1,.78-1.74H687v5.94C689.86,107.55,694.06,104.61,695.8,104.61Zm-.66,11.4c2.28,0,2.76-.18,2.76-2.88,0-3.3-2.64-5.52-4.5-5.52-1.56,0-3.84,2.16-5.88,3.12C689.5,113.25,692.68,116,695.14,116Z"/><path class="a" d="M734.2,90a14.42,14.42,0,0,0-2.22-.18c-.54,0-.54-.3-.3-.42a58.27,58.27,0,0,0,7.5-4.14c1.32-.78,2.16,1,2.16,2.46V99.39a3.33,3.33,0,0,1,1.5-.48c2.16-.06,4.56,1,6.9,4.5.9-1.44,3.12-4.5,5.76-4.5s4.44,2.76,6.72,6.3c2.46,3.78,5.52,9.42,8,9.42a3.23,3.23,0,0,0,2.4-1.56c.3-.36.48,0,.36.36-.54,1.44-3.06,4.8-6.42,4.8-2.46,0-3.3-1.38-5-4.5-1.08,2-3.42,4.5-5.52,4.5-3.42,0-7.38-6.18-9.6-10.38-1.62-3.12-2.7-4.44-5-4.68v11.16c1.26-.06,5.28-.18,6-.3,2-.36,2.28-.3,1.62.18-.42.3-2.7,2.58-3.54,3.36l-.12.12h-8.16c-.72,0-5.52.18-6.3.3-2,.36-2.28.3-1.62-.18.42-.3,2.7-2.58,3.54-3.36l.12-.12h3.24v-22C736.12,90.93,735.7,90.33,734.2,90Zm16.38,14.82c2.16,3.9,5.46,9.78,7.8,9.78a4.36,4.36,0,0,0,2.82-1.56l-1.68-2.94c-2.58-4.32-5-7.38-6.72-7.38-1,0-1.86,1-2.46,1.62Z"/><path class="a" d="M775.66,115.05c-4.5-5.82-1.68-11.76,1.68-15.3,3.54-4,8.1-5.58,13.62-2.58,4.86,2.7,7.38,9.54,2.22,16.32C787.48,121,778.78,119.13,775.66,115.05Zm12.54-13.74c-3.48-2.64-7.5-2.94-9.3-1.08-2.46,2.58-1.56,8.28.66,11.16,2.64,3.42,8.7,5,10.8,3C793.9,110.91,791.38,103.83,788.2,101.31Z"/><path class="a" d="M828,111.33a7.43,7.43,0,0,1-7.62,7.44c-8.76,0-9.6-7.56-9.6-5v2l-3.3,1.8c-.18.12-1.38.9-1.56,1.08-.48.42-.54.42-.48.12a15,15,0,0,0,.12-2v-7.56h-.42c-.72,0-5.52.18-6.3.3-2,.36-2.28.3-1.62-.18.42-.3,2.7-2.58,3.54-3.36l.12-.12h4.68v-2.16c0-1.44-.42-2-1.92-2.34a14.42,14.42,0,0,0-2.22-.18c-.54,0-.54-.3-.3-.42a58.27,58.27,0,0,0,7.5-4.14c1.32-.78,2.16,1,2.16,2.46v6.78c1.56-.06,4.92-.18,5.58-.3,2-.36,2.28-.3,1.62.18-.42.3-2.7,2.58-3.54,3.36l-.12.12H811c.6,2.94,2.76,4.68,7,4.68,2.46,0,5.88-1.14,5.88-4.44,0-3.66-4.26-8.1-6.54-7.44-.72.18-1,.12-1-.12a3.17,3.17,0,0,1,.54-.66l2.94-2.7H824c.72,0,5.52-.18,6.3-.3,2-.36,2.28-.3,1.62.18-.42.3-2.7,2.58-3.54,3.36l-.12.12h-4.86C820.36,102,828,104.73,828,111.33Z"/><path class="a" d="M836.08,100.89a14.42,14.42,0,0,0-2.22-.18c-.54,0-.54-.3-.3-.42a58.27,58.27,0,0,0,7.5-4.14c1.32-.78,2.16,1,2.16,2.46v17.22l-3.3,1.8c-.18.12-1.38.9-1.56,1.08-.48.42-.54.42-.48.12a15,15,0,0,0,.12-2V103.23C838,101.79,837.58,101.19,836.08,100.89Z"/><path class="a" d="M852.76,97c2.1-1.38,4.86-.06,4.86,3.24,0,3-4.74,3.84-4.74,9.72,0,3.6,1.74,7,7.8,7,6.78,0,9.6-4.2,10.56-7.38h-6.9v2.52l-3.3,1.8c-.18.12-1.38.9-1.56,1.08-.48.42-.54.42-.48.12a15,15,0,0,0,.12-2v-12.6l2-.9c2.52-1.38,5.22-3.6,6.24-3.6,3.06,0,9.24,1.92,9.24,9,0,8.28-8.4,14.1-17.64,14.1-4.38,0-11-1.32-11-7,0-4.86,4.86-6.48,4.68-9.84-.12-2.4-2.22-2.52-3.48-2-.42.18-.48-.06-.24-.24C850.3,99,852,97.53,852.76,97Zm18.84,9.18c-.42-4.92-4.68-5.88-7.26-5.64v5.64Z"/><path class="a" d="M572.67,40.58V58.83c0,.15,0,.36,0,.55A10.06,10.06,0,0,0,582.57,71a10,10,0,0,0,4.11-.87,9.88,9.88,0,0,0,.7,2.62A10.16,10.16,0,0,0,596.8,79a10.6,10.6,0,0,0,4.74-1.13,44.44,44.44,0,0,0,10.54-9.74,18.31,18.31,0,0,0,2.09.12,19.88,19.88,0,0,0,10.17-2.89A10.05,10.05,0,0,0,632.07,69h0a10.22,10.22,0,0,0,6.1-2A21.83,21.83,0,0,0,647,68.77a17.76,17.76,0,0,0,10.49-3.36c4.79,2.53,11.35,3.9,19.39,3.9h1a10,10,0,0,0,.74,3.47A10.16,10.16,0,0,0,688.07,79a10.59,10.59,0,0,0,4.73-1.13,44.58,44.58,0,0,0,10.52-9.71,17.69,17.69,0,0,0,1.81.09,23.52,23.52,0,0,0,11.49-3l0,0A10,10,0,0,0,724.41,69h0a10.22,10.22,0,0,0,6.1-2,21.83,21.83,0,0,0,8.82,1.77,17.8,17.8,0,0,0,10.09-3.07A10,10,0,0,0,756.87,69a10.38,10.38,0,0,0,6.74-2.54l.43-.29,2.94-1.6c.26-.15.51-.32.76-.49a10.25,10.25,0,0,0,8.61,4.47,8.34,8.34,0,0,0,.85,0,29,29,0,0,0,17.91-7.77c.24.07.47.15.71.21,0,.17,0,.35,0,.53a10,10,0,0,0,10,10h11.76a10,10,0,0,0,7.07-2.93h0c.35-.32.84-.8,1.36-1.31s1.14-1.11,1.51-1.45a10.2,10.2,0,0,0,3.55-11.21,10.07,10.07,0,0,0-2.66-4.2,10.22,10.22,0,0,0,.13-6.61,10.09,10.09,0,0,0-7.45-6.72V30.21c0-7.09-5.06-12.65-11.53-12.65a11.21,11.21,0,0,0-5.69,1.57c-.73.42-1.41.84-2.06,1.23a29.58,29.58,0,0,1-4.2,2.29c-.22.09-.44.19-.65.3a10.24,10.24,0,0,0-5.35,6.54A23.81,23.81,0,0,0,778.87,26a23.26,23.26,0,0,0-11,2.67A10.89,10.89,0,0,0,760.66,26,11.23,11.23,0,0,0,755,27.53l-1.46.87a10.48,10.48,0,0,0-2.58-.32,18.11,18.11,0,0,0-3.07.32c-1.06.08-4.29.2-4.93.21h-4.14a10,10,0,0,0-3.39.59,10.89,10.89,0,0,0-7.2-2.7,11.23,11.23,0,0,0-5.69,1.57c-.73.42-1.41.83-2,1.23l-1.58.94a10.31,10.31,0,0,0-4.37-1,18.11,18.11,0,0,0-3.07.32c-1.06.08-4.29.2-4.93.21h-1.1a11.08,11.08,0,0,0-8.71-4.27A11.23,11.23,0,0,0,691,27.11c-.73.42-1.4.83-2,1.23l-.59.35c-.46-.17-.92-.35-1.38-.5-.13-7-5.15-12.37-11.53-12.37a11.23,11.23,0,0,0-5.69,1.57l-2.06,1.23a29.58,29.58,0,0,1-4.2,2.29c-.22.09-.44.19-.65.3a10.21,10.21,0,0,0-5.44,6.93c-.58.05-1.19.14-1.9.26-1.06.08-4.29.2-4.93.21h-4.14a10,10,0,0,0-3.39.59,10.89,10.89,0,0,0-7.2-2.7,11.23,11.23,0,0,0-5.69,1.57c-.73.42-1.41.83-2,1.23l-1.52.91a10.39,10.39,0,0,0-4.31-.93,18.11,18.11,0,0,0-3.07.32c-1.06.08-4.29.2-4.93.21h-.14a11.08,11.08,0,0,0-8.71-4.27,11.21,11.21,0,0,0-5.69,1.57c-.7.41-1.36.8-2,1.19-.81-6.16-5.53-10.74-11.4-10.74a11.21,11.21,0,0,0-5.69,1.57l-2.06,1.24a31.66,31.66,0,0,1-4.2,2.28c-.22.09-.44.19-.65.3a10.17,10.17,0,0,0-1.09,17.63Z"/><path class="a" d="M521,96c-.94-6-5.59-10.41-11.36-10.41A11.21,11.21,0,0,0,504,87.11c-.73.42-1.41.84-2.07,1.24l-.9.54c-.28-.16-.53-.35-.82-.51a21.48,21.48,0,0,0-10.3-2.76c-4,0-10,1.28-15.45,7.35a24.72,24.72,0,0,0-6,10.31c-2.54-4.71-7.71-8.28-15.92-8.31-1.41-5.23-5.76-9-11.05-9a11.21,11.21,0,0,0-5.69,1.57c-.73.42-1.41.84-2.06,1.23a31.22,31.22,0,0,1-4.2,2.29l-.29.13a24.36,24.36,0,0,0-26-2.7,10.93,10.93,0,0,0-7.34-2.82,11.23,11.23,0,0,0-5.69,1.57l-2.07,1.24a29.91,29.91,0,0,1-4.19,2.28c-.22.09-.44.19-.65.3a10.23,10.23,0,0,0-3.38,2.7,10.25,10.25,0,0,0-8.57-4.53,18.21,18.21,0,0,0-3.07.32c-1,.08-4.29.2-4.93.21h-1.1a11.08,11.08,0,0,0-8.71-4.27,11.21,11.21,0,0,0-5.69,1.57c-.73.42-1.41.84-2.06,1.23l-.57.35a9.82,9.82,0,0,0-.18-2.44,10.11,10.11,0,0,0-6.38-7.42,10.59,10.59,0,0,0,2.73-.92A44.58,44.58,0,0,0,351.9,68.2a17.69,17.69,0,0,0,1.81.09,23.52,23.52,0,0,0,11.49-3l0,0A10.06,10.06,0,0,0,373,69h0a10.25,10.25,0,0,0,6.1-2,21.75,21.75,0,0,0,8.81,1.77,17.82,17.82,0,0,0,10.5-3.36c4.78,2.53,11.35,3.9,19.38,3.9h1a10,10,0,0,0,.74,3.47A10.16,10.16,0,0,0,429,79a10.59,10.59,0,0,0,4.73-1.13,44.38,44.38,0,0,0,10.52-9.71,17.83,17.83,0,0,0,1.81.09,23.52,23.52,0,0,0,11.49-3l0,0A10.06,10.06,0,0,0,465.33,69h0a10.28,10.28,0,0,0,6.11-2,21.75,21.75,0,0,0,8.81,1.77,17.8,17.8,0,0,0,10.09-3.07A10,10,0,0,0,497.79,69a10.38,10.38,0,0,0,6.74-2.54l.43-.29,2.94-1.6c.26-.15.51-.32.76-.49a10.27,10.27,0,0,0,8.61,4.47,8.34,8.34,0,0,0,.85,0A29,29,0,0,0,536,60.79c.24.07.47.15.72.21,0,.17,0,.35,0,.53a10,10,0,0,0,10,10h11.76a10,10,0,0,0,7.09-3l1.36-1.31c.55-.53,1.13-1.1,1.5-1.44A10.2,10.2,0,0,0,572,54.62a10.07,10.07,0,0,0-2.66-4.2,10.29,10.29,0,0,0,.14-6.61A10.12,10.12,0,0,0,562,37.09V30.21c0-7.09-5.06-12.65-11.53-12.65a11.23,11.23,0,0,0-5.69,1.57l-2.06,1.24a31,31,0,0,1-4.2,2.28c-.22.09-.44.19-.65.3a10.19,10.19,0,0,0-5.34,6.54A23.87,23.87,0,0,0,519.79,26a23.26,23.26,0,0,0-11,2.67A10.89,10.89,0,0,0,501.58,26a11.23,11.23,0,0,0-5.69,1.57l-1.46.87a10.48,10.48,0,0,0-2.58-.32,18.11,18.11,0,0,0-3.07.32c-1.06.08-4.29.2-4.93.21h-4.14a9.89,9.89,0,0,0-3.38.59,10.92,10.92,0,0,0-7.21-2.7,11.26,11.26,0,0,0-5.69,1.57c-.73.42-1.4.83-2.05,1.23l-1.58.94a10.31,10.31,0,0,0-4.37-1,18.21,18.21,0,0,0-3.07.32c-1.05.08-4.29.2-4.93.21h-1.1a11.08,11.08,0,0,0-8.71-4.27,11.23,11.23,0,0,0-5.69,1.57c-.73.42-1.4.83-2.05,1.23l-.59.35c-.46-.17-.92-.35-1.38-.5-.13-7-5.15-12.37-11.53-12.37a11.26,11.26,0,0,0-5.69,1.57l-2.06,1.23a29.58,29.58,0,0,1-4.2,2.29c-.22.09-.44.19-.65.3a10.21,10.21,0,0,0-5.44,6.93c-.58.05-1.19.14-1.9.26-1.06.08-4.29.2-4.93.21h-4.14a9.89,9.89,0,0,0-3.38.59,10.92,10.92,0,0,0-7.21-2.7,11.26,11.26,0,0,0-5.69,1.57c-.73.42-1.4.83-2,1.23l-1.58.94a10.31,10.31,0,0,0-4.37-1,18.11,18.11,0,0,0-3.07.32c-1.06.08-4.29.2-4.93.21H354a11.08,11.08,0,0,0-8.71-4.27,11.23,11.23,0,0,0-5.69,1.57c-.73.42-1.4.83-2,1.23a31.27,31.27,0,0,1-4.21,2.29c-.23.09-.46.2-.68.31a10.27,10.27,0,0,0-3,2.32,26.11,26.11,0,0,0-6.29-1V30.21c0-7.09-5.06-12.65-11.53-12.65a11.23,11.23,0,0,0-5.69,1.57l-2.06,1.24a31,31,0,0,1-4.2,2.28c-.22.09-.44.19-.65.3a10.17,10.17,0,0,0-1.09,17.63V58.83c0,.15,0,.36,0,.55a10.19,10.19,0,0,0,2.17,8A10.07,10.07,0,0,0,308,71a10.39,10.39,0,0,0,6.75-2.54c.13-.1.29-.2.42-.29l2.94-1.6A10,10,0,0,0,323,60.54,10.12,10.12,0,0,0,328.36,63a10.24,10.24,0,0,0-1.14,9.82,10.11,10.11,0,0,0,5.27,5.39c-7.88.93-27.46,7.77-32.33,21.61A10.24,10.24,0,0,0,292.05,95c-3.92-5.58-10.65-9-18.59-9a23,23,0,0,0-12.09,3.26,10.48,10.48,0,0,0-6.12-2,10.69,10.69,0,0,0-2.23.23l-.75.17a6.57,6.57,0,0,1-1,.2c-1-6-5.59-10.36-11.35-10.36a11.23,11.23,0,0,0-5.69,1.57l-.69.41a10.76,10.76,0,0,0-6.16-1.92,11.26,11.26,0,0,0-5.69,1.57c-.73.42-1.41.84-2.06,1.23a30.13,30.13,0,0,1-4.2,2.29l-.62.28a10.28,10.28,0,0,0-5.17,5.85,25.86,25.86,0,0,0-14.49,10.41,10.39,10.39,0,0,0,8.6,16.25,10.86,10.86,0,0,0,6.62-2.3,12.91,12.91,0,0,1,3.32-1.9v7.59c0,.15,0,.37,0,.55a10.18,10.18,0,0,0,2.17,8,10.07,10.07,0,0,0,7.75,3.66h0a10.3,10.3,0,0,0,6.33-2.21,10.06,10.06,0,0,0,11.78.47,10.27,10.27,0,0,0,4.67,1.11,11.22,11.22,0,0,0,3.22-.48l.11,0a35.11,35.11,0,0,0,12.05-6.65,10.25,10.25,0,0,0,9.16,5.36,8.24,8.24,0,0,0,.84,0c7.35-.51,15.84-4.08,20.48-10.8a10.41,10.41,0,0,0,2.45-1.79l0,0,1.37-1.32c.56-.54,1.14-1.12,1.52-1.46a11.52,11.52,0,0,0,2-2.06c3.26,12.83,19.18,19.28,28.53,19.28a19,19,0,0,0,6.55-1.12A10.07,10.07,0,0,0,344.9,139a10.59,10.59,0,0,0,4.73-1.13,44.38,44.38,0,0,0,10.52-9.71,17.83,17.83,0,0,0,1.81.09c5.75,0,11.71-2.1,15.58-6.1a11.08,11.08,0,0,0,3.54-1.84c.39-.3.76-.57,1.12-.8V127c0,.15,0,.36,0,.55a10.07,10.07,0,0,0,9.92,11.64h0a10.36,10.36,0,0,0,6.74-2.54l.43-.29,2.94-1.6a10,10,0,0,0,5-7.06,10.75,10.75,0,0,0,4.33.9,8.34,8.34,0,0,0,.85,0,29.69,29.69,0,0,0,16.13-6.18,9.74,9.74,0,0,0,1.39,2.28,10.07,10.07,0,0,0,7.75,3.66h0a10.15,10.15,0,0,0,5.56-1.66,10.34,10.34,0,0,0,6,1.91,11.43,11.43,0,0,0,2.39-.26c11.38-2.34,15.91-7.59,17.65-12a21.61,21.61,0,0,0,2.84,4.82A19.92,19.92,0,0,0,488,128.61a21,21,0,0,0,7.93-1.54,2.71,2.71,0,0,1,0,.29A10.05,10.05,0,0,0,505.86,139a10.36,10.36,0,0,0,6.74-2.54l.43-.29,2.94-1.6a10,10,0,0,0,5.21-8.78v-.74a10.09,10.09,0,0,0,3.51.62,10.32,10.32,0,0,0,8.13-4c.38-.38,1.32-1.14,1.78-1.52l.64-.51.16-.14a11.3,11.3,0,0,0,2.13-2.26,10.22,10.22,0,0,0-.39-12.38C536,103.48,530.3,97,521,96Z"/><path class="a" d="M929.67,107.14a10.17,10.17,0,0,0-8.22-4.22h-.23l-.68-1.08c-.45-.72-.89-1.43-1.3-2-2.79-4.33-7-10.88-15.12-10.88a13.65,13.65,0,0,0-4.16.65V87.75c0-7.09-5.07-12.65-11.53-12.65a11.21,11.21,0,0,0-5.69,1.57l-2.07,1.23a30.07,30.07,0,0,1-4.19,2.29c-.23.09-.46.2-.68.31a10.31,10.31,0,0,0-5.08,5.75A20.66,20.66,0,0,0,867.4,86,12.69,12.69,0,0,0,860.72,88a12.78,12.78,0,0,0-6.22-1.59,13,13,0,0,0-6.32,1.64A10.9,10.9,0,0,0,841.69,86,11.21,11.21,0,0,0,836,87.53l-1.46.87a10.48,10.48,0,0,0-2.58-.32,18.11,18.11,0,0,0-3.07.32c-1.06.08-4.29.2-4.93.21h-4.14a10,10,0,0,0-3.39.59,10.89,10.89,0,0,0-7.2-2.7,11.2,11.2,0,0,0-5.7,1.57c-.72.42-1.39.83-2,1.23-.91.55-1.68,1-2.42,1.42a19.78,19.78,0,0,0-3.34-2.34,21.48,21.48,0,0,0-10.3-2.76c-4,0-10,1.28-15.45,7.35a28.72,28.72,0,0,0-2.21,2.7c-2.72-3.46-6.51-6.76-12.27-6.76a13.65,13.65,0,0,0-4.16.65V87.75c0-7.09-5.06-12.65-11.53-12.65a11.21,11.21,0,0,0-5.69,1.57l-2.06,1.23a30.71,30.71,0,0,1-4.2,2.29c-.23.09-.46.2-.68.31a10.21,10.21,0,0,0-5.64,8.58,22.8,22.8,0,0,0-24,.63c-1.11.05-2.28.1-2.63.1h-.68a11,11,0,0,0-8.67-4.27,11.21,11.21,0,0,0-5.93,1.72l-1.63,1-.51.33c-.4-.15-.8-.31-1.2-.44-.13-7-5.15-12.37-11.53-12.37a11.3,11.3,0,0,0-5.7,1.57c-.72.42-1.39.83-2,1.23a31.27,31.27,0,0,1-4.21,2.29l-.64.29a10.22,10.22,0,0,0-5.45,6.94c-.58,0-1.19.14-1.9.26-1.06.08-4.29.2-4.93.21h-4.14a10,10,0,0,0-3.39.59,10.89,10.89,0,0,0-7.2-2.7,11.13,11.13,0,0,0-5.69,1.57c-.73.42-1.4.83-2.05,1.23l-1.58.94a10.34,10.34,0,0,0-4.37-1,18.11,18.11,0,0,0-3.07.32c-1.06.08-4.29.2-4.93.21h-1.1a11.08,11.08,0,0,0-8.71-4.27A11.21,11.21,0,0,0,588,87.11c-.73.42-1.41.84-2.06,1.23l-2,1.17A17.4,17.4,0,0,0,574.66,86c-1.09,0-3,0-9,2.13C565,81.8,560.23,77,554.23,77a11.21,11.21,0,0,0-5.69,1.57c-.73.42-1.41.84-2.06,1.23a31.22,31.22,0,0,1-4.2,2.29,7.24,7.24,0,0,0-.7.32,10.16,10.16,0,0,0-1,17.61v7.45c0,13.77,12.29,22.3,23.68,22.3a30.48,30.48,0,0,0,10.69-2.09A10.1,10.1,0,0,0,585,139a10.6,10.6,0,0,0,4.74-1.13,44.58,44.58,0,0,0,10.52-9.71,17.69,17.69,0,0,0,1.81.09,23.52,23.52,0,0,0,11.49-3s0,0,0,0a10.08,10.08,0,0,0,7.77,3.68h0a10.22,10.22,0,0,0,6.1-2,21.83,21.83,0,0,0,8.82,1.77,17.76,17.76,0,0,0,10.49-3.36c4.79,2.53,11.35,3.9,19.39,3.9h1a10,10,0,0,0,.74,3.47,10.15,10.15,0,0,0,9.42,6.27,10.6,10.6,0,0,0,4.74-1.13l.18-.09a41.91,41.91,0,0,0,9.92-9.59c.45,0,.91.06,1.39.06a23,23,0,0,0,8-1.45,10.41,10.41,0,0,0,5.84,1.75l.89,0a28.34,28.34,0,0,0,12.71-4.22,10.26,10.26,0,0,0,8.09,3.88,17.14,17.14,0,0,0,3.07-.32c1.06-.08,4.29-.2,4.93-.21h8.16a10.12,10.12,0,0,0,4.41-1,13.5,13.5,0,0,0,6.27,1.56,13.2,13.2,0,0,0,5.08-1,14.13,14.13,0,0,0,5.48,1,15.51,15.51,0,0,0,7.45-1.92A21.17,21.17,0,0,0,796.75,124a10.26,10.26,0,0,0,.92,1.34,10.08,10.08,0,0,0,7.77,3.68h0a10.22,10.22,0,0,0,6.1-2,21.83,21.83,0,0,0,8.82,1.77,17.8,17.8,0,0,0,10.09-3.07A10,10,0,0,0,837.9,129a10.38,10.38,0,0,0,6.74-2.54l.43-.29.78-.42A25.41,25.41,0,0,0,859,129.07a31.41,31.41,0,0,0,12.85-2.68,10.39,10.39,0,0,0,5.91,1.83,17.14,17.14,0,0,0,3.07-.32c1.06-.08,4.29-.2,4.93-.21h8.16a10.12,10.12,0,0,0,4.41-1,13.47,13.47,0,0,0,6.27,1.56,13.2,13.2,0,0,0,5.08-1,14.13,14.13,0,0,0,5.48,1c8.47,0,14.08-6.75,15.78-11.29l.12-.35A10.47,10.47,0,0,0,929.67,107.14Z"/><path class="a" d="M882.82,90a14.42,14.42,0,0,0-2.22-.18c-.54,0-.54-.3-.3-.42a58.27,58.27,0,0,0,7.5-4.14c1.32-.78,2.16,1,2.16,2.46V99.39a3.33,3.33,0,0,1,1.5-.48c2.16-.06,4.56,1,6.9,4.5.9-1.44,3.12-4.5,5.76-4.5s4.44,2.76,6.72,6.3c2.46,3.78,5.52,9.42,8,9.42a3.23,3.23,0,0,0,2.4-1.56c.3-.36.48,0,.36.36-.54,1.44-3.06,4.8-6.42,4.8-2.46,0-3.3-1.38-5-4.5-1.08,2-3.42,4.5-5.52,4.5-3.42,0-7.38-6.18-9.6-10.38-1.62-3.12-2.7-4.44-5-4.68v11.16c1.26-.06,5.28-.18,6-.3,2-.36,2.28-.3,1.62.18-.42.3-2.7,2.58-3.54,3.36l-.12.12h-8.16c-.72,0-5.52.18-6.3.3-2,.36-2.28.3-1.62-.18.42-.3,2.7-2.58,3.54-3.36l.12-.12h3.24v-22C884.74,90.93,884.32,90.33,882.82,90Zm16.38,14.82c2.16,3.9,5.46,9.78,7.8,9.78a4.36,4.36,0,0,0,2.82-1.56l-1.68-2.94c-2.58-4.32-5-7.38-6.72-7.38-1,0-1.86,1-2.46,1.62Z"/><path d="M306.19,32.49a14.42,14.42,0,0,0-2.22-.18c-.54,0-.54-.3-.3-.42a58.27,58.27,0,0,0,7.5-4.14c1.32-.78,2.16,1,2.16,2.46v14a20.86,20.86,0,0,1,9.24-2,16.7,16.7,0,0,1,12.24,5.58c.24.24.06.36-.12.48A20.6,20.6,0,0,0,330,52.71c-.24.36-.42.48-.6.06-1.14-2.52-3.78-7.8-9.18-7.8-3.12,0-6.84,1.74-6.84,5.64v7.2l-3.3,1.8c-.18.12-1.38.9-1.56,1.08-.48.42-.54.42-.48.12a15,15,0,0,0,.12-2v-24C308.11,33.39,307.69,32.79,306.19,32.49Z"/><path d="M339.67,40.47a14.42,14.42,0,0,0-2.22-.18c-.54,0-.54-.3-.3-.42a58.27,58.27,0,0,0,7.5-4.14c1.32-.78,2.16,1,2.16,2.46v1.62h8.28c.72,0,5.52-.18,6.3-.3,2-.36,2.28-.3,1.62.18-.42.3-2.7,2.58-3.54,3.36l-.12.12H346.81v6c2.94-1.62,7.38-4.56,9.24-4.56,4,0,7.5,2.58,7.5,7,0,4.86-6.06,6.72-9.84,6.72-3.18,0-5.52-1.86-6.9-2.46v.48c0,4.26-8.7,12.06-9.9,12.66-.36.18-.66,0-.3-.36,1.08-1,5-7.68,5-11.52V42.81C341.59,41.37,341.17,40.77,339.67,40.47ZM355.33,56c2.4,0,2.94-.18,2.94-2.88,0-3.3-2.82-5.52-4.74-5.52-1.68,0-4.08,2.16-6.18,3.12C349.45,53.25,352.75,56,355.33,56Z"/><path d="M395.53,51.33a7.43,7.43,0,0,1-7.62,7.44c-8.76,0-9.6-7.56-9.6-5v2l-3.3,1.8c-.18.12-1.38.9-1.56,1.08-.48.42-.54.42-.48.12a15,15,0,0,0,.12-2V49.29h-.42c-.72,0-5.52.18-6.3.3-2,.36-2.28.3-1.62-.18.42-.3,2.7-2.58,3.54-3.36l.12-.12h4.68V43.77c0-1.44-.42-2-1.92-2.34a14.42,14.42,0,0,0-2.22-.18c-.54,0-.54-.3-.3-.42a58.27,58.27,0,0,0,7.5-4.14c1.32-.78,2.16,1,2.16,2.46v6.78c1.56-.06,4.92-.18,5.58-.3,2-.36,2.28-.3,1.62.18-.42.3-2.7,2.58-3.54,3.36l-.12.12h-3.3c.6,2.94,2.76,4.68,7,4.68,2.46,0,5.88-1.14,5.88-4.44,0-3.66-4.26-8.1-6.54-7.44-.72.18-1,.12-1-.12a3.17,3.17,0,0,1,.54-.66l2.94-2.7h4.14c.72,0,5.52-.18,6.3-.3,2-.36,2.28-.3,1.62.18-.42.3-2.7,2.58-3.54,3.36l-.12.12h-4.86C387.91,42,395.53,44.73,395.53,51.33Z"/><path d="M412.69,38.49v-5.4c0-1.44-.42-2-1.92-2.34a14.42,14.42,0,0,0-2.22-.18c-.54,0-.54-.3-.3-.42a58.27,58.27,0,0,0,7.5-4.14c1.32-.78,2.16,1,2.16,2.46v8.64a16,16,0,0,1,9.3,1.56c.12.06.06.06-.12.24A30.21,30.21,0,0,0,424,42c-.18.24-.3.48-.42.36a11.44,11.44,0,0,0-5.7-3v16.2c2.4.06,5.16,0,8.4-.24.6-.06-.48,1-1.5,2-.78.72-1.38,1.44-1.92,1.56-5,1-23.46.48-23.46-7.5C399.43,46,408.13,40.35,412.69,38.49Zm0,16.62V39.81c-3.54,1.68-6.9,6.3-6.9,10.2C405.79,52.53,407.83,54.33,412.69,55.11Z"/><path d="M432,40.47a14.42,14.42,0,0,0-2.22-.18c-.54,0-.54-.3-.3-.42a58.27,58.27,0,0,0,7.5-4.14c1.32-.78,2.16,1,2.16,2.46v1.62h8.28c.72,0,5.52-.18,6.3-.3,2-.36,2.28-.3,1.62.18-.42.3-2.7,2.58-3.54,3.36l-.12.12H439.15v6c2.94-1.62,7.38-4.56,9.24-4.56,4,0,7.5,2.58,7.5,7,0,4.86-6.06,6.72-9.84,6.72-3.18,0-5.52-1.86-6.9-2.46v.48c0,4.26-8.7,12.06-9.9,12.66-.36.18-.66,0-.3-.36,1.08-1,5-7.68,5-11.52V42.81C433.93,41.37,433.51,40.77,432,40.47ZM447.67,56c2.4,0,2.94-.18,2.94-2.88,0-3.3-2.82-5.52-4.74-5.52-1.68,0-4.08,2.16-6.18,3.12C441.79,53.25,445.09,56,447.67,56Z"/><path d="M487.87,51.33a7.43,7.43,0,0,1-7.62,7.44c-8.76,0-9.6-7.56-9.6-5v2l-3.3,1.8c-.18.12-1.38.9-1.56,1.08-.48.42-.54.42-.48.12a15,15,0,0,0,.12-2V49.29H465c-.72,0-5.52.18-6.3.3-2,.36-2.28.3-1.62-.18.42-.3,2.7-2.58,3.54-3.36l.12-.12h4.68V43.77c0-1.44-.42-2-1.92-2.34a14.42,14.42,0,0,0-2.22-.18c-.54,0-.54-.3-.3-.42a58.27,58.27,0,0,0,7.5-4.14c1.32-.78,2.16,1,2.16,2.46v6.78c1.56-.06,4.92-.18,5.58-.3,2-.36,2.28-.3,1.62.18-.42.3-2.7,2.58-3.54,3.36l-.12.12h-3.3c.6,2.94,2.76,4.68,7,4.68,2.46,0,5.88-1.14,5.88-4.44,0-3.66-4.26-8.1-6.54-7.44-.72.18-1,.12-1-.12a3.17,3.17,0,0,1,.54-.66l2.94-2.7h4.14c.72,0,5.52-.18,6.3-.3,2-.36,2.28-.3,1.62.18-.42.3-2.7,2.58-3.54,3.36l-.12.12h-4.86C480.25,42,487.87,44.73,487.87,51.33Z"/><path d="M496,40.89a14.42,14.42,0,0,0-2.22-.18c-.54,0-.54-.3-.3-.42a58.27,58.27,0,0,0,7.5-4.14c1.32-.78,2.16,1,2.16,2.46V55.83l-3.3,1.8c-.18.12-1.38.9-1.56,1.08-.48.42-.54.42-.48.12a15,15,0,0,0,.12-2V43.23C497.89,41.79,497.47,41.19,496,40.89Z"/><path d="M519.79,36c7.56,0,11.58,4.56,12.18,9.48,1.62-.06,3.6-.18,4.08-.24,2-.36,2.28-.3,1.62.18-.42.3-2.7,2.58-3.54,3.36l-.12.12h-2.22c-1.56,6.66-10,9.42-14.4,9.72-.72.06-.6-.42,0-.66,4.8-2.1,8.16-4.08,8.46-9.06h-2.64c-.72,0-5.52.18-6.3.3-2,.36-2.28.3-1.62-.18.42-.3,2.7-2.58,3.54-3.36l.12-.12h6.78c-.72-5.34-3.9-7.62-7.08-7.62-4.32,0-7.08,2.7-7.08,4.68,0,.48-.12.66-.3.72a11.25,11.25,0,0,0-3.72,1.92c-.3.24-.72.48-.48-.24C507.73,43.17,510.91,36,519.79,36Z"/><path d="M544.87,32.49a14.42,14.42,0,0,0-2.22-.18c-.54,0-.54-.3-.3-.42a58.27,58.27,0,0,0,7.5-4.14c1.32-.78,2.16,1,2.16,2.46V47.37c1.26-.06,5.28-.18,6-.3,2-.36,2.28-.3,1.62.18-.42.3-2.7,2.58-3.54,3.36l-.12.12h-4v7.44h2.22c.72,0,5.52-.18,6.3-.3,2-.36,2.28-.3,1.62.18-.42.3-2.7,2.58-3.54,3.36l-.12.12h-11.7V50.73c-1.26.06-5.28.18-6,.3-2,.36-2.28.3-1.62-.18.42-.3,2.7-2.58,3.54-3.36l.12-.12h4V34.83C546.79,33.39,546.37,32.79,544.87,32.49Z"/><path class="b" d="M580.75,32.49a14.42,14.42,0,0,0-2.22-.18c-.54,0-.54-.3-.3-.42a58.27,58.27,0,0,0,7.5-4.14c1.32-.78,2.16,1,2.16,2.46V44.37a10.79,10.79,0,0,1,6.18-2.1,11.38,11.38,0,0,1,7.68,3.48V42.81c0-1.44-.42-2-1.92-2.34a14.42,14.42,0,0,0-2.22-.18c-.54,0-.54-.3-.3-.42a58.27,58.27,0,0,0,7.5-4.14c1.32-.78,2.16,1,2.16,2.46v1.62h7.32c.72,0,5.52-.18,6.3-.3,2-.36,2.28-.3,1.62.18-.42.3-2.7,2.58-3.54,3.36l-.12.12H607v5.94c2.82-1.62,7.14-4.5,9.84-4.5,2.52,0,5.82,2.58,5.82,6.6,0,5.22-5.7,7.08-8.46,7.08a12.37,12.37,0,0,1-7.2-2.76v.78c0,4.26-8.7,12.06-9.9,12.66-.36.18-.66,0-.3-.36,1.08-1,5-7.68,5-11.52V51c-3.06-2.88-5.76-5.58-8.4-5.58a6.39,6.39,0,0,0-5.46,4v8.4l-3.3,1.8c-.18.12-1.38.9-1.56,1.08-.48.42-.54.42-.48.12a15,15,0,0,0,.12-2v-24C582.67,33.39,582.25,32.79,580.75,32.49ZM615.13,56c2,0,2.88-1.74,2.88-3.42a5.16,5.16,0,0,0-4.62-5c-1.74,0-4,2.16-6.06,3.12C609.31,53.25,612.49,56,615.13,56Z"/><path d="M654.61,51.33A7.43,7.43,0,0,1,647,58.77c-8.76,0-9.6-7.56-9.6-5v2l-3.3,1.8c-.18.12-1.38.9-1.56,1.08-.48.42-.54.42-.48.12a15,15,0,0,0,.12-2V49.29h-.42c-.72,0-5.52.18-6.3.3-2,.36-2.28.3-1.62-.18.42-.3,2.7-2.58,3.54-3.36l.12-.12h4.68V43.77c0-1.44-.42-2-1.92-2.34a14.42,14.42,0,0,0-2.22-.18c-.54,0-.54-.3-.3-.42a58.27,58.27,0,0,0,7.5-4.14c1.32-.78,2.16,1,2.16,2.46v6.78c1.56-.06,4.92-.18,5.58-.3,2-.36,2.28-.3,1.62.18-.42.3-2.7,2.58-3.54,3.36l-.12.12h-3.3c.6,2.94,2.76,4.68,7,4.68,2.46,0,5.88-1.14,5.88-4.44,0-3.66-4.26-8.1-6.54-7.44-.72.18-1,.12-1-.12a3.17,3.17,0,0,1,.54-.66l2.94-2.7h4.14c.72,0,5.52-.18,6.3-.3,2-.36,2.28-.3,1.62.18-.42.3-2.7,2.58-3.54,3.36l-.12.12H650C647,42,654.61,44.73,654.61,51.33Z"/><path d="M671.77,38.49v-5.4c0-1.44-.42-2-1.92-2.34a14.42,14.42,0,0,0-2.22-.18c-.54,0-.54-.3-.3-.42a58.27,58.27,0,0,0,7.5-4.14c1.32-.78,2.16,1,2.16,2.46v8.64a16,16,0,0,1,9.3,1.56c.12.06.06.06-.12.24A30.21,30.21,0,0,0,683.11,42c-.18.24-.3.48-.42.36a11.44,11.44,0,0,0-5.7-3v16.2c2.4.06,5.16,0,8.4-.24.6-.06-.48,1-1.5,2-.78.72-1.38,1.44-1.92,1.56-5,1-23.46.48-23.46-7.5C658.51,46,667.21,40.35,671.77,38.49Zm0,16.62V39.81c-3.54,1.68-6.9,6.3-6.9,10.2C664.87,52.53,666.91,54.33,671.77,55.11Z"/><path d="M691.09,40.47a14.42,14.42,0,0,0-2.22-.18c-.54,0-.54-.3-.3-.42a58.27,58.27,0,0,0,7.5-4.14c1.32-.78,2.16,1,2.16,2.46v1.62h8.28c.72,0,5.52-.18,6.3-.3,2-.36,2.28-.3,1.62.18-.42.3-2.7,2.58-3.54,3.36l-.12.12H698.23v6c2.94-1.62,7.38-4.56,9.24-4.56,4,0,7.5,2.58,7.5,7,0,4.86-6.06,6.72-9.84,6.72-3.18,0-5.52-1.86-6.9-2.46v.48c0,4.26-8.7,12.06-9.9,12.66-.36.18-.66,0-.3-.36,1.08-1,5-7.68,5-11.52V42.81C693,41.37,692.59,40.77,691.09,40.47ZM706.75,56c2.4,0,2.94-.18,2.94-2.88,0-3.3-2.82-5.52-4.74-5.52-1.68,0-4.08,2.16-6.18,3.12C700.87,53.25,704.17,56,706.75,56Z"/><path d="M747,51.33a7.43,7.43,0,0,1-7.62,7.44c-8.76,0-9.6-7.56-9.6-5v2l-3.3,1.8c-.18.12-1.38.9-1.56,1.08-.48.42-.54.42-.48.12a15,15,0,0,0,.12-2V49.29h-.42c-.72,0-5.52.18-6.3.3-2,.36-2.28.3-1.62-.18.42-.3,2.7-2.58,3.54-3.36l.12-.12h4.68V43.77c0-1.44-.42-2-1.92-2.34a14.42,14.42,0,0,0-2.22-.18c-.54,0-.54-.3-.3-.42a58.27,58.27,0,0,0,7.5-4.14c1.32-.78,2.16,1,2.16,2.46v6.78c1.56-.06,4.92-.18,5.58-.3,2-.36,2.28-.3,1.62.18-.42.3-2.7,2.58-3.54,3.36l-.12.12H730c.6,2.94,2.76,4.68,7,4.68,2.46,0,5.88-1.14,5.88-4.44,0-3.66-4.26-8.1-6.54-7.44-.72.18-1,.12-1-.12a3.17,3.17,0,0,1,.54-.66l2.94-2.7h4.14c.72,0,5.52-.18,6.3-.3,2-.36,2.28-.3,1.62.18-.42.3-2.7,2.58-3.54,3.36l-.12.12h-4.86C739.33,42,747,44.73,747,51.33Z"/><path d="M755.05,40.89a14.42,14.42,0,0,0-2.22-.18c-.54,0-.54-.3-.3-.42a58.27,58.27,0,0,0,7.5-4.14c1.32-.78,2.16,1,2.16,2.46V55.83l-3.3,1.8c-.18.12-1.38.9-1.56,1.08-.48.42-.54.42-.48.12a15,15,0,0,0,.12-2V43.23C757,41.79,756.55,41.19,755.05,40.89Z"/><path d="M778.87,36c7.56,0,11.58,4.56,12.18,9.48,1.62-.06,3.6-.18,4.08-.24,2-.36,2.28-.3,1.62.18-.42.3-2.7,2.58-3.54,3.36l-.12.12h-2.22c-1.56,6.66-10,9.42-14.4,9.72-.72.06-.6-.42,0-.66,4.8-2.1,8.16-4.08,8.46-9.06h-2.64c-.72,0-5.52.18-6.3.3-2,.36-2.28.3-1.62-.18.42-.3,2.7-2.58,3.54-3.36l.12-.12h6.78c-.72-5.34-3.9-7.62-7.08-7.62-4.32,0-7.08,2.7-7.08,4.68,0,.48-.12.66-.3.72a11.25,11.25,0,0,0-3.72,1.92c-.3.24-.72.48-.48-.24C766.81,43.17,770,36,778.87,36Z"/><path d="M804,32.49a14.42,14.42,0,0,0-2.22-.18c-.54,0-.54-.3-.3-.42a58.27,58.27,0,0,0,7.5-4.14c1.32-.78,2.16,1,2.16,2.46V47.37c1.26-.06,5.28-.18,6-.3,2-.36,2.28-.3,1.62.18-.42.3-2.7,2.58-3.54,3.36l-.12.12h-4v7.44h2.22c.72,0,5.52-.18,6.3-.3,2-.36,2.28-.3,1.62.18-.42.3-2.7,2.58-3.54,3.36l-.12.12h-11.7V50.73c-1.26.06-5.28.18-6,.3-2,.36-2.28.3-1.62-.18.42-.3,2.7-2.58,3.54-3.36l.12-.12h4V34.83C805.87,33.39,805.45,32.79,804,32.49Z"/><path d="M218,97.65a23.76,23.76,0,0,1,5.76.66V94.83c0-1.44-.42-2-1.92-2.34a14.42,14.42,0,0,0-2.22-.18c-.54,0-.54-.3-.3-.42a58.27,58.27,0,0,0,7.5-4.14c1.32-.78,2.16,1,2.16,2.46v27.6l-3.3,1.8c-.18.12-1.38.9-1.56,1.08-.48.42-.54.42-.48.12a15,15,0,0,0,.12-2v-12.9c0-3.66-4.92-5.16-8-5.16s-7.56,1.44-11.46,4.5c-.54.42-1.08,0-.72-.54C204.88,102.69,209,97.65,218,97.65Z"/><path d="M234.34,92.43a14.42,14.42,0,0,0-2.22-.18c-.54,0-.54-.3-.3-.42a58.27,58.27,0,0,0,7.5-4.14c1.32-.78,2.16,1,2.16,2.46v16.5c2.76-.72,9.12-4,9.12-5.82a2.64,2.64,0,0,0-1.44-2.28c-.36-.18-.42-.54.24-.54a21.9,21.9,0,0,0,5.58-.72c.6-.12.72.06.72,1.14,0,3.54-5.94,6.72-10.5,8.82h6.3a50.28,50.28,0,0,0,5.64-.48c.9,0,1.44,1.5,1.44,3.06,0,4.92-7.2,9.06-11.82,10.5-.6.18-.72-.06-.3-.36,2.64-1.68,6.3-5.4,6.3-9v-.36H241.48v7.14l-3.3,1.8c-.18.12-1.38.9-1.56,1.08-.48.42-.54.42-.48.12a15,15,0,0,0,.12-2v-24C236.26,93.33,235.84,92.73,234.34,92.43Z"/><path d="M273.46,96c7.56,0,11.58,4.56,12.18,9.48,1.62-.06,3.6-.18,4.08-.24,2-.36,2.28-.3,1.62.18-.42.3-2.7,2.58-3.54,3.36l-.12.12h-2.22c-1.56,6.66-10,9.42-14.4,9.72-.72.06-.6-.42,0-.66,4.8-2.1,8.16-4.08,8.46-9.06h-2.64c-.72,0-5.52.18-6.3.3-2,.36-2.28.3-1.62-.18.42-.3,2.7-2.58,3.54-3.36l.12-.12h6.78c-.72-5.34-3.9-7.62-7.08-7.62-4.32,0-7.08,2.7-7.08,4.68,0,.48-.12.66-.3.72a11.25,11.25,0,0,0-3.72,1.92c-.3.24-.72.48-.48-.24C261.4,103.17,264.58,96,273.46,96Z"/><path d="M342.16,101.79c2-.36,2.28-.3,1.62.18-.42.3-2.7,2.58-3.54,3.36l-.12.12h-5v12.36c-1.62.66-3,2.58-7,2.58-6.6,0-19.14-5.28-19.14-14.1,0-11.4,21.12-18.24,25.08-18.24,1.26,0,1.44.24.6.6-7.68,3.06-18.6,8.1-18.6,16,0,6.6,7.44,10.14,13.8,11.94V105.45h-1.14c-.72,0-5.52.18-6.3.3-2,.36-2.28.3-1.62-.18.42-.3,2.7-2.58,3.54-3.36l.12-.12h11.34C336.58,102.09,341.38,101.91,342.16,101.79Z"/><path d="M347.92,100.47a14.42,14.42,0,0,0-2.22-.18c-.54,0-.54-.3-.3-.42a58.27,58.27,0,0,0,7.5-4.14c1.32-.78,2.16,1,2.16,2.46v1.62h8.28c.72,0,5.52-.18,6.3-.3,2-.36,2.28-.3,1.62.18-.42.3-2.7,2.58-3.54,3.36l-.12.12H355.06v6c2.94-1.62,7.38-4.56,9.24-4.56,4,0,7.5,2.58,7.5,7,0,4.86-6.06,6.72-9.84,6.72-3.18,0-5.52-1.86-6.9-2.46v.48c0,4.26-8.7,12.06-9.9,12.66-.36.18-.66,0-.3-.36,1.08-1,5-7.68,5-11.52V102.81C349.84,101.37,349.42,100.77,347.92,100.47ZM363.58,116c2.4,0,2.94-.18,2.94-2.88,0-3.3-2.82-5.52-4.74-5.52-1.68,0-4.08,2.16-6.18,3.12C357.7,113.25,361,116,363.58,116Z"/><path d="M388,104.85a17.58,17.58,0,0,1,4.2.48V103c0-1.44-.42-2-1.92-2.34a14.42,14.42,0,0,0-2.22-.18c-.54,0-.54-.3-.3-.42a58.27,58.27,0,0,0,7.5-4.14c1.32-.78,2.16,1,2.16,2.46V126l-3.3,1.8c-.18.12-1.38.9-1.56,1.08-.48.42-.54.42-.48.12a15,15,0,0,0,.12-2V112.47c0-2.64-2.82-4.5-6.78-4.5-2.58,0-6.48,1.38-10.5,4.5-.6.48-1.32.06-.9-.48A16.16,16.16,0,0,1,388,104.85Z"/><path d="M414.1,96c7.56,0,11.58,4.56,12.18,9.48,1.62-.06,3.6-.18,4.08-.24,2-.36,2.28-.3,1.62.18-.42.3-2.7,2.58-3.54,3.36l-.12.12H426.1c-1.56,6.66-10,9.42-14.4,9.72-.72.06-.6-.42,0-.66,4.8-2.1,8.16-4.08,8.46-9.06h-2.64c-.72,0-5.52.18-6.3.3-2,.36-2.28.3-1.62-.18.42-.3,2.7-2.58,3.54-3.36l.12-.12H420c-.72-5.34-3.9-7.62-7.08-7.62-4.32,0-7.08,2.7-7.08,4.68,0,.48-.12.66-.3.72a11.25,11.25,0,0,0-3.72,1.92c-.3.24-.72.48-.48-.24C402,103.17,405.22,96,414.1,96Z"/><path d="M454.54,111.63c0-2.7-1.56-4.14-4.62-4.14-1.92,0-5.22,2.58-6.9,3.66v4l-3.3,1.8c-.18.12-1.38.9-1.56,1.08-.48.42-.54.42-.48.12a15,15,0,0,0,.12-2V103.29c0-1.44-.42-2-1.92-2.34a14.42,14.42,0,0,0-2.22-.18c-.54,0-.54-.3-.3-.42a58.27,58.27,0,0,0,7.5-4.14c1.32-.78,2.16,1,2.16,2.46v10.26c2.16-.9,6.18-4,9.42-4,4.68,0,7.92,1.68,7.92,5.94,0,4.62-6.66,6.78-10.8,7.62-.48.12-.72-.06-.36-.24C451.18,117.27,454.54,115.29,454.54,111.63Z"/><path d="M480.1,115.05c-4.5-5.82-1.68-11.76,1.68-15.3,3.54-4,8.1-5.58,13.62-2.58,4.86,2.7,7.38,9.54,2.22,16.32C491.92,121,483.22,119.13,480.1,115.05Zm12.54-13.74c-3.48-2.64-7.5-2.94-9.3-1.08-2.46,2.58-1.56,8.28.66,11.16,2.64,3.42,8.7,5,10.8,3C498.34,110.91,495.82,103.83,492.64,101.31Z"/><path d="M504,100.47a14.42,14.42,0,0,0-2.22-.18c-.54,0-.54-.3-.3-.42a58.27,58.27,0,0,0,7.5-4.14c1.32-.78,2.16,1,2.16,2.46v9.54a14.89,14.89,0,0,1,7.32-1.92c5.52,0,9.6,3.78,10.86,5.34.24.3-.3.6-.48.78a27,27,0,0,0-3.9,3.54c-.18.24-.36.3-.54,0-1.2-2.4-3.9-7.74-7.74-7.74-3.54,0-5.52,1.86-5.52,5.28v12.78l-3.3,1.8c-.18.12-1.38.9-1.56,1.08-.48.42-.54.42-.48.12a15,15,0,0,0,.12-2v-24C506,101.37,505.54,100.77,504,100.47Z"/><path d="M563.62,116.55V102c0-1-1.44-1.08-1.44-1.44s10.2-4.5,12.48-4.5c1.2,0,7.74,3,7.74,8.7,0,10.5-11.94,15.06-18.18,15.06s-13.68-4.68-13.68-12.3V94.29c0-1.44-.42-2-1.92-2.34a14.42,14.42,0,0,0-2.22-.18c-.54,0-.54-.3-.3-.42a58.27,58.27,0,0,0,7.5-4.14c1.32-.78,2.16,1,2.16,2.46V104C555.76,109.71,558.76,114.93,563.62,116.55Zm12.72-9.9c0-4-5-6.78-7-6.78a1.66,1.66,0,0,0-.54.06v16.86C574.66,115.53,576.34,109.05,576.34,106.65Z"/><path d="M588,100.47a14.42,14.42,0,0,0-2.22-.18c-.54,0-.54-.3-.3-.42a58.27,58.27,0,0,0,7.5-4.14c1.32-.78,2.16,1,2.16,2.46v1.62h8.28c.72,0,5.52-.18,6.3-.3,2-.36,2.28-.3,1.62.18-.42.3-2.7,2.58-3.54,3.36l-.12.12H595.18v6c2.94-1.62,7.38-4.56,9.24-4.56,4,0,7.5,2.58,7.5,7,0,4.86-6.06,6.72-9.84,6.72-3.18,0-5.52-1.86-6.9-2.46v.48c0,4.26-8.7,12.06-9.9,12.66-.36.18-.66,0-.3-.36,1.08-1,5-7.68,5-11.52V102.81C590,101.37,589.54,100.77,588,100.47ZM603.7,116c2.4,0,2.94-.18,2.94-2.88,0-3.3-2.82-5.52-4.74-5.52-1.68,0-4.08,2.16-6.18,3.12C597.82,113.25,601.12,116,603.7,116Z"/><path d="M643.9,111.33a7.43,7.43,0,0,1-7.62,7.44c-8.76,0-9.6-7.56-9.6-5v2l-3.3,1.8c-.18.12-1.38.9-1.56,1.08-.48.42-.54.42-.48.12a15,15,0,0,0,.12-2v-7.56H621c-.72,0-5.52.18-6.3.3-2,.36-2.28.3-1.62-.18.42-.3,2.7-2.58,3.54-3.36l.12-.12h4.68v-2.16c0-1.44-.42-2-1.92-2.34a14.42,14.42,0,0,0-2.22-.18c-.54,0-.54-.3-.3-.42a58.27,58.27,0,0,0,7.5-4.14c1.32-.78,2.16,1,2.16,2.46v6.78c1.56-.06,4.92-.18,5.58-.3,2-.36,2.28-.3,1.62.18-.42.3-2.7,2.58-3.54,3.36l-.12.12h-3.3c.6,2.94,2.76,4.68,7,4.68,2.46,0,5.88-1.14,5.88-4.44,0-3.66-4.26-8.1-6.54-7.44-.72.18-1,.12-1-.12a3.17,3.17,0,0,1,.54-.66l2.94-2.7h4.14c.72,0,5.52-.18,6.3-.3,2-.36,2.28-.3,1.62.18-.42.3-2.7,2.58-3.54,3.36l-.12.12h-4.86C636.28,102,643.9,104.73,643.9,111.33Z"/><path d="M661.06,98.49v-5.4c0-1.44-.42-2-1.92-2.34a14.42,14.42,0,0,0-2.22-.18c-.54,0-.54-.3-.3-.42a58.27,58.27,0,0,0,7.5-4.14c1.32-.78,2.16,1,2.16,2.46v8.64a16,16,0,0,1,9.3,1.56c.12.06.06.06-.12.24A30.21,30.21,0,0,0,672.4,102c-.18.24-.3.48-.42.36a11.44,11.44,0,0,0-5.7-3v16.2c2.4.06,5.16,0,8.4-.24.6-.06-.48,1-1.5,2-.78.72-1.38,1.44-1.92,1.56-5,1-23.46.48-23.46-7.5C647.8,106,656.5,100.35,661.06,98.49Zm0,16.62V99.81c-3.54,1.68-6.9,6.3-6.9,10.2C654.16,112.53,656.2,114.33,661.06,115.11Z"/><path class="c" d="M680.2,100.47a12.41,12.41,0,0,0-2.1-.18c-.48,0-.48-.3-.3-.42a51.05,51.05,0,0,0,7.14-4.14c1.26-.78,2.1,1,2.1,2.46v1.62h7.86c.66,0,5.22-.18,6-.3l.48-.06a11.8,11.8,0,0,1,8.7-3.48c7,0,10.74,4.74,11.1,9.78,1.5-.06,5.16-.18,5.82-.3,2-.36,2.28-.3,1.62.18-.42.3-2.7,2.58-3.54,3.36l-.12.12h-4c-1.56,6.48-9.3,9.18-13.38,9.48-.66.06-.54-.42,0-.66,4.44-2,7.5-4,7.92-8.82h-3.36c-.72,0-5.52.18-6.3.3-2,.36-2.28.3-1.62-.18.42-.3,2.7-2.58,3.54-3.36l.12-.12h7.5c-.9-5.4-5-7.08-7.92-7.08-4,0-7.14,3.3-8.22,6.72a6.53,6.53,0,0,1,3.72,6.18c0,4.86-5.76,6.72-9.36,6.72-3,0-5.22-1.86-6.54-2.46v.48c0,4.26-8.28,12.06-9.42,12.66-.36.18-.66,0-.3-.36,1-1,4.74-7.68,4.74-11.52V102.81C682.06,101.37,681.64,100.77,680.2,100.47Zm15.6,4.14a8.07,8.07,0,0,1,2.1.3c.18-.42.42-1,.78-1.74H687v5.94C689.86,107.55,694.06,104.61,695.8,104.61Zm-.66,11.4c2.28,0,2.76-.18,2.76-2.88,0-3.3-2.64-5.52-4.5-5.52-1.56,0-3.84,2.16-5.88,3.12C689.5,113.25,692.68,116,695.14,116Z"/><path d="M734.2,90a14.42,14.42,0,0,0-2.22-.18c-.54,0-.54-.3-.3-.42a58.27,58.27,0,0,0,7.5-4.14c1.32-.78,2.16,1,2.16,2.46V99.39a3.33,3.33,0,0,1,1.5-.48c2.16-.06,4.56,1,6.9,4.5.9-1.44,3.12-4.5,5.76-4.5s4.44,2.76,6.72,6.3c2.46,3.78,5.52,9.42,8,9.42a3.23,3.23,0,0,0,2.4-1.56c.3-.36.48,0,.36.36-.54,1.44-3.06,4.8-6.42,4.8-2.46,0-3.3-1.38-5-4.5-1.08,2-3.42,4.5-5.52,4.5-3.42,0-7.38-6.18-9.6-10.38-1.62-3.12-2.7-4.44-5-4.68v11.16c1.26-.06,5.28-.18,6-.3,2-.36,2.28-.3,1.62.18-.42.3-2.7,2.58-3.54,3.36l-.12.12h-8.16c-.72,0-5.52.18-6.3.3-2,.36-2.28.3-1.62-.18.42-.3,2.7-2.58,3.54-3.36l.12-.12h3.24v-22C736.12,90.93,735.7,90.33,734.2,90Zm16.38,14.82c2.16,3.9,5.46,9.78,7.8,9.78a4.36,4.36,0,0,0,2.82-1.56l-1.68-2.94c-2.58-4.32-5-7.38-6.72-7.38-1,0-1.86,1-2.46,1.62Z"/><path d="M775.66,115.05c-4.5-5.82-1.68-11.76,1.68-15.3,3.54-4,8.1-5.58,13.62-2.58,4.86,2.7,7.38,9.54,2.22,16.32C787.48,121,778.78,119.13,775.66,115.05Zm12.54-13.74c-3.48-2.64-7.5-2.94-9.3-1.08-2.46,2.58-1.56,8.28.66,11.16,2.64,3.42,8.7,5,10.8,3C793.9,110.91,791.38,103.83,788.2,101.31Z"/><path d="M828,111.33a7.43,7.43,0,0,1-7.62,7.44c-8.76,0-9.6-7.56-9.6-5v2l-3.3,1.8c-.18.12-1.38.9-1.56,1.08-.48.42-.54.42-.48.12a15,15,0,0,0,.12-2v-7.56h-.42c-.72,0-5.52.18-6.3.3-2,.36-2.28.3-1.62-.18.42-.3,2.7-2.58,3.54-3.36l.12-.12h4.68v-2.16c0-1.44-.42-2-1.92-2.34a14.42,14.42,0,0,0-2.22-.18c-.54,0-.54-.3-.3-.42a58.27,58.27,0,0,0,7.5-4.14c1.32-.78,2.16,1,2.16,2.46v6.78c1.56-.06,4.92-.18,5.58-.3,2-.36,2.28-.3,1.62.18-.42.3-2.7,2.58-3.54,3.36l-.12.12H811c.6,2.94,2.76,4.68,7,4.68,2.46,0,5.88-1.14,5.88-4.44,0-3.66-4.26-8.1-6.54-7.44-.72.18-1,.12-1-.12a3.17,3.17,0,0,1,.54-.66l2.94-2.7H824c.72,0,5.52-.18,6.3-.3,2-.36,2.28-.3,1.62.18-.42.3-2.7,2.58-3.54,3.36l-.12.12h-4.86C820.36,102,828,104.73,828,111.33Z"/><path d="M836.08,100.89a14.42,14.42,0,0,0-2.22-.18c-.54,0-.54-.3-.3-.42a58.27,58.27,0,0,0,7.5-4.14c1.32-.78,2.16,1,2.16,2.46v17.22l-3.3,1.8c-.18.12-1.38.9-1.56,1.08-.48.42-.54.42-.48.12a15,15,0,0,0,.12-2V103.23C838,101.79,837.58,101.19,836.08,100.89Z"/><path d="M852.76,97c2.1-1.38,4.86-.06,4.86,3.24,0,3-4.74,3.84-4.74,9.72,0,3.6,1.74,7,7.8,7,6.78,0,9.6-4.2,10.56-7.38h-6.9v2.52l-3.3,1.8c-.18.12-1.38.9-1.56,1.08-.48.42-.54.42-.48.12a15,15,0,0,0,.12-2v-12.6l2-.9c2.52-1.38,5.22-3.6,6.24-3.6,3.06,0,9.24,1.92,9.24,9,0,8.28-8.4,14.1-17.64,14.1-4.38,0-11-1.32-11-7,0-4.86,4.86-6.48,4.68-9.84-.12-2.4-2.22-2.52-3.48-2-.42.18-.48-.06-.24-.24C850.3,99,852,97.53,852.76,97Zm18.84,9.18c-.42-4.92-4.68-5.88-7.26-5.64v5.64Z"/><path d="M882.82,90a14.42,14.42,0,0,0-2.22-.18c-.54,0-.54-.3-.3-.42a58.27,58.27,0,0,0,7.5-4.14c1.32-.78,2.16,1,2.16,2.46V99.39a3.33,3.33,0,0,1,1.5-.48c2.16-.06,4.56,1,6.9,4.5.9-1.44,3.12-4.5,5.76-4.5s4.44,2.76,6.72,6.3c2.46,3.78,5.52,9.42,8,9.42a3.23,3.23,0,0,0,2.4-1.56c.3-.36.48,0,.36.36-.54,1.44-3.06,4.8-6.42,4.8-2.46,0-3.3-1.38-5-4.5-1.08,2-3.42,4.5-5.52,4.5-3.42,0-7.38-6.18-9.6-10.38-1.62-3.12-2.7-4.44-5-4.68v11.16c1.26-.06,5.28-.18,6-.3,2-.36,2.28-.3,1.62.18-.42.3-2.7,2.58-3.54,3.36l-.12.12h-8.16c-.72,0-5.52.18-6.3.3-2,.36-2.28.3-1.62-.18.42-.3,2.7-2.58,3.54-3.36l.12-.12h3.24v-22C884.74,90.93,884.32,90.33,882.82,90Zm16.38,14.82c2.16,3.9,5.46,9.78,7.8,9.78a4.36,4.36,0,0,0,2.82-1.56l-1.68-2.94c-2.58-4.32-5-7.38-6.72-7.38-1,0-1.86,1-2.46,1.62Z"/></svg>