<svg xmlns="http://www.w3.org/2000/svg" xmlns:xlink="http://www.w3.org/1999/xlink" viewBox="0 0 1125 155"><defs><style>.a{fill:#fff;}.b{fill:url(#a);}.c{fill:url(#b);}.d{fill:url(#e);}.e{fill:url(#f);}.f{fill:url(#g);}.g{fill:url(#h);}</style><linearGradient id="a" x1="399" y1="106.19" x2="726.48" y2="106.19" gradientUnits="userSpaceOnUse"><stop offset="0" stop-color="#faaffa"/><stop offset="0.25" stop-color="#f2f279"/><stop offset="0.45" stop-color="#4cfff0"/><stop offset="0.6" stop-color="#5fcc29"/><stop offset="0.9" stop-color="#0045a6"/><stop offset="1" stop-color="#001466"/></linearGradient><linearGradient id="b" x1="399" y1="111.62" x2="726.48" y2="111.62" xlink:href="#a"/><linearGradient id="e" x1="399" y1="107.46" x2="726.48" y2="107.46" xlink:href="#a"/><linearGradient id="f" x1="399" y1="110" x2="726.48" y2="110" xlink:href="#a"/><linearGradient id="g" x1="399" y1="107.01" x2="726.48" y2="107.01" xlink:href="#a"/><linearGradient id="h" x1="399" y1="111.34" x2="726.48" y2="111.34" xlink:href="#a"/></defs><path class="a" d="M396.87,54.24c-5.82-7.5-2.4-17,2.46-22,5.16-5.76,12.24-7.8,19.68-3.72,7.62,4.2,10.2,14.16,3.18,24.18S401,59.46,396.87,54.24Zm19-20.22c-4.74-3.66-12.3-4.08-14.88-1.32-2,2.22-2.7,5.46-2.34,8.76h11c.72,0,5.52-.18,6.3-.3,2-.36,2.28-.3,1.62.18-.42.3-2.7,2.58-3.54,3.36l-.12.12H402.51l-3.18.12a17.38,17.38,0,0,0,2.58,5c4.62,6,13.68,6.66,16.62,3.78C424.29,48.12,421.41,38.34,415.83,34Z"/><path class="a" d="M435.75,32a14.42,14.42,0,0,0-2.22-.18c-.54,0-.54-.3-.3-.42a58.27,58.27,0,0,0,7.5-4.14c1.32-.78,2.16,1,2.16,2.46v4.38a17.11,17.11,0,0,1,20.28,3.78c.24.24.06.36-.12.48a17.64,17.64,0,0,0-4.56,3.84c-.24.36-.42.48-.6.06-1.14-2.52-4-7.26-9.24-7.26-3.24,0-5.76,1.74-5.76,5.64v14.4c0,7.2-10.14,8.4-13.8,8.4-1,0-.78-.42-.3-.54,3.66-1,8.88-4.68,8.88-7.86V34.38C437.67,32.94,437.25,32.34,435.75,32Z"/><path class="a" d="M473.07,32a14.42,14.42,0,0,0-2.22-.18c-.54,0-.54-.3-.3-.42a58.27,58.27,0,0,0,7.5-4.14c1.32-.78,2.16,1,2.16,2.46v4.38a17.11,17.11,0,0,1,20.28,3.78c.24.24.06.36-.12.48a17.64,17.64,0,0,0-4.56,3.84c-.24.36-.42.48-.6.06-1.14-2.52-4-7.26-9.24-7.26-3.24,0-5.76,1.74-5.76,5.64V43.8h3.18c.72,0,5.52-.18,6.3-.3,2-.36,2.28-.3,1.62.18-.42.3-2.7,2.58-3.54,3.36l-.12.12h-7.44v7.92c0,7.2-10.14,8.4-13.8,8.4-1,0-.78-.42-.3-.54,3.66-1,8.88-4.68,8.88-7.86V34.38C475,32.94,474.57,32.34,473.07,32Z"/><path class="a" d="M510.39,32a14.42,14.42,0,0,0-2.22-.18c-.54,0-.54-.3-.3-.42a58.27,58.27,0,0,0,7.5-4.14c1.32-.78,2.16,1,2.16,2.46v4.38a17.11,17.11,0,0,1,20.28,3.78c.24.24.06.36-.12.48a17.64,17.64,0,0,0-4.56,3.84c-.24.36-.42.48-.6.06-1.14-2.52-4-7.26-9.24-7.26-3.24,0-5.76,1.74-5.76,5.64V43.2h3.6c.72,0,5.52-.18,6.3-.3,2-.36,2.28-.3,1.62.18-.42.3-2.7,2.58-3.54,3.36l-.12.12h-7.86V50.1h3.6c.72,0,5.52-.18,6.3-.3,2-.36,2.28-.3,1.62.18-.42.3-2.7,2.58-3.54,3.36l-.12.12h-7.86v1.62c0,7.2-10.14,8.4-13.8,8.4-1,0-.78-.42-.3-.54,3.66-1,8.88-4.68,8.88-7.86V34.38C512.31,32.94,511.89,32.34,510.39,32Z"/><path class="a" d="M571.65,56.46c-1.2,1-1.26,1.44-2.4,2.52H551c-.72,0-5.52.18-6.3.3-2,.36-2.28.3-1.62-.18.42-.3,2.7-2.58,3.54-3.36l.12-.12h20.88c-1.38-2.7-3.48-6.78-5.76-10.8h-.48c-.72,0-5.52.18-6.3.3-2,.36-2.28.3-1.62-.18.42-.3,2.7-2.58,3.54-3.36l.12-.12h2.76c-3.48-5.76-7.14-10.68-9.36-10.68-2,0-4.26,3.42-4.26,5.34a3.88,3.88,0,0,0,2,3.78c.36.3-.18,1-.3,1.14a18.18,18.18,0,0,0-2.52,4.5c-.18.3-.3.54-.78.3-1-.42-2.28-3.3-2.28-5.1,0-7.5,6.06-13.2,10.56-13.2,4.2,0,9.36,7,13.5,13.92h.18c.72,0,5.52-.18,6.3-.3,2-.36,2.28-.3,1.62.18-.42.3-2.7,2.58-3.54,3.36l-.12.12h-2.52c3.12,5.58,5.22,10.26,5.34,10.2A9.32,9.32,0,0,0,571.65,56.46Z"/><path class="a" d="M596.91,31.56a14.42,14.42,0,0,0-2.22-.18c-.54,0-.54-.3-.3-.42a58.27,58.27,0,0,0,7.5-4.14c1.32-.78,2.16,1,2.16,2.46V57.9l-3.3,1.8c-.18.12-1.38.9-1.56,1.08-.48.42-.54.42-.48.12a15,15,0,0,0,.12-2V44c-8,4.38-12.12,7.74-13,11.64-.48,2.1,0,2.82,1.5,3.66.42.24.42.48,0,.48-1.8,0-5.28,1.32-6.66,1.86a3.49,3.49,0,0,1-2.1-3.48c0-4.8,7.32-9.36,20.28-16.5V33.9C598.83,32.46,598.41,31.86,596.91,31.56Z"/><path class="a" d="M636.75,55.32c2-.36,2.28-.3,1.62.18-.42.3-2.7,2.58-3.54,3.36l-.12.12H609.15l.06-.06h-.36l9.06-14h-.12c-.72,0-5.52.18-6.3.3-2,.36-2.28.3-1.62-.18.42-.3,2.7-2.58,3.54-3.36l.12-.12h6.54L625.59,33c2.28-3.48,5-4.86,8.58-4.86,2.52,0,5.58,2.64,5.58,6.3,0,5.34-4,8.46-6.36,10.62-.3.24-.66.06-.18-.72,1.5-2.16,2.94-5.94,1-9.06-1.32-2.1-2.7-2.64-4-2.64-.9,0-1.74.36-3.06,2.4L623,41.52c1.62-.06,4.92-.18,5.58-.3,2-.36,2.28-.3,1.62.18-.42.3-2.7,2.58-3.54,3.36l-.12.12h-5.7l-6.9,10.74h16.56C631.17,55.62,636,55.44,636.75,55.32Z"/><path class="a" d="M659.49,43.5c2.7,0,7,1.44,7,6.54,0,3.9-5.16,9.24-8.82,9.24a9.07,9.07,0,0,1-5.94-2.1L649,58.68c-.18.12-1.38.9-1.56,1.08-.48.42-.54.42-.48.12a15,15,0,0,0,.12-2v-24c0-1.44-.42-2-1.92-2.34a14.42,14.42,0,0,0-2.22-.18c-.54,0-.54-.3-.3-.42a58.27,58.27,0,0,0,7.5-4.14c1.32-.78,2.16,1,2.16,2.46v19S657.57,43.5,659.49,43.5Zm-1,13.92c1.8,0,3.06-1.32,3.06-3.54,0-6.3-3.9-7.32-4.86-6.6l-4.44,3.18v.48C652.29,53.88,657.45,57.42,658.53,57.42Z"/><path class="a" d="M691.83,43.5c2.7,0,7,1.44,7,6.54,0,3.9-5.16,9.24-8.82,9.24a9.07,9.07,0,0,1-5.94-2.1l-2.76,1.5c-.18.12-1.38.9-1.56,1.08-.48.42-.54.42-.48.12a15,15,0,0,0,.12-2V44.82h-3.18c-.72,0-5.52.18-6.3.3-2,.36-2.28.3-1.62-.18.42-.3,2.7-2.58,3.54-3.36l.12-.12h7.44V33.9c0-1.44-.42-2-1.92-2.34a14.42,14.42,0,0,0-2.22-.18c-.54,0-.54-.3-.3-.42a58.27,58.27,0,0,0,7.5-4.14c1.32-.78,2.16,1,2.16,2.46v19S689.91,43.5,691.83,43.5Zm-1,13.92c1.8,0,3.06-1.32,3.06-3.54,0-6.3-3.9-7.32-4.86-6.6l-4.44,3.18v.48C684.63,53.88,689.79,57.42,690.87,57.42Z"/><path class="a" d="M724.17,43.5c2.7,0,7,1.44,7,6.54,0,3.9-5.16,9.24-8.82,9.24a9.07,9.07,0,0,1-5.94-2.1l-2.76,1.5c-.18.12-1.38.9-1.56,1.08-.48.42-.54.42-.48.12a15,15,0,0,0,.12-2V50.82h-3.18c-.72,0-5.52.18-6.3.3-2,.36-2.28.3-1.62-.18.42-.3,2.7-2.58,3.54-3.36l.12-.12h7.44V44.82h-3.18c-.72,0-5.52.18-6.3.3-2,.36-2.28.3-1.62-.18.42-.3,2.7-2.58,3.54-3.36l.12-.12h7.44V33.9c0-1.44-.42-2-1.92-2.34a14.42,14.42,0,0,0-2.22-.18c-.54,0-.54-.3-.3-.42a58.27,58.27,0,0,0,7.5-4.14c1.32-.78,2.16,1,2.16,2.46v19S722.25,43.5,724.17,43.5Zm-1,13.92c1.8,0,3.06-1.32,3.06-3.54,0-6.3-3.9-7.32-4.86-6.6L717,50.46v.48C717,53.88,722.13,57.42,723.21,57.42Z"/><path class="a" d="M416,114.12c-4.5-5.82-1.68-11.76,1.68-15.3,3.54-4,8.1-5.58,13.62-2.58,4.86,2.7,7.38,9.54,2.22,16.32C427.8,120.06,419.1,118.2,416,114.12Zm12.54-13.74c-3.48-2.64-7.5-2.94-9.3-1.08-1.32,1.38-1.68,3.66-1.38,5.94h2.94c.72,0,5.52-.18,6.3-.3,2-.36,2.28-.3,1.62.18-.42.3-2.7,2.58-3.54,3.36l-.12.12H418.8a8,8,0,0,0,1.08,1.86c2.64,3.42,8.7,5,10.8,3C434.22,110,431.7,102.9,428.52,100.38Z"/><path class="a" d="M443,99.54a14.42,14.42,0,0,0-2.22-.18c-.54,0-.54-.3-.3-.42A58.27,58.27,0,0,0,448,94.8c1.32-.78,2.16,1,2.16,2.46v2.28a14.65,14.65,0,0,1,6.42-1.44,15.52,15.52,0,0,1,11.76,5.34c.24.3-.3.6-.48.78a24.46,24.46,0,0,0-3.72,3.36c-.18.24-.36.3-.54,0-1.2-2.4-3.48-7.56-8-7.56-3.42,0-5.4,2.88-5.4,6.78v10.08c0,7.8-8.58,11.76-12.24,11.76-1,0-.78-.42-.3-.54a10.69,10.69,0,0,0,7.32-9.66V101.88C445,100.44,444.54,99.84,443,99.54Z"/><path class="a" d="M474.24,99.54a14.42,14.42,0,0,0-2.22-.18c-.54,0-.54-.3-.3-.42a58.27,58.27,0,0,0,7.5-4.14c1.32-.78,2.16,1,2.16,2.46v2.28a14.65,14.65,0,0,1,6.42-1.44,15.52,15.52,0,0,1,11.76,5.34c.24.3-.3.6-.48.78a24.46,24.46,0,0,0-3.72,3.36c-.18.24-.36.3-.54,0-1.2-2.4-3.48-7.56-8-7.56-3.42,0-5.4,2.88-5.4,6.78v3.12h3.78c.72,0,5.52-.18,6.3-.3,2-.36,2.28-.3,1.62.18-.42.3-2.7,2.58-3.54,3.36l-.12.12h-8v3.6c0,7.8-8.58,11.76-12.24,11.76-1,0-.78-.42-.3-.54a10.69,10.69,0,0,0,7.32-9.66V101.88C476.16,100.44,475.74,99.84,474.24,99.54Z"/><path class="a" d="M505.44,99.54a14.42,14.42,0,0,0-2.22-.18c-.54,0-.54-.3-.3-.42a58.27,58.27,0,0,0,7.5-4.14c1.32-.78,2.16,1,2.16,2.46v2.28A14.65,14.65,0,0,1,519,98.1a15.52,15.52,0,0,1,11.76,5.34c.24.3-.3.6-.48.78a24.46,24.46,0,0,0-3.72,3.36c-.18.24-.36.3-.54,0-1.2-2.4-3.48-7.56-8-7.56-3.42,0-5.4,2.88-5.4,6.78v4.56c3-1.68,5.28-3.9,5.28-4.8,0-.24-1-.66,0-.9,2-.42,3.18-.6,5-1,1.32-.3.48,2-1.26,3.78-2.16,2.16-5.94,3.48-9,4.08v4.38a9.91,9.91,0,0,1-.48,3.06c3.24-1.68,5.76-4.08,5.76-5,0-.24-1-.66,0-.9,2-.42,3.18-.6,5-1,1.32-.3.48,2-1.26,3.78-2.4,2.34-6.72,3.78-9.9,4.2-2.22,5.1-8.4,7.68-11.34,7.68-1,0-.78-.42-.3-.54a10.69,10.69,0,0,0,7.32-9.66V101.88C507.36,100.44,506.94,99.84,505.44,99.54Z"/><path class="a" d="M557.1,117.6a22.37,22.37,0,0,0-2.46,2.1h-11.7c-.72,0-5.52.18-6.3.3-2,.36-2.28.3-1.62-.18.42-.3,2.7-2.58,3.54-3.36l.12-.12h14.94c-.66-1.38-2-3.9-3.72-6.66h-.72c-.72,0-5.52.18-6.3.3-2,.36-2.28.3-1.62-.18.42-.3,2.7-2.58,3.54-3.36l.12-.12h2.94c-2.94-4.68-6-9.12-7-9.12-2.22,0-3.24,3.06-3.24,4.08a4.62,4.62,0,0,0,1,2.88c.24.42,0,.6-.24,1a14,14,0,0,0-1.86,3.42c-.12.24-.3.48-.66.24a5,5,0,0,1-1.8-4c0-5.7,4.68-10.14,7.74-10.14,3.72,0,8.28,5.94,11.88,11.64h.6c.72,0,5.52-.18,6.3-.3,2-.36,2.28-.3,1.62.18-.42.3-2.7,2.58-3.54,3.36l-.12.12h-2.88c1.74,3,3,5.52,3.6,6.66A10.73,10.73,0,0,0,557.1,117.6Z"/><path class="a" d="M582.9,99.48a14.42,14.42,0,0,0-2.22-.18c-.54,0-.54-.3-.3-.42a58.27,58.27,0,0,0,7.5-4.14c1.32-.78,2.16,1,2.16,2.46v25l-3.3,1.8c-.18.12-1.38.9-1.56,1.08-.48.42-.54.42-.48.12a15,15,0,0,0,.12-2v-14c-6,3.24-10.92,6.36-11.88,10.74-.42,1.92,0,2.58,1.38,3.36.42.24.42.36,0,.42a34.24,34.24,0,0,0-5.64,1.74,3.17,3.17,0,0,1-1.92-3.24c0-3.78,6.48-8.1,18.06-14.58v-5.82C584.82,100.38,584.4,99.78,582.9,99.48Z"/><path class="a" d="M594.84,119.7h0Zm20.28-11.76c7.56-3.12,6.3-13.56-.36-13.62-2.82,0-4.74,2-7.14,5.7l-5,7.74H599.7l-.12.12c-.84.78-3.12,3.06-3.54,3.36-.66.48-.42.54,1.62.18l2.7-.18-5.46,8.46h19.38l.12-.12c.84-.78,3.12-3.06,3.54-3.36.66-.48.42-.54-1.62-.18-.78.12-5.58.3-6.3.3H599.94l3.36-5.22h6.12l.12-.12c.84-.78,3.12-3.06,3.54-3.36.66-.48.42-.54-1.62-.18-.72.12-4.68.24-6,.3l4-6.12c2-3.18,2.7-3.72,4-3.72,3.84,0,3.9,6.06,1.56,9.48C614.58,108,614.94,108,615.12,107.94Z"/><path class="a" d="M640,112c2.7,0,7,1.44,7,6.54,0,3.9-5.16,9.24-8.82,9.24a8.79,8.79,0,0,1-6.3-2.46l-2.4,1.32c-.18.12-1.38.9-1.56,1.08-.48.42-.54.42-.48.12a15,15,0,0,0,.12-2v-24c0-1.44-.42-2-1.92-2.34a14.42,14.42,0,0,0-2.22-.18c-.54,0-.54-.3-.3-.42a58.27,58.27,0,0,0,7.5-4.14c1.32-.78,2.16,1,2.16,2.46v19.5S638.1,112,640,112Zm-1,13.92c1.8,0,3.06-1.32,3.06-3.54,0-6.3-3.9-7.32-4.86-6.6L632.82,119v.48C632.82,122.4,638,125.94,639.06,125.94Z"/><path class="a" d="M672.18,112c2.7,0,7,1.44,7,6.54,0,3.9-5.16,9.24-8.82,9.24a8.79,8.79,0,0,1-6.3-2.46l-2.4,1.32c-.18.12-1.38.9-1.56,1.08-.48.42-.54.42-.48.12a15,15,0,0,0,.12-2V112.8h-3c-.72,0-5.52.18-6.3.3-2,.36-2.28.3-1.62-.18.42-.3,2.7-2.58,3.54-3.36l.12-.12h7.26v-7.56c0-1.44-.42-2-1.92-2.34a14.42,14.42,0,0,0-2.22-.18c-.54,0-.54-.3-.3-.42a58.27,58.27,0,0,0,7.5-4.14c1.32-.78,2.16,1,2.16,2.46v19.5S670.26,112,672.18,112Zm-1,13.92c1.8,0,3.06-1.32,3.06-3.54,0-6.3-3.9-7.32-4.86-6.6L665,119v.48C665,122.4,670.14,125.94,671.22,125.94Z"/><path class="a" d="M727,33.72V29.28c0-7.09-5.06-12.65-11.53-12.65a11.11,11.11,0,0,0-5.69,1.57c-.73.42-1.41.83-2.06,1.23a30.62,30.62,0,0,1-4.2,2.29c-.23.09-.45.19-.67.3a10.19,10.19,0,0,0-5.39,11.48,5.12,5.12,0,0,0,.15.56l-.3.29a17.59,17.59,0,0,0-2.65-.63V29.28c0-7.09-5.06-12.65-11.53-12.65a11.11,11.11,0,0,0-5.69,1.57c-.73.42-1.41.83-2.06,1.23a30.62,30.62,0,0,1-4.2,2.29c-.23.09-.45.19-.67.3a10.19,10.19,0,0,0-5.39,11.48,5.12,5.12,0,0,0,.15.56l-.3.29a17.59,17.59,0,0,0-2.65-.63V29.28c0-7.09-5.07-12.65-11.53-12.65a11.21,11.21,0,0,0-5.69,1.57c-.73.42-1.41.84-2.06,1.23l-1.34.81a14.66,14.66,0,0,0-7.5-2.1c-7.07,0-12.92,3.24-17,9.42l-2.57,4h-.58V29.28c0-7.09-5.06-12.65-11.53-12.65a11.13,11.13,0,0,0-5.69,1.57c-.73.42-1.41.83-2.06,1.23a30.62,30.62,0,0,1-4.2,2.29c-.22.09-.45.19-.67.3a10.18,10.18,0,0,0-3.61,15.26l-1.75,1a2.77,2.77,0,0,0-.12-.41,10.16,10.16,0,0,0-9.75-7,16.8,16.8,0,0,0-2.84.28c-5-7.36-11.07-13.67-18.84-13.67-5.75,0-11.22,3.16-15.08,8a26.36,26.36,0,0,0-12.51-3.15,11.07,11.07,0,0,0-15.09-3.66c-.73.42-1.41.84-2.06,1.23a31.22,31.22,0,0,1-4.2,2.29c-.22.09-.44.19-.65.3A10.41,10.41,0,0,0,500,25.18a26.46,26.46,0,0,0-11.94-2.84A11.07,11.07,0,0,0,473,18.68c-.73.42-1.41.84-2.06,1.23a31.22,31.22,0,0,1-4.2,2.29c-.22.09-.44.19-.65.3a10.41,10.41,0,0,0-3.38,2.68,26.46,26.46,0,0,0-11.94-2.84,11.15,11.15,0,0,0-9.39-5.23,11.27,11.27,0,0,0-5.7,1.57c-.73.42-1.41.84-2.06,1.23a30.62,30.62,0,0,1-4.2,2.29c-.22.09-.44.19-.65.3s-.37.2-.56.3a24.52,24.52,0,0,0-4.38-3.07,26,26,0,0,0-12.6-3.37c-7.11,0-13.92,3.21-19.21,9.05-8.28,8.7-12,23.45-3,35,4.16,5.31,12.09,8.74,20.22,8.74a26.9,26.9,0,0,0,10-1.9,10.45,10.45,0,0,0,9.86,6.24c14,0,23.8-7.57,23.8-18.4v-4a10.07,10.07,0,0,0,5.25,1.48A10.3,10.3,0,0,0,465,49.91v2.61a7.14,7.14,0,0,1-1.53.78,10.24,10.24,0,0,0-7.68,11.18,10.4,10.4,0,0,0,10.63,9c13.24,0,22.7-6.75,23.71-16.63a9.92,9.92,0,0,0,4.57-2.59l0,0,1.38-1.33.42-.4a10.34,10.34,0,0,0,5.8-2.62v2.63a7.14,7.14,0,0,1-1.53.78,10.25,10.25,0,0,0-7.69,11.18,10.42,10.42,0,0,0,10.64,9c10,0,17.87-3.86,21.54-10h.12a10,10,0,0,0,7.07-2.93h0l.34-.32a9.91,9.91,0,0,0,.45,2.34,10.16,10.16,0,0,0,9.75,7,18.11,18.11,0,0,0,3.07-.32c1.06-.08,4.29-.2,4.93-.21h18.24a9.84,9.84,0,0,0,3.57-.67,14.4,14.4,0,0,0,3.36,2.31,10,10,0,0,0,8.11.37,25.09,25.09,0,0,1,3.53-1.18,10.56,10.56,0,0,0,4.32-1.17,10,10,0,0,0,6.59,2.47h0a10.38,10.38,0,0,0,6.74-2.54l.24-.17c.24.08.48.16.73.22a9.64,9.64,0,0,0,2.65.36h25.62a10,10,0,0,0,5.41-1.6A10.09,10.09,0,0,0,647,70.09h0a10.06,10.06,0,0,0,5.36-1.54,19.82,19.82,0,0,0,5.36.73c4.34,0,8.79-2.23,12.28-5.57a10,10,0,0,0,9.34,6.38h0a10.06,10.06,0,0,0,5.36-1.54,19.82,19.82,0,0,0,5.36.73c4.34,0,8.8-2.23,12.29-5.58a9.92,9.92,0,0,0,9.33,6.39h0A10.06,10.06,0,0,0,717,68.55a19.82,19.82,0,0,0,5.36.73c9.14,0,18.82-9.89,18.82-19.24C741.19,40.51,734.29,34.87,727,33.72Z"/><path class="a" d="M707.14,102.24v-5c0-7.1-5.06-12.65-11.53-12.65a11.13,11.13,0,0,0-5.69,1.57c-.73.42-1.41.83-2.06,1.23a30.62,30.62,0,0,1-4.2,2.29L683,90a10.19,10.19,0,0,0-5.41,11.48c0,.24.12.47.19.7l-.22.22-.37.35a18.74,18.74,0,0,0-2.22-.5v-5c0-7.1-5.06-12.65-11.53-12.65a11.13,11.13,0,0,0-5.69,1.57c-.73.42-1.41.83-2.06,1.23a30.62,30.62,0,0,1-4.2,2.29l-.65.29a10.19,10.19,0,0,0-5.41,11.48c0,.24.12.47.19.7-.08.07-.15.15-.22.22l-.37.35a18.74,18.74,0,0,0-2.22-.5v-5c0-7.1-5.07-12.65-11.53-12.65a11.22,11.22,0,0,0-5.69,1.56c-.65.38-1.25.75-1.83,1.1a15.51,15.51,0,0,0-9-3c-8.22,0-12.86,6.24-15.11,9.62-1.28-5.46-5.71-9.39-11.14-9.39a11.11,11.11,0,0,0-5.69,1.57c-.73.42-1.41.83-2.06,1.23a30.62,30.62,0,0,1-4.2,2.29c-.22.09-.45.19-.67.3a10.21,10.21,0,0,0-5.65,9.48,10.31,10.31,0,0,0-7.9-3.63,17.14,17.14,0,0,0-3.07.32l-.34,0c-4.52-6.21-10-11.45-17.07-11.45a16.72,16.72,0,0,0-12.06,5.81,25.54,25.54,0,0,0-10.72-2.39,11,11,0,0,0-8-3.49,11.16,11.16,0,0,0-5.69,1.57c-.73.42-1.41.83-2.06,1.23a31.16,31.16,0,0,1-4.19,2.29c-.23.09-.44.19-.66.29l-.43.24a25.62,25.62,0,0,0-10.14-2.13,11,11,0,0,0-8-3.49,11.16,11.16,0,0,0-5.69,1.57c-.73.42-1.41.83-2.06,1.23a31.16,31.16,0,0,1-4.19,2.29c-.23.09-.45.19-.66.29l-.43.24a25.62,25.62,0,0,0-10.14-2.13,11,11,0,0,0-8-3.49A11.16,11.16,0,0,0,443,86.18c-.73.42-1.41.83-2.06,1.23-1,.6-1.8,1.09-2.6,1.52a20.18,20.18,0,0,0-2.24-1.48,21.51,21.51,0,0,0-10.3-2.76c-4,0-10,1.28-15.45,7.35-8,8.53-8.9,19.58-2.27,28.15a19.92,19.92,0,0,0,15.86,7.49,22.23,22.23,0,0,0,3.38-.27,10.22,10.22,0,0,0,10.66,11.23c9.24,0,22.1-8.19,22.24-21.55a10.21,10.21,0,0,0,6,.43v.67a1.52,1.52,0,0,1-.31.36,10.25,10.25,0,0,0-7.35,11.09,10.42,10.42,0,0,0,10.64,9c7.72,0,18-5.72,21.22-15.4l.73-.11a10.08,10.08,0,0,0-1.38,6.51,10.4,10.4,0,0,0,10.63,9c5.67,0,12.89-3.21,17.5-8.81a28,28,0,0,0,8.56-4.1,10.25,10.25,0,0,0,8.54,4.5,18.11,18.11,0,0,0,3.07-.32c1.06-.08,4.29-.2,4.93-.21h11.7a10,10,0,0,0,3.8-.76,13.1,13.1,0,0,0,6,5.58,10.07,10.07,0,0,0,4.23.94,9.93,9.93,0,0,0,3.56-.66c1.82-.69,3.09-1.08,3.53-1.19a11,11,0,0,0,2.44-.64,10.07,10.07,0,0,0,6.51,2.4h0a10.38,10.38,0,0,0,6.74-2.54l.43-.29,2.94-1.6a10.34,10.34,0,0,0,1.74-1.24h17.71a10,10,0,0,0,3.26-.56,10,10,0,0,0,10,8.93h0a9.93,9.93,0,0,0,4.75-1.19,19.77,19.77,0,0,0,6,.92c4.36,0,8.83-2.25,12.32-5.61a10,10,0,0,0,9.12,5.88h0a9.93,9.93,0,0,0,4.75-1.19,19.77,19.77,0,0,0,6,.92c4.35,0,8.82-2.25,12.32-5.6a9.79,9.79,0,0,0,1.37,2.21,10.07,10.07,0,0,0,7.75,3.66h0a9.93,9.93,0,0,0,4.75-1.19,19.77,19.77,0,0,0,6,.92c9.14,0,18.82-9.89,18.82-19.24C721.36,109,714.46,103.39,707.14,102.24Z"/><path class="a" d="M704.34,112c2.7,0,7,1.44,7,6.54,0,3.9-5.16,9.24-8.82,9.24a8.79,8.79,0,0,1-6.3-2.46l-2.4,1.32c-.18.12-1.38.9-1.56,1.08-.48.42-.54.42-.48.12a15,15,0,0,0,.12-2V119h-3c-.72,0-5.52.18-6.3.3-2,.36-2.28.3-1.62-.18.42-.3,2.7-2.58,3.54-3.36l.12-.12h7.26V112.8h-3c-.72,0-5.52.18-6.3.3-2,.36-2.28.3-1.62-.18.42-.3,2.7-2.58,3.54-3.36l.12-.12h7.26v-7.56c0-1.44-.42-2-1.92-2.34a14.42,14.42,0,0,0-2.22-.18c-.54,0-.54-.3-.3-.42A58.27,58.27,0,0,0,695,94.8c1.32-.78,2.16,1,2.16,2.46v19.5S702.42,112,704.34,112Zm-1,13.92c1.8,0,3.06-1.32,3.06-3.54,0-6.3-3.9-7.32-4.86-6.6L697.14,119v.48C697.14,122.4,702.3,125.94,703.38,125.94Z"/><path d="M396.87,54.24c-5.82-7.5-2.4-17,2.46-22,5.16-5.76,12.24-7.8,19.68-3.72,7.62,4.2,10.2,14.16,3.18,24.18S401,59.46,396.87,54.24Zm19-20.22c-4.74-3.66-12.3-4.08-14.88-1.32-2,2.22-2.7,5.46-2.34,8.76h11c.72,0,5.52-.18,6.3-.3,2-.36,2.28-.3,1.62.18-.42.3-2.7,2.58-3.54,3.36l-.12.12H402.51l-3.18.12a17.38,17.38,0,0,0,2.58,5c4.62,6,13.68,6.66,16.62,3.78C424.29,48.12,421.41,38.34,415.83,34Z"/><path d="M435.75,32a14.42,14.42,0,0,0-2.22-.18c-.54,0-.54-.3-.3-.42a58.27,58.27,0,0,0,7.5-4.14c1.32-.78,2.16,1,2.16,2.46v4.38a17.11,17.11,0,0,1,20.28,3.78c.24.24.06.36-.12.48a17.64,17.64,0,0,0-4.56,3.84c-.24.36-.42.48-.6.06-1.14-2.52-4-7.26-9.24-7.26-3.24,0-5.76,1.74-5.76,5.64v14.4c0,7.2-10.14,8.4-13.8,8.4-1,0-.78-.42-.3-.54,3.66-1,8.88-4.68,8.88-7.86V34.38C437.67,32.94,437.25,32.34,435.75,32Z"/><path d="M473.07,32a14.42,14.42,0,0,0-2.22-.18c-.54,0-.54-.3-.3-.42a58.27,58.27,0,0,0,7.5-4.14c1.32-.78,2.16,1,2.16,2.46v4.38a17.11,17.11,0,0,1,20.28,3.78c.24.24.06.36-.12.48a17.64,17.64,0,0,0-4.56,3.84c-.24.36-.42.48-.6.06-1.14-2.52-4-7.26-9.24-7.26-3.24,0-5.76,1.74-5.76,5.64V43.8h3.18c.72,0,5.52-.18,6.3-.3,2-.36,2.28-.3,1.62.18-.42.3-2.7,2.58-3.54,3.36l-.12.12h-7.44v7.92c0,7.2-10.14,8.4-13.8,8.4-1,0-.78-.42-.3-.54,3.66-1,8.88-4.68,8.88-7.86V34.38C475,32.94,474.57,32.34,473.07,32Z"/><path d="M510.39,32a14.42,14.42,0,0,0-2.22-.18c-.54,0-.54-.3-.3-.42a58.27,58.27,0,0,0,7.5-4.14c1.32-.78,2.16,1,2.16,2.46v4.38a17.11,17.11,0,0,1,20.28,3.78c.24.24.06.36-.12.48a17.64,17.64,0,0,0-4.56,3.84c-.24.36-.42.48-.6.06-1.14-2.52-4-7.26-9.24-7.26-3.24,0-5.76,1.74-5.76,5.64V43.2h3.6c.72,0,5.52-.18,6.3-.3,2-.36,2.28-.3,1.62.18-.42.3-2.7,2.58-3.54,3.36l-.12.12h-7.86V50.1h3.6c.72,0,5.52-.18,6.3-.3,2-.36,2.28-.3,1.62.18-.42.3-2.7,2.58-3.54,3.36l-.12.12h-7.86v1.62c0,7.2-10.14,8.4-13.8,8.4-1,0-.78-.42-.3-.54,3.66-1,8.88-4.68,8.88-7.86V34.38C512.31,32.94,511.89,32.34,510.39,32Z"/><path d="M571.65,56.46c-1.2,1-1.26,1.44-2.4,2.52H551c-.72,0-5.52.18-6.3.3-2,.36-2.28.3-1.62-.18.42-.3,2.7-2.58,3.54-3.36l.12-.12h20.88c-1.38-2.7-3.48-6.78-5.76-10.8h-.48c-.72,0-5.52.18-6.3.3-2,.36-2.28.3-1.62-.18.42-.3,2.7-2.58,3.54-3.36l.12-.12h2.76c-3.48-5.76-7.14-10.68-9.36-10.68-2,0-4.26,3.42-4.26,5.34a3.88,3.88,0,0,0,2,3.78c.36.3-.18,1-.3,1.14a18.18,18.18,0,0,0-2.52,4.5c-.18.3-.3.54-.78.3-1-.42-2.28-3.3-2.28-5.1,0-7.5,6.06-13.2,10.56-13.2,4.2,0,9.36,7,13.5,13.92h.18c.72,0,5.52-.18,6.3-.3,2-.36,2.28-.3,1.62.18-.42.3-2.7,2.58-3.54,3.36l-.12.12h-2.52c3.12,5.58,5.22,10.26,5.34,10.2A9.32,9.32,0,0,0,571.65,56.46Z"/><path d="M596.91,31.56a14.42,14.42,0,0,0-2.22-.18c-.54,0-.54-.3-.3-.42a58.27,58.27,0,0,0,7.5-4.14c1.32-.78,2.16,1,2.16,2.46V57.9l-3.3,1.8c-.18.12-1.38.9-1.56,1.08-.48.42-.54.42-.48.12a15,15,0,0,0,.12-2V44c-8,4.38-12.12,7.74-13,11.64-.48,2.1,0,2.82,1.5,3.66.42.24.42.48,0,.48-1.8,0-5.28,1.32-6.66,1.86a3.49,3.49,0,0,1-2.1-3.48c0-4.8,7.32-9.36,20.28-16.5V33.9C598.83,32.46,598.41,31.86,596.91,31.56Z"/><path d="M636.75,55.32c2-.36,2.28-.3,1.62.18-.42.3-2.7,2.58-3.54,3.36l-.12.12H609.15l.06-.06h-.36l9.06-14h-.12c-.72,0-5.52.18-6.3.3-2,.36-2.28.3-1.62-.18.42-.3,2.7-2.58,3.54-3.36l.12-.12h6.54L625.59,33c2.28-3.48,5-4.86,8.58-4.86,2.52,0,5.58,2.64,5.58,6.3,0,5.34-4,8.46-6.36,10.62-.3.24-.66.06-.18-.72,1.5-2.16,2.94-5.94,1-9.06-1.32-2.1-2.7-2.64-4-2.64-.9,0-1.74.36-3.06,2.4L623,41.52c1.62-.06,4.92-.18,5.58-.3,2-.36,2.28-.3,1.62.18-.42.3-2.7,2.58-3.54,3.36l-.12.12h-5.7l-6.9,10.74h16.56C631.17,55.62,636,55.44,636.75,55.32Z"/><path d="M659.49,43.5c2.7,0,7,1.44,7,6.54,0,3.9-5.16,9.24-8.82,9.24a9.07,9.07,0,0,1-5.94-2.1L649,58.68c-.18.12-1.38.9-1.56,1.08-.48.42-.54.42-.48.12a15,15,0,0,0,.12-2v-24c0-1.44-.42-2-1.92-2.34a14.42,14.42,0,0,0-2.22-.18c-.54,0-.54-.3-.3-.42a58.27,58.27,0,0,0,7.5-4.14c1.32-.78,2.16,1,2.16,2.46v19S657.57,43.5,659.49,43.5Zm-1,13.92c1.8,0,3.06-1.32,3.06-3.54,0-6.3-3.9-7.32-4.86-6.6l-4.44,3.18v.48C652.29,53.88,657.45,57.42,658.53,57.42Z"/><path d="M691.83,43.5c2.7,0,7,1.44,7,6.54,0,3.9-5.16,9.24-8.82,9.24a9.07,9.07,0,0,1-5.94-2.1l-2.76,1.5c-.18.12-1.38.9-1.56,1.08-.48.42-.54.42-.48.12a15,15,0,0,0,.12-2V44.82h-3.18c-.72,0-5.52.18-6.3.3-2,.36-2.28.3-1.62-.18.42-.3,2.7-2.58,3.54-3.36l.12-.12h7.44V33.9c0-1.44-.42-2-1.92-2.34a14.42,14.42,0,0,0-2.22-.18c-.54,0-.54-.3-.3-.42a58.27,58.27,0,0,0,7.5-4.14c1.32-.78,2.16,1,2.16,2.46v19S689.91,43.5,691.83,43.5Zm-1,13.92c1.8,0,3.06-1.32,3.06-3.54,0-6.3-3.9-7.32-4.86-6.6l-4.44,3.18v.48C684.63,53.88,689.79,57.42,690.87,57.42Z"/><path d="M724.17,43.5c2.7,0,7,1.44,7,6.54,0,3.9-5.16,9.24-8.82,9.24a9.07,9.07,0,0,1-5.94-2.1l-2.76,1.5c-.18.12-1.38.9-1.56,1.08-.48.42-.54.42-.48.12a15,15,0,0,0,.12-2V50.82h-3.18c-.72,0-5.52.18-6.3.3-2,.36-2.28.3-1.62-.18.42-.3,2.7-2.58,3.54-3.36l.12-.12h7.44V44.82h-3.18c-.72,0-5.52.18-6.3.3-2,.36-2.28.3-1.62-.18.42-.3,2.7-2.58,3.54-3.36l.12-.12h7.44V33.9c0-1.44-.42-2-1.92-2.34a14.42,14.42,0,0,0-2.22-.18c-.54,0-.54-.3-.3-.42a58.27,58.27,0,0,0,7.5-4.14c1.32-.78,2.16,1,2.16,2.46v19S722.25,43.5,724.17,43.5Zm-1,13.92c1.8,0,3.06-1.32,3.06-3.54,0-6.3-3.9-7.32-4.86-6.6L717,50.46v.48C717,53.88,722.13,57.42,723.21,57.42Z"/><path class="b" d="M416,114.12c-4.5-5.82-1.68-11.76,1.68-15.3,3.54-4,8.1-5.58,13.62-2.58,4.86,2.7,7.38,9.54,2.22,16.32C427.8,120.06,419.1,118.2,416,114.12Zm12.54-13.74c-3.48-2.64-7.5-2.94-9.3-1.08-1.32,1.38-1.68,3.66-1.38,5.94h2.94c.72,0,5.52-.18,6.3-.3,2-.36,2.28-.3,1.62.18-.42.3-2.7,2.58-3.54,3.36l-.12.12H418.8a8,8,0,0,0,1.08,1.86c2.64,3.42,8.7,5,10.8,3C434.22,110,431.7,102.9,428.52,100.38Z"/><path class="c" d="M443,99.54a14.42,14.42,0,0,0-2.22-.18c-.54,0-.54-.3-.3-.42A58.27,58.27,0,0,0,448,94.8c1.32-.78,2.16,1,2.16,2.46v2.28a14.65,14.65,0,0,1,6.42-1.44,15.52,15.52,0,0,1,11.76,5.34c.24.3-.3.6-.48.78a24.46,24.46,0,0,0-3.72,3.36c-.18.24-.36.3-.54,0-1.2-2.4-3.48-7.56-8-7.56-3.42,0-5.4,2.88-5.4,6.78v10.08c0,7.8-8.58,11.76-12.24,11.76-1,0-.78-.42-.3-.54a10.69,10.69,0,0,0,7.32-9.66V101.88C445,100.44,444.54,99.84,443,99.54Z"/><path class="c" d="M474.24,99.54a14.42,14.42,0,0,0-2.22-.18c-.54,0-.54-.3-.3-.42a58.27,58.27,0,0,0,7.5-4.14c1.32-.78,2.16,1,2.16,2.46v2.28a14.65,14.65,0,0,1,6.42-1.44,15.52,15.52,0,0,1,11.76,5.34c.24.3-.3.6-.48.78a24.46,24.46,0,0,0-3.72,3.36c-.18.24-.36.3-.54,0-1.2-2.4-3.48-7.56-8-7.56-3.42,0-5.4,2.88-5.4,6.78v3.12h3.78c.72,0,5.52-.18,6.3-.3,2-.36,2.28-.3,1.62.18-.42.3-2.7,2.58-3.54,3.36l-.12.12h-8v3.6c0,7.8-8.58,11.76-12.24,11.76-1,0-.78-.42-.3-.54a10.69,10.69,0,0,0,7.32-9.66V101.88C476.16,100.44,475.74,99.84,474.24,99.54Z"/><path class="c" d="M505.44,99.54a14.42,14.42,0,0,0-2.22-.18c-.54,0-.54-.3-.3-.42a58.27,58.27,0,0,0,7.5-4.14c1.32-.78,2.16,1,2.16,2.46v2.28A14.65,14.65,0,0,1,519,98.1a15.52,15.52,0,0,1,11.76,5.34c.24.3-.3.6-.48.78a24.46,24.46,0,0,0-3.72,3.36c-.18.24-.36.3-.54,0-1.2-2.4-3.48-7.56-8-7.56-3.42,0-5.4,2.88-5.4,6.78v4.56c3-1.68,5.28-3.9,5.28-4.8,0-.24-1-.66,0-.9,2-.42,3.18-.6,5-1,1.32-.3.48,2-1.26,3.78-2.16,2.16-5.94,3.48-9,4.08v4.38a9.91,9.91,0,0,1-.48,3.06c3.24-1.68,5.76-4.08,5.76-5,0-.24-1-.66,0-.9,2-.42,3.18-.6,5-1,1.32-.3.48,2-1.26,3.78-2.4,2.34-6.72,3.78-9.9,4.2-2.22,5.1-8.4,7.68-11.34,7.68-1,0-.78-.42-.3-.54a10.69,10.69,0,0,0,7.32-9.66V101.88C507.36,100.44,506.94,99.84,505.44,99.54Z"/><path class="d" d="M557.1,117.6a22.37,22.37,0,0,0-2.46,2.1h-11.7c-.72,0-5.52.18-6.3.3-2,.36-2.28.3-1.62-.18.42-.3,2.7-2.58,3.54-3.36l.12-.12h14.94c-.66-1.38-2-3.9-3.72-6.66h-.72c-.72,0-5.52.18-6.3.3-2,.36-2.28.3-1.62-.18.42-.3,2.7-2.58,3.54-3.36l.12-.12h2.94c-2.94-4.68-6-9.12-7-9.12-2.22,0-3.24,3.06-3.24,4.08a4.62,4.62,0,0,0,1,2.88c.24.42,0,.6-.24,1a14,14,0,0,0-1.86,3.42c-.12.24-.3.48-.66.24a5,5,0,0,1-1.8-4c0-5.7,4.68-10.14,7.74-10.14,3.72,0,8.28,5.94,11.88,11.64h.6c.72,0,5.52-.18,6.3-.3,2-.36,2.28-.3,1.62.18-.42.3-2.7,2.58-3.54,3.36l-.12.12h-2.88c1.74,3,3,5.52,3.6,6.66A10.73,10.73,0,0,0,557.1,117.6Z"/><path class="e" d="M582.9,99.48a14.42,14.42,0,0,0-2.22-.18c-.54,0-.54-.3-.3-.42a58.27,58.27,0,0,0,7.5-4.14c1.32-.78,2.16,1,2.16,2.46v25l-3.3,1.8c-.18.12-1.38.9-1.56,1.08-.48.42-.54.42-.48.12a15,15,0,0,0,.12-2v-14c-6,3.24-10.92,6.36-11.88,10.74-.42,1.92,0,2.58,1.38,3.36.42.24.42.36,0,.42a34.24,34.24,0,0,0-5.64,1.74,3.17,3.17,0,0,1-1.92-3.24c0-3.78,6.48-8.1,18.06-14.58v-5.82C584.82,100.38,584.4,99.78,582.9,99.48Z"/><path class="f" d="M594.84,119.7h0Zm20.28-11.76c7.56-3.12,6.3-13.56-.36-13.62-2.82,0-4.74,2-7.14,5.7l-5,7.74H599.7l-.12.12c-.84.78-3.12,3.06-3.54,3.36-.66.48-.42.54,1.62.18l2.7-.18-5.46,8.46h19.38l.12-.12c.84-.78,3.12-3.06,3.54-3.36.66-.48.42-.54-1.62-.18-.78.12-5.58.3-6.3.3H599.94l3.36-5.22h6.12l.12-.12c.84-.78,3.12-3.06,3.54-3.36.66-.48.42-.54-1.62-.18-.72.12-4.68.24-6,.3l4-6.12c2-3.18,2.7-3.72,4-3.72,3.84,0,3.9,6.06,1.56,9.48C614.58,108,614.94,108,615.12,107.94Z"/><path class="g" d="M640,112c2.7,0,7,1.44,7,6.54,0,3.9-5.16,9.24-8.82,9.24a8.79,8.79,0,0,1-6.3-2.46l-2.4,1.32c-.18.12-1.38.9-1.56,1.08-.48.42-.54.42-.48.12a15,15,0,0,0,.12-2v-24c0-1.44-.42-2-1.92-2.34a14.42,14.42,0,0,0-2.22-.18c-.54,0-.54-.3-.3-.42a58.27,58.27,0,0,0,7.5-4.14c1.32-.78,2.16,1,2.16,2.46v19.5S638.1,112,640,112Zm-1,13.92c1.8,0,3.06-1.32,3.06-3.54,0-6.3-3.9-7.32-4.86-6.6L632.82,119v.48C632.82,122.4,638,125.94,639.06,125.94Z"/><path class="g" d="M672.18,112c2.7,0,7,1.44,7,6.54,0,3.9-5.16,9.24-8.82,9.24a8.79,8.79,0,0,1-6.3-2.46l-2.4,1.32c-.18.12-1.38.9-1.56,1.08-.48.42-.54.42-.48.12a15,15,0,0,0,.12-2V112.8h-3c-.72,0-5.52.18-6.3.3-2,.36-2.28.3-1.62-.18.42-.3,2.7-2.58,3.54-3.36l.12-.12h7.26v-7.56c0-1.44-.42-2-1.92-2.34a14.42,14.42,0,0,0-2.22-.18c-.54,0-.54-.3-.3-.42a58.27,58.27,0,0,0,7.5-4.14c1.32-.78,2.16,1,2.16,2.46v19.5S670.26,112,672.18,112Zm-1,13.92c1.8,0,3.06-1.32,3.06-3.54,0-6.3-3.9-7.32-4.86-6.6L665,119v.48C665,122.4,670.14,125.94,671.22,125.94Z"/><path class="g" d="M704.34,112c2.7,0,7,1.44,7,6.54,0,3.9-5.16,9.24-8.82,9.24a8.79,8.79,0,0,1-6.3-2.46l-2.4,1.32c-.18.12-1.38.9-1.56,1.08-.48.42-.54.42-.48.12a15,15,0,0,0,.12-2V119h-3c-.72,0-5.52.18-6.3.3-2,.36-2.28.3-1.62-.18.42-.3,2.7-2.58,3.54-3.36l.12-.12h7.26V112.8h-3c-.72,0-5.52.18-6.3.3-2,.36-2.28.3-1.62-.18.42-.3,2.7-2.58,3.54-3.36l.12-.12h7.26v-7.56c0-1.44-.42-2-1.92-2.34a14.42,14.42,0,0,0-2.22-.18c-.54,0-.54-.3-.3-.42A58.27,58.27,0,0,0,695,94.8c1.32-.78,2.16,1,2.16,2.46v19.5S702.42,112,704.34,112Zm-1,13.92c1.8,0,3.06-1.32,3.06-3.54,0-6.3-3.9-7.32-4.86-6.6L697.14,119v.48C697.14,122.4,702.3,125.94,703.38,125.94Z"/></svg>