<?xml version="1.0" encoding="utf-8"?>
<!-- Generator: Adobe Illustrator 25.4.1, SVG Export Plug-In . SVG Version: 6.00 Build 0)  -->
<svg version="1.1" xmlns="http://www.w3.org/2000/svg" xmlns:xlink="http://www.w3.org/1999/xlink" x="0px" y="0px"
	 viewBox="0 0 1125 155" style="enable-background:new 0 0 1125 155;" xml:space="preserve">
<style type="text/css">
	.st0{display:none;}
	.st1{display:inline;}
	.st2{fill:url(#SVGID_1_);}
	.st3{fill:url(#SVGID_00000127744221682229592530000005431085667491175334_);}
	.st4{fill:url(#SVGID_00000012434186905749791720000009268315655120064135_);}
	.st5{fill:url(#SVGID_00000034076320908533617980000010843483991926688896_);}
	.st6{fill:url(#SVGID_00000010285357058081984660000017933329154426544298_);}
	.st7{fill:url(#SVGID_00000073705707674009426720000014249927151417393811_);}
	.st8{fill:url(#SVGID_00000165217801413285629980000002716897869325053354_);}
	.st9{fill:url(#SVGID_00000070838891026669231250000013819697048402749373_);}
	.st10{fill:url(#SVGID_00000163755645426650936370000016473394820387496836_);}
	.st11{fill:url(#SVGID_00000032625731513671383560000008248188417772038536_);}
	.st12{fill:url(#SVGID_00000165231835280510768460000005881633959998416317_);}
	.st13{fill:url(#SVGID_00000027581954152214127170000016554608067404244391_);}
	.st14{fill:url(#SVGID_00000016062073745634209350000013045628563661353361_);}
	.st15{fill:url(#SVGID_00000123430205204852267850000008467906108744262804_);}
	.st16{fill:url(#SVGID_00000116201685410594410230000006133197299691848326_);}
	.st17{fill:url(#SVGID_00000102546236099235042360000016091896493784460184_);}
	.st18{fill:url(#SVGID_00000088121315349245415150000002866379800338202806_);}
	.st19{fill:url(#SVGID_00000013910390928390409460000012926421840412548014_);}
	.st20{fill:url(#SVGID_00000099644427195703645170000000923871235462509229_);}
	.st21{fill:url(#SVGID_00000043447035590639638600000007857269082976048793_);}
	.st22{fill:url(#SVGID_00000078738224767512447850000009245239152123729067_);}
	.st23{fill:url(#SVGID_00000014635658514126815890000001738887205509981317_);}
	.st24{fill:url(#SVGID_00000036949691068989180450000008188840524651476103_);}
	.st25{fill:url(#SVGID_00000067221962399133228010000006438839375182964396_);}
	.st26{fill:url(#SVGID_00000095298457478029939860000009606162829503753626_);}
	.st27{fill:url(#SVGID_00000133521974795688633200000014634244982532092315_);}
	.st28{fill:url(#SVGID_00000015319420377654583850000001651295184594022071_);}
	.st29{fill:url(#SVGID_00000024697335777556673600000006694988339999982222_);}
	.st30{fill:url(#SVGID_00000147934216335404446090000005061411561922802876_);}
	.st31{fill:url(#SVGID_00000080925939710057998750000010983383503453715895_);}
	.st32{fill:url(#SVGID_00000101082176337414177790000012168056554390063269_);}
	.st33{fill:url(#SVGID_00000153706636033483930580000013158839574606782135_);}
	.st34{fill:url(#SVGID_00000074423351818723479330000004467065907644204205_);}
	.st35{fill:url(#SVGID_00000151506703903662499930000010497071100776291484_);}
	.st36{fill:url(#SVGID_00000093150818072596586200000010428416577512434106_);}
	.st37{fill:url(#SVGID_00000137107067414812046460000012439335375871332484_);}
	.st38{fill:url(#SVGID_00000177463071437735121400000015904143701694697607_);}
	.st39{fill:url(#SVGID_00000070083175313633417490000017288371322009968014_);}
	.st40{fill:url(#SVGID_00000180340606917499738250000008039671902171034776_);}
	.st41{fill:url(#SVGID_00000087407945021682564560000001284084510158410930_);}
	.st42{fill:url(#SVGID_00000062155245836394142240000016831638788895850646_);}
	.st43{fill:url(#SVGID_00000169538889090461405580000013971188869421777078_);}
	.st44{fill:url(#SVGID_00000032617143715652117570000016499552036615903878_);}
	.st45{fill:url(#SVGID_00000027580586522303419270000017037407365834727334_);}
	.st46{fill:url(#SVGID_00000010296454444392547360000004592578482870801565_);}
	.st47{fill:url(#SVGID_00000140719958461859303500000006442208305481723563_);}
	.st48{fill:url(#SVGID_00000074401896108332061810000013095027205331798937_);}
	.st49{fill:url(#SVGID_00000074433945779269766330000012440506715875335041_);}
	.st50{fill:url(#SVGID_00000098196883883940165200000016978852676547258779_);}
	.st51{fill:url(#SVGID_00000028312407954417016070000014111287119320536713_);}
	.st52{fill:url(#SVGID_00000005986004656971457440000006657509473996340866_);}
	.st53{fill:url(#SVGID_00000152235585162875819260000015847412139431827845_);}
	.st54{fill:url(#SVGID_00000173863265328591450940000010441087311421501586_);}
	.st55{fill:url(#SVGID_00000070815677436069161190000016711884727284491686_);}
	.st56{fill:url(#SVGID_00000148648925069853553650000012313291847740072093_);}
	.st57{fill:url(#SVGID_00000036935695454928595710000014945495569878535352_);}
	.st58{fill:url(#SVGID_00000067916967062566708360000013985611271484313016_);}
	.st59{fill:url(#SVGID_00000173878684466784222520000000814059751340316803_);}
	.st60{fill:url(#SVGID_00000063609807669397392940000006956008465811000726_);}
	.st61{fill:url(#SVGID_00000112628762877061573430000016087319996642878871_);}
	.st62{fill:url(#SVGID_00000083767830539144417140000004865896253122551723_);}
	.st63{fill:url(#SVGID_00000021111875015503206540000003379950716561773210_);}
	.st64{fill:url(#SVGID_00000126298116926215908990000010122712488498298514_);}
	.st65{fill:url(#SVGID_00000103262563750918140420000011904631655637608833_);}
	.st66{fill:url(#SVGID_00000005236994829238993770000018074442062045572523_);}
	.st67{fill:url(#SVGID_00000054964157331605441490000014547938699206029744_);}
	.st68{fill:url(#SVGID_00000065767389892956803990000011596676720184802224_);}
	.st69{fill:url(#SVGID_00000029035967951909246170000008019207397033434810_);}
	.st70{fill:url(#SVGID_00000045618347496598709410000015367372359858797739_);}
	.st71{fill:url(#SVGID_00000146459326291028855590000011868271382891340934_);}
	.st72{fill:url(#SVGID_00000110447021995173377760000003357057048478406318_);}
	.st73{fill:url(#SVGID_00000014622544027397531220000007934200423722833295_);}
	.st74{fill:url(#SVGID_00000135650279190114097810000008082844606010454438_);}
	.st75{fill:url(#SVGID_00000085933482079980184120000014007660871285838501_);}
	.st76{fill:url(#SVGID_00000159463502597646310070000007463764090444648834_);}
	.st77{fill:url(#SVGID_00000100361489581273716970000014094171339172940712_);}
	.st78{fill:url(#SVGID_00000030472637753158710600000000362812526597316244_);}
	.st79{fill:url(#SVGID_00000019650744283610956140000004242890162911718297_);}
	.st80{fill:url(#SVGID_00000033340931017097923840000015916373816974748566_);}
	.st81{fill:url(#SVGID_00000018223000755863268480000000675103569953428385_);}
	.st82{fill:url(#SVGID_00000000924455059725814400000011163121907730473639_);}
	.st83{fill:url(#SVGID_00000127746540766683816650000001904356031461351868_);}
	.st84{fill:url(#SVGID_00000027575939611819416600000012303430583342679209_);}
	.st85{fill:url(#SVGID_00000006699112192739574680000010781060156499794089_);}
	.st86{fill:url(#SVGID_00000075878999472887780960000003082855442283517608_);}
	.st87{fill:url(#SVGID_00000168079836274046020670000009458461536463842955_);}
	.st88{fill:url(#SVGID_00000183934219171474608420000017902840639328097678_);}
	.st89{fill:url(#SVGID_00000034076435952583512390000004041413015956503485_);}
	.st90{fill:url(#SVGID_00000004510382480654970800000000509231418823141562_);}
	.st91{fill:url(#SVGID_00000051365768057393692880000011285728433483400834_);}
	.st92{fill:url(#SVGID_00000040557545963179039930000013604973904370239643_);}
	.st93{fill:url(#SVGID_00000177474195696452855150000005438732129370995883_);}
	.st94{fill:url(#SVGID_00000120549306061424813730000017313505891868448445_);}
	.st95{fill:url(#SVGID_00000129919226008643176360000005105220873465194672_);}
	.st96{fill:url(#SVGID_00000162310460446241503750000005217385141856763563_);}
	.st97{fill:url(#SVGID_00000094603677678727395760000008159528601712970663_);}
	.st98{fill:url(#SVGID_00000096023153286641640510000001779860851282994102_);}
	.st99{fill:url(#SVGID_00000029746291353059464270000016412148993513445301_);}
	.st100{fill:url(#SVGID_00000083050652688395176080000003334632744154602146_);}
	.st101{fill:url(#SVGID_00000009579371788959542060000003803248578925476773_);}
	.st102{fill:url(#SVGID_00000148626175592137508950000008741892727628748732_);}
	.st103{fill:url(#SVGID_00000019639541850792122560000003331774101188468621_);}
	.st104{fill:url(#SVGID_00000009588766309765175670000013681207927894905771_);}
	.st105{fill:url(#SVGID_00000075882808643528635530000007590114216239642803_);}
	.st106{display:inline;filter:url(#AI_Glow_00000082339626348982425920000005477591265732809389_);}
	.st107{fill:url(#SVGID_00000069390812086392781470000016246239319585959073_);}
	.st108{display:inline;filter:url(#AI_Glow_00000120535432205092968130000012386198945989651375_);}
	.st109{fill:url(#SVGID_00000110450171651379355060000016223856153428841118_);}
	.st110{fill:url(#SVGID_00000063622277000316925850000005458772481270799251_);}
	.st111{display:inline;filter:url(#AI_Glow_00000091011488232430953480000015283040014961282211_);}
	.st112{fill:url(#SVGID_00000010289981533592920080000003612277950408731030_);}
	.st113{fill:url(#SVGID_00000009547823213731831750000014212730277429858443_);}
	.st114{fill:url(#SVGID_00000138562833646807585120000009322858449651640476_);}
	.st115{fill:url(#SVGID_00000049185328469059315060000004559579367708815807_);}
	.st116{fill:url(#SVGID_00000062877164444215473280000007035481945605498285_);}
	.st117{fill:url(#SVGID_00000160175960039042290870000011466090427453343634_);}
	.st118{fill:url(#SVGID_00000049186997996739411400000000998266763724351652_);}
	.st119{fill:url(#SVGID_00000108276364923350733370000006267622551959593384_);}
	.st120{fill:url(#SVGID_00000132089945174843812300000003619732503711249794_);}
	.st121{fill:url(#SVGID_00000111175486832741645890000007468789620434709417_);}
	.st122{fill:url(#SVGID_00000176742065737835042690000016355647027358615444_);}
	.st123{fill:url(#SVGID_00000044151864604078424760000001729676402802657169_);}
	.st124{fill:url(#SVGID_00000160188842358791149000000013143358631104468112_);}
	.st125{fill:url(#SVGID_00000006695305288794947820000014236222540232295093_);}
	.st126{display:inline;filter:url(#AI_Glow_00000104673944761097152000000009981809522403609781_);}
	.st127{fill:#FFFFFF;}
	.st128{fill:url(#SVGID_00000124136928120043740530000008751141960946667161_);}
	.st129{fill:url(#SVGID_00000092438086411616011200000012101210308932607646_);}
	.st130{fill:url(#SVGID_00000150077855054393424210000007744691047182302599_);}
	.st131{fill:url(#SVGID_00000120536543871829437020000010496139623878055047_);}
	.st132{fill:url(#SVGID_00000182503620845609305530000000573174901606971049_);}
	.st133{fill:url(#SVGID_00000016039641893696799940000006319426753655769532_);}
	.st134{fill:url(#SVGID_00000056396185639348876900000012735604925028341918_);}
	.st135{fill:url(#SVGID_00000129913694697519001870000010724032519503375238_);}
	.st136{fill:url(#SVGID_00000079467617366068167730000014005608661601237172_);}
	.st137{fill:url(#SVGID_00000031197730636040989840000015511716545985265559_);}
	.st138{fill:url(#SVGID_00000006685961752486569160000002375136127859517598_);}
	.st139{fill:url(#SVGID_00000098932627504991511440000018184456125094452866_);}
	.st140{fill:url(#SVGID_00000164480011278833574900000004916993063581754806_);}
	.st141{fill:url(#SVGID_00000168112116486573168730000003345769998509911986_);}
	.st142{fill:url(#SVGID_00000051377988626874459480000010148591732822743698_);}
	.st143{fill:url(#SVGID_00000173867756426188003460000013078077488070837638_);}
	.st144{fill:url(#SVGID_00000132075013214428334610000003636994065821824161_);}
	.st145{fill:url(#SVGID_00000052826227922190852970000005704827955372271023_);}
	.st146{fill:url(#SVGID_00000108300416028919635320000009425416258182249376_);}
	.st147{fill:url(#SVGID_00000174571148800280509530000011223059697698320282_);}
	.st148{fill:url(#SVGID_00000128443615752273551870000013533511539154813075_);}
	.st149{fill:url(#SVGID_00000164512155971275461300000000831187334802448771_);}
	.st150{fill:url(#SVGID_00000003107198731575743650000014652933084709075113_);}
	.st151{fill:url(#SVGID_00000096021862580420012470000014750721888469835917_);}
	.st152{fill:url(#SVGID_00000059288243244343001620000001920096475970819232_);}
	.st153{fill:url(#SVGID_00000129200940253858668670000011905231502197804929_);}
	.st154{fill:url(#SVGID_00000083055346295777547500000014175081040750023058_);}
	.st155{fill:url(#SVGID_00000127746695796218280450000017394487338039235505_);}
	.st156{fill:url(#SVGID_00000021832215540734273850000011965569613350538625_);}
	.st157{fill:url(#SVGID_00000136412138328021770160000016290989773947834541_);}
	.st158{fill:url(#SVGID_00000148623061651832269160000015459354254400880000_);}
	.st159{fill:url(#SVGID_00000015313534147046387560000008262933641295536517_);}
	.st160{fill:url(#SVGID_00000094616336010755170730000013970316421644872110_);}
	.st161{fill:url(#SVGID_00000005244986773694039410000005130566561339168167_);}
	.st162{fill:url(#SVGID_00000054987665344915231510000017526424648656459441_);}
	.st163{fill:url(#SVGID_00000129176950973424570670000017748591600838333347_);}
	.st164{fill:url(#SVGID_00000003070392150527399520000011098633677042167201_);}
	.st165{fill:url(#SVGID_00000132773380128228338870000009909917379183623335_);}
	.st166{fill:url(#SVGID_00000049181194429326445770000010199082525669785002_);}
	.st167{fill:url(#SVGID_00000148626235184553307040000006556132605813087110_);}
	.st168{fill:url(#SVGID_00000072977534449736358150000012799015040891476648_);}
	.st169{fill:url(#SVGID_00000169531923414982950010000013097943804478379692_);}
	.st170{fill:url(#SVGID_00000163757079660175220920000009121470326557062579_);}
	.st171{fill:url(#SVGID_00000145781150180668635690000009212544205630111420_);}
	.st172{fill:url(#SVGID_00000037653191063503011390000013636980047927070598_);}
	.st173{fill:url(#SVGID_00000023998121774869424960000007129611039395991946_);}
	.st174{fill:url(#SVGID_00000007418052645590890290000015974095272617432993_);}
	.st175{fill:url(#SVGID_00000108300560104628336730000008990362683222358400_);}
	.st176{fill:url(#SVGID_00000150068089341379655530000012741016826435284866_);}
	.st177{fill:url(#SVGID_00000176016869850794733690000010280643303934611079_);}
	.st178{fill:url(#SVGID_00000144298469082032156140000007597436065964803217_);}
	.st179{fill:url(#SVGID_00000101086833353200213410000014597707028553881772_);}
	.st180{fill:url(#SVGID_00000152266098255570298080000009116904794126636707_);}
	.st181{fill:url(#SVGID_00000015346189167567272470000007911467636467156622_);}
	.st182{fill:url(#SVGID_00000068667623901295726120000001424790728778638263_);}
	.st183{fill:url(#SVGID_00000029013181128945476390000011741456517000153247_);}
	.st184{fill:url(#SVGID_00000096765122757556349930000006858242541659534230_);}
	.st185{fill:url(#SVGID_00000179644987294492092650000013518061041512736641_);}
	.st186{fill:url(#SVGID_00000049218466495074562200000000955739358273193635_);}
	.st187{fill:url(#SVGID_00000072265337259205220170000013438797660181027739_);}
	.st188{fill:url(#SVGID_00000112596809295363257240000002332727618670958236_);}
	.st189{fill:url(#SVGID_00000057826797759928991340000014325828163766602125_);}
	.st190{fill:url(#SVGID_00000103950399350560176210000002296307545932952509_);}
	.st191{fill:url(#SVGID_00000103235984070015748940000001135978267009753504_);}
	.st192{fill:url(#SVGID_00000158722519919119129500000005449018625059484594_);}
	.st193{fill:url(#SVGID_00000181065400333073158430000010379430711285363132_);}
	.st194{fill:url(#SVGID_00000027592937402359716160000013708251673694421151_);}
	.st195{fill:url(#SVGID_00000047033227600703525900000002296330417411147451_);}
	.st196{fill:url(#SVGID_00000088093078860548552950000016926829222434983868_);}
	.st197{fill:url(#SVGID_00000143582835428096312380000006474765016423281819_);}
	.st198{fill:url(#SVGID_00000170266992818555038960000005133312998821545611_);}
	.st199{fill:url(#SVGID_00000160187693551150644940000012971089182026042520_);}
	.st200{fill:url(#SVGID_00000172429705887186732650000002186236631799632535_);}
	.st201{fill:url(#SVGID_00000098220958106164377570000008079898837558928810_);}
	.st202{fill:url(#SVGID_00000018947341159014094710000012700253320874639283_);}
	.st203{fill:url(#SVGID_00000173129562539782219240000008100867011891277193_);}
	.st204{fill:url(#SVGID_00000158006244855314433480000012619854371599529405_);}
	.st205{fill:url(#SVGID_00000152224528125750628110000006005932547596824229_);}
	.st206{fill:url(#SVGID_00000176038273479456400390000015271060134516619184_);}
	.st207{fill:url(#SVGID_00000006673794430219902870000006715737112981041825_);}
	.st208{fill:url(#SVGID_00000132080179817052318180000009874430709899575696_);}
	.st209{fill:url(#SVGID_00000121266825818667934590000008573422468584123780_);}
	.st210{fill:url(#SVGID_00000162320607726881999500000002810675507895948678_);}
	.st211{fill:url(#SVGID_00000073680822282609361810000007579391834838225047_);}
	.st212{fill:url(#SVGID_00000069388896500284547640000003301442288857340560_);}
	.st213{fill:url(#SVGID_00000091706036164210512710000002264609597666464150_);}
	.st214{fill:url(#SVGID_00000132799593836982087900000000609848579002120855_);}
	.st215{fill:url(#SVGID_00000137843220962207011720000014229123418903893426_);}
	.st216{fill:url(#SVGID_00000044867570774854465940000004308799307228806563_);}
	.st217{fill:url(#SVGID_00000120555612360940413260000004148682553365335479_);}
	.st218{fill:url(#SVGID_00000121973877165135156320000001543061532940307876_);}
	.st219{fill:url(#SVGID_00000013177482933333995990000006204125804815595409_);}
	.st220{fill:url(#SVGID_00000018924181546211297820000001170023040148856252_);}
	.st221{fill:url(#SVGID_00000098910990486121250040000015553556548945976767_);}
	.st222{fill:url(#SVGID_00000000183731178989922040000014027076637164601008_);}
	.st223{fill:url(#SVGID_00000041256162710459753330000015309173592396280476_);}
	.st224{fill:url(#SVGID_00000108279392139615813920000002917834819756557480_);}
	.st225{fill:url(#SVGID_00000036963251224480895460000015804539667215190691_);}
	.st226{fill:url(#SVGID_00000058571607397713224530000007656483484955463348_);}
	.st227{fill:url(#SVGID_00000065755489171324444130000012515691685750186414_);}
	.st228{fill:url(#SVGID_00000035491388496932862370000001844386923507455369_);}
	.st229{fill:url(#SVGID_00000180337000012786397250000008683705504514015415_);}
	.st230{fill:url(#SVGID_00000179637634416527391220000003622718368032994476_);}
	.st231{fill:url(#SVGID_00000072274336720320324370000007055414043479603104_);}
	.st232{fill:url(#SVGID_00000078725981465783257430000004317573213344703370_);}
	.st233{fill:url(#SVGID_00000160191432590999650580000001063121732981203857_);}
	.st234{fill:url(#SVGID_00000014614870442993691370000003273937157045773721_);}
	.st235{fill:url(#SVGID_00000005963999988988695270000015111338133505457069_);}
	.st236{fill:url(#SVGID_00000094587200661842880360000005524332902183556737_);}
	.st237{fill:url(#SVGID_00000181789931451911627300000009690660291572194697_);}
	.st238{fill:url(#SVGID_00000155134059469778901010000017986532458970002106_);}
	.st239{fill:url(#SVGID_00000112614888505911134660000000876380906663326852_);}
	.st240{fill:url(#SVGID_00000044150907436368083920000011627304334609145253_);}
	.st241{fill:url(#SVGID_00000081640942094201779670000003368073217456496004_);}
	.st242{fill:url(#SVGID_00000028305074451591541150000005682519172563013269_);}
	.st243{fill:url(#SVGID_00000120541449759766770280000015929314353030897850_);}
	.st244{fill:url(#SVGID_00000174594401301067905620000004060339704842973319_);}
	.st245{fill:url(#SVGID_00000145763827648672257880000016110674052413543358_);}
	.st246{fill:url(#SVGID_00000163787580666194548140000008214296775813457339_);}
	.st247{fill:url(#SVGID_00000176001226334261444940000017175069102505263001_);}
	.st248{fill:url(#SVGID_00000035500672763786583970000016890888899027440268_);}
	.st249{fill:url(#SVGID_00000098184788757222777520000002124919915424337297_);}
	.st250{fill:url(#SVGID_00000109750504529163721600000010148993816069975192_);}
	.st251{fill:url(#SVGID_00000082368776446062907180000005382898995501033388_);}
	.st252{fill:url(#SVGID_00000130617430906870468350000013384044930784284318_);}
	.st253{fill:url(#SVGID_00000041985171486501335300000006240671430389184947_);}
	.st254{fill:url(#SVGID_00000075156501408610826040000013874979202023591842_);}
	.st255{fill:url(#SVGID_00000169544186882722784490000011553082065511773851_);}
	.st256{fill:url(#SVGID_00000005958311443221772090000011832903785107215541_);}
	.st257{fill:url(#SVGID_00000162354254463375163100000003144026163732342969_);}
	.st258{fill:url(#SVGID_00000033359575549634037420000005555987413893730702_);}
	.st259{fill:url(#SVGID_00000170966338394676994940000014205601806984019635_);}
	.st260{fill:url(#SVGID_00000019642519648648024190000002011558094733749635_);}
	.st261{fill:url(#SVGID_00000005268468678630544850000017638878374900575648_);}
	.st262{fill:url(#SVGID_00000142882352079355342760000013876627214729924776_);}
	.st263{fill:url(#SVGID_00000138546181751718090620000005964025382737552039_);}
	.st264{fill:url(#SVGID_00000080199618582257753340000014988545258997584000_);}
	.st265{fill:url(#SVGID_00000166659024687810973890000011273427844732170423_);}
	.st266{fill:url(#SVGID_00000008832322538143246780000017936217250301827472_);}
	.st267{fill:url(#SVGID_00000052812085463663764470000013582638344535246769_);}
	.st268{fill:url(#SVGID_00000117671044896477452840000004770048156618799504_);}
	.st269{fill:url(#SVGID_00000181088517296392916600000004396101315812267667_);}
	.st270{fill:url(#SVGID_00000060712975362054751860000016768457452777109929_);}
	.st271{fill:url(#SVGID_00000055664947778454706690000001447976982763204253_);}
	.st272{fill:url(#SVGID_00000049190588604471141440000005280695094633086901_);}
	.st273{fill:url(#SVGID_00000067221469489614549550000015782956229039016844_);}
	.st274{fill:url(#SVGID_00000056392964320552328210000003991317013609914536_);}
	.st275{fill:url(#SVGID_00000088107420796878659110000015520388146199282561_);}
	.st276{fill:url(#SVGID_00000149352058310732801420000013578671045095646088_);}
	.st277{fill:url(#SVGID_00000054242418408132930530000009489720701111861936_);}
	.st278{fill:url(#SVGID_00000111184959452228351180000002358354697545692860_);}
	.st279{fill:url(#SVGID_00000119831892291020638940000003058557098608540803_);}
	.st280{fill:url(#SVGID_00000034054658726701771790000016729335036663635881_);}
	.st281{fill:url(#SVGID_00000061463178479129935780000007356465156189591452_);}
	.st282{fill:url(#SVGID_00000137091460051425542970000002356371540884233607_);}
	.st283{fill:url(#SVGID_00000026885780767478943930000015027205394710374323_);}
	.st284{fill:url(#SVGID_00000139257620720459243960000015043936947951066242_);}
	.st285{fill:url(#SVGID_00000153698684393358980170000006763445644164899516_);}
	.st286{fill:url(#SVGID_00000111888752229332093910000011312427760152543395_);}
	.st287{fill:url(#SVGID_00000041294682074287434320000000850271005010993286_);}
	.st288{fill:url(#SVGID_00000011737594269407775010000005695989882545854139_);}
	.st289{fill:url(#SVGID_00000025401392265630078270000003329472393847534210_);}
	.st290{fill:url(#SVGID_00000154422129408037954710000003634582020017189016_);}
	.st291{fill:url(#SVGID_00000152951361344794499150000005028509954679012254_);}
	.st292{fill:url(#SVGID_00000158002772919486331300000003743354512661959079_);}
	.st293{fill:url(#SVGID_00000155842301807515135840000012159187954619082886_);}
	.st294{display:inline;fill:url(#SVGID_00000179634146656580505190000004847298987668928189_);}
</style>
<filter  id="AI_Glow_00000091011488232430953480000015283040014961282211_"></filter>
<g id="Eorzean" class="st0">
	<g class="st111">
		<g>
			<g>
				<path d="M208.08-7.43c6.24,0,10.98,2.16,10.98,4.62v25.14l-3.3,1.8c-0.18,0.12-1.38,0.9-1.56,1.08
					c-0.48,0.42-0.54,0.42-0.48,0.12c0.06-0.18,0.12-1.38,0.12-1.98V0.85c0-3.66-4.92-5.16-8.04-5.16c-3.18,0-7.56,1.44-11.46,4.5
					c-0.54,0.42-1.08,0-0.72-0.54C195-2.39,199.14-7.43,208.08-7.43z"/>
				<path d="M225.06-3.05c-0.6-0.12-1.68-0.18-2.22-0.18s-0.54-0.3-0.3-0.42c2.76-1.14,4.74-2.52,7.5-4.14
					c1.32-0.78,2.16,0.96,2.16,2.46v16.5c1.14-0.18,2.64-0.78,5.22-2.1c3-1.56,3.96-3.36,4.26-4.68c0.3-1.32-0.9-1.92-1.44-2.28
					c-0.36-0.18-0.42-0.54,0.24-0.54c1.5,0,3.66-0.18,5.58-0.72c0.6-0.12,0.72,0.06,0.72,1.14c0,4.2-2.7,4.92-6.06,6.9
					c5.7,0.24,9.66,2.1,9.66,6.42c0,4.92-7.2,9.06-11.82,10.5c-0.6,0.18-0.72-0.06-0.3-0.36c2.64-1.68,6.3-5.4,6.3-9
					c0-2.22-1.38-5.4-6.96-5.76c-2.28,1.26-4.26,2.16-5.4,2.76v8.82l-3.3,1.8c-0.18,0.12-1.38,0.9-1.56,1.08
					c-0.48,0.42-0.54,0.42-0.48,0.12c0.06-0.18,0.12-1.38,0.12-1.98v-24C226.98-2.15,226.56-2.75,225.06-3.05z"/>
				<path d="M265.26,0.49c8.16,0,12.24,5.34,12.24,10.68c0,8.28-9.78,11.58-14.64,11.94c-0.72,0.06-0.6-0.42,0-0.66
					c4.74-2.04,8.04-4.02,8.46-8.82h-7.44c-0.72,0-5.52,0.18-6.3,0.3c-2.04,0.36-2.28,0.3-1.62-0.18c0.42-0.3,2.7-2.58,3.54-3.36
					l0.12-0.12h11.64c-0.72-5.52-3.96-7.86-7.14-7.86c-4.32,0-7.08,2.7-7.08,4.68c0,0.48-0.12,0.66-0.3,0.72
					c-1.74,0.6-2.76,1.14-3.72,1.92c-0.3,0.24-0.72,0.48-0.48-0.24C253.2,7.69,256.38,0.49,265.26,0.49z"/>
				<path d="M297.9-3.05c-0.6-0.12-1.68-0.18-2.22-0.18s-0.54-0.3-0.3-0.42c2.76-1.14,4.74-2.52,7.5-4.14
					c1.32-0.78,2.16,0.96,2.16,2.46V6.43c4.26-1.92,7.5-3.96,8.88-5.22c3.66-3.36,3.42-4.8,3.24-5.52c-0.3-1.02-2.1-1.08-2.46-1.38
					c-0.42-0.36,1.26-0.54,2.46-0.78c1.32-0.3,3.06-0.6,4.38-0.6c1.08,0,2.16,0.9,2.16,2.04c0,2.7-3.06,4.32-6.66,6.48
					c6.9,0.36,10.02,3.78,10.02,8.82c0,6.84-6.84,11.28-14.22,15.42c-0.72,0.42-0.84-0.06-0.36-0.42c2.88-2.4,7.62-8.16,7.62-13.26
					c0-2.52-0.36-7.32-7.62-7.8c-2.64,1.5-5.94,3.06-7.44,4.56v13.5l-3.3,1.8c-0.18,0.12-1.38,0.9-1.56,1.08
					c-0.48,0.42-0.54,0.42-0.48,0.12c0.06-0.18,0.12-1.38,0.12-1.98v-24C299.82-2.15,299.4-2.75,297.9-3.05z"/>
				<path d="M331.8,19.57c-4.5-5.82-1.68-11.76,1.68-15.3c3.54-3.96,8.1-5.58,13.62-2.58c4.86,2.7,7.38,9.54,2.22,16.32
					C343.62,25.51,334.92,23.65,331.8,19.57z M335.7,15.91c2.64,3.42,8.7,5.04,10.8,3c3.54-3.48,1.02-10.56-2.16-13.08
					c-3.48-2.64-7.5-2.94-9.3-1.08C332.58,7.33,333.48,13.03,335.7,15.91z"/>
				<path d="M356.04-2.99c-0.6-0.12-1.68-0.18-2.22-0.18s-0.54-0.3-0.3-0.42c2.76-1.14,4.74-2.52,7.5-4.14
					c1.32-0.78,2.16,0.96,2.16,2.46v27.96h2.22c0.72,0,5.52-0.18,6.3-0.3c2.04-0.36,2.28-0.3,1.62,0.18
					c-0.42,0.3-2.7,2.58-3.54,3.36l-0.12,0.12h-11.64h-0.06c-0.06,0-0.06,0-0.06,0h0.06v-26.7C357.96-2.09,357.54-2.69,356.04-2.99z
					"/>
				<path d="M378.66,19.57c-4.5-5.82-1.68-11.76,1.68-15.3c3.54-3.96,8.1-5.58,13.62-2.58c4.86,2.7,7.38,9.54,2.22,16.32
					C390.48,25.51,381.78,23.65,378.66,19.57z M382.56,15.91c2.64,3.42,8.7,5.04,10.8,3c3.54-3.48,1.02-10.56-2.16-13.08
					c-3.48-2.64-7.5-2.94-9.3-1.08C379.44,7.33,380.34,13.03,382.56,15.91z"/>
				<path d="M425.16,20.35l-3.3,1.8c-0.18,0.12-1.38,0.9-1.56,1.08c-0.48,0.42-0.54,0.42-0.48,0.12c0.06-0.18,0.12-1.38,0.12-1.98
					V3.43c-5.76,1.08-12.12,5.52-12.12,14.82c0,9.72,9.84,14.46,12.12,15.84c0.54,0.36,0.84,1.02-0.12,0.84
					c-4.2-0.78-17.82-3.78-17.82-14.94c0-12.96,16.68-19.8,23.16-19.8V20.35z"/>
				<path d="M431.16-3.05c-0.6-0.12-1.68-0.18-2.22-0.18s-0.54-0.3-0.3-0.42c2.76-1.14,4.74-2.52,7.5-4.14
					c1.32-0.78,2.16,0.96,2.16,2.46v16.5c1.14-0.18,2.64-0.78,5.22-2.1c3-1.56,3.96-3.36,4.26-4.68c0.3-1.32-0.9-1.92-1.44-2.28
					c-0.36-0.18-0.42-0.54,0.24-0.54c1.5,0,3.66-0.18,5.58-0.72c0.6-0.12,0.72,0.06,0.72,1.14c0,4.2-2.7,4.92-6.06,6.9
					c5.7,0.24,9.66,2.1,9.66,6.42c0,4.92-7.2,9.06-11.82,10.5c-0.6,0.18-0.72-0.06-0.3-0.36c2.64-1.68,6.3-5.4,6.3-9
					c0-2.22-1.38-5.4-6.96-5.76c-2.28,1.26-4.26,2.16-5.4,2.76v8.82l-3.3,1.8c-0.18,0.12-1.38,0.9-1.56,1.08
					c-0.48,0.42-0.54,0.42-0.48,0.12c0.06-0.18,0.12-1.38,0.12-1.98v-24C433.08-2.15,432.66-2.75,431.16-3.05z"/>
				<path d="M462.12,4.99c-0.6-0.12-1.68-0.18-2.22-0.18s-0.54-0.3-0.3-0.42c2.76-1.14,4.74-2.52,7.5-4.14
					c1.32-0.78,2.16,0.96,2.16,2.46v3.06c2.46-2.64,5.76-5.28,10.14-5.28c3.12,0,5.7,1.2,6.6,2.28c-0.3,0.18-2.94,2.64-3.36,3.3
					c-1.2-1.2-3.36-2.22-6.36-2.22c-2.94,0-4.62,1.8-7.02,4.2v5.64c2.94-1.62,7.38-4.56,9.24-4.56c4.02,0,7.5,2.58,7.5,6.96
					c0,4.86-6.06,6.72-9.84,6.72c-3.18,0-5.52-1.86-6.9-2.46v0.48c0,4.26-8.7,12.06-9.9,12.66c-0.36,0.18-0.66,0-0.3-0.36
					c1.08-0.96,4.98-7.68,4.98-11.52v-0.18c0-1.56,0-3.54,0-4.68V7.33C464.04,5.89,463.62,5.29,462.12,4.99z M477.78,20.53
					c2.4,0,2.94-0.18,2.94-2.88c0-3.3-2.82-5.52-4.74-5.52c-1.68,0-4.08,2.16-6.18,3.12C471.9,17.77,475.2,20.53,477.78,20.53z"/>
				<path d="M490.8,5.17c-0.6-0.12-1.68-0.18-2.22-0.18s-0.54-0.3-0.3-0.42c2.76-1.14,4.74-2.52,7.5-4.14
					c1.32-0.78,2.16,0.96,2.16,2.46v2.34c2.4-2.7,6.9-5.04,9.54-5.04c2.88,0,7.62,2.7,7.62,7.02c0,3.3-2.7,5.82-6.06,6.78v10.92
					c0,5.4,1.5,7.38,3.96,7.38c1.74,0,3.42-1.02,4.62-2.46c0.3-0.36,0.66,0.06,0.48,0.48c-0.9,1.92-3.9,5.04-6.78,5.04
					c-4.74,0-7.5-3.06-7.5-9.12v-12c-0.3-0.06-0.66-0.12-0.96-0.24c-0.78-0.24-1.02-0.78,0-0.96c1.32-0.24,6.12-0.54,6.12-4.98
					c0-2.76-1.68-5.16-4.74-5.16c-1.98,0-4.98,2.52-6.3,4.14v13.38l-3.3,1.8c-0.18,0.12-1.38,0.9-1.56,1.08
					c-0.48,0.42-0.54,0.42-0.48,0.12c0.06-0.18,0.12-1.38,0.12-1.98V7.51C492.72,6.07,492.3,5.47,490.8,5.17z"/>
				<path d="M532.26,0.43c5.76,0,9.42,2.52,9.42,4.98v25.68l-3.3,1.8c-0.18,0.12-1.38,0.9-1.56,1.08c-0.48,0.42-0.54,0.42-0.48,0.12
					c0.06-0.18,0.12-1.38,0.12-1.98V8.05c0-2.64-2.82-4.5-6.78-4.5c-2.58,0-6.48,1.38-10.5,4.5c-0.6,0.48-1.32,0.06-0.9-0.48
					C519.9,5.47,523.56,0.43,532.26,0.43z"/>
				<path d="M564.18,16.69c0-2.7-1.8-4.26-4.86-4.26c-1.92,0-5.22,2.7-6.9,3.78v4.32l-3.3,1.8c-0.18,0.12-1.38,0.9-1.56,1.08
					c-0.48,0.42-0.54,0.42-0.48,0.12c0.06-0.18,0.12-1.38,0.12-1.98V8.05c0-2.34,6.3-7.74,11.4-7.74c5.04,0,8.88,1.98,10.56,3.6
					c0.66,0.66,0.48,0.66,0.24,0.84c-0.9,0.72-1.92,1.8-2.58,2.7c-0.36,0.6-0.48,0.72-0.78,0.18c-1.38-1.98-3.42-4.8-7.8-4.8
					c-3.72,0-5.82,2.46-5.82,3.54v7.62c2.16-0.9,6.18-3.96,9.42-3.96c4.68,0,7.92,1.68,7.92,5.94c0,4.62-6.66,6.78-10.8,7.62
					c-0.48,0.12-0.72-0.06-0.36-0.24C560.58,22.33,564.18,20.35,564.18,16.69z"/>
				<path d="M609.66,8.23c2.04-0.36,2.28-0.3,1.62,0.18c-0.42,0.3-2.7,2.58-3.54,3.36l-0.12,0.12h-11.34c-0.72,0-5.52,0.18-6.3,0.3
					c-2.04,0.36-2.28,0.3-1.62-0.18c0.42-0.3,2.7-2.58,3.54-3.36l0.12-0.12h11.34C604.08,8.53,608.88,8.35,609.66,8.23z"/>
				<linearGradient id="SVGID_1_" gradientUnits="userSpaceOnUse" x1="627.4185" y1="12.4598" x2="750.2941" y2="12.4598">
					<stop  offset="0" style="stop-color:#4C5FBF"/>
					<stop  offset="0.3" style="stop-color:#4889D1"/>
					<stop  offset="0.5" style="stop-color:#47AADD"/>
					<stop  offset="1" style="stop-color:#FE9934"/>
				</linearGradient>
				<path class="st2" d="M629.88,25.15c0,0,0,0,0.06,0H629.88z M650.16,13.39c7.56-3.12,6.3-13.56-0.36-13.62
					c-2.82,0-4.74,2.04-7.14,5.7l-12.72,19.68h19.38l0.12-0.12c0.84-0.78,3.12-3.06,3.54-3.36c0.66-0.48,0.42-0.54-1.62-0.18
					c-0.78,0.12-5.58,0.3-6.3,0.3h-10.68l9.48-14.7c2.04-3.18,2.7-3.72,4.02-3.72c3.84,0,4.5,6.06,2.16,9.48
					C649.62,13.45,649.98,13.45,650.16,13.39z"/>
				
					<linearGradient id="SVGID_00000160875595380323017530000003199692470272073362_" gradientUnits="userSpaceOnUse" x1="627.4185" y1="17.1092" x2="750.2941" y2="17.1092">
					<stop  offset="0" style="stop-color:#4C5FBF"/>
					<stop  offset="0.3" style="stop-color:#4889D1"/>
					<stop  offset="0.5" style="stop-color:#47AADD"/>
					<stop  offset="1" style="stop-color:#FE9934"/>
				</linearGradient>
				<path style="fill:url(#SVGID_00000160875595380323017530000003199692470272073362_);" d="M676.5,0.13
					c5.52,0,9.6,3.78,10.86,5.34c0.24,0.3-0.3,0.6-0.48,0.78c-1.02,0.84-2.28,2.22-3.12,3.36c-0.18,0.24-0.36,0.3-0.54,0
					c-1.2-2.4-4.68-7.56-8.52-7.56c-3.54,0-5.52,2.88-5.52,6.78v7.98c3-1.68,5.28-3.9,5.28-4.8c0-0.24-1.02-0.66,0-0.9
					c1.98-0.42,3.18-0.6,4.98-1.02c1.32-0.3,0.48,2.04-1.26,3.78c-2.16,2.16-5.94,3.48-9,4.08v4.38c0,1.08-0.18,2.16-0.48,3.06
					c3.24-1.68,5.76-4.08,5.76-5.04c0-0.24-1.02-0.66,0-0.9c1.98-0.42,3.18-0.6,4.98-1.02c1.32-0.3,0.48,2.04-1.26,3.78
					c-2.4,2.34-6.72,3.78-9.9,4.2c-2.22,5.1-8.4,7.68-11.34,7.68c-1.02,0-0.78-0.42-0.3-0.54c3.66-1.02,7.32-5.16,7.32-9.66v-15
					C663.96,3.91,669.18,0.13,676.5,0.13z M663.96,21.25c-0.06,0-0.06,0-0.06,0H663.96z"/>
				
					<linearGradient id="SVGID_00000055705091944154947010000000857025303704975782_" gradientUnits="userSpaceOnUse" x1="627.4185" y1="17.1092" x2="750.2941" y2="17.1092">
					<stop  offset="0" style="stop-color:#4C5FBF"/>
					<stop  offset="0.3" style="stop-color:#4889D1"/>
					<stop  offset="0.5" style="stop-color:#47AADD"/>
					<stop  offset="1" style="stop-color:#FE9934"/>
				</linearGradient>
				<path style="fill:url(#SVGID_00000055705091944154947010000000857025303704975782_);" d="M709.5,0.13
					c5.52,0,9.6,3.78,10.86,5.34c0.24,0.3-0.3,0.6-0.48,0.78c-1.02,0.84-2.28,2.22-3.12,3.36c-0.18,0.24-0.36,0.3-0.54,0
					c-1.2-2.4-4.68-7.56-8.52-7.56c-3.54,0-5.52,2.88-5.52,6.78v7.98c3-1.68,5.28-3.9,5.28-4.8c0-0.24-1.02-0.66,0-0.9
					c1.98-0.42,3.18-0.6,4.98-1.02c1.32-0.3,0.48,2.04-1.26,3.78c-2.16,2.16-5.94,3.48-9,4.08v4.38c0,7.8-8.58,11.76-12.24,11.76
					c-1.02,0-0.78-0.42-0.3-0.54c3.66-1.02,7.32-5.16,7.32-9.66v-15C696.96,3.91,702.18,0.13,709.5,0.13z M696.96,21.25
					c-0.06,0-0.06,0-0.06,0H696.96z"/>
				
					<linearGradient id="SVGID_00000173132502156517173310000008370826213833385126_" gradientUnits="userSpaceOnUse" x1="627.4185" y1="17.3104" x2="750.2941" y2="17.3104">
					<stop  offset="0" style="stop-color:#4C5FBF"/>
					<stop  offset="0.3" style="stop-color:#4889D1"/>
					<stop  offset="0.5" style="stop-color:#47AADD"/>
					<stop  offset="1" style="stop-color:#FE9934"/>
				</linearGradient>
				<path style="fill:url(#SVGID_00000173132502156517173310000008370826213833385126_);" d="M748.85,17.47
					c2.7,0,7.02,1.44,7.02,6.54c0,3.9-5.16,9.24-8.82,9.24c-2.22,0-4.32-0.72-5.82-2.04l-2.88,1.56c-0.18,0.12-1.38,0.9-1.56,1.08
					c-0.48,0.42-0.54,0.42-0.48,0.12c0.06-0.18,0.12-1.38,0.12-1.98v-6.54c0-6.66-7.38-5.16-11.28-1.92c-1.14,0.96-0.9,0-0.48-0.54
					c3.96-4.98,8.4-6,11.76-5.22v-0.78c0-6.66-7.38-5.16-11.28-1.92c-1.14,0.96-0.9,0-0.48-0.54c3.96-4.98,8.4-6,11.76-5.22V8.35
					c0-6.66-7.38-5.16-11.28-1.92c-1.14,0.96-0.9,0-0.48-0.54c7.56-9.48,16.98-4.56,16.98-0.42v16.74
					C741.65,22.21,746.93,17.47,748.85,17.47z M747.89,31.39c1.8,0,3.06-1.32,3.06-3.54c0-6.3-3.9-7.32-4.86-6.6l-4.44,3.18v0.48
					C741.65,27.85,746.81,31.39,747.89,31.39z"/>
				<path d="M778.07-2.99c-0.6-0.12-1.68-0.18-2.22-0.18s-0.54-0.3-0.3-0.42c2.76-1.14,4.74-2.52,7.5-4.14
					c1.32-0.78,2.16,0.96,2.16,2.46v20.7c4.8-4.44,10.38-8.34,11.94-9.36c4.02-2.7,5.34-5.22,4.02-7.74
					c-0.96-1.86-2.64-3.12-4.32-3.12c-1.5,0-4.32,1.68-4.74,1.68c-0.3,0-0.36-0.24-0.12-0.36c2.58-1.38,5.7-3.3,7.74-4.56
					c1.44-0.9,5.4,0.3,7.38,4.14c2.88,5.58-6.9,10.5-11.28,13.62c-6.12,4.38-9.54,7.98-10.02,12.36c-0.06,0.42-0.24,0.42-0.54,0.54
					c-2.64,0.96-5.22,2.4-7.26,4.26c-0.3,0.24-0.3,0-0.3-0.42c0-1.62,0.9-3.48,2.28-5.4V-0.65C779.99-2.09,779.57-2.69,778.07-2.99z
					"/>
				<path d="M810.89,4.99c-0.6-0.12-1.68-0.18-2.22-0.18s-0.54-0.3-0.3-0.42c2.76-1.14,4.74-2.52,7.5-4.14
					c1.32-0.78,2.16,0.96,2.16,2.46v3.06c2.46-2.64,5.76-5.28,10.14-5.28c3.12,0,5.7,1.2,6.6,2.28c-0.3,0.18-2.94,2.64-3.36,3.3
					c-1.2-1.2-3.36-2.22-6.36-2.22c-2.94,0-4.62,1.8-7.02,4.2v5.64c2.94-1.62,7.38-4.56,9.24-4.56c4.02,0,7.5,2.58,7.5,6.96
					c0,4.86-6.06,6.72-9.84,6.72c-3.18,0-5.52-1.86-6.9-2.46v0.48c0,4.26-8.7,12.06-9.9,12.66c-0.36,0.18-0.66,0-0.3-0.36
					c1.08-0.96,4.98-7.68,4.98-11.52v-0.18c0-1.56,0-3.54,0-4.68V7.33C812.81,5.89,812.39,5.29,810.89,4.99z M826.56,20.53
					c2.4,0,2.94-0.18,2.94-2.88c0-3.3-2.82-5.52-4.74-5.52c-1.68,0-4.08,2.16-6.18,3.12C820.68,17.77,823.97,20.53,826.56,20.53z"/>
				<path d="M838.68-2.99c-0.6-0.12-1.68-0.18-2.22-0.18s-0.54-0.3-0.3-0.42c2.76-1.14,4.74-2.52,7.5-4.14
					c1.32-0.78,2.16,0.96,2.16,2.46v27.96h2.22c0.72,0,5.52-0.18,6.3-0.3c2.04-0.36,2.28-0.3,1.62,0.18
					c-0.42,0.3-2.7,2.58-3.54,3.36l-0.12,0.12h-11.64h-0.06c-0.06,0-0.06,0-0.06,0h0.06v-26.7C840.6-2.09,840.18-2.69,838.68-2.99z"
					/>
				<path d="M858.36,16.09V3.91c0-2.04,1.56-3.48,5.46-3.48c2.34,0,4.08,1.38,5.76,3.96c0.66-1.26,2.22-3.96,5.58-3.96
					c3.06,0,4.14,0.9,8.16,7.2c3.66,5.64,6.78,12.42,9,12.42c1.68,0,2.64-1.8,3.24-2.34c0.36-0.36,0.78,0,0.6,0.36
					c-0.54,0.9-3.06,4.92-5.58,4.92c-3.06,0-4.56-1.02-6.6-4.14c-0.66,1.26-2.04,4.14-5.4,4.14c-2.64,0-4.74-1.8-6.48-4.26
					c-1.08,1.8-1.98,4.26-6.54,4.26C861.18,22.99,858.36,20.11,858.36,16.09z M867.48,19.99c1.68,0,3.24-1.14,4.14-1.92
					c-1.38-1.98-2.52-4.26-3.6-6.3c-1.56-2.94-2.7-8.76-4.32-8.76c-0.18,0-0.36,0-0.54,0.06v12.3
					C863.16,18.43,864.48,19.99,867.48,19.99z M872.52,9.37c2.16,3.9,6.12,10.68,8.46,10.68c0.96,0,1.92-1.2,2.52-1.86
					c-1.2-1.86-2.58-4.32-4.56-7.62c-3.06-5.34-4.44-7.14-6.24-7.14c-1.14,0-1.86,1.44-2.46,1.98
					C870.96,6.55,871.68,7.87,872.52,9.37z"/>
				<path d="M916.02,16.69c0-2.7-1.8-4.26-4.86-4.26c-1.92,0-5.22,2.7-6.9,3.78v4.32l-3.3,1.8c-0.18,0.12-1.38,0.9-1.56,1.08
					c-0.48,0.42-0.54,0.42-0.48,0.12c0.06-0.18,0.12-1.38,0.12-1.98V8.05c0-2.34,6.3-7.74,11.4-7.74c5.04,0,8.88,1.98,10.56,3.6
					c0.66,0.66,0.48,0.66,0.24,0.84c-0.9,0.72-1.92,1.8-2.58,2.7c-0.36,0.6-0.48,0.72-0.78,0.18c-1.38-1.98-3.42-4.8-7.8-4.8
					c-3.72,0-5.82,2.46-5.82,3.54v7.62c2.16-0.9,6.18-3.96,9.42-3.96c4.68,0,7.92,1.68,7.92,5.94c0,4.62-6.66,6.78-10.8,7.62
					c-0.48,0.12-0.72-0.06-0.36-0.24C912.42,22.33,916.02,20.35,916.02,16.69z"/>
			</g>
		</g>
		<g>
			<path d="M397.8,128.54c-5.82-7.5-2.4-16.98,2.46-22.02c5.16-5.76,12.24-7.8,19.68-3.72c7.62,4.2,10.2,14.16,3.18,24.18
				C416.16,136.88,401.88,133.76,397.8,128.54z M402,123.08c3.78-2.28,6.54-5.04,6.54-6.18c0-0.3-1.38-0.84,0-1.2
				c2.7-0.54,4.32-0.78,6.72-1.38c1.8-0.42,0.66,2.76-1.68,5.1c-2.58,2.52-6.78,4.26-10.5,5.16c4.68,5.7,13.5,6.3,16.38,3.48
				c5.76-5.64,2.88-15.42-2.7-19.74c-4.74-3.66-12.3-4.08-14.88-1.32C398.22,110.9,399,118.16,402,123.08z"/>
			<path d="M448.86,100.7c6.42,0,10.5,3.72,12.24,5.58c0.24,0.24,0.06,0.36-0.12,0.48c-1.38,0.78-3.06,2.76-3.96,4.02
				c-0.24,0.36-0.42,0.48-0.6,0.06c-1.14-2.52-4.56-7.44-10.26-7.44c-2.82,0-6.54,1.74-6.54,5.64v20.34c0,7.2-10.14,8.4-13.8,8.4
				c-1.02,0-0.78-0.42-0.3-0.54c3.66-1.02,8.88-4.68,8.88-7.86V109.1C434.4,103.46,440.22,100.7,448.86,100.7z M434.4,127.7
				c-0.06,0-0.06,0-0.06,0H434.4z"/>
			<path d="M480.18,100.7c6.42,0,10.5,3.72,12.24,5.58c0.24,0.24,0.06,0.36-0.12,0.48c-1.38,0.78-3.06,2.76-3.96,4.02
				c-0.24,0.36-0.42,0.48-0.6,0.06c-1.14-2.52-4.56-7.44-10.26-7.44c-2.82,0-6.54,1.74-6.54,5.64v11.16c3.9-2.22,7.2-4.98,7.2-6.12
				c0-0.3-1.38-0.84,0-1.2c1.56-0.42,3.78-1.08,5.1-1.38c1.8-0.42,0.6,2.88-1.86,5.1c-3.06,2.7-6.84,4.5-10.44,5.4v7.38
				c0,7.2-10.14,8.4-13.8,8.4c-1.02,0-0.78-0.42-0.3-0.54c3.66-1.02,8.88-4.68,8.88-7.86V109.1
				C465.72,103.46,471.54,100.7,480.18,100.7z M465.72,127.7c-0.06,0-0.06,0-0.06,0H465.72z"/>
			<path d="M511.5,100.7c6.42,0,10.5,3.72,12.24,5.58c0.24,0.24,0.06,0.36-0.12,0.48c-1.38,0.78-3.06,2.76-3.96,4.02
				c-0.24,0.36-0.42,0.48-0.6,0.06c-1.14-2.52-4.56-7.44-10.26-7.44c-2.82,0-6.54,1.74-6.54,5.64v11.16c3.9-2.22,7.2-4.98,7.2-6.12
				c0-0.3-1.38-0.84,0-1.2c1.56-0.42,3.78-1.08,5.1-1.38c1.8-0.42,0.6,2.88-1.86,5.1c-3.06,2.7-6.84,4.5-10.44,5.4v7.38v0.06
				c3.9-2.22,7.2-4.98,7.2-6.12c0-0.3-1.38-0.84,0-1.2c1.56-0.42,3.78-1.08,5.1-1.38c1.8-0.42,0.6,2.88-1.86,5.1
				c-3.12,2.76-7.02,4.62-10.68,5.46c-1.62,5.52-10.26,6.48-13.56,6.48c-1.02,0-0.78-0.42-0.3-0.54c3.66-1.02,8.88-4.68,8.88-7.86
				V109.1C497.04,103.46,502.86,100.7,511.5,100.7z M497.04,127.7c-0.06,0-0.06,0-0.06,0H497.04z"/>
			<path d="M538.32,101.84c8.4,0,20.52,27.66,20.76,27.48c0,0-0.84,0.36-2.1,1.44c-1.2,1.02-1.26,1.44-2.4,2.52h-18.24
				c-0.72,0-5.52,0.18-6.3,0.3c-2.04,0.36-2.28,0.3-1.62-0.18c0.42-0.3,2.7-2.58,3.54-3.36l0.12-0.12h20.88
				c-3.72-7.44-12.96-24.84-17.1-24.84c-2.04,0-4.26,3.42-4.26,5.34c0,2.58,1.38,3.36,2.04,3.78c0.36,0.3-0.18,1.02-0.3,1.14
				c-1.08,1.26-2.1,3.42-2.52,4.5c-0.18,0.3-0.3,0.54-0.78,0.3c-0.96-0.42-2.28-3.3-2.28-5.1
				C527.76,107.54,533.82,101.84,538.32,101.84z"/>
			<path d="M579.06,101.42c6.24,0,10.98,2.16,10.98,4.62V128c0,5.82,4.74,6.9,7.2,7.44c0.42,0.12,0.3,0.42-0.06,0.42
				c-5.4,0-12.36-0.66-12.36-8.94v-0.96c0-1.08,0-0.96,0-1.68v-5.94c-7.98,4.38-12.12,7.74-13.02,11.64c-0.48,2.1,0,2.82,1.5,3.66
				c0.42,0.24,0.42,0.48,0,0.48c-1.8,0-5.28,1.32-6.66,1.86c-0.96-0.48-2.1-1.32-2.1-3.48c0-4.8,7.32-9.36,20.28-16.5v-6.3
				c0-3.66-4.92-5.16-8.04-5.16c-3.18,0-7.56,1.44-11.46,4.5c-0.54,0.42-1.08,0-0.72-0.54
				C565.98,106.46,570.12,101.42,579.06,101.42z M584.82,125.96c-0.06,0-0.06,0-0.06,0H584.82z"/>
			<path d="M624.78,129.62c2.04-0.36,2.28-0.3,1.62,0.18c-0.42,0.3-2.7,2.58-3.54,3.36l-0.12,0.12h-25.5h-0.06
				c-0.06,0-0.06,0-0.06,0h0.06l0.06-0.06h-0.36l16.74-25.92c2.28-3.48,5.04-4.86,8.58-4.86c2.52,0,5.58,2.64,5.58,6.3
				c0,5.34-4.02,8.46-6.36,10.62c-0.3,0.24-0.66,0.06-0.18-0.72c1.5-2.16,2.94-5.94,0.96-9.06c-1.32-2.1-3.3-2.64-4.56-2.64
				c-0.9,0-1.74,0.36-3.06,2.4l-13.26,20.58h17.16C619.2,129.92,624,129.74,624.78,129.62z"/>
			<path d="M650.52,106.82v15.72c0,0,5.28-4.74,7.2-4.74c2.7,0,7.02,1.44,7.02,6.54c0,3.9-5.16,9.24-8.82,9.24
				c-2.28,0-4.44-0.78-5.94-2.1l-2.76,1.5c-0.18,0.12-1.38,0.9-1.56,1.08c-0.48,0.42-0.54,0.42-0.48,0.12
				c0.06-0.18,0.12-1.38,0.12-1.98v-22.5c0-6.66-7.5-6.36-12.48-1.92c-1.14,1.02-0.9,0-0.48-0.54
				C639,97.76,650.52,102.38,650.52,106.82z M656.76,131.72c1.8,0,3.06-1.32,3.06-3.54c0-6.3-3.9-7.32-4.86-6.6l-4.44,3.18v0.48
				C650.52,128.18,655.68,131.72,656.76,131.72z"/>
			<path d="M683.28,106.82v15.72c0,0,5.28-4.74,7.2-4.74c2.7,0,7.02,1.44,7.02,6.54c0,3.9-5.16,9.24-8.82,9.24
				c-2.28,0-4.44-0.78-5.94-2.1l-2.76,1.5c-0.18,0.12-1.38,0.9-1.56,1.08c-0.48,0.42-0.54,0.42-0.48,0.12
				c0.06-0.18,0.12-1.38,0.12-1.98v-14.76c0-6.66-7.5-6.36-12.48-1.92c-1.14,1.02-0.9,0-0.48-0.54c3.78-5.34,9.06-6.18,12.96-5.16
				v-0.12c0-6.66-7.5-6.36-12.48-1.92c-1.14,1.02-0.9,0-0.48-0.54C671.76,97.76,683.28,102.38,683.28,106.82z M689.52,131.72
				c1.8,0,3.06-1.32,3.06-3.54c0-6.3-3.9-7.32-4.86-6.6l-4.44,3.18v0.48C683.28,128.18,688.44,131.72,689.52,131.72z"/>
			<path d="M716.04,106.82v15.72c0,0,5.28-4.74,7.2-4.74c2.7,0,7.02,1.44,7.02,6.54c0,3.9-5.16,9.24-8.82,9.24
				c-2.28,0-4.44-0.78-5.94-2.1l-2.76,1.5c-0.18,0.12-1.38,0.9-1.56,1.08c-0.48,0.42-0.54,0.42-0.48,0.12
				c0.06-0.18,0.12-1.38,0.12-1.98v-6.78c0-6.66-7.5-6.36-12.48-1.92c-1.14,1.02-0.9,0-0.48-0.54c3.78-5.34,9.06-6.18,12.96-5.16
				v-0.36c0-6.66-7.5-6.36-12.48-1.92c-1.14,1.02-0.9,0-0.48-0.54c3.78-5.34,9.06-6.18,12.96-5.16v-0.12c0-6.66-7.5-6.36-12.48-1.92
				c-1.14,1.02-0.9,0-0.48-0.54C704.52,97.76,716.04,102.38,716.04,106.82z M722.28,131.72c1.8,0,3.06-1.32,3.06-3.54
				c0-6.3-3.9-7.32-4.86-6.6l-4.44,3.18v0.48C716.04,128.18,721.2,131.72,722.28,131.72z"/>
		</g>
	</g>
</g>
<g id="Proto">
	<g>
		<path class="st127" d="M396.87,54.24c-5.82-7.5-2.4-16.98,2.46-22.02c5.16-5.76,12.24-7.8,19.68-3.72
			c7.62,4.2,10.2,14.16,3.18,24.18C415.23,62.58,400.95,59.46,396.87,54.24z M415.83,34.02c-4.74-3.66-12.3-4.08-14.88-1.32
			c-2.04,2.22-2.7,5.46-2.34,8.76h10.98c0.72,0,5.52-0.18,6.3-0.3c2.04-0.36,2.28-0.3,1.62,0.18c-0.42,0.3-2.7,2.58-3.54,3.36
			l-0.12,0.12h-11.34l-3.18,0.12c0.6,1.86,1.5,3.6,2.58,5.04c4.62,6,13.68,6.66,16.62,3.78C424.29,48.12,421.41,38.34,415.83,34.02z
			"/>
		<path class="st127" d="M435.75,32.04c-0.6-0.12-1.68-0.18-2.22-0.18s-0.54-0.3-0.3-0.42c2.76-1.14,4.74-2.52,7.5-4.14
			c1.32-0.78,2.16,0.96,2.16,2.46v4.38c2.16-1.14,4.86-1.8,7.74-1.8c6.72,0,10.8,3.72,12.54,5.58c0.24,0.24,0.06,0.36-0.12,0.48
			c-1.38,0.78-3.66,2.58-4.56,3.84c-0.24,0.36-0.42,0.48-0.6,0.06c-1.14-2.52-3.96-7.26-9.24-7.26c-3.24,0-5.76,1.74-5.76,5.64v14.4
			c0,7.2-10.14,8.4-13.8,8.4c-1.02,0-0.78-0.42-0.3-0.54c3.66-1.02,8.88-4.68,8.88-7.86v-20.7
			C437.67,32.94,437.25,32.34,435.75,32.04z"/>
		<path class="st127" d="M473.07,32.04c-0.6-0.12-1.68-0.18-2.22-0.18s-0.54-0.3-0.3-0.42c2.76-1.14,4.74-2.52,7.5-4.14
			c1.32-0.78,2.16,0.96,2.16,2.46v4.38c2.16-1.14,4.86-1.8,7.74-1.8c6.72,0,10.8,3.72,12.54,5.58c0.24,0.24,0.06,0.36-0.12,0.48
			c-1.38,0.78-3.66,2.58-4.56,3.84c-0.24,0.36-0.42,0.48-0.6,0.06c-1.14-2.52-3.96-7.26-9.24-7.26c-3.24,0-5.76,1.74-5.76,5.64v3.12
			h3.18c0.72,0,5.52-0.18,6.3-0.3c2.04-0.36,2.28-0.3,1.62,0.18c-0.42,0.3-2.7,2.58-3.54,3.36l-0.12,0.12h-7.44v7.92
			c0,7.2-10.14,8.4-13.8,8.4c-1.02,0-0.78-0.42-0.3-0.54c3.66-1.02,8.88-4.68,8.88-7.86v-20.7
			C474.99,32.94,474.57,32.34,473.07,32.04z"/>
		<path class="st127" d="M510.39,32.04c-0.6-0.12-1.68-0.18-2.22-0.18s-0.54-0.3-0.3-0.42c2.76-1.14,4.74-2.52,7.5-4.14
			c1.32-0.78,2.16,0.96,2.16,2.46v4.38c2.16-1.14,4.86-1.8,7.74-1.8c6.72,0,10.8,3.72,12.54,5.58c0.24,0.24,0.06,0.36-0.12,0.48
			c-1.38,0.78-3.66,2.58-4.56,3.84c-0.24,0.36-0.42,0.48-0.6,0.06c-1.14-2.52-3.96-7.26-9.24-7.26c-3.24,0-5.76,1.74-5.76,5.64v2.52
			h3.6c0.72,0,5.52-0.18,6.3-0.3c2.04-0.36,2.28-0.3,1.62,0.18c-0.42,0.3-2.7,2.58-3.54,3.36l-0.12,0.12h-7.86v3.54h3.6
			c0.72,0,5.52-0.18,6.3-0.3c2.04-0.36,2.28-0.3,1.62,0.18c-0.42,0.3-2.7,2.58-3.54,3.36l-0.12,0.12h-7.86v1.62
			c0,7.2-10.14,8.4-13.8,8.4c-1.02,0-0.78-0.42-0.3-0.54c3.66-1.02,8.88-4.68,8.88-7.86v-20.7
			C512.31,32.94,511.89,32.34,510.39,32.04z"/>
		<path class="st127" d="M571.65,56.46c-1.2,1.02-1.26,1.44-2.4,2.52h-18.24c-0.72,0-5.52,0.18-6.3,0.3
			c-2.04,0.36-2.28,0.3-1.62-0.18c0.42-0.3,2.7-2.58,3.54-3.36l0.12-0.12h20.88c-1.38-2.7-3.48-6.78-5.76-10.8h-0.48
			c-0.72,0-5.52,0.18-6.3,0.3c-2.04,0.36-2.28,0.3-1.62-0.18c0.42-0.3,2.7-2.58,3.54-3.36l0.12-0.12h2.76
			c-3.48-5.76-7.14-10.68-9.36-10.68c-2.04,0-4.26,3.42-4.26,5.34c0,2.58,1.38,3.36,2.04,3.78c0.36,0.3-0.18,1.02-0.3,1.14
			c-1.08,1.26-2.1,3.42-2.52,4.5c-0.18,0.3-0.3,0.54-0.78,0.3c-0.96-0.42-2.28-3.3-2.28-5.1c0-7.5,6.06-13.2,10.56-13.2
			c4.2,0,9.36,7.02,13.5,13.92h0.18c0.72,0,5.52-0.18,6.3-0.3c2.04-0.36,2.28-0.3,1.62,0.18c-0.42,0.3-2.7,2.58-3.54,3.36
			l-0.12,0.12h-2.52c3.12,5.58,5.22,10.26,5.34,10.2C573.75,55.02,572.91,55.38,571.65,56.46z"/>
		<path class="st127" d="M596.91,31.56c-0.6-0.12-1.68-0.18-2.22-0.18s-0.54-0.3-0.3-0.42c2.76-1.14,4.74-2.52,7.5-4.14
			c1.32-0.78,2.16,0.96,2.16,2.46V57.9l-3.3,1.8c-0.18,0.12-1.38,0.9-1.56,1.08c-0.48,0.42-0.54,0.42-0.48,0.12
			c0.06-0.18,0.12-1.38,0.12-1.98V44.04c-7.98,4.38-12.12,7.74-13.02,11.64c-0.48,2.1,0,2.82,1.5,3.66c0.42,0.24,0.42,0.48,0,0.48
			c-1.8,0-5.28,1.32-6.66,1.86c-0.96-0.48-2.1-1.32-2.1-3.48c0-4.8,7.32-9.36,20.28-16.5v-7.8
			C598.83,32.46,598.41,31.86,596.91,31.56z"/>
		<path class="st127" d="M636.75,55.32c2.04-0.36,2.28-0.3,1.62,0.18c-0.42,0.3-2.7,2.58-3.54,3.36l-0.12,0.12h-25.5h-0.06h-0.06
			h0.06l0.06-0.06h-0.36l9.06-14.04h-0.12c-0.72,0-5.52,0.18-6.3,0.3c-2.04,0.36-2.28,0.3-1.62-0.18c0.42-0.3,2.7-2.58,3.54-3.36
			l0.12-0.12h6.54l5.52-8.52c2.28-3.48,5.04-4.86,8.58-4.86c2.52,0,5.58,2.64,5.58,6.3c0,5.34-4.02,8.46-6.36,10.62
			c-0.3,0.24-0.66,0.06-0.18-0.72c1.5-2.16,2.94-5.94,0.96-9.06c-1.32-2.1-2.7-2.64-3.96-2.64c-0.9,0-1.74,0.36-3.06,2.4l-4.2,6.48
			c1.62-0.06,4.92-0.18,5.58-0.3c2.04-0.36,2.28-0.3,1.62,0.18c-0.42,0.3-2.7,2.58-3.54,3.36l-0.12,0.12h-5.7l-6.9,10.74h16.56
			C631.17,55.62,635.97,55.44,636.75,55.32z"/>
		<path class="st127" d="M659.49,43.5c2.7,0,7.02,1.44,7.02,6.54c0,3.9-5.16,9.24-8.82,9.24c-2.28,0-4.44-0.78-5.94-2.1l-2.76,1.5
			c-0.18,0.12-1.38,0.9-1.56,1.08c-0.48,0.42-0.54,0.42-0.48,0.12c0.06-0.18,0.12-1.38,0.12-1.98v-24c0-1.44-0.42-2.04-1.92-2.34
			c-0.6-0.12-1.68-0.18-2.22-0.18s-0.54-0.3-0.3-0.42c2.76-1.14,4.74-2.52,7.5-4.14c1.32-0.78,2.16,0.96,2.16,2.46v18.96
			C652.29,48.24,657.57,43.5,659.49,43.5z M658.53,57.42c1.8,0,3.06-1.32,3.06-3.54c0-6.3-3.9-7.32-4.86-6.6l-4.44,3.18v0.48
			C652.29,53.88,657.45,57.42,658.53,57.42z"/>
		<path class="st127" d="M691.83,43.5c2.7,0,7.02,1.44,7.02,6.54c0,3.9-5.16,9.24-8.82,9.24c-2.28,0-4.44-0.78-5.94-2.1l-2.76,1.5
			c-0.18,0.12-1.38,0.9-1.56,1.08c-0.48,0.42-0.54,0.42-0.48,0.12c0.06-0.18,0.12-1.38,0.12-1.98V44.82h-3.18
			c-0.72,0-5.52,0.18-6.3,0.3c-2.04,0.36-2.28,0.3-1.62-0.18c0.42-0.3,2.7-2.58,3.54-3.36l0.12-0.12h7.44V33.9
			c0-1.44-0.42-2.04-1.92-2.34c-0.6-0.12-1.68-0.18-2.22-0.18c-0.54,0-0.54-0.3-0.3-0.42c2.76-1.14,4.74-2.52,7.5-4.14
			c1.32-0.78,2.16,0.96,2.16,2.46v18.96C684.63,48.24,689.91,43.5,691.83,43.5z M690.87,57.42c1.8,0,3.06-1.32,3.06-3.54
			c0-6.3-3.9-7.32-4.86-6.6l-4.44,3.18v0.48C684.63,53.88,689.79,57.42,690.87,57.42z"/>
		<path class="st127" d="M724.17,43.5c2.7,0,7.02,1.44,7.02,6.54c0,3.9-5.16,9.24-8.82,9.24c-2.28,0-4.44-0.78-5.94-2.1l-2.76,1.5
			c-0.18,0.12-1.38,0.9-1.56,1.08c-0.48,0.42-0.54,0.42-0.48,0.12c0.06-0.18,0.12-1.38,0.12-1.98v-7.08h-3.18
			c-0.72,0-5.52,0.18-6.3,0.3c-2.04,0.36-2.28,0.3-1.62-0.18c0.42-0.3,2.7-2.58,3.54-3.36l0.12-0.12h7.44v-2.64h-3.18
			c-0.72,0-5.52,0.18-6.3,0.3c-2.04,0.36-2.28,0.3-1.62-0.18c0.42-0.3,2.7-2.58,3.54-3.36l0.12-0.12h7.44V33.9
			c0-1.44-0.42-2.04-1.92-2.34c-0.6-0.12-1.68-0.18-2.22-0.18c-0.54,0-0.54-0.3-0.3-0.42c2.76-1.14,4.74-2.52,7.5-4.14
			c1.32-0.78,2.16,0.96,2.16,2.46v18.96C716.97,48.24,722.25,43.5,724.17,43.5z M723.21,57.42c1.8,0,3.06-1.32,3.06-3.54
			c0-6.3-3.9-7.32-4.86-6.6l-4.44,3.18v0.48C716.97,53.88,722.13,57.42,723.21,57.42z"/>
		<path class="st127" d="M415.98,114.12c-4.5-5.82-1.68-11.76,1.68-15.3c3.54-3.96,8.1-5.58,13.62-2.58
			c4.86,2.7,7.38,9.54,2.22,16.32C427.8,120.06,419.1,118.2,415.98,114.12z M428.52,100.38c-3.48-2.64-7.5-2.94-9.3-1.08
			c-1.32,1.38-1.68,3.66-1.38,5.94h2.94c0.72,0,5.52-0.18,6.3-0.3c2.04-0.36,2.28-0.3,1.62,0.18c-0.42,0.3-2.7,2.58-3.54,3.36
			l-0.12,0.12h-6.24c0.3,0.72,0.66,1.32,1.08,1.86c2.64,3.42,8.7,5.04,10.8,3C434.22,109.98,431.7,102.9,428.52,100.38z"/>
		<path class="st127" d="M443.04,99.54c-0.6-0.12-1.68-0.18-2.22-0.18s-0.54-0.3-0.3-0.42c2.76-1.14,4.74-2.52,7.5-4.14
			c1.32-0.78,2.16,0.96,2.16,2.46v2.28c1.86-0.9,4.02-1.44,6.42-1.44c6.42,0,10.5,3.78,11.76,5.34c0.24,0.3-0.3,0.6-0.48,0.78
			c-1.02,0.84-2.88,2.22-3.72,3.36c-0.18,0.24-0.36,0.3-0.54,0c-1.2-2.4-3.48-7.56-8.04-7.56c-3.42,0-5.4,2.88-5.4,6.78v10.08
			c0,7.8-8.58,11.76-12.24,11.76c-1.02,0-0.78-0.42-0.3-0.54c3.66-1.02,7.32-5.16,7.32-9.66v-16.56
			C444.96,100.44,444.54,99.84,443.04,99.54z"/>
		<path class="st127" d="M474.24,99.54c-0.6-0.12-1.68-0.18-2.22-0.18s-0.54-0.3-0.3-0.42c2.76-1.14,4.74-2.52,7.5-4.14
			c1.32-0.78,2.16,0.96,2.16,2.46v2.28c1.86-0.9,4.02-1.44,6.42-1.44c6.42,0,10.5,3.78,11.76,5.34c0.24,0.3-0.3,0.6-0.48,0.78
			c-1.02,0.84-2.88,2.22-3.72,3.36c-0.18,0.24-0.36,0.3-0.54,0c-1.2-2.4-3.48-7.56-8.04-7.56c-3.42,0-5.4,2.88-5.4,6.78v3.12h3.78
			c0.72,0,5.52-0.18,6.3-0.3c2.04-0.36,2.28-0.3,1.62,0.18c-0.42,0.3-2.7,2.58-3.54,3.36l-0.12,0.12h-8.04v3.6
			c0,7.8-8.58,11.76-12.24,11.76c-1.02,0-0.78-0.42-0.3-0.54c3.66-1.02,7.32-5.16,7.32-9.66v-16.56
			C476.16,100.44,475.74,99.84,474.24,99.54z"/>
		<path class="st127" d="M505.44,99.54c-0.6-0.12-1.68-0.18-2.22-0.18s-0.54-0.3-0.3-0.42c2.76-1.14,4.74-2.52,7.5-4.14
			c1.32-0.78,2.16,0.96,2.16,2.46v2.28c1.86-0.9,4.02-1.44,6.42-1.44c6.42,0,10.5,3.78,11.76,5.34c0.24,0.3-0.3,0.6-0.48,0.78
			c-1.02,0.84-2.88,2.22-3.72,3.36c-0.18,0.24-0.36,0.3-0.54,0c-1.2-2.4-3.48-7.56-8.04-7.56c-3.42,0-5.4,2.88-5.4,6.78v4.56
			c3-1.68,5.28-3.9,5.28-4.8c0-0.24-1.02-0.66,0-0.9c1.98-0.42,3.18-0.6,4.98-1.02c1.32-0.3,0.48,2.04-1.26,3.78
			c-2.16,2.16-5.94,3.48-9,4.08v4.38c0,1.08-0.18,2.16-0.48,3.06c3.24-1.68,5.76-4.08,5.76-5.04c0-0.24-1.02-0.66,0-0.9
			c1.98-0.42,3.18-0.6,4.98-1.02c1.32-0.3,0.48,2.04-1.26,3.78c-2.4,2.34-6.72,3.78-9.9,4.2c-2.22,5.1-8.4,7.68-11.34,7.68
			c-1.02,0-0.78-0.42-0.3-0.54c3.66-1.02,7.32-5.16,7.32-9.66v-16.56C507.36,100.44,506.94,99.84,505.44,99.54z"/>
		<path class="st127" d="M557.1,117.6c-1.08,0.78-1.62,1.32-2.46,2.1h-11.7c-0.72,0-5.52,0.18-6.3,0.3
			c-2.04,0.36-2.28,0.3-1.62-0.18c0.42-0.3,2.7-2.58,3.54-3.36l0.12-0.12h14.94c-0.66-1.38-2.04-3.9-3.72-6.66h-0.72
			c-0.72,0-5.52,0.18-6.3,0.3c-2.04,0.36-2.28,0.3-1.62-0.18c0.42-0.3,2.7-2.58,3.54-3.36l0.12-0.12h2.94
			c-2.94-4.68-6-9.12-6.96-9.12c-2.22,0-3.24,3.06-3.24,4.08c0,1.56,0.6,2.16,1.02,2.88c0.24,0.42,0,0.6-0.24,0.96
			c-0.78,1.08-1.62,2.58-1.86,3.42c-0.12,0.24-0.3,0.48-0.66,0.24c-1.2-0.78-1.8-2.58-1.8-3.96c0-5.7,4.68-10.14,7.74-10.14
			c3.72,0,8.28,5.94,11.88,11.64h0.6c0.72,0,5.52-0.18,6.3-0.3c2.04-0.36,2.28-0.3,1.62,0.18c-0.42,0.3-2.7,2.58-3.54,3.36
			l-0.12,0.12h-2.88c1.74,3,3,5.52,3.6,6.66C559.32,116.34,558.12,116.82,557.1,117.6z"/>
		<path class="st127" d="M582.9,99.48c-0.6-0.12-1.68-0.18-2.22-0.18s-0.54-0.3-0.3-0.42c2.76-1.14,4.74-2.52,7.5-4.14
			c1.32-0.78,2.16,0.96,2.16,2.46v24.96l-3.3,1.8c-0.18,0.12-1.38,0.9-1.56,1.08c-0.48,0.42-0.54,0.42-0.48,0.12
			c0.06-0.18,0.12-1.38,0.12-1.98V109.2c-6,3.24-10.92,6.36-11.88,10.74c-0.42,1.92,0,2.58,1.38,3.36c0.42,0.24,0.42,0.36,0,0.42
			c-1.44,0.18-4.38,1.26-5.64,1.74c-0.9-0.42-1.92-1.2-1.92-3.24c0-3.78,6.48-8.1,18.06-14.58v-5.82
			C584.82,100.38,584.4,99.78,582.9,99.48z"/>
		<path class="st127" d="M594.84,119.7h0.06H594.84z M615.12,107.94c7.56-3.12,6.3-13.56-0.36-13.62c-2.82,0-4.74,2.04-7.14,5.7
			l-4.98,7.74h-2.94l-0.12,0.12c-0.84,0.78-3.12,3.06-3.54,3.36c-0.66,0.48-0.42,0.54,1.62,0.18l2.7-0.18l-5.46,8.46h19.38
			l0.12-0.12c0.84-0.78,3.12-3.06,3.54-3.36c0.66-0.48,0.42-0.54-1.62-0.18c-0.78,0.12-5.58,0.3-6.3,0.3h-10.08l3.36-5.22h0.66h5.46
			l0.12-0.12c0.84-0.78,3.12-3.06,3.54-3.36c0.66-0.48,0.42-0.54-1.62-0.18c-0.72,0.12-4.68,0.24-6,0.3l3.96-6.12
			c2.04-3.18,2.7-3.72,4.02-3.72c3.84,0,3.9,6.06,1.56,9.48C614.58,108,614.94,108,615.12,107.94z"/>
		<path class="st127" d="M640.02,112.02c2.7,0,7.02,1.44,7.02,6.54c0,3.9-5.16,9.24-8.82,9.24c-2.46,0-4.8-0.9-6.3-2.46l-2.4,1.32
			c-0.18,0.12-1.38,0.9-1.56,1.08c-0.48,0.42-0.54,0.42-0.48,0.12c0.06-0.18,0.12-1.38,0.12-1.98v-24c0-1.44-0.42-2.04-1.92-2.34
			c-0.6-0.12-1.68-0.18-2.22-0.18s-0.54-0.3-0.3-0.42c2.76-1.14,4.74-2.52,7.5-4.14c1.32-0.78,2.16,0.96,2.16,2.46v19.5
			C632.82,116.76,638.1,112.02,640.02,112.02z M639.06,125.94c1.8,0,3.06-1.32,3.06-3.54c0-6.3-3.9-7.32-4.86-6.6l-4.44,3.18v0.48
			C632.82,122.4,637.98,125.94,639.06,125.94z"/>
		<path class="st127" d="M672.18,112.02c2.7,0,7.02,1.44,7.02,6.54c0,3.9-5.16,9.24-8.82,9.24c-2.46,0-4.8-0.9-6.3-2.46l-2.4,1.32
			c-0.18,0.12-1.38,0.9-1.56,1.08c-0.48,0.42-0.54,0.42-0.48,0.12c0.06-0.18,0.12-1.38,0.12-1.98V112.8h-3
			c-0.72,0-5.52,0.18-6.3,0.3c-2.04,0.36-2.28,0.3-1.62-0.18c0.42-0.3,2.7-2.58,3.54-3.36l0.12-0.12h7.26v-7.56
			c0-1.44-0.42-2.04-1.92-2.34c-0.6-0.12-1.68-0.18-2.22-0.18s-0.54-0.3-0.3-0.42c2.76-1.14,4.74-2.52,7.5-4.14
			c1.32-0.78,2.16,0.96,2.16,2.46v19.5C664.98,116.76,670.26,112.02,672.18,112.02z M671.22,125.94c1.8,0,3.06-1.32,3.06-3.54
			c0-6.3-3.9-7.32-4.86-6.6l-4.44,3.18v0.48C664.98,122.4,670.14,125.94,671.22,125.94z"/>
		<g>
			<path class="st127" d="M726.97,33.72v-4.44c0-7.09-5.06-12.65-11.53-12.65c-1.99,0-3.97,0.55-5.7,1.57
				c-0.73,0.43-1.4,0.84-2.05,1.23c-1.65,1-2.84,1.72-4.2,2.29c-0.23,0.09-0.45,0.2-0.67,0.31c-4.27,2.14-6.49,6.86-5.39,11.47
				c0.04,0.19,0.1,0.38,0.15,0.56c-0.1,0.09-0.2,0.19-0.3,0.28c-0.87-0.27-1.76-0.48-2.65-0.62v-4.44c0-7.09-5.06-12.65-11.53-12.65
				c-1.99,0-3.97,0.55-5.7,1.57c-0.73,0.43-1.4,0.84-2.05,1.23c-1.65,1-2.84,1.72-4.2,2.29c-0.23,0.09-0.45,0.2-0.67,0.31
				c-4.27,2.14-6.49,6.86-5.39,11.47c0.04,0.19,0.1,0.38,0.15,0.56c-0.1,0.09-0.2,0.19-0.3,0.28c-0.87-0.27-1.76-0.48-2.66-0.62
				v-4.44c0-7.09-5.06-12.65-11.53-12.65c-1.99,0-3.97,0.55-5.69,1.57c-0.73,0.43-1.41,0.84-2.06,1.24
				c-0.48,0.29-0.92,0.56-1.34,0.8c-2.24-1.33-4.8-2.1-7.5-2.1c-7.06,0-12.92,3.24-16.97,9.42l-2.56,3.96h-0.58v-2.24
				c0-7.09-5.06-12.65-11.53-12.65c-1.99,0-3.97,0.55-5.7,1.57c-0.73,0.43-1.4,0.84-2.06,1.23c-1.65,1-2.83,1.72-4.2,2.29
				c-0.23,0.09-0.45,0.2-0.67,0.31c-4.27,2.14-6.49,6.86-5.39,11.47c0.33,1.4,0.95,2.68,1.78,3.78c-0.59,0.35-1.17,0.69-1.75,1.04
				c-0.04-0.14-0.08-0.28-0.12-0.41c-1.36-4.17-5.28-6.97-9.75-6.97c-0.9,0-1.76,0.1-2.85,0.28c-5-7.36-11.07-13.67-18.84-13.67
				c-5.75,0-11.22,3.16-15.08,7.95c-3.8-2.05-8.02-3.13-12.51-3.15c-2.07-3.19-5.48-5.23-9.4-5.23c-1.99,0-3.97,0.55-5.69,1.57
				c-0.73,0.43-1.41,0.84-2.06,1.24c-1.65,1-2.83,1.72-4.2,2.29c-0.22,0.09-0.44,0.19-0.65,0.3c-1.34,0.67-2.48,1.59-3.38,2.69
				c-3.65-1.86-7.68-2.83-11.94-2.84c-2.07-3.19-5.48-5.23-9.4-5.23c-1.99,0-3.97,0.55-5.69,1.57c-0.73,0.43-1.41,0.84-2.06,1.24
				c-1.65,1-2.83,1.72-4.2,2.29c-0.22,0.09-0.44,0.19-0.65,0.3c-1.34,0.67-2.48,1.59-3.38,2.69c-3.65-1.86-7.68-2.83-11.94-2.84
				c-2.07-3.19-5.48-5.23-9.4-5.23c-1.99,0-3.97,0.55-5.69,1.57c-0.73,0.43-1.41,0.84-2.06,1.24c-1.65,1-2.83,1.72-4.2,2.29
				c-0.22,0.09-0.44,0.19-0.65,0.3c-0.19,0.1-0.37,0.2-0.56,0.31c-1.32-1.16-2.79-2.19-4.38-3.07c-4.08-2.24-8.32-3.37-12.6-3.37
				c-7.11,0-13.93,3.21-19.22,9.05c-8.28,8.7-11.97,23.44-3.01,34.98c4.15,5.31,12.09,8.75,20.21,8.75c3.55,0,6.93-0.66,10.02-1.9
				c1.49,3.4,4.91,6.24,9.87,6.24c14.01,0,23.8-7.57,23.8-18.4v-3.99c1.56,0.95,3.36,1.47,5.25,1.47c1.32,0,4.26-0.31,6.85-2.66
				v2.61c-0.53,0.34-1.13,0.66-1.53,0.78c-5.1,1.38-8.32,6.05-7.69,11.19c0.55,4.47,4.38,9,10.64,9c13.24,0,22.7-6.75,23.71-16.63
				c1.71-0.44,3.3-1.32,4.57-2.59l0.02-0.02c0.35-0.33,0.85-0.81,1.38-1.33c0.14-0.13,0.28-0.27,0.42-0.41
				c1.51-0.16,3.76-0.77,5.81-2.62v2.63c-0.53,0.34-1.13,0.66-1.53,0.78c-5.1,1.38-8.32,6.05-7.69,11.19c0.55,4.47,4.38,9,10.64,9
				c10.01,0,17.87-3.86,21.54-10.02h0.12c2.65,0,5.2-1.05,7.07-2.93l0.01-0.01c0.1-0.09,0.23-0.22,0.34-0.33
				c0.06,0.84,0.22,1.63,0.45,2.34c1.36,4.17,5.28,6.97,9.75,6.97c0.96,0,1.88-0.12,3.07-0.32c1.06-0.08,4.29-0.21,4.93-0.21h18.24
				c1.23,0,2.44-0.23,3.57-0.67c0.97,0.9,2.09,1.68,3.36,2.31c1.4,0.7,2.93,1.05,4.47,1.05c1.23,0,2.47-0.23,3.64-0.69
				c2.13-0.83,3.18-1.11,3.53-1.18c1.54-0.07,3.01-0.48,4.32-1.16c1.81,1.58,4.16,2.47,6.59,2.47c0,0,0,0,0,0
				c3.43,0,5.72-1.69,6.74-2.54c0.08-0.05,0.16-0.11,0.24-0.16c0.24,0.08,0.48,0.16,0.72,0.22c0.84,0.23,1.73,0.36,2.65,0.36h25.62
				c1.94,0,3.81-0.57,5.41-1.6c1.85,1.72,4.3,2.71,6.85,2.71h0c2.32,0,4.12-0.77,5.36-1.54c1.71,0.48,3.52,0.73,5.36,0.73
				c4.34,0,8.79-2.23,12.28-5.57c0.38,0.97,0.9,1.88,1.57,2.7c1.9,2.32,4.77,3.68,7.77,3.68c0,0,0,0,0,0c2.32,0,4.12-0.77,5.36-1.54
				c1.71,0.48,3.51,0.73,5.36,0.73c4.34,0,8.8-2.23,12.29-5.58c0.38,0.97,0.89,1.89,1.56,2.71c1.9,2.32,4.77,3.68,7.77,3.68
				c0,0,0,0,0,0c2.32,0,4.12-0.77,5.36-1.54c1.71,0.48,3.51,0.73,5.36,0.73c9.15,0,18.82-9.89,18.82-19.24
				C741.19,40.51,734.29,34.87,726.97,33.72z"/>
			<path class="st127" d="M707.14,102.24v-4.98c0-7.09-5.06-12.65-11.53-12.65c-1.99,0-3.96,0.55-5.69,1.57
				c-0.73,0.43-1.4,0.84-2.05,1.23c-1.65,1-2.84,1.72-4.2,2.29c-0.22,0.09-0.44,0.19-0.65,0.3c-4.28,2.14-6.5,6.86-5.41,11.47
				c0.06,0.24,0.12,0.47,0.19,0.7c-0.07,0.07-0.15,0.14-0.22,0.22c-0.11,0.1-0.24,0.23-0.37,0.36c-0.73-0.21-1.47-0.39-2.22-0.5
				v-4.98c0-7.09-5.06-12.65-11.53-12.65c-1.99,0-3.96,0.55-5.69,1.57c-0.73,0.43-1.4,0.84-2.05,1.23c-1.65,1-2.84,1.72-4.2,2.29
				c-0.22,0.09-0.44,0.19-0.65,0.3c-4.28,2.14-6.5,6.86-5.41,11.47c0.06,0.24,0.12,0.47,0.19,0.7c-0.07,0.07-0.15,0.14-0.22,0.22
				c-0.11,0.1-0.24,0.23-0.37,0.36c-0.73-0.21-1.47-0.39-2.22-0.5v-4.98c0-7.09-5.06-12.65-11.53-12.65c-1.99,0-3.96,0.55-5.69,1.57
				c-0.65,0.38-1.25,0.74-1.83,1.1c-2.53-1.85-5.64-2.92-9.01-2.95c-8.22,0-12.86,6.24-15.11,9.62c-1.28-5.46-5.71-9.39-11.14-9.39
				c-1.99,0-3.97,0.55-5.7,1.57c-0.73,0.43-1.4,0.84-2.06,1.23c-1.65,1-2.83,1.72-4.2,2.29c-0.23,0.09-0.45,0.2-0.67,0.31
				c-3.65,1.83-5.8,5.55-5.66,9.48c-1.9-2.26-4.76-3.64-7.89-3.64c-0.96,0-1.88,0.12-3.07,0.32c-0.1,0.01-0.21,0.01-0.34,0.02
				c-4.52-6.21-10.02-11.45-17.07-11.45c-4.51,0-8.81,2.28-12.06,5.81c-3.09-1.43-6.7-2.38-10.72-2.39
				c-2.06-2.17-4.88-3.49-8.03-3.49c-1.99,0-3.96,0.55-5.69,1.57c-0.73,0.43-1.41,0.84-2.06,1.24c-1.65,1-2.83,1.72-4.2,2.29
				c-0.22,0.09-0.44,0.19-0.66,0.3c-0.15,0.07-0.29,0.16-0.43,0.24c-2.96-1.28-6.37-2.12-10.14-2.13c-2.06-2.17-4.88-3.49-8.03-3.49
				c-1.99,0-3.96,0.55-5.69,1.57c-0.73,0.43-1.41,0.84-2.06,1.24c-1.65,1-2.83,1.72-4.2,2.29c-0.22,0.09-0.44,0.19-0.66,0.3
				c-0.15,0.07-0.29,0.16-0.43,0.24c-2.96-1.28-6.37-2.12-10.14-2.13c-2.06-2.17-4.88-3.49-8.03-3.49c-1.99,0-3.96,0.55-5.69,1.57
				c-0.73,0.43-1.41,0.84-2.06,1.24c-0.99,0.6-1.81,1.09-2.6,1.52c-0.71-0.53-1.45-1.03-2.25-1.47c-3.37-1.83-6.84-2.76-10.3-2.76
				c-4.02,0-9.96,1.28-15.45,7.35c-8.01,8.53-8.9,19.58-2.27,28.15c3.59,4.69,9.52,7.49,15.86,7.49c1.15,0,2.27-0.1,3.38-0.27
				c-0.07,0.73-0.07,1.48,0.02,2.23c0.55,4.47,4.38,9,10.64,9c9.24,0,22.1-8.19,22.24-21.54c1.16,0.45,2.41,0.69,3.7,0.69
				c0.78,0,1.54-0.09,2.29-0.26v0.66c-0.07,0.12-0.2,0.27-0.31,0.37c-4.9,1.5-7.97,6.07-7.35,11.09c0.55,4.47,4.38,9,10.64,9
				c7.72,0,17.98-5.72,21.22-15.4c0.25-0.02,0.49-0.06,0.74-0.1c-1.15,1.89-1.68,4.15-1.39,6.51c0.55,4.47,4.38,9,10.64,9
				c5.67,0,12.88-3.21,17.5-8.81c2.6-0.76,5.75-2.04,8.56-4.1c1.86,2.77,5.02,4.5,8.54,4.5c0.96,0,1.88-0.12,3.07-0.32
				c1.06-0.08,4.29-0.21,4.93-0.21h11.7c1.31,0,2.6-0.26,3.8-0.75c1.32,2.4,3.37,4.34,6.01,5.58c1.34,0.62,2.78,0.94,4.23,0.94
				c1.21,0,2.41-0.22,3.56-0.66c1.82-0.69,3.08-1.08,3.52-1.19c0.86-0.12,1.67-0.34,2.44-0.64c1.8,1.53,4.12,2.4,6.51,2.4
				c0,0,0,0,0,0c3.43,0,5.72-1.69,6.74-2.54c0.14-0.09,0.29-0.2,0.43-0.29l2.94-1.6c0.64-0.35,1.21-0.77,1.75-1.24h17.7
				c1.12,0,2.22-0.2,3.26-0.56c0.22,1.93,0.96,3.75,2.2,5.27c1.9,2.31,4.76,3.67,7.75,3.67c0,0,0,0,0,0c1.96,0,3.55-0.55,4.75-1.19
				c1.89,0.6,3.91,0.92,5.97,0.92c4.36,0,8.83-2.25,12.32-5.61c0.36,0.79,0.8,1.54,1.36,2.22c1.9,2.31,4.76,3.67,7.75,3.67
				c0,0,0,0,0,0c1.96,0,3.55-0.55,4.75-1.19c1.89,0.6,3.91,0.92,5.97,0.92c4.35,0,8.83-2.24,12.32-5.6
				c0.36,0.79,0.81,1.53,1.37,2.21c1.9,2.31,4.76,3.67,7.75,3.67c0,0,0,0,0,0c1.96,0,3.55-0.55,4.75-1.19
				c1.89,0.6,3.91,0.92,5.97,0.92c9.15,0,18.82-9.89,18.82-19.24C721.36,109.03,714.46,103.39,707.14,102.24z"/>
		</g>
		<path class="st127" d="M704.34,112.02c2.7,0,7.02,1.44,7.02,6.54c0,3.9-5.16,9.24-8.82,9.24c-2.46,0-4.8-0.9-6.3-2.46l-2.4,1.32
			c-0.18,0.12-1.38,0.9-1.56,1.08c-0.48,0.42-0.54,0.42-0.48,0.12c0.06-0.18,0.12-1.38,0.12-1.98v-6.84h-3
			c-0.72,0-5.52,0.18-6.3,0.3c-2.04,0.36-2.28,0.3-1.62-0.18c0.42-0.3,2.7-2.58,3.54-3.36l0.12-0.12h7.26v-2.88h-3
			c-0.72,0-5.52,0.18-6.3,0.3c-2.04,0.36-2.28,0.3-1.62-0.18c0.42-0.3,2.7-2.58,3.54-3.36l0.12-0.12h7.26v-7.56
			c0-1.44-0.42-2.04-1.92-2.34c-0.6-0.12-1.68-0.18-2.22-0.18s-0.54-0.3-0.3-0.42c2.76-1.14,4.74-2.52,7.5-4.14
			c1.32-0.78,2.16,0.96,2.16,2.46v19.5C697.14,116.76,702.42,112.02,704.34,112.02z M703.38,125.94c1.8,0,3.06-1.32,3.06-3.54
			c0-6.3-3.9-7.32-4.86-6.6l-4.44,3.18v0.48C697.14,122.4,702.3,125.94,703.38,125.94z"/>
	</g>
	<g>
		<path d="M396.87,54.24c-5.82-7.5-2.4-16.98,2.46-22.02c5.16-5.76,12.24-7.8,19.68-3.72c7.62,4.2,10.2,14.16,3.18,24.18
			C415.23,62.58,400.95,59.46,396.87,54.24z M415.83,34.02c-4.74-3.66-12.3-4.08-14.88-1.32c-2.04,2.22-2.7,5.46-2.34,8.76h10.98
			c0.72,0,5.52-0.18,6.3-0.3c2.04-0.36,2.28-0.3,1.62,0.18c-0.42,0.3-2.7,2.58-3.54,3.36l-0.12,0.12h-11.34l-3.18,0.12
			c0.6,1.86,1.5,3.6,2.58,5.04c4.62,6,13.68,6.66,16.62,3.78C424.29,48.12,421.41,38.34,415.83,34.02z"/>
		<path d="M435.75,32.04c-0.6-0.12-1.68-0.18-2.22-0.18s-0.54-0.3-0.3-0.42c2.76-1.14,4.74-2.52,7.5-4.14
			c1.32-0.78,2.16,0.96,2.16,2.46v4.38c2.16-1.14,4.86-1.8,7.74-1.8c6.72,0,10.8,3.72,12.54,5.58c0.24,0.24,0.06,0.36-0.12,0.48
			c-1.38,0.78-3.66,2.58-4.56,3.84c-0.24,0.36-0.42,0.48-0.6,0.06c-1.14-2.52-3.96-7.26-9.24-7.26c-3.24,0-5.76,1.74-5.76,5.64v14.4
			c0,7.2-10.14,8.4-13.8,8.4c-1.02,0-0.78-0.42-0.3-0.54c3.66-1.02,8.88-4.68,8.88-7.86v-20.7
			C437.67,32.94,437.25,32.34,435.75,32.04z"/>
		<path d="M473.07,32.04c-0.6-0.12-1.68-0.18-2.22-0.18s-0.54-0.3-0.3-0.42c2.76-1.14,4.74-2.52,7.5-4.14
			c1.32-0.78,2.16,0.96,2.16,2.46v4.38c2.16-1.14,4.86-1.8,7.74-1.8c6.72,0,10.8,3.72,12.54,5.58c0.24,0.24,0.06,0.36-0.12,0.48
			c-1.38,0.78-3.66,2.58-4.56,3.84c-0.24,0.36-0.42,0.48-0.6,0.06c-1.14-2.52-3.96-7.26-9.24-7.26c-3.24,0-5.76,1.74-5.76,5.64v3.12
			h3.18c0.72,0,5.52-0.18,6.3-0.3c2.04-0.36,2.28-0.3,1.62,0.18c-0.42,0.3-2.7,2.58-3.54,3.36l-0.12,0.12h-7.44v7.92
			c0,7.2-10.14,8.4-13.8,8.4c-1.02,0-0.78-0.42-0.3-0.54c3.66-1.02,8.88-4.68,8.88-7.86v-20.7
			C474.99,32.94,474.57,32.34,473.07,32.04z"/>
		<path d="M510.39,32.04c-0.6-0.12-1.68-0.18-2.22-0.18s-0.54-0.3-0.3-0.42c2.76-1.14,4.74-2.52,7.5-4.14
			c1.32-0.78,2.16,0.96,2.16,2.46v4.38c2.16-1.14,4.86-1.8,7.74-1.8c6.72,0,10.8,3.72,12.54,5.58c0.24,0.24,0.06,0.36-0.12,0.48
			c-1.38,0.78-3.66,2.58-4.56,3.84c-0.24,0.36-0.42,0.48-0.6,0.06c-1.14-2.52-3.96-7.26-9.24-7.26c-3.24,0-5.76,1.74-5.76,5.64v2.52
			h3.6c0.72,0,5.52-0.18,6.3-0.3c2.04-0.36,2.28-0.3,1.62,0.18c-0.42,0.3-2.7,2.58-3.54,3.36l-0.12,0.12h-7.86v3.54h3.6
			c0.72,0,5.52-0.18,6.3-0.3c2.04-0.36,2.28-0.3,1.62,0.18c-0.42,0.3-2.7,2.58-3.54,3.36l-0.12,0.12h-7.86v1.62
			c0,7.2-10.14,8.4-13.8,8.4c-1.02,0-0.78-0.42-0.3-0.54c3.66-1.02,8.88-4.68,8.88-7.86v-20.7
			C512.31,32.94,511.89,32.34,510.39,32.04z"/>
		<path d="M571.65,56.46c-1.2,1.02-1.26,1.44-2.4,2.52h-18.24c-0.72,0-5.52,0.18-6.3,0.3c-2.04,0.36-2.28,0.3-1.62-0.18
			c0.42-0.3,2.7-2.58,3.54-3.36l0.12-0.12h20.88c-1.38-2.7-3.48-6.78-5.76-10.8h-0.48c-0.72,0-5.52,0.18-6.3,0.3
			c-2.04,0.36-2.28,0.3-1.62-0.18c0.42-0.3,2.7-2.58,3.54-3.36l0.12-0.12h2.76c-3.48-5.76-7.14-10.68-9.36-10.68
			c-2.04,0-4.26,3.42-4.26,5.34c0,2.58,1.38,3.36,2.04,3.78c0.36,0.3-0.18,1.02-0.3,1.14c-1.08,1.26-2.1,3.42-2.52,4.5
			c-0.18,0.3-0.3,0.54-0.78,0.3c-0.96-0.42-2.28-3.3-2.28-5.1c0-7.5,6.06-13.2,10.56-13.2c4.2,0,9.36,7.02,13.5,13.92h0.18
			c0.72,0,5.52-0.18,6.3-0.3c2.04-0.36,2.28-0.3,1.62,0.18c-0.42,0.3-2.7,2.58-3.54,3.36l-0.12,0.12h-2.52
			c3.12,5.58,5.22,10.26,5.34,10.2C573.75,55.02,572.91,55.38,571.65,56.46z"/>
		<path d="M596.91,31.56c-0.6-0.12-1.68-0.18-2.22-0.18s-0.54-0.3-0.3-0.42c2.76-1.14,4.74-2.52,7.5-4.14
			c1.32-0.78,2.16,0.96,2.16,2.46V57.9l-3.3,1.8c-0.18,0.12-1.38,0.9-1.56,1.08c-0.48,0.42-0.54,0.42-0.48,0.12
			c0.06-0.18,0.12-1.38,0.12-1.98V44.04c-7.98,4.38-12.12,7.74-13.02,11.64c-0.48,2.1,0,2.82,1.5,3.66c0.42,0.24,0.42,0.48,0,0.48
			c-1.8,0-5.28,1.32-6.66,1.86c-0.96-0.48-2.1-1.32-2.1-3.48c0-4.8,7.32-9.36,20.28-16.5v-7.8
			C598.83,32.46,598.41,31.86,596.91,31.56z"/>
		<path d="M636.75,55.32c2.04-0.36,2.28-0.3,1.62,0.18c-0.42,0.3-2.7,2.58-3.54,3.36l-0.12,0.12h-25.5h-0.06h-0.06h0.06l0.06-0.06
			h-0.36l9.06-14.04h-0.12c-0.72,0-5.52,0.18-6.3,0.3c-2.04,0.36-2.28,0.3-1.62-0.18c0.42-0.3,2.7-2.58,3.54-3.36l0.12-0.12h6.54
			l5.52-8.52c2.28-3.48,5.04-4.86,8.58-4.86c2.52,0,5.58,2.64,5.58,6.3c0,5.34-4.02,8.46-6.36,10.62c-0.3,0.24-0.66,0.06-0.18-0.72
			c1.5-2.16,2.94-5.94,0.96-9.06c-1.32-2.1-2.7-2.64-3.96-2.64c-0.9,0-1.74,0.36-3.06,2.4l-4.2,6.48c1.62-0.06,4.92-0.18,5.58-0.3
			c2.04-0.36,2.28-0.3,1.62,0.18c-0.42,0.3-2.7,2.58-3.54,3.36l-0.12,0.12h-5.7l-6.9,10.74h16.56
			C631.17,55.62,635.97,55.44,636.75,55.32z"/>
		<path d="M659.49,43.5c2.7,0,7.02,1.44,7.02,6.54c0,3.9-5.16,9.24-8.82,9.24c-2.28,0-4.44-0.78-5.94-2.1l-2.76,1.5
			c-0.18,0.12-1.38,0.9-1.56,1.08c-0.48,0.42-0.54,0.42-0.48,0.12c0.06-0.18,0.12-1.38,0.12-1.98v-24c0-1.44-0.42-2.04-1.92-2.34
			c-0.6-0.12-1.68-0.18-2.22-0.18s-0.54-0.3-0.3-0.42c2.76-1.14,4.74-2.52,7.5-4.14c1.32-0.78,2.16,0.96,2.16,2.46v18.96
			C652.29,48.24,657.57,43.5,659.49,43.5z M658.53,57.42c1.8,0,3.06-1.32,3.06-3.54c0-6.3-3.9-7.32-4.86-6.6l-4.44,3.18v0.48
			C652.29,53.88,657.45,57.42,658.53,57.42z"/>
		<path d="M691.83,43.5c2.7,0,7.02,1.44,7.02,6.54c0,3.9-5.16,9.24-8.82,9.24c-2.28,0-4.44-0.78-5.94-2.1l-2.76,1.5
			c-0.18,0.12-1.38,0.9-1.56,1.08c-0.48,0.42-0.54,0.42-0.48,0.12c0.06-0.18,0.12-1.38,0.12-1.98V44.82h-3.18
			c-0.72,0-5.52,0.18-6.3,0.3c-2.04,0.36-2.28,0.3-1.62-0.18c0.42-0.3,2.7-2.58,3.54-3.36l0.12-0.12h7.44V33.9
			c0-1.44-0.42-2.04-1.92-2.34c-0.6-0.12-1.68-0.18-2.22-0.18c-0.54,0-0.54-0.3-0.3-0.42c2.76-1.14,4.74-2.52,7.5-4.14
			c1.32-0.78,2.16,0.96,2.16,2.46v18.96C684.63,48.24,689.91,43.5,691.83,43.5z M690.87,57.42c1.8,0,3.06-1.32,3.06-3.54
			c0-6.3-3.9-7.32-4.86-6.6l-4.44,3.18v0.48C684.63,53.88,689.79,57.42,690.87,57.42z"/>
		<path d="M724.17,43.5c2.7,0,7.02,1.44,7.02,6.54c0,3.9-5.16,9.24-8.82,9.24c-2.28,0-4.44-0.78-5.94-2.1l-2.76,1.5
			c-0.18,0.12-1.38,0.9-1.56,1.08c-0.48,0.42-0.54,0.42-0.48,0.12c0.06-0.18,0.12-1.38,0.12-1.98v-7.08h-3.18
			c-0.72,0-5.52,0.18-6.3,0.3c-2.04,0.36-2.28,0.3-1.62-0.18c0.42-0.3,2.7-2.58,3.54-3.36l0.12-0.12h7.44v-2.64h-3.18
			c-0.72,0-5.52,0.18-6.3,0.3c-2.04,0.36-2.28,0.3-1.62-0.18c0.42-0.3,2.7-2.58,3.54-3.36l0.12-0.12h7.44V33.9
			c0-1.44-0.42-2.04-1.92-2.34c-0.6-0.12-1.68-0.18-2.22-0.18c-0.54,0-0.54-0.3-0.3-0.42c2.76-1.14,4.74-2.52,7.5-4.14
			c1.32-0.78,2.16,0.96,2.16,2.46v18.96C716.97,48.24,722.25,43.5,724.17,43.5z M723.21,57.42c1.8,0,3.06-1.32,3.06-3.54
			c0-6.3-3.9-7.32-4.86-6.6l-4.44,3.18v0.48C716.97,53.88,722.13,57.42,723.21,57.42z"/>
		
			<linearGradient id="SVGID_00000101786835213799938900000005301981379329563069_" gradientUnits="userSpaceOnUse" x1="394.8146" y1="108.28" x2="739.2147" y2="84.28">
			<stop  offset="0" style="stop-color:#6B43CC"/>
			<stop  offset="0.6173" style="stop-color:#41C8B1"/>
			<stop  offset="0.8575" style="stop-color:#476919"/>
			<stop  offset="1" style="stop-color:#23402C"/>
		</linearGradient>
		<path style="fill:url(#SVGID_00000101786835213799938900000005301981379329563069_);" d="M415.98,114.12
			c-4.5-5.82-1.68-11.76,1.68-15.3c3.54-3.96,8.1-5.58,13.62-2.58c4.86,2.7,7.38,9.54,2.22,16.32
			C427.8,120.06,419.1,118.2,415.98,114.12z M428.52,100.38c-3.48-2.64-7.5-2.94-9.3-1.08c-1.32,1.38-1.68,3.66-1.38,5.94h2.94
			c0.72,0,5.52-0.18,6.3-0.3c2.04-0.36,2.28-0.3,1.62,0.18c-0.42,0.3-2.7,2.58-3.54,3.36l-0.12,0.12h-6.24
			c0.3,0.72,0.66,1.32,1.08,1.86c2.64,3.42,8.7,5.04,10.8,3C434.22,109.98,431.7,102.9,428.52,100.38z"/>
		
			<linearGradient id="SVGID_00000118383809565957557160000013546842546267810698_" gradientUnits="userSpaceOnUse" x1="395.2812" y1="114.9745" x2="739.6812" y2="90.9745">
			<stop  offset="0" style="stop-color:#6B43CC"/>
			<stop  offset="0.6173" style="stop-color:#41C8B1"/>
			<stop  offset="0.8575" style="stop-color:#476919"/>
			<stop  offset="1" style="stop-color:#23402C"/>
		</linearGradient>
		<path style="fill:url(#SVGID_00000118383809565957557160000013546842546267810698_);" d="M443.04,99.54
			c-0.6-0.12-1.68-0.18-2.22-0.18s-0.54-0.3-0.3-0.42c2.76-1.14,4.74-2.52,7.5-4.14c1.32-0.78,2.16,0.96,2.16,2.46v2.28
			c1.86-0.9,4.02-1.44,6.42-1.44c6.42,0,10.5,3.78,11.76,5.34c0.24,0.3-0.3,0.6-0.48,0.78c-1.02,0.84-2.88,2.22-3.72,3.36
			c-0.18,0.24-0.36,0.3-0.54,0c-1.2-2.4-3.48-7.56-8.04-7.56c-3.42,0-5.4,2.88-5.4,6.78v10.08c0,7.8-8.58,11.76-12.24,11.76
			c-1.02,0-0.78-0.42-0.3-0.54c3.66-1.02,7.32-5.16,7.32-9.66v-16.56C444.96,100.44,444.54,99.84,443.04,99.54z"/>
		
			<linearGradient id="SVGID_00000112610525618443518140000013931030016282999210_" gradientUnits="userSpaceOnUse" x1="395.4319" y1="117.1382" x2="739.8319" y2="93.1382">
			<stop  offset="0" style="stop-color:#6B43CC"/>
			<stop  offset="0.6173" style="stop-color:#41C8B1"/>
			<stop  offset="0.8575" style="stop-color:#476919"/>
			<stop  offset="1" style="stop-color:#23402C"/>
		</linearGradient>
		<path style="fill:url(#SVGID_00000112610525618443518140000013931030016282999210_);" d="M474.24,99.54
			c-0.6-0.12-1.68-0.18-2.22-0.18s-0.54-0.3-0.3-0.42c2.76-1.14,4.74-2.52,7.5-4.14c1.32-0.78,2.16,0.96,2.16,2.46v2.28
			c1.86-0.9,4.02-1.44,6.42-1.44c6.42,0,10.5,3.78,11.76,5.34c0.24,0.3-0.3,0.6-0.48,0.78c-1.02,0.84-2.88,2.22-3.72,3.36
			c-0.18,0.24-0.36,0.3-0.54,0c-1.2-2.4-3.48-7.56-8.04-7.56c-3.42,0-5.4,2.88-5.4,6.78v3.12h3.78c0.72,0,5.52-0.18,6.3-0.3
			c2.04-0.36,2.28-0.3,1.62,0.18c-0.42,0.3-2.7,2.58-3.54,3.36l-0.12,0.12h-8.04v3.6c0,7.8-8.58,11.76-12.24,11.76
			c-1.02,0-0.78-0.42-0.3-0.54c3.66-1.02,7.32-5.16,7.32-9.66v-16.56C476.16,100.44,475.74,99.84,474.24,99.54z"/>
		
			<linearGradient id="SVGID_00000182520536439708642270000011939541261387495092_" gradientUnits="userSpaceOnUse" x1="395.5827" y1="119.3019" x2="739.9827" y2="95.3019">
			<stop  offset="0" style="stop-color:#6B43CC"/>
			<stop  offset="0.6173" style="stop-color:#41C8B1"/>
			<stop  offset="0.8575" style="stop-color:#476919"/>
			<stop  offset="1" style="stop-color:#23402C"/>
		</linearGradient>
		<path style="fill:url(#SVGID_00000182520536439708642270000011939541261387495092_);" d="M505.44,99.54
			c-0.6-0.12-1.68-0.18-2.22-0.18s-0.54-0.3-0.3-0.42c2.76-1.14,4.74-2.52,7.5-4.14c1.32-0.78,2.16,0.96,2.16,2.46v2.28
			c1.86-0.9,4.02-1.44,6.42-1.44c6.42,0,10.5,3.78,11.76,5.34c0.24,0.3-0.3,0.6-0.48,0.78c-1.02,0.84-2.88,2.22-3.72,3.36
			c-0.18,0.24-0.36,0.3-0.54,0c-1.2-2.4-3.48-7.56-8.04-7.56c-3.42,0-5.4,2.88-5.4,6.78v4.56c3-1.68,5.28-3.9,5.28-4.8
			c0-0.24-1.02-0.66,0-0.9c1.98-0.42,3.18-0.6,4.98-1.02c1.32-0.3,0.48,2.04-1.26,3.78c-2.16,2.16-5.94,3.48-9,4.08v4.38
			c0,1.08-0.18,2.16-0.48,3.06c3.24-1.68,5.76-4.08,5.76-5.04c0-0.24-1.02-0.66,0-0.9c1.98-0.42,3.18-0.6,4.98-1.02
			c1.32-0.3,0.48,2.04-1.26,3.78c-2.4,2.34-6.72,3.78-9.9,4.2c-2.22,5.1-8.4,7.68-11.34,7.68c-1.02,0-0.78-0.42-0.3-0.54
			c3.66-1.02,7.32-5.16,7.32-9.66v-16.56C507.36,100.44,506.94,99.84,505.44,99.54z"/>
		
			<linearGradient id="SVGID_00000003792501464513567480000011830107905060161441_" gradientUnits="userSpaceOnUse" x1="395.4803" y1="117.8315" x2="739.8802" y2="93.8315">
			<stop  offset="0" style="stop-color:#6B43CC"/>
			<stop  offset="0.6173" style="stop-color:#41C8B1"/>
			<stop  offset="0.8575" style="stop-color:#476919"/>
			<stop  offset="1" style="stop-color:#23402C"/>
		</linearGradient>
		<path style="fill:url(#SVGID_00000003792501464513567480000011830107905060161441_);" d="M557.1,117.6
			c-1.08,0.78-1.62,1.32-2.46,2.1h-11.7c-0.72,0-5.52,0.18-6.3,0.3c-2.04,0.36-2.28,0.3-1.62-0.18c0.42-0.3,2.7-2.58,3.54-3.36
			l0.12-0.12h14.94c-0.66-1.38-2.04-3.9-3.72-6.66h-0.72c-0.72,0-5.52,0.18-6.3,0.3c-2.04,0.36-2.28,0.3-1.62-0.18
			c0.42-0.3,2.7-2.58,3.54-3.36l0.12-0.12h2.94c-2.94-4.68-6-9.12-6.96-9.12c-2.22,0-3.24,3.06-3.24,4.08c0,1.56,0.6,2.16,1.02,2.88
			c0.24,0.42,0,0.6-0.24,0.96c-0.78,1.08-1.62,2.58-1.86,3.42c-0.12,0.24-0.3,0.48-0.66,0.24c-1.2-0.78-1.8-2.58-1.8-3.96
			c0-5.7,4.68-10.14,7.74-10.14c3.72,0,8.28,5.94,11.88,11.64h0.6c0.72,0,5.52-0.18,6.3-0.3c2.04-0.36,2.28-0.3,1.62,0.18
			c-0.42,0.3-2.7,2.58-3.54,3.36l-0.12,0.12h-2.88c1.74,3,3,5.52,3.6,6.66C559.32,116.34,558.12,116.82,557.1,117.6z"/>
		
			<linearGradient id="SVGID_00000009586883631331876550000000051822952421537416_" gradientUnits="userSpaceOnUse" x1="395.8579" y1="123.2512" x2="740.2579" y2="99.2512">
			<stop  offset="0" style="stop-color:#6B43CC"/>
			<stop  offset="0.6173" style="stop-color:#41C8B1"/>
			<stop  offset="0.8575" style="stop-color:#476919"/>
			<stop  offset="1" style="stop-color:#23402C"/>
		</linearGradient>
		<path style="fill:url(#SVGID_00000009586883631331876550000000051822952421537416_);" d="M582.9,99.48
			c-0.6-0.12-1.68-0.18-2.22-0.18s-0.54-0.3-0.3-0.42c2.76-1.14,4.74-2.52,7.5-4.14c1.32-0.78,2.16,0.96,2.16,2.46v24.96l-3.3,1.8
			c-0.18,0.12-1.38,0.9-1.56,1.08c-0.48,0.42-0.54,0.42-0.48,0.12c0.06-0.18,0.12-1.38,0.12-1.98V109.2
			c-6,3.24-10.92,6.36-11.88,10.74c-0.42,1.92,0,2.58,1.38,3.36c0.42,0.24,0.42,0.36,0,0.42c-1.44,0.18-4.38,1.26-5.64,1.74
			c-0.9-0.42-1.92-1.2-1.92-3.24c0-3.78,6.48-8.1,18.06-14.58v-5.82C584.82,100.38,584.4,99.78,582.9,99.48z"/>
		
			<linearGradient id="SVGID_00000059270220511095101250000001113274322470916245_" gradientUnits="userSpaceOnUse" x1="395.7878" y1="122.2454" x2="740.1878" y2="98.2454">
			<stop  offset="0" style="stop-color:#6B43CC"/>
			<stop  offset="0.6173" style="stop-color:#41C8B1"/>
			<stop  offset="0.8575" style="stop-color:#476919"/>
			<stop  offset="1" style="stop-color:#23402C"/>
		</linearGradient>
		<path style="fill:url(#SVGID_00000059270220511095101250000001113274322470916245_);" d="M594.84,119.7h0.06H594.84z
			 M615.12,107.94c7.56-3.12,6.3-13.56-0.36-13.62c-2.82,0-4.74,2.04-7.14,5.7l-4.98,7.74h-2.94l-0.12,0.12
			c-0.84,0.78-3.12,3.06-3.54,3.36c-0.66,0.48-0.42,0.54,1.62,0.18l2.7-0.18l-5.46,8.46h19.38l0.12-0.12
			c0.84-0.78,3.12-3.06,3.54-3.36c0.66-0.48,0.42-0.54-1.62-0.18c-0.78,0.12-5.58,0.3-6.3,0.3h-10.08l3.36-5.22h0.66h5.46l0.12-0.12
			c0.84-0.78,3.12-3.06,3.54-3.36c0.66-0.48,0.42-0.54-1.62-0.18c-0.72,0.12-4.68,0.24-6,0.3l3.96-6.12
			c2.04-3.18,2.7-3.72,4.02-3.72c3.84,0,3.9,6.06,1.56,9.48C614.58,108,614.94,108,615.12,107.94z"/>
		
			<linearGradient id="SVGID_00000178911379690274201860000002625398954160798651_" gradientUnits="userSpaceOnUse" x1="396.1772" y1="127.8321" x2="740.5771" y2="103.8321">
			<stop  offset="0" style="stop-color:#6B43CC"/>
			<stop  offset="0.6173" style="stop-color:#41C8B1"/>
			<stop  offset="0.8575" style="stop-color:#476919"/>
			<stop  offset="1" style="stop-color:#23402C"/>
		</linearGradient>
		<path style="fill:url(#SVGID_00000178911379690274201860000002625398954160798651_);" d="M640.02,112.02
			c2.7,0,7.02,1.44,7.02,6.54c0,3.9-5.16,9.24-8.82,9.24c-2.46,0-4.8-0.9-6.3-2.46l-2.4,1.32c-0.18,0.12-1.38,0.9-1.56,1.08
			c-0.48,0.42-0.54,0.42-0.48,0.12c0.06-0.18,0.12-1.38,0.12-1.98v-24c0-1.44-0.42-2.04-1.92-2.34c-0.6-0.12-1.68-0.18-2.22-0.18
			s-0.54-0.3-0.3-0.42c2.76-1.14,4.74-2.52,7.5-4.14c1.32-0.78,2.16,0.96,2.16,2.46v19.5C632.82,116.76,638.1,112.02,640.02,112.02z
			 M639.06,125.94c1.8,0,3.06-1.32,3.06-3.54c0-6.3-3.9-7.32-4.86-6.6l-4.44,3.18v0.48C632.82,122.4,637.98,125.94,639.06,125.94z"
			/>
		
			<linearGradient id="SVGID_00000118370234856353837750000013019886095111729337_" gradientUnits="userSpaceOnUse" x1="396.3326" y1="130.0624" x2="740.7325" y2="106.0624">
			<stop  offset="0" style="stop-color:#6B43CC"/>
			<stop  offset="0.6173" style="stop-color:#41C8B1"/>
			<stop  offset="0.8575" style="stop-color:#476919"/>
			<stop  offset="1" style="stop-color:#23402C"/>
		</linearGradient>
		<path style="fill:url(#SVGID_00000118370234856353837750000013019886095111729337_);" d="M672.18,112.02
			c2.7,0,7.02,1.44,7.02,6.54c0,3.9-5.16,9.24-8.82,9.24c-2.46,0-4.8-0.9-6.3-2.46l-2.4,1.32c-0.18,0.12-1.38,0.9-1.56,1.08
			c-0.48,0.42-0.54,0.42-0.48,0.12c0.06-0.18,0.12-1.38,0.12-1.98V112.8h-3c-0.72,0-5.52,0.18-6.3,0.3
			c-2.04,0.36-2.28,0.3-1.62-0.18c0.42-0.3,2.7-2.58,3.54-3.36l0.12-0.12h7.26v-7.56c0-1.44-0.42-2.04-1.92-2.34
			c-0.6-0.12-1.68-0.18-2.22-0.18s-0.54-0.3-0.3-0.42c2.76-1.14,4.74-2.52,7.5-4.14c1.32-0.78,2.16,0.96,2.16,2.46v19.5
			C664.98,116.76,670.26,112.02,672.18,112.02z M671.22,125.94c1.8,0,3.06-1.32,3.06-3.54c0-6.3-3.9-7.32-4.86-6.6l-4.44,3.18v0.48
			C664.98,122.4,670.14,125.94,671.22,125.94z"/>
		
			<linearGradient id="SVGID_00000020368178979375001070000008295105031319233190_" gradientUnits="userSpaceOnUse" x1="396.488" y1="132.2927" x2="740.888" y2="108.2927">
			<stop  offset="0" style="stop-color:#6B43CC"/>
			<stop  offset="0.6173" style="stop-color:#41C8B1"/>
			<stop  offset="0.8575" style="stop-color:#476919"/>
			<stop  offset="1" style="stop-color:#23402C"/>
		</linearGradient>
		<path style="fill:url(#SVGID_00000020368178979375001070000008295105031319233190_);" d="M704.34,112.02
			c2.7,0,7.02,1.44,7.02,6.54c0,3.9-5.16,9.24-8.82,9.24c-2.46,0-4.8-0.9-6.3-2.46l-2.4,1.32c-0.18,0.12-1.38,0.9-1.56,1.08
			c-0.48,0.42-0.54,0.42-0.48,0.12c0.06-0.18,0.12-1.38,0.12-1.98v-6.84h-3c-0.72,0-5.52,0.18-6.3,0.3
			c-2.04,0.36-2.28,0.3-1.62-0.18c0.42-0.3,2.7-2.58,3.54-3.36l0.12-0.12h7.26v-2.88h-3c-0.72,0-5.52,0.18-6.3,0.3
			c-2.04,0.36-2.28,0.3-1.62-0.18c0.42-0.3,2.7-2.58,3.54-3.36l0.12-0.12h7.26v-7.56c0-1.44-0.42-2.04-1.92-2.34
			c-0.6-0.12-1.68-0.18-2.22-0.18s-0.54-0.3-0.3-0.42c2.76-1.14,4.74-2.52,7.5-4.14c1.32-0.78,2.16,0.96,2.16,2.46v19.5
			C697.14,116.76,702.42,112.02,704.34,112.02z M703.38,125.94c1.8,0,3.06-1.32,3.06-3.54c0-6.3-3.9-7.32-4.86-6.6l-4.44,3.18v0.48
			C697.14,122.4,702.3,125.94,703.38,125.94z"/>
	</g>
</g>
<g id="Editable_layers" class="st0">
</g>
</svg>
