<svg xmlns="http://www.w3.org/2000/svg" xmlns:xlink="http://www.w3.org/1999/xlink" viewBox="0 0 1125 155"><defs><style>.a{fill:#fff;}.b{fill:url(#a);}</style><radialGradient id="a" cx="619" cy="139.5" r="61.9" gradientUnits="userSpaceOnUse"><stop offset="0" stop-color="#faaffa"/><stop offset="0.25" stop-color="#f2f279"/><stop offset="0.45" stop-color="#4cfff0"/><stop offset="0.6" stop-color="#5fcc29"/><stop offset="0.9" stop-color="#0045a6"/><stop offset="1" stop-color="#001466"/></radialGradient></defs><path class="a" d="M280.56,55.13V40.55c0-1-1.43-1.08-1.43-1.44s10.19-4.5,12.47-4.5c1.2,0,7.74,3,7.74,8.7,0,10.5-11.94,15.06-18.17,15.06s-13.68-4.68-13.68-12.3V32.87c0-1.44-.42-2-1.92-2.34a14.52,14.52,0,0,0-2.22-.18c-.54,0-.54-.3-.31-.42a57,57,0,0,0,7.5-4.14c1.33-.78,2.17,1,2.17,2.46V42.53C272.71,48.29,275.71,53.51,280.56,55.13Zm12.72-9.9c0-4-5-6.78-7-6.78a1.66,1.66,0,0,0-.54.06V55.37C291.6,54.11,293.28,47.63,293.28,45.23Z"/><path class="a" d="M314.22,34.55c7.56,0,11.58,4.56,12.18,9.48,1.62-.06,3.6-.18,4.08-.24,2-.36,2.28-.3,1.62.18-.42.3-2.7,2.58-3.54,3.36l-.12.12h-2.22c-1.56,6.66-10,9.42-14.4,9.72-.72.06-.6-.42,0-.66,4.8-2.1,8.16-4.08,8.46-9.06h-2.64c-.72,0-5.52.18-6.3.3-2,.36-2.28.3-1.62-.18.42-.3,2.7-2.58,3.54-3.36l.12-.12h6.78c-.72-5.34-3.9-7.62-7.08-7.62-4.32,0-7.08,2.7-7.08,4.68,0,.48-.12.66-.29.72A11,11,0,0,0,302,43.79c-.31.24-.73.48-.49-.24C302.17,41.75,305.34,34.55,314.22,34.55Z"/><path class="a" d="M336,39.23a14.2,14.2,0,0,0-2.21-.18c-.54,0-.54-.3-.3-.42a58.94,58.94,0,0,0,7.5-4.14c1.31-.78,2.15,1,2.15,2.46v9.72A12.66,12.66,0,0,1,352.38,43c3.18,0,7.92,2.52,7.92,6.54,0,3-2.7,5.34-6.06,6.24V59c0,5.4,1.5,7.38,4,7.38a6.27,6.27,0,0,0,4.62-2.46c.3-.36.66.06.48.48-.9,1.92-3.9,5-6.78,5-4.74,0-7.5-3.06-7.5-9.12V56l-1-.24c-.78-.24-1-.72,0-.9,1.32-.18,6.12-.48,6.12-4.68,0-2.46-1.68-4.68-3.9-4.68-2.76,0-5.82,3.36-7.14,5.34v3.42l-3.3,1.8c-.17.12-1.38.9-1.55,1.08-.49.42-.54.42-.49.12a13.45,13.45,0,0,0,.12-2V41.57C337.92,40.13,337.5,39.53,336,39.23Z"/><path class="a" d="M365.46,39.47a14.2,14.2,0,0,0-2.21-.18c-.54,0-.54-.3-.3-.42a58.94,58.94,0,0,0,7.5-4.14c1.31-.78,2.15,1,2.15,2.46V54.41l-3.3,1.8c-.17.12-1.38.9-1.55,1.08-.49.42-.54.42-.49.12a13.45,13.45,0,0,0,.12-2V41.81C367.38,40.37,367,39.77,365.46,39.47Z"/><path class="a" d="M391.86,55.49v-7.8c0-1.08-1.08-.84-1.08-1.14,0-.48,9.06-3.9,10.2-3.9,1,0,6,1.62,6,5.1,0,6.12-5.82,8.28-10.08,8.94-1,5.22-7.14,9.36-10.56,11.7-.54.36-1,0-.6-.36a19,19,0,0,0,6-11.1c-4.56-.3-10.62-1.86-10.62-8.28V42c0-1.44-.42-2-1.92-2.34a14.42,14.42,0,0,0-2.22-.18c-.54,0-.54-.3-.3-.42a58.27,58.27,0,0,0,7.5-4.14c1.32-.78,2.16,1,2.16,2.46v8.16C386.34,50,386.76,54.59,391.86,55.49Zm5.22-.18c4.32-1,4.8-4.08,4.8-5.34,0-2.88-3.18-4.08-4.8-4.26v9.6Z"/><path class="a" d="M421.86,34.55c7.56,0,11.58,4.56,12.18,9.48,1.62-.06,3.6-.18,4.08-.24,2-.36,2.28-.3,1.62.18-.42.3-2.7,2.58-3.54,3.36l-.12.12h-2.22c-1.56,6.66-10,9.42-14.4,9.72-.72.06-.6-.42,0-.66,4.8-2.1,8.16-4.08,8.46-9.06h-2.64c-.72,0-5.52.18-6.3.3-2,.36-2.28.3-1.62-.18.42-.3,2.7-2.58,3.54-3.36l.12-.12h6.78c-.72-5.34-3.9-7.62-7.08-7.62-4.32,0-7.08,2.7-7.08,4.68,0,.48-.12.66-.3.72a11.35,11.35,0,0,0-3.72,1.92c-.3.24-.72.48-.48-.24C409.8,41.75,413,34.55,421.86,34.55Z"/><path class="a" d="M456.24,43.43a17.58,17.58,0,0,1,4.2.48V41.57c0-1.44-.42-2-1.92-2.34a14.42,14.42,0,0,0-2.22-.18c-.54,0-.54-.3-.3-.42a58.27,58.27,0,0,0,7.5-4.14c1.32-.78,2.16,1,2.16,2.46v27.6l-3.3,1.8c-.18.12-1.38.9-1.56,1.08-.48.42-.54.42-.48.12a15,15,0,0,0,.12-2V51.05c0-2.64-2.82-4.5-6.78-4.5-2.58,0-6.48,1.38-10.5,4.5-.6.48-1.32.06-.9-.48A16.16,16.16,0,0,1,456.24,43.43Z"/><path class="a" d="M482.34,34.55c7.56,0,11.58,4.56,12.18,9.48,1.62-.06,3.6-.18,4.08-.24,2-.36,2.28-.3,1.62.18-.42.3-2.7,2.58-3.54,3.36l-.12.12h-2.22c-1.56,6.66-10,9.42-14.4,9.72-.72.06-.6-.42,0-.66,4.8-2.1,8.16-4.08,8.46-9.06h-2.64c-.72,0-5.52.18-6.3.3-2,.36-2.28.3-1.62-.18.42-.3,2.7-2.58,3.54-3.36l.12-.12h6.78c-.72-5.34-3.9-7.62-7.08-7.62-4.32,0-7.08,2.7-7.08,4.68,0,.48-.12.66-.3.72a11.25,11.25,0,0,0-3.72,1.92c-.3.24-.72.48-.48-.24C470.28,41.75,473.46,34.55,482.34,34.55Z"/><path class="a" d="M504.12,39.47a14.42,14.42,0,0,0-2.22-.18c-.54,0-.54-.3-.3-.42a58.27,58.27,0,0,0,7.5-4.14c1.32-.78,2.16,1,2.16,2.46V54.41l-3.3,1.8c-.18.12-1.38.9-1.56,1.08-.48.42-.54.42-.48.12a15,15,0,0,0,.12-2V41.81C506,40.37,505.62,39.77,504.12,39.47Z"/><path class="a" d="M517.5,39.05a14.42,14.42,0,0,0-2.22-.18c-.54,0-.54-.3-.3-.42a58.27,58.27,0,0,0,7.5-4.14c1.32-.78,2.16,1,2.16,2.46v1.62h8.28c.72,0,5.52-.18,6.3-.3,2-.36,2.28-.3,1.62.18-.42.3-2.7,2.58-3.54,3.36l-.12.12H524.64v6c2.94-1.62,7.38-4.56,9.24-4.56,4,0,7.5,2.58,7.5,7,0,4.86-6.06,6.72-9.84,6.72-3.18,0-5.52-1.86-6.9-2.46v.48c0,4.26-8.7,12.06-9.9,12.66-.36.18-.66,0-.3-.36,1.08-1,5-7.68,5-11.52V41.39C519.42,40,519,39.35,517.5,39.05Zm15.66,15.54c2.4,0,2.94-.18,2.94-2.88,0-3.3-2.82-5.52-4.74-5.52-1.68,0-4.08,2.16-6.18,3.12C527.28,51.83,530.58,54.59,533.16,54.59Z"/><path class="a" d="M562.5,34c0-1.44-.42-2-1.92-2.34a14.42,14.42,0,0,0-2.22-.18c-.54,0-.54-.3-.3-.42a58.27,58.27,0,0,0,7.5-4.14c1.32-.78,2.16,1,2.16,2.46v3.18c3.3-2.7,7.5-6,12.6-6,5.4,0,8.28,3.66,8.28,8.22,0,7.32-7.5,9.24-11,9.48v3.66c0,4.62.78,9.24,7.08,10.68.84.18.66.48-.66.48-11.28,0-12.42-6.6-12.42-11.58s-1.14-4.38-1.14-4.74,1-.3,4.8-2.22c1.74-.9,1.56,1,3.06,1s3.66-1.2,3.66-4.8-2.4-6.48-4.74-6.48c-4,.06-9.78,8-14.28,14.16-.42.6-.66.48-.6.18s.12-7.74.12-8.64Z"/><path class="a" d="M593.4,39.23a14.42,14.42,0,0,0-2.22-.18c-.54,0-.54-.3-.3-.42a58.27,58.27,0,0,0,7.5-4.14c1.32-.78,2.16,1,2.16,2.46v9.72A12.66,12.66,0,0,1,609.78,43c3.18,0,7.92,2.52,7.92,6.54,0,3-2.7,5.34-6.06,6.24V59c0,5.4,1.5,7.38,4,7.38a6.27,6.27,0,0,0,4.62-2.46c.3-.36.66.06.48.48-.9,1.92-3.9,5-6.78,5-4.74,0-7.5-3.06-7.5-9.12V56l-1-.24c-.78-.24-1-.72,0-.9,1.32-.18,6.12-.48,6.12-4.68,0-2.46-1.68-4.68-3.9-4.68-2.76,0-5.82,3.36-7.14,5.34v3.42l-3.3,1.8c-.18.12-1.38.9-1.56,1.08-.48.42-.54.42-.48.12a15,15,0,0,0,.12-2V41.57C595.32,40.13,594.9,39.53,593.4,39.23Z"/><path class="a" d="M623.16,39.17a14.42,14.42,0,0,0-2.22-.18c-.54,0-.54-.3-.3-.42a58.27,58.27,0,0,0,7.5-4.14c1.32-.78,2.16,1,2.16,2.46v.84c4,2.28,8.34,4.68,11.76,7a6,6,0,0,0,.72-2.94c0-3.24-2.22-3.84-2.46-3.9a6.06,6.06,0,0,0-5,.84c-.48.3-1,.12-.18-.66,1.56-1.62,5.16-4,6.6-4,1.2,0,6.36,1.62,6.36,4.8,0,1.68-2.16,5.1-4.62,6.9,2.94,2.1,4.92,4.08,4.92,5.76,0,3.3-4.2,5.52-6.42,5.52-3.72,0-4.92-2.46-7.08-3.78-.72-.48-.36-.78.42-.54a8,8,0,0,0,5.1.3c1.5-.54,4-3.78-.9-7.62a53.75,53.75,0,0,0-9.24-5.88V64.85l-3.3,1.8c-.18.12-1.38.9-1.56,1.08-.48.42-.54.42-.48.12a15,15,0,0,0,.12-2V41.51C625.08,40.07,624.66,39.47,623.16,39.17Z"/><path class="a" d="M671.88,50.21c0-2.7-1.56-4.14-4.62-4.14-1.92,0-5.22,2.58-6.9,3.66v4l-3.3,1.8c-.18.12-1.38.9-1.56,1.08-.48.42-.54.42-.48.12a15,15,0,0,0,.12-2V41.87c0-1.44-.42-2-1.92-2.34a14.42,14.42,0,0,0-2.22-.18c-.54,0-.54-.3-.3-.42a58.27,58.27,0,0,0,7.5-4.14c1.32-.78,2.16,1,2.16,2.46V47.51c2.16-.9,6.18-4,9.42-4,4.68,0,7.92,1.68,7.92,5.94,0,4.62-6.66,6.78-10.8,7.62-.48.12-.72-.06-.36-.24C668.52,55.85,671.88,53.87,671.88,50.21Z"/><path class="a" d="M693.9,43.43a17.58,17.58,0,0,1,4.2.48V41.57c0-1.44-.42-2-1.92-2.34a14.42,14.42,0,0,0-2.22-.18c-.54,0-.54-.3-.3-.42a58.27,58.27,0,0,0,7.5-4.14c1.32-.78,2.16,1,2.16,2.46v27.6l-3.3,1.8c-.18.12-1.38.9-1.56,1.08-.48.42-.54.42-.48.12a15,15,0,0,0,.12-2V51.05c0-2.64-2.82-4.5-6.78-4.5-2.58,0-6.48,1.38-10.5,4.5-.6.48-1.32.06-.9-.48A16.16,16.16,0,0,1,693.9,43.43Z"/><path class="a" d="M709.56,39.05a14.42,14.42,0,0,0-2.22-.18c-.54,0-.54-.3-.3-.42a58.27,58.27,0,0,0,7.5-4.14c1.32-.78,2.16,1,2.16,2.46v1.62H725c.72,0,5.52-.18,6.3-.3,2-.36,2.28-.3,1.62.18-.42.3-2.7,2.58-3.54,3.36l-.12.12H716.7v6c2.94-1.62,7.38-4.56,9.24-4.56,4,0,7.5,2.58,7.5,7,0,4.86-6.06,6.72-9.84,6.72-3.18,0-5.52-1.86-6.9-2.46v.48c0,4.26-8.7,12.06-9.9,12.66-.36.18-.66,0-.3-.36,1.08-1,5-7.68,5-11.52V41.39C711.48,40,711.06,39.35,709.56,39.05Zm15.66,15.54c2.4,0,2.94-.18,2.94-2.88,0-3.3-2.82-5.52-4.74-5.52-1.68,0-4.08,2.16-6.18,3.12C719.34,51.83,722.64,54.59,725.22,54.59Z"/><path class="a" d="M740.34,31.07a14.42,14.42,0,0,0-2.22-.18c-.54,0-.54-.3-.3-.42a58.27,58.27,0,0,0,7.5-4.14c1.32-.78,2.16,1,2.16,2.46V46c1.26-.06,5.28-.18,6-.3,2-.36,2.28-.3,1.62.18-.42.3-2.7,2.58-3.54,3.36l-.12.12h-4v7.44h2.22c.72,0,5.52-.18,6.3-.3,2-.36,2.28-.3,1.62.18-.42.3-2.7,2.58-3.54,3.36l-.12.12h-11.7V49.31c-1.26.06-5.28.18-6,.3-2,.36-2.28.3-1.62-.18.42-.3,2.7-2.58,3.54-3.36l.12-.12h4V33.41C742.26,32,741.84,31.37,740.34,31.07Z"/><path class="a" d="M765.12,31.07a14.42,14.42,0,0,0-2.22-.18c-.54,0-.54-.3-.3-.42a58.27,58.27,0,0,0,7.5-4.14c1.32-.78,2.16,1,2.16,2.46V46c1.26-.06,5.28-.18,6-.3,2-.36,2.28-.3,1.62.18-.42.3-2.7,2.58-3.54,3.36l-.12.12h-4v7.44h2.22c.72,0,5.52-.18,6.3-.3,2-.36,2.28-.3,1.62.18-.42.3-2.7,2.58-3.54,3.36l-.12.12H767V49.31c-1.26.06-5.28.18-6,.3-2,.36-2.28.3-1.62-.18.42-.3,2.7-2.58,3.54-3.36l.12-.12h4V33.41C767,32,766.62,31.37,765.12,31.07Z"/><path class="a" d="M785.4,39.47a14.42,14.42,0,0,0-2.22-.18c-.54,0-.54-.3-.3-.42a58.27,58.27,0,0,0,7.5-4.14c1.32-.78,2.16,1,2.16,2.46V54.41l-3.3,1.8c-.18.12-1.38.9-1.56,1.08-.48.42-.54.42-.48.12a15,15,0,0,0,.12-2V41.81C787.32,40.37,786.9,39.77,785.4,39.47Z"/><path class="a" d="M827.52,49.91a7.43,7.43,0,0,1-7.62,7.44c-8.76,0-9.6-7.56-9.6-5v2l-3.3,1.8c-.18.12-1.38.9-1.56,1.08-.48.42-.54.42-.48.12a15,15,0,0,0,.12-2V47.87h-.42c-.72,0-5.52.18-6.3.3-2,.36-2.28.3-1.62-.18.42-.3,2.7-2.58,3.54-3.36l.12-.12h4.68V42.35c0-1.44-.42-2-1.92-2.34a14.42,14.42,0,0,0-2.22-.18c-.54,0-.54-.3-.3-.42a58.27,58.27,0,0,0,7.5-4.14c1.32-.78,2.16,1,2.16,2.46v6.78c1.56-.06,4.92-.18,5.58-.3,2-.36,2.28-.3,1.62.18-.42.3-2.7,2.58-3.54,3.36l-.12.12h-3.3c.6,2.94,2.76,4.68,7,4.68,2.46,0,5.88-1.14,5.88-4.44,0-3.66-4.26-8.1-6.54-7.44-.72.18-1,.12-1-.12a3.17,3.17,0,0,1,.54-.66l2.94-2.7h4.14c.72,0,5.52-.18,6.3-.3,2-.36,2.28-.3,1.62.18-.42.3-2.7,2.58-3.54,3.36l-.12.12H822.9C819.9,40.55,827.52,43.31,827.52,49.91Z"/><path class="a" d="M843.9,34.55c7.56,0,11.58,4.56,12.18,9.48,1.62-.06,3.6-.18,4.08-.24,2-.36,2.28-.3,1.62.18-.42.3-2.7,2.58-3.54,3.36l-.12.12H855.9c-1.56,6.66-10,9.42-14.4,9.72-.72.06-.6-.42,0-.66,4.8-2.1,8.16-4.08,8.46-9.06h-2.64c-.72,0-5.52.18-6.3.3-2,.36-2.28.3-1.62-.18.42-.3,2.7-2.58,3.54-3.36l.12-.12h6.78c-.72-5.34-3.9-7.62-7.08-7.62-4.32,0-7.08,2.7-7.08,4.68,0,.48-.12.66-.3.72a11.25,11.25,0,0,0-3.72,1.92c-.3.24-.72.48-.48-.24C831.84,41.75,835,34.55,843.9,34.55Z"/><path class="a" d="M281.82,115.13V100.55c0-1-1.44-1.08-1.44-1.44s10.2-4.5,12.48-4.5c1.2,0,7.74,3,7.74,8.7,0,10.5-11.94,15.06-18.18,15.06s-13.67-4.68-13.67-12.3V92.87c0-1.44-.42-2-1.92-2.34a14.52,14.52,0,0,0-2.22-.18c-.54,0-.54-.3-.31-.42a57.61,57.61,0,0,0,7.5-4.14c1.33-.78,2.16,1,2.16,2.46v14.28C274,108.29,277,113.51,281.82,115.13Zm12.72-9.9c0-4-5-6.78-7-6.78a1.66,1.66,0,0,0-.54.06v16.86C292.86,114.11,294.54,107.63,294.54,105.23Z"/><path class="a" d="M315.48,94.55c7.56,0,11.58,4.56,12.18,9.48,1.62-.06,3.6-.18,4.08-.24,2-.36,2.28-.3,1.62.18-.42.3-2.7,2.58-3.54,3.36l-.12.12h-2.22c-1.56,6.66-10,9.42-14.4,9.72-.72.06-.6-.42,0-.66,4.8-2.1,8.16-4.08,8.46-9.06H318.9c-.72,0-5.52.18-6.3.3-2,.36-2.28.3-1.62-.18.42-.3,2.7-2.58,3.54-3.36l.12-.12h6.78c-.72-5.34-3.9-7.62-7.08-7.62-4.32,0-7.08,2.7-7.08,4.68,0,.48-.12.66-.3.72a11.09,11.09,0,0,0-3.71,1.92c-.31.24-.73.48-.49-.24C303.42,101.75,306.6,94.55,315.48,94.55Z"/><path class="a" d="M337.26,99.23a14.23,14.23,0,0,0-2.22-.18c-.54,0-.54-.3-.29-.42a59.63,59.63,0,0,0,7.5-4.14c1.31-.78,2.15,1,2.15,2.46v9.72a12.66,12.66,0,0,1,9.24-3.66c3.18,0,7.92,2.52,7.92,6.54,0,3-2.7,5.34-6.06,6.24V119c0,5.4,1.5,7.38,4,7.38a6.27,6.27,0,0,0,4.62-2.46c.3-.36.66.06.48.48-.9,1.92-3.9,5-6.78,5-4.74,0-7.5-3.06-7.5-9.12V116l-1-.24c-.78-.24-1-.72,0-.9,1.32-.18,6.12-.48,6.12-4.68,0-2.46-1.68-4.68-3.9-4.68-2.76,0-5.82,3.36-7.14,5.34v3.42l-3.3,1.8c-.18.12-1.38.9-1.56,1.08-.48.42-.54.42-.48.12a13.45,13.45,0,0,0,.12-2V101.57C339.18,100.13,338.76,99.53,337.26,99.23Z"/><path class="a" d="M366.72,99.47a14.32,14.32,0,0,0-2.22-.18c-.54,0-.54-.3-.29-.42a59.63,59.63,0,0,0,7.5-4.14c1.31-.78,2.15,1,2.15,2.46v17.22l-3.3,1.8c-.18.12-1.38.9-1.56,1.08-.48.42-.54.42-.48.12a13.45,13.45,0,0,0,.12-2V101.81C368.64,100.37,368.22,99.77,366.72,99.47Z"/><path class="a" d="M393.12,115.49v-7.8c0-1.08-1.08-.84-1.08-1.14,0-.48,9.06-3.9,10.2-3.9,1,0,6,1.62,6,5.1,0,6.12-5.82,8.28-10.08,8.94-1,5.22-7.14,9.36-10.56,11.7-.54.36-1,0-.6-.36a19,19,0,0,0,6-11.1c-4.56-.3-10.62-1.86-10.62-8.28V102c0-1.44-.42-2-1.92-2.34a14.42,14.42,0,0,0-2.22-.18c-.54,0-.54-.3-.3-.42a58.27,58.27,0,0,0,7.5-4.14c1.32-.78,2.16,1,2.16,2.46v8.16C387.6,110,388,114.59,393.12,115.49Zm5.22-.18c4.32-1,4.8-4.08,4.8-5.34,0-2.88-3.18-4.08-4.8-4.26v9.6Z"/><path class="a" d="M423.12,94.55c7.56,0,11.58,4.56,12.18,9.48,1.62-.06,3.6-.18,4.08-.24,2-.36,2.28-.3,1.62.18-.42.3-2.7,2.58-3.54,3.36l-.12.12h-2.22c-1.56,6.66-10,9.42-14.4,9.72-.72.06-.6-.42,0-.66,4.8-2.1,8.16-4.08,8.46-9.06h-2.64c-.72,0-5.52.18-6.3.3-2,.36-2.28.3-1.62-.18.42-.3,2.7-2.58,3.54-3.36l.12-.12h6.78c-.72-5.34-3.9-7.62-7.08-7.62-4.32,0-7.08,2.7-7.08,4.68,0,.48-.12.66-.3.72a11.25,11.25,0,0,0-3.72,1.92c-.3.24-.72.48-.48-.24C411.06,101.75,414.24,94.55,423.12,94.55Z"/><path class="a" d="M457.5,103.43a17.58,17.58,0,0,1,4.2.48v-2.34c0-1.44-.42-2-1.92-2.34a14.42,14.42,0,0,0-2.22-.18c-.54,0-.54-.3-.3-.42a58.27,58.27,0,0,0,7.5-4.14c1.32-.78,2.16,1,2.16,2.46v27.6l-3.3,1.8c-.18.12-1.38.9-1.56,1.08-.48.42-.54.42-.48.12a15,15,0,0,0,.12-2V111.05c0-2.64-2.82-4.5-6.78-4.5-2.58,0-6.48,1.38-10.5,4.5-.6.48-1.32.06-.9-.48A16.16,16.16,0,0,1,457.5,103.43Z"/><path class="a" d="M483.6,94.55c7.56,0,11.58,4.56,12.18,9.48,1.62-.06,3.6-.18,4.08-.24,2-.36,2.28-.3,1.62.18-.42.3-2.7,2.58-3.54,3.36l-.12.12H495.6c-1.56,6.66-10,9.42-14.4,9.72-.72.06-.6-.42,0-.66,4.8-2.1,8.16-4.08,8.46-9.06H487c-.72,0-5.52.18-6.3.3-2,.36-2.28.3-1.62-.18.42-.3,2.7-2.58,3.54-3.36l.12-.12h6.78c-.72-5.34-3.9-7.62-7.08-7.62-4.32,0-7.08,2.7-7.08,4.68,0,.48-.12.66-.3.72a11.25,11.25,0,0,0-3.72,1.92c-.3.24-.72.48-.48-.24C471.54,101.75,474.72,94.55,483.6,94.55Z"/><path class="a" d="M505.38,99.47a14.42,14.42,0,0,0-2.22-.18c-.54,0-.54-.3-.3-.42a58.27,58.27,0,0,0,7.5-4.14c1.32-.78,2.16,1,2.16,2.46v17.22l-3.3,1.8c-.18.12-1.38.9-1.56,1.08-.48.42-.54.42-.48.12a15,15,0,0,0,.12-2V101.81C507.3,100.37,506.88,99.77,505.38,99.47Z"/><path class="a" d="M518.76,99.05a14.42,14.42,0,0,0-2.22-.18c-.54,0-.54-.3-.3-.42a58.27,58.27,0,0,0,7.5-4.14c1.32-.78,2.16,1,2.16,2.46v1.62h8.28c.72,0,5.52-.18,6.3-.3,2-.36,2.28-.3,1.62.18-.42.3-2.7,2.58-3.54,3.36l-.12.12H525.9v6c2.94-1.62,7.38-4.56,9.24-4.56,4,0,7.5,2.58,7.5,7,0,4.86-6.06,6.72-9.84,6.72-3.18,0-5.52-1.86-6.9-2.46v.48c0,4.26-8.7,12.06-9.9,12.66-.36.18-.66,0-.3-.36,1.08-1,5-7.68,5-11.52V101.39C520.68,100,520.26,99.35,518.76,99.05Zm15.66,15.54c2.4,0,2.94-.18,2.94-2.88,0-3.3-2.82-5.52-4.74-5.52-1.68,0-4.08,2.16-6.18,3.12C528.54,111.83,531.84,114.59,534.42,114.59Z"/><path class="a" d="M563.76,94c0-1.44-.42-2-1.92-2.34a14.42,14.42,0,0,0-2.22-.18c-.54,0-.54-.3-.3-.42a58.27,58.27,0,0,0,7.5-4.14c1.32-.78,2.16,1,2.16,2.46v3.18c3.3-2.7,7.5-6,12.6-6,5.4,0,8.28,3.66,8.28,8.22,0,7.32-7.5,9.24-11,9.48v3.66c0,4.62.78,9.24,7.08,10.68.84.18.66.48-.66.48-11.28,0-12.42-6.6-12.42-11.58s-1.14-4.38-1.14-4.74,1-.3,4.8-2.22c1.74-.9,1.56,1,3.06,1s3.66-1.2,3.66-4.8-2.4-6.48-4.74-6.48c-4,.06-9.78,8-14.28,14.16-.42.6-.66.48-.6.18s.12-7.74.12-8.64Z"/><path class="a" d="M594.66,99.23a14.42,14.42,0,0,0-2.22-.18c-.54,0-.54-.3-.3-.42a58.27,58.27,0,0,0,7.5-4.14c1.32-.78,2.16,1,2.16,2.46v9.72A12.66,12.66,0,0,1,611,103c3.18,0,7.92,2.52,7.92,6.54,0,3-2.7,5.34-6.06,6.24V119c0,5.4,1.5,7.38,4.14,7.38,2.34,0,6.78-1.62,6.78-10V101.51c0-1.44-.42-2-1.92-2.34a14.42,14.42,0,0,0-2.22-.18c-.54,0-.54-.3-.3-.42a58.27,58.27,0,0,0,7.5-4.14c1.32-.78,2.16,1,2.16,2.46v.84c4,2.28,8.34,4.68,11.76,7a6,6,0,0,0,.72-2.94c0-3.24-2.22-3.84-2.46-3.9a6.06,6.06,0,0,0-5,.84c-.48.3-1,.12-.18-.66,1.56-1.62,5.16-4,6.6-4,1.2,0,6.36,1.62,6.36,4.8,0,1.68-2.16,5.1-4.62,6.9,2.94,2.1,4.92,4.08,4.92,5.76,0,3.3-4.2,5.52-6.42,5.52-3.72,0-4.92-2.46-7.08-3.78-.72-.48-.36-.78.42-.54a8,8,0,0,0,5.1.3c1.5-.54,4-3.78-.9-7.62A53.75,53.75,0,0,0,629,99.53v15.18c0,7.2-5.64,14.7-13.56,14.7-5,0-7.8-3.06-7.8-9.12V116l-1-.24c-.78-.24-1-.72,0-.9,1.32-.18,6.12-.48,6.12-4.68,0-2.46-1.68-4.68-3.9-4.68-2.76,0-5.82,3.36-7.14,5.34v3.42l-3.3,1.8c-.18.12-1.38.9-1.56,1.08-.48.42-.54.42-.48.12a15,15,0,0,0,.12-2V101.57C596.58,100.13,596.16,99.53,594.66,99.23Z"/><path class="a" d="M670.62,110.21c0-2.7-1.56-4.14-4.62-4.14-1.92,0-5.22,2.58-6.9,3.66v4l-3.3,1.8c-.18.12-1.38.9-1.56,1.08-.48.42-.54.42-.48.12a15,15,0,0,0,.12-2V101.87c0-1.44-.42-2-1.92-2.34a14.42,14.42,0,0,0-2.22-.18c-.54,0-.54-.3-.3-.42a58.27,58.27,0,0,0,7.5-4.14c1.32-.78,2.16,1,2.16,2.46v10.26c2.16-.9,6.18-4,9.42-4,4.68,0,7.92,1.68,7.92,5.94,0,4.62-6.66,6.78-10.8,7.62-.48.12-.72-.06-.36-.24C667.26,115.85,670.62,113.87,670.62,110.21Z"/><path class="a" d="M692.64,103.43a17.58,17.58,0,0,1,4.2.48v-2.34c0-1.44-.42-2-1.92-2.34a14.42,14.42,0,0,0-2.22-.18c-.54,0-.54-.3-.3-.42a58.27,58.27,0,0,0,7.5-4.14c1.32-.78,2.16,1,2.16,2.46v27.6l-3.3,1.8c-.18.12-1.38.9-1.56,1.08-.48.42-.54.42-.48.12a15,15,0,0,0,.12-2V111.05c0-2.64-2.82-4.5-6.78-4.5-2.58,0-6.48,1.38-10.5,4.5-.6.48-1.32.06-.9-.48A16.16,16.16,0,0,1,692.64,103.43Z"/><path class="a" d="M708.3,99.05a14.42,14.42,0,0,0-2.22-.18c-.54,0-.54-.3-.3-.42a58.27,58.27,0,0,0,7.5-4.14c1.32-.78,2.16,1,2.16,2.46v1.62h8.28c.72,0,5.52-.18,6.3-.3,2-.36,2.28-.3,1.62.18-.42.3-2.7,2.58-3.54,3.36l-.12.12H715.44v6c2.94-1.62,7.38-4.56,9.24-4.56,4,0,7.5,2.58,7.5,7,0,4.86-6.06,6.72-9.84,6.72-3.18,0-5.52-1.86-6.9-2.46v.48c0,4.26-8.7,12.06-9.9,12.66-.36.18-.66,0-.3-.36,1.08-1,5-7.68,5-11.52V101.39C710.22,100,709.8,99.35,708.3,99.05ZM724,114.59c2.4,0,2.94-.18,2.94-2.88,0-3.3-2.82-5.52-4.74-5.52-1.68,0-4.08,2.16-6.18,3.12C718.08,111.83,721.38,114.59,724,114.59Z"/><path class="a" d="M739.08,91.07a14.42,14.42,0,0,0-2.22-.18c-.54,0-.54-.3-.3-.42a58.27,58.27,0,0,0,7.5-4.14c1.32-.78,2.16,1,2.16,2.46V106c1.26-.06,5.28-.18,6-.3,2-.36,2.28-.3,1.62.18-.42.3-2.7,2.58-3.54,3.36l-.12.12h-4v7.44h2.22c.72,0,5.52-.18,6.3-.3,2-.36,2.28-.3,1.62.18-.42.3-2.7,2.58-3.54,3.36l-.12.12H741v-10.8c-1.26.06-5.28.18-6,.3-2,.36-2.28.3-1.62-.18.42-.3,2.7-2.58,3.54-3.36L737,106h4V93.41C741,92,740.58,91.37,739.08,91.07Z"/><path class="a" d="M763.86,91.07a14.42,14.42,0,0,0-2.22-.18c-.54,0-.54-.3-.3-.42a58.27,58.27,0,0,0,7.5-4.14c1.32-.78,2.16,1,2.16,2.46V106c1.26-.06,5.28-.18,6-.3,2-.36,2.28-.3,1.62.18-.42.3-2.7,2.58-3.54,3.36l-.12.12h-4v7.44h2.22c.72,0,5.52-.18,6.3-.3,2-.36,2.28-.3,1.62.18-.42.3-2.7,2.58-3.54,3.36l-.12.12h-11.7v-10.8c-1.26.06-5.28.18-6,.3-2,.36-2.28.3-1.62-.18.42-.3,2.7-2.58,3.54-3.36l.12-.12h4V93.41C765.78,92,765.36,91.37,763.86,91.07Z"/><path class="a" d="M784.14,99.47a14.42,14.42,0,0,0-2.22-.18c-.54,0-.54-.3-.3-.42a58.27,58.27,0,0,0,7.5-4.14c1.32-.78,2.16,1,2.16,2.46v17.22l-3.3,1.8c-.18.12-1.38.9-1.56,1.08-.48.42-.54.42-.48.12a15,15,0,0,0,.12-2V101.81C786.06,100.37,785.64,99.77,784.14,99.47Z"/><path class="a" d="M826.26,109.91a7.43,7.43,0,0,1-7.62,7.44c-8.76,0-9.6-7.56-9.6-5v2l-3.3,1.8c-.18.12-1.38.9-1.56,1.08-.48.42-.54.42-.48.12a15,15,0,0,0,.12-2v-7.56h-.42c-.72,0-5.52.18-6.3.3-2,.36-2.28.3-1.62-.18.42-.3,2.7-2.58,3.54-3.36l.12-.12h4.68v-2.16c0-1.44-.42-2-1.92-2.34a14.42,14.42,0,0,0-2.22-.18c-.54,0-.54-.3-.3-.42a58.27,58.27,0,0,0,7.5-4.14c1.32-.78,2.16,1,2.16,2.46v6.78c1.56-.06,4.92-.18,5.58-.3,2-.36,2.28-.3,1.62.18-.42.3-2.7,2.58-3.54,3.36l-.12.12h-3.3c.6,2.94,2.76,4.68,7,4.68,2.46,0,5.88-1.14,5.88-4.44,0-3.66-4.26-8.1-6.54-7.44-.72.18-1,.12-1-.12a3.17,3.17,0,0,1,.54-.66l2.94-2.7h4.14c.72,0,5.52-.18,6.3-.3,2-.36,2.28-.3,1.62.18-.42.3-2.7,2.58-3.54,3.36l-.12.12h-4.86C818.64,100.55,826.26,103.31,826.26,109.91Z"/><path class="a" d="M257.49,38.61v7.46c0,13.77,12.29,22.3,23.68,22.3a31.8,31.8,0,0,0,20.68-8.22,10.2,10.2,0,0,0,9.86,7l.84,0a29.83,29.83,0,0,0,15.93-6,9.9,9.9,0,0,0,1.59,2.71,10.08,10.08,0,0,0,7.76,3.67,10.34,10.34,0,0,0,2.15-.23c2.51,8.33,9.55,12.14,16.54,12.14,7.91,0,13.81-6.46,15.84-10.8,0-.1.09-.19.13-.29a10.4,10.4,0,0,0,.74-2.64c.32-.22.59-.43.79-.6l.44-.29,2.34-1.28a10.23,10.23,0,0,0,9.12,15h0a10.74,10.74,0,0,0,6-1.82l.22-.14c3.31-2.27,8.73-6,12.06-11.46a22.38,22.38,0,0,0,6-3.33,10.26,10.26,0,0,0,9.17,5.39l.84,0a29.24,29.24,0,0,0,17.32-7.2,10.55,10.55,0,0,0,5.1,1.32,11,11,0,0,0,6.71-2.33c.39-.3.77-.57,1.12-.81v7.44c0,.15,0,.37,0,.56a10.07,10.07,0,0,0,9.93,11.64h0a10.38,10.38,0,0,0,6.74-2.55l.42-.28,2.94-1.6a10,10,0,0,0,5.05-7.06,10.68,10.68,0,0,0,4.33.9l.84,0a29.77,29.77,0,0,0,15.9-6A9.89,9.89,0,0,0,498.19,64a10.07,10.07,0,0,0,6.11,3.52,10.09,10.09,0,0,0,10.18,10.15,10.59,10.59,0,0,0,4.73-1.13,44.78,44.78,0,0,0,10.53-9.71c.58,0,1.18.09,1.8.09,9.62,0,19.84-5.86,19.84-16.72a17.09,17.09,0,0,0-1.54-7.21,10,10,0,0,0,1.29-4.27,10.93,10.93,0,0,0,1.36,1.08c0,1.93,0,3.21,0,3.77a10.15,10.15,0,0,0,10,11.36h.1c2.58,9,10.2,14.22,21.45,14.22a11.42,11.42,0,0,0,7.39-2.36,10,10,0,0,0,3.8.77,10.34,10.34,0,0,0,2.15-.23c2.51,8.33,9.55,12.14,16.54,12.14a15.34,15.34,0,0,0,7.49-2,9.85,9.85,0,0,0,3.57.68,10.3,10.3,0,0,0,6.74-2.55l.43-.28,2.94-1.6a10,10,0,0,0,5-6.69,16.82,16.82,0,0,0,1.92.11,16.52,16.52,0,0,0,7.36-1.94A10.06,10.06,0,0,0,655,66.9h0a10.15,10.15,0,0,0,5.56-1.66,10.33,10.33,0,0,0,6,1.9,10.8,10.8,0,0,0,2.39-.26c6.19-1.27,10.35-3.4,13.14-5.79A11.11,11.11,0,0,0,687,58.93c.39-.3.76-.57,1.12-.81v7.44c0,.15,0,.37,0,.56A10.07,10.07,0,0,0,698,77.76h0a10,10,0,0,0,4.4-1,10.11,10.11,0,0,0,4.14.88,10.59,10.59,0,0,0,4.73-1.13,44.62,44.62,0,0,0,10.52-9.71c.59,0,1.19.09,1.81.09a23.94,23.94,0,0,0,9.77-2.08,10,10,0,0,0,8.83,5.32H754a10,10,0,0,0,6.51-2.42A10,10,0,0,0,767,70.11h11.76a10,10,0,0,0,6.77-2.66,9.72,9.72,0,0,0,1.71.17A10.36,10.36,0,0,0,794,65.08l.43-.29,2.46-1.34c.12.16.24.33.37.49A10.06,10.06,0,0,0,805,67.62h0a10.22,10.22,0,0,0,6.1-2,21.75,21.75,0,0,0,8.81,1.77,17.62,17.62,0,0,0,12.56-5.11,10.3,10.3,0,0,0,8.93,4.93l.84,0c7.35-.52,15.84-4.08,20.48-10.81a10.1,10.1,0,0,0,2.45-1.78l0,0c.35-.33.85-.81,1.37-1.33s1.14-1.11,1.52-1.45a10.1,10.1,0,0,0-5.58-18.18c-3.92-5.57-10.66-9-18.59-9a23.43,23.43,0,0,0-10.36,2.31,10.53,10.53,0,0,0-2-.2,17.81,17.81,0,0,0-3.06.31c-1.07.08-4.3.21-4.94.22h-4.14a9.89,9.89,0,0,0-3.38.59,10.93,10.93,0,0,0-7.21-2.71,11.26,11.26,0,0,0-5.69,1.57L801,27.87l-1.4.85A11,11,0,0,0,791,24.53a11.21,11.21,0,0,0-5.69,1.57l-2.07,1.24-1,.63c-.37-6.7-5.28-11.84-11.49-11.84A11.26,11.26,0,0,0,765,17.7L763,18.94a31.83,31.83,0,0,1-4.2,2.29c-.21.08-.42.18-.62.28a10.11,10.11,0,0,0-2,1.3,11.13,11.13,0,0,0-15.9-5.11l-2.06,1.24a31.22,31.22,0,0,1-4.2,2.29c-.21.08-.42.18-.62.28A10.24,10.24,0,0,0,728,28.28l-3,.11h-1.1a11.06,11.06,0,0,0-8.71-4.28,11.23,11.23,0,0,0-5.69,1.57l-1.22.73a10.88,10.88,0,0,0-6.47-2.12,11.23,11.23,0,0,0-5.69,1.57L694,27.1a29.91,29.91,0,0,1-4.19,2.28l-.65.3a10.29,10.29,0,0,0-5,5.38A24.64,24.64,0,0,0,681,36.54a19.77,19.77,0,0,0-11.07-3c-1.41-5.24-5.76-9-11-9a11.23,11.23,0,0,0-5.69,1.57l-1.78,1.07a18.59,18.59,0,0,0-9.6-3.16,15.23,15.23,0,0,0-7,2,10.91,10.91,0,0,0-6-1.82,11.26,11.26,0,0,0-5.69,1.57L621,27a30.62,30.62,0,0,1-4.2,2.29c-.21.08-.42.18-.62.28a10.19,10.19,0,0,0-4,3.58A17.64,17.64,0,0,0,610,33a11.54,11.54,0,0,0-11-8.72,11.39,11.39,0,0,0-3.18.48,17.79,17.79,0,0,0-15.52-8.2,23,23,0,0,0-8.55,1.69,10.9,10.9,0,0,0-5.57-1.53,11.27,11.27,0,0,0-5.7,1.57c-.73.43-1.4.84-2,1.24a31.27,31.27,0,0,1-4.21,2.29l-.65.29a10.2,10.2,0,0,0-5.65,8.45,10.34,10.34,0,0,0-7-2.71,18,18,0,0,0-3.07.31c-1.06.08-4.29.21-4.94.22h-1.1a11,11,0,0,0-8.7-4.28,11.27,11.27,0,0,0-5.7,1.57l-1.41.85a10.83,10.83,0,0,0-6.27-2A11.27,11.27,0,0,0,504,26.1L502,27.34a29.86,29.86,0,0,1-4.18,2.28l-.34.16a24.37,24.37,0,0,0-26-2.66,10.92,10.92,0,0,0-7.33-2.83,11.27,11.27,0,0,0-5.7,1.57l-2.07,1.24a29.86,29.86,0,0,1-4.18,2.28l-.66.3a10.27,10.27,0,0,0-5,5.38c-.29.1-.56.22-.84.33a10.39,10.39,0,0,0-5.28-1.82c-3.92-5.57-10.65-9-18.59-9a22.62,22.62,0,0,0-18,8.44,13,13,0,0,0-2.84-.34,14.53,14.53,0,0,0-5.12,1c-1.41-5.23-5.76-8.95-11-8.95a11.21,11.21,0,0,0-5.69,1.57L378,27a10.85,10.85,0,0,0-6.87-2.45,11.21,11.21,0,0,0-5.69,1.57c-.74.43-1.42.85-2.08,1.24a29.86,29.86,0,0,1-4.18,2.28l-.66.3a10.37,10.37,0,0,0-3.8,3.25A18,18,0,0,0,352.6,33c-1.48-5.11-5.78-8.72-11-8.72a11.21,11.21,0,0,0-5.69,1.57c-.74.43-1.42.85-2.08,1.24a29.86,29.86,0,0,1-4.18,2.28l-.53.25a23.26,23.26,0,0,0-14.92-5.08,22.91,22.91,0,0,0-13,3.8c-3.3-2.42-7-3.74-9.66-3.74-1.09,0-3,0-9,2.13-.66-6.36-5.46-11.15-11.45-11.15a11.27,11.27,0,0,0-5.7,1.57l-2.06,1.24a29.91,29.91,0,0,1-4.19,2.28c-.24.1-.47.21-.7.33a10.16,10.16,0,0,0-1,17.6Z"/><path class="a" d="M861.23,93.57c-3.92-5.57-10.65-9-18.59-9a23.43,23.43,0,0,0-10.36,2.31,10.53,10.53,0,0,0-2-.2,17.81,17.81,0,0,0-3.06.31c-1.07.08-4.3.21-4.94.22H818.1a9.89,9.89,0,0,0-3.38.59,10.93,10.93,0,0,0-7.21-2.71,11.26,11.26,0,0,0-5.69,1.57l-2.05,1.23-1.4.85a11,11,0,0,0-8.61-4.19,11.27,11.27,0,0,0-5.7,1.57L782,87.34,781,88c-.38-6.7-5.28-11.84-11.5-11.84a11.26,11.26,0,0,0-5.69,1.57l-2.06,1.24a30.62,30.62,0,0,1-4.2,2.29c-.21.08-.42.18-.62.28a10.11,10.11,0,0,0-2,1.3A11.13,11.13,0,0,0,739,77.7c-.73.43-1.4.84-2,1.24a31.27,31.27,0,0,1-4.21,2.29c-.21.08-.41.18-.62.28a10.2,10.2,0,0,0-5.42,6.77l-3,.11h-1.1a11.05,11.05,0,0,0-8.7-4.28,11.24,11.24,0,0,0-5.7,1.57l-1.22.73a10.88,10.88,0,0,0-6.47-2.12,11.23,11.23,0,0,0-5.69,1.57l-2.07,1.24a30.43,30.43,0,0,1-4.18,2.28l-.66.3a10.29,10.29,0,0,0-5,5.38,24.64,24.64,0,0,0-3.27,1.48,19.77,19.77,0,0,0-11.07-3c-1.41-5.24-5.76-9-11-9a11.27,11.27,0,0,0-5.7,1.57l-1.78,1.07a18.59,18.59,0,0,0-9.6-3.16,15.23,15.23,0,0,0-7,2,10.91,10.91,0,0,0-6-1.82,11.26,11.26,0,0,0-5.69,1.57L619.76,87a30.62,30.62,0,0,1-4.2,2.29,6,6,0,0,0-.64.29,10.43,10.43,0,0,0-3.74,3.14,11.51,11.51,0,0,0-10.9-8.47,11.39,11.39,0,0,0-3.18.48,17.79,17.79,0,0,0-15.52-8.2A23,23,0,0,0,573,78.26a10.9,10.9,0,0,0-5.57-1.53,11.27,11.27,0,0,0-5.7,1.57c-.73.43-1.4.84-2,1.24a31.27,31.27,0,0,1-4.21,2.29l-.65.29a10.2,10.2,0,0,0-5.65,8.45,10.34,10.34,0,0,0-7-2.71,18,18,0,0,0-3.07.31c-1.06.08-4.29.21-4.94.22h-1.1a11,11,0,0,0-8.7-4.28,11.27,11.27,0,0,0-5.7,1.57l-1.41.85a10.86,10.86,0,0,0-6.27-2,11.27,11.27,0,0,0-5.7,1.57l-2.07,1.24a30.43,30.43,0,0,1-4.18,2.28l-.34.16a24.37,24.37,0,0,0-26-2.66,10.92,10.92,0,0,0-7.33-2.83,11.27,11.27,0,0,0-5.7,1.57l-2.07,1.24a29.86,29.86,0,0,1-4.18,2.28l-.66.3a10.27,10.27,0,0,0-5,5.38c-.29.1-.56.22-.84.33a10.39,10.39,0,0,0-5.28-1.82c-3.92-5.57-10.65-9-18.59-9a22.62,22.62,0,0,0-18,8.44,13,13,0,0,0-2.84-.34,14.53,14.53,0,0,0-5.12,1c-1.41-5.23-5.76-9-11-9a11.21,11.21,0,0,0-5.69,1.57l-1.18.7a10.85,10.85,0,0,0-6.87-2.45,11.21,11.21,0,0,0-5.69,1.57c-.74.43-1.42.85-2.08,1.24a29.86,29.86,0,0,1-4.18,2.28l-.66.3a10.29,10.29,0,0,0-3.8,3.25,18,18,0,0,0-2.07-.16c-1.48-5.11-5.78-8.72-11-8.72a11.21,11.21,0,0,0-5.69,1.57c-.74.43-1.42.85-2.08,1.24a29.86,29.86,0,0,1-4.18,2.28l-.53.25a23.26,23.26,0,0,0-14.92-5.08,22.91,22.91,0,0,0-13,3.8c-3.3-2.42-7-3.74-9.66-3.74-1.09,0-3,0-9,2.13-.66-6.36-5.46-11.15-11.45-11.15a11.27,11.27,0,0,0-5.7,1.57l-2.06,1.24a29.91,29.91,0,0,1-4.19,2.28c-.24.1-.47.21-.7.33a10.16,10.16,0,0,0-1,17.6v7.46c0,13.77,12.29,22.3,23.67,22.3a31.8,31.8,0,0,0,20.69-8.22,10.2,10.2,0,0,0,9.86,7l.84,0a29.86,29.86,0,0,0,15.93-6,9.9,9.9,0,0,0,1.59,2.71,10.08,10.08,0,0,0,7.76,3.67,10.34,10.34,0,0,0,2.15-.23c2.51,8.33,9.55,12.14,16.54,12.14,7.91,0,13.81-6.46,15.84-10.8,0-.1.09-.19.13-.29a10.4,10.4,0,0,0,.74-2.64c.32-.22.59-.43.79-.6l.44-.29,2.34-1.28a10.23,10.23,0,0,0,9.12,15h0a10.74,10.74,0,0,0,6-1.82l.22-.14c3.31-2.27,8.73-6,12.06-11.46a22.53,22.53,0,0,0,6-3.33,10.25,10.25,0,0,0,9.17,5.39l.84,0a29.24,29.24,0,0,0,17.32-7.2,10.55,10.55,0,0,0,5.1,1.32,11,11,0,0,0,6.71-2.33c.39-.3.77-.57,1.12-.81v7.44c0,.15,0,.37,0,.56a10.07,10.07,0,0,0,9.92,11.64h0a10.41,10.41,0,0,0,6.74-2.55l.42-.28,2.94-1.6a10,10,0,0,0,5.05-7.06,10.68,10.68,0,0,0,4.33.9l.84,0a29.77,29.77,0,0,0,15.9-6,9.89,9.89,0,0,0,1.62,2.81,10.07,10.07,0,0,0,6.11,3.52,10.09,10.09,0,0,0,10.18,10.15,10.59,10.59,0,0,0,4.73-1.13A44.78,44.78,0,0,0,531,126.78c.58,0,1.18.09,1.8.09,9.62,0,19.84-5.86,19.84-16.72a17.09,17.09,0,0,0-1.54-7.21,10,10,0,0,0,1.29-4.27,10.93,10.93,0,0,0,1.36,1.08c0,1.93,0,3.21,0,3.77a10.15,10.15,0,0,0,10,11.36h.1c2.58,9,10.19,14.22,21.45,14.22a11.37,11.37,0,0,0,7.38-2.36,9.95,9.95,0,0,0,6,.53c2.31,7.48,8.49,12.15,16.79,12.15,9.4,0,16.74-5.68,20.59-13a17,17,0,0,0,4.67.64,16.65,16.65,0,0,0,7.36-1.94,10.07,10.07,0,0,0,5.69,1.79h0a10.15,10.15,0,0,0,5.55-1.66,10.33,10.33,0,0,0,6,1.9,10.74,10.74,0,0,0,2.39-.26c6.19-1.27,10.35-3.4,13.14-5.79a11.06,11.06,0,0,0,4.83-2.16c.39-.3.76-.57,1.12-.81v7.44c0,.15,0,.37,0,.56a10.07,10.07,0,0,0,9.92,11.64h0a9.94,9.94,0,0,0,4.39-1,10.11,10.11,0,0,0,4.14.88,10.59,10.59,0,0,0,4.73-1.13,44.62,44.62,0,0,0,10.52-9.71c.59,0,1.19.09,1.81.09a23.94,23.94,0,0,0,9.77-2.08,10,10,0,0,0,8.83,5.32H752.7a10,10,0,0,0,6.51-2.42,10,10,0,0,0,6.51,2.42h11.76a10,10,0,0,0,6.77-2.66,9.72,9.72,0,0,0,1.71.17,10.36,10.36,0,0,0,6.74-2.54l.43-.29,2.46-1.34c.12.17.24.33.37.49a10.06,10.06,0,0,0,7.76,3.68h0a10.22,10.22,0,0,0,6.1-2,21.75,21.75,0,0,0,8.81,1.77,17.66,17.66,0,0,0,12.57-5.11,10.27,10.27,0,0,0,8.92,4.93l.84,0c7.35-.52,15.84-4.08,20.48-10.81a10.1,10.1,0,0,0,2.45-1.78l0,0c.35-.33.85-.81,1.37-1.33s1.14-1.11,1.52-1.45a10.1,10.1,0,0,0-5.58-18.18Z"/><path class="a" d="M842.64,94.55c7.56,0,11.58,4.56,12.18,9.48,1.62-.06,3.6-.18,4.08-.24,2-.36,2.28-.3,1.62.18-.42.3-2.7,2.58-3.54,3.36l-.12.12h-2.22c-1.56,6.66-10,9.42-14.4,9.72-.72.06-.6-.42,0-.66,4.8-2.1,8.16-4.08,8.46-9.06h-2.64c-.72,0-5.52.18-6.3.3-2,.36-2.28.3-1.62-.18.42-.3,2.7-2.58,3.54-3.36l.12-.12h6.78c-.72-5.34-3.9-7.62-7.08-7.62-4.32,0-7.08,2.7-7.08,4.68,0,.48-.12.66-.3.72a11.25,11.25,0,0,0-3.72,1.92c-.3.24-.72.48-.48-.24C830.58,101.75,833.76,94.55,842.64,94.55Z"/><path d="M280.56,55.13V40.55c0-1-1.43-1.08-1.43-1.44s10.19-4.5,12.47-4.5c1.2,0,7.74,3,7.74,8.7,0,10.5-11.94,15.06-18.17,15.06s-13.68-4.68-13.68-12.3V32.87c0-1.44-.42-2-1.92-2.34a14.52,14.52,0,0,0-2.22-.18c-.54,0-.54-.3-.31-.42a57,57,0,0,0,7.5-4.14c1.33-.78,2.17,1,2.17,2.46V42.53C272.71,48.29,275.71,53.51,280.56,55.13Zm12.72-9.9c0-4-5-6.78-7-6.78a1.66,1.66,0,0,0-.54.06V55.37C291.6,54.11,293.28,47.63,293.28,45.23Z"/><path d="M314.22,34.55c7.56,0,11.58,4.56,12.18,9.48,1.62-.06,3.6-.18,4.08-.24,2-.36,2.28-.3,1.62.18-.42.3-2.7,2.58-3.54,3.36l-.12.12h-2.22c-1.56,6.66-10,9.42-14.4,9.72-.72.06-.6-.42,0-.66,4.8-2.1,8.16-4.08,8.46-9.06h-2.64c-.72,0-5.52.18-6.3.3-2,.36-2.28.3-1.62-.18.42-.3,2.7-2.58,3.54-3.36l.12-.12h6.78c-.72-5.34-3.9-7.62-7.08-7.62-4.32,0-7.08,2.7-7.08,4.68,0,.48-.12.66-.29.72A11,11,0,0,0,302,43.79c-.31.24-.73.48-.49-.24C302.17,41.75,305.34,34.55,314.22,34.55Z"/><path d="M336,39.23a14.2,14.2,0,0,0-2.21-.18c-.54,0-.54-.3-.3-.42a58.94,58.94,0,0,0,7.5-4.14c1.31-.78,2.15,1,2.15,2.46v9.72A12.66,12.66,0,0,1,352.38,43c3.18,0,7.92,2.52,7.92,6.54,0,3-2.7,5.34-6.06,6.24V59c0,5.4,1.5,7.38,4,7.38a6.27,6.27,0,0,0,4.62-2.46c.3-.36.66.06.48.48-.9,1.92-3.9,5-6.78,5-4.74,0-7.5-3.06-7.5-9.12V56l-1-.24c-.78-.24-1-.72,0-.9,1.32-.18,6.12-.48,6.12-4.68,0-2.46-1.68-4.68-3.9-4.68-2.76,0-5.82,3.36-7.14,5.34v3.42l-3.3,1.8c-.17.12-1.38.9-1.55,1.08-.49.42-.54.42-.49.12a13.45,13.45,0,0,0,.12-2V41.57C337.92,40.13,337.5,39.53,336,39.23Z"/><path d="M365.46,39.47a14.2,14.2,0,0,0-2.21-.18c-.54,0-.54-.3-.3-.42a58.94,58.94,0,0,0,7.5-4.14c1.31-.78,2.15,1,2.15,2.46V54.41l-3.3,1.8c-.17.12-1.38.9-1.55,1.08-.49.42-.54.42-.49.12a13.45,13.45,0,0,0,.12-2V41.81C367.38,40.37,367,39.77,365.46,39.47Z"/><path d="M391.86,55.49v-7.8c0-1.08-1.08-.84-1.08-1.14,0-.48,9.06-3.9,10.2-3.9,1,0,6,1.62,6,5.1,0,6.12-5.82,8.28-10.08,8.94-1,5.22-7.14,9.36-10.56,11.7-.54.36-1,0-.6-.36a19,19,0,0,0,6-11.1c-4.56-.3-10.62-1.86-10.62-8.28V42c0-1.44-.42-2-1.92-2.34a14.42,14.42,0,0,0-2.22-.18c-.54,0-.54-.3-.3-.42a58.27,58.27,0,0,0,7.5-4.14c1.32-.78,2.16,1,2.16,2.46v8.16C386.34,50,386.76,54.59,391.86,55.49Zm5.22-.18c4.32-1,4.8-4.08,4.8-5.34,0-2.88-3.18-4.08-4.8-4.26v9.6Z"/><path d="M421.86,34.55c7.56,0,11.58,4.56,12.18,9.48,1.62-.06,3.6-.18,4.08-.24,2-.36,2.28-.3,1.62.18-.42.3-2.7,2.58-3.54,3.36l-.12.12h-2.22c-1.56,6.66-10,9.42-14.4,9.72-.72.06-.6-.42,0-.66,4.8-2.1,8.16-4.08,8.46-9.06h-2.64c-.72,0-5.52.18-6.3.3-2,.36-2.28.3-1.62-.18.42-.3,2.7-2.58,3.54-3.36l.12-.12h6.78c-.72-5.34-3.9-7.62-7.08-7.62-4.32,0-7.08,2.7-7.08,4.68,0,.48-.12.66-.3.72a11.35,11.35,0,0,0-3.72,1.92c-.3.24-.72.48-.48-.24C409.8,41.75,413,34.55,421.86,34.55Z"/><path d="M456.24,43.43a17.58,17.58,0,0,1,4.2.48V41.57c0-1.44-.42-2-1.92-2.34a14.42,14.42,0,0,0-2.22-.18c-.54,0-.54-.3-.3-.42a58.27,58.27,0,0,0,7.5-4.14c1.32-.78,2.16,1,2.16,2.46v27.6l-3.3,1.8c-.18.12-1.38.9-1.56,1.08-.48.42-.54.42-.48.12a15,15,0,0,0,.12-2V51.05c0-2.64-2.82-4.5-6.78-4.5-2.58,0-6.48,1.38-10.5,4.5-.6.48-1.32.06-.9-.48A16.16,16.16,0,0,1,456.24,43.43Z"/><path d="M482.34,34.55c7.56,0,11.58,4.56,12.18,9.48,1.62-.06,3.6-.18,4.08-.24,2-.36,2.28-.3,1.62.18-.42.3-2.7,2.58-3.54,3.36l-.12.12h-2.22c-1.56,6.66-10,9.42-14.4,9.72-.72.06-.6-.42,0-.66,4.8-2.1,8.16-4.08,8.46-9.06h-2.64c-.72,0-5.52.18-6.3.3-2,.36-2.28.3-1.62-.18.42-.3,2.7-2.58,3.54-3.36l.12-.12h6.78c-.72-5.34-3.9-7.62-7.08-7.62-4.32,0-7.08,2.7-7.08,4.68,0,.48-.12.66-.3.72a11.25,11.25,0,0,0-3.72,1.92c-.3.24-.72.48-.48-.24C470.28,41.75,473.46,34.55,482.34,34.55Z"/><path d="M504.12,39.47a14.42,14.42,0,0,0-2.22-.18c-.54,0-.54-.3-.3-.42a58.27,58.27,0,0,0,7.5-4.14c1.32-.78,2.16,1,2.16,2.46V54.41l-3.3,1.8c-.18.12-1.38.9-1.56,1.08-.48.42-.54.42-.48.12a15,15,0,0,0,.12-2V41.81C506,40.37,505.62,39.77,504.12,39.47Z"/><path d="M517.5,39.05a14.42,14.42,0,0,0-2.22-.18c-.54,0-.54-.3-.3-.42a58.27,58.27,0,0,0,7.5-4.14c1.32-.78,2.16,1,2.16,2.46v1.62h8.28c.72,0,5.52-.18,6.3-.3,2-.36,2.28-.3,1.62.18-.42.3-2.7,2.58-3.54,3.36l-.12.12H524.64v6c2.94-1.62,7.38-4.56,9.24-4.56,4,0,7.5,2.58,7.5,7,0,4.86-6.06,6.72-9.84,6.72-3.18,0-5.52-1.86-6.9-2.46v.48c0,4.26-8.7,12.06-9.9,12.66-.36.18-.66,0-.3-.36,1.08-1,5-7.68,5-11.52V41.39C519.42,40,519,39.35,517.5,39.05Zm15.66,15.54c2.4,0,2.94-.18,2.94-2.88,0-3.3-2.82-5.52-4.74-5.52-1.68,0-4.08,2.16-6.18,3.12C527.28,51.83,530.58,54.59,533.16,54.59Z"/><path d="M562.5,34c0-1.44-.42-2-1.92-2.34a14.42,14.42,0,0,0-2.22-.18c-.54,0-.54-.3-.3-.42a58.27,58.27,0,0,0,7.5-4.14c1.32-.78,2.16,1,2.16,2.46v3.18c3.3-2.7,7.5-6,12.6-6,5.4,0,8.28,3.66,8.28,8.22,0,7.32-7.5,9.24-11,9.48v3.66c0,4.62.78,9.24,7.08,10.68.84.18.66.48-.66.48-11.28,0-12.42-6.6-12.42-11.58s-1.14-4.38-1.14-4.74,1-.3,4.8-2.22c1.74-.9,1.56,1,3.06,1s3.66-1.2,3.66-4.8-2.4-6.48-4.74-6.48c-4,.06-9.78,8-14.28,14.16-.42.6-.66.48-.6.18s.12-7.74.12-8.64Z"/><path d="M593.4,39.23a14.42,14.42,0,0,0-2.22-.18c-.54,0-.54-.3-.3-.42a58.27,58.27,0,0,0,7.5-4.14c1.32-.78,2.16,1,2.16,2.46v9.72A12.66,12.66,0,0,1,609.78,43c3.18,0,7.92,2.52,7.92,6.54,0,3-2.7,5.34-6.06,6.24V59c0,5.4,1.5,7.38,4,7.38a6.27,6.27,0,0,0,4.62-2.46c.3-.36.66.06.48.48-.9,1.92-3.9,5-6.78,5-4.74,0-7.5-3.06-7.5-9.12V56l-1-.24c-.78-.24-1-.72,0-.9,1.32-.18,6.12-.48,6.12-4.68,0-2.46-1.68-4.68-3.9-4.68-2.76,0-5.82,3.36-7.14,5.34v3.42l-3.3,1.8c-.18.12-1.38.9-1.56,1.08-.48.42-.54.42-.48.12a15,15,0,0,0,.12-2V41.57C595.32,40.13,594.9,39.53,593.4,39.23Z"/><path d="M623.16,39.17a14.42,14.42,0,0,0-2.22-.18c-.54,0-.54-.3-.3-.42a58.27,58.27,0,0,0,7.5-4.14c1.32-.78,2.16,1,2.16,2.46v.84c4,2.28,8.34,4.68,11.76,7a6,6,0,0,0,.72-2.94c0-3.24-2.22-3.84-2.46-3.9a6.06,6.06,0,0,0-5,.84c-.48.3-1,.12-.18-.66,1.56-1.62,5.16-4,6.6-4,1.2,0,6.36,1.62,6.36,4.8,0,1.68-2.16,5.1-4.62,6.9,2.94,2.1,4.92,4.08,4.92,5.76,0,3.3-4.2,5.52-6.42,5.52-3.72,0-4.92-2.46-7.08-3.78-.72-.48-.36-.78.42-.54a8,8,0,0,0,5.1.3c1.5-.54,4-3.78-.9-7.62a53.75,53.75,0,0,0-9.24-5.88V64.85l-3.3,1.8c-.18.12-1.38.9-1.56,1.08-.48.42-.54.42-.48.12a15,15,0,0,0,.12-2V41.51C625.08,40.07,624.66,39.47,623.16,39.17Z"/><path d="M671.88,50.21c0-2.7-1.56-4.14-4.62-4.14-1.92,0-5.22,2.58-6.9,3.66v4l-3.3,1.8c-.18.12-1.38.9-1.56,1.08-.48.42-.54.42-.48.12a15,15,0,0,0,.12-2V41.87c0-1.44-.42-2-1.92-2.34a14.42,14.42,0,0,0-2.22-.18c-.54,0-.54-.3-.3-.42a58.27,58.27,0,0,0,7.5-4.14c1.32-.78,2.16,1,2.16,2.46V47.51c2.16-.9,6.18-4,9.42-4,4.68,0,7.92,1.68,7.92,5.94,0,4.62-6.66,6.78-10.8,7.62-.48.12-.72-.06-.36-.24C668.52,55.85,671.88,53.87,671.88,50.21Z"/><path d="M693.9,43.43a17.58,17.58,0,0,1,4.2.48V41.57c0-1.44-.42-2-1.92-2.34a14.42,14.42,0,0,0-2.22-.18c-.54,0-.54-.3-.3-.42a58.27,58.27,0,0,0,7.5-4.14c1.32-.78,2.16,1,2.16,2.46v27.6l-3.3,1.8c-.18.12-1.38.9-1.56,1.08-.48.42-.54.42-.48.12a15,15,0,0,0,.12-2V51.05c0-2.64-2.82-4.5-6.78-4.5-2.58,0-6.48,1.38-10.5,4.5-.6.48-1.32.06-.9-.48A16.16,16.16,0,0,1,693.9,43.43Z"/><path d="M709.56,39.05a14.42,14.42,0,0,0-2.22-.18c-.54,0-.54-.3-.3-.42a58.27,58.27,0,0,0,7.5-4.14c1.32-.78,2.16,1,2.16,2.46v1.62H725c.72,0,5.52-.18,6.3-.3,2-.36,2.28-.3,1.62.18-.42.3-2.7,2.58-3.54,3.36l-.12.12H716.7v6c2.94-1.62,7.38-4.56,9.24-4.56,4,0,7.5,2.58,7.5,7,0,4.86-6.06,6.72-9.84,6.72-3.18,0-5.52-1.86-6.9-2.46v.48c0,4.26-8.7,12.06-9.9,12.66-.36.18-.66,0-.3-.36,1.08-1,5-7.68,5-11.52V41.39C711.48,40,711.06,39.35,709.56,39.05Zm15.66,15.54c2.4,0,2.94-.18,2.94-2.88,0-3.3-2.82-5.52-4.74-5.52-1.68,0-4.08,2.16-6.18,3.12C719.34,51.83,722.64,54.59,725.22,54.59Z"/><path d="M740.34,31.07a14.42,14.42,0,0,0-2.22-.18c-.54,0-.54-.3-.3-.42a58.27,58.27,0,0,0,7.5-4.14c1.32-.78,2.16,1,2.16,2.46V46c1.26-.06,5.28-.18,6-.3,2-.36,2.28-.3,1.62.18-.42.3-2.7,2.58-3.54,3.36l-.12.12h-4v7.44h2.22c.72,0,5.52-.18,6.3-.3,2-.36,2.28-.3,1.62.18-.42.3-2.7,2.58-3.54,3.36l-.12.12h-11.7V49.31c-1.26.06-5.28.18-6,.3-2,.36-2.28.3-1.62-.18.42-.3,2.7-2.58,3.54-3.36l.12-.12h4V33.41C742.26,32,741.84,31.37,740.34,31.07Z"/><path d="M765.12,31.07a14.42,14.42,0,0,0-2.22-.18c-.54,0-.54-.3-.3-.42a58.27,58.27,0,0,0,7.5-4.14c1.32-.78,2.16,1,2.16,2.46V46c1.26-.06,5.28-.18,6-.3,2-.36,2.28-.3,1.62.18-.42.3-2.7,2.58-3.54,3.36l-.12.12h-4v7.44h2.22c.72,0,5.52-.18,6.3-.3,2-.36,2.28-.3,1.62.18-.42.3-2.7,2.58-3.54,3.36l-.12.12H767V49.31c-1.26.06-5.28.18-6,.3-2,.36-2.28.3-1.62-.18.42-.3,2.7-2.58,3.54-3.36l.12-.12h4V33.41C767,32,766.62,31.37,765.12,31.07Z"/><path d="M785.4,39.47a14.42,14.42,0,0,0-2.22-.18c-.54,0-.54-.3-.3-.42a58.27,58.27,0,0,0,7.5-4.14c1.32-.78,2.16,1,2.16,2.46V54.41l-3.3,1.8c-.18.12-1.38.9-1.56,1.08-.48.42-.54.42-.48.12a15,15,0,0,0,.12-2V41.81C787.32,40.37,786.9,39.77,785.4,39.47Z"/><path d="M827.52,49.91a7.43,7.43,0,0,1-7.62,7.44c-8.76,0-9.6-7.56-9.6-5v2l-3.3,1.8c-.18.12-1.38.9-1.56,1.08-.48.42-.54.42-.48.12a15,15,0,0,0,.12-2V47.87h-.42c-.72,0-5.52.18-6.3.3-2,.36-2.28.3-1.62-.18.42-.3,2.7-2.58,3.54-3.36l.12-.12h4.68V42.35c0-1.44-.42-2-1.92-2.34a14.42,14.42,0,0,0-2.22-.18c-.54,0-.54-.3-.3-.42a58.27,58.27,0,0,0,7.5-4.14c1.32-.78,2.16,1,2.16,2.46v6.78c1.56-.06,4.92-.18,5.58-.3,2-.36,2.28-.3,1.62.18-.42.3-2.7,2.58-3.54,3.36l-.12.12h-3.3c.6,2.94,2.76,4.68,7,4.68,2.46,0,5.88-1.14,5.88-4.44,0-3.66-4.26-8.1-6.54-7.44-.72.18-1,.12-1-.12a3.17,3.17,0,0,1,.54-.66l2.94-2.7h4.14c.72,0,5.52-.18,6.3-.3,2-.36,2.28-.3,1.62.18-.42.3-2.7,2.58-3.54,3.36l-.12.12H822.9C819.9,40.55,827.52,43.31,827.52,49.91Z"/><path d="M843.9,34.55c7.56,0,11.58,4.56,12.18,9.48,1.62-.06,3.6-.18,4.08-.24,2-.36,2.28-.3,1.62.18-.42.3-2.7,2.58-3.54,3.36l-.12.12H855.9c-1.56,6.66-10,9.42-14.4,9.72-.72.06-.6-.42,0-.66,4.8-2.1,8.16-4.08,8.46-9.06h-2.64c-.72,0-5.52.18-6.3.3-2,.36-2.28.3-1.62-.18.42-.3,2.7-2.58,3.54-3.36l.12-.12h6.78c-.72-5.34-3.9-7.62-7.08-7.62-4.32,0-7.08,2.7-7.08,4.68,0,.48-.12.66-.3.72a11.25,11.25,0,0,0-3.72,1.92c-.3.24-.72.48-.48-.24C831.84,41.75,835,34.55,843.9,34.55Z"/><path d="M281.82,115.13V100.55c0-1-1.44-1.08-1.44-1.44s10.2-4.5,12.48-4.5c1.2,0,7.74,3,7.74,8.7,0,10.5-11.94,15.06-18.18,15.06s-13.67-4.68-13.67-12.3V92.87c0-1.44-.42-2-1.92-2.34a14.52,14.52,0,0,0-2.22-.18c-.54,0-.54-.3-.31-.42a57.61,57.61,0,0,0,7.5-4.14c1.33-.78,2.16,1,2.16,2.46v14.28C274,108.29,277,113.51,281.82,115.13Zm12.72-9.9c0-4-5-6.78-7-6.78a1.66,1.66,0,0,0-.54.06v16.86C292.86,114.11,294.54,107.63,294.54,105.23Z"/><path d="M315.48,94.55c7.56,0,11.58,4.56,12.18,9.48,1.62-.06,3.6-.18,4.08-.24,2-.36,2.28-.3,1.62.18-.42.3-2.7,2.58-3.54,3.36l-.12.12h-2.22c-1.56,6.66-10,9.42-14.4,9.72-.72.06-.6-.42,0-.66,4.8-2.1,8.16-4.08,8.46-9.06H318.9c-.72,0-5.52.18-6.3.3-2,.36-2.28.3-1.62-.18.42-.3,2.7-2.58,3.54-3.36l.12-.12h6.78c-.72-5.34-3.9-7.62-7.08-7.62-4.32,0-7.08,2.7-7.08,4.68,0,.48-.12.66-.3.72a11.09,11.09,0,0,0-3.71,1.92c-.31.24-.73.48-.49-.24C303.42,101.75,306.6,94.55,315.48,94.55Z"/><path d="M337.26,99.23a14.23,14.23,0,0,0-2.22-.18c-.54,0-.54-.3-.29-.42a59.63,59.63,0,0,0,7.5-4.14c1.31-.78,2.15,1,2.15,2.46v9.72a12.66,12.66,0,0,1,9.24-3.66c3.18,0,7.92,2.52,7.92,6.54,0,3-2.7,5.34-6.06,6.24V119c0,5.4,1.5,7.38,4,7.38a6.27,6.27,0,0,0,4.62-2.46c.3-.36.66.06.48.48-.9,1.92-3.9,5-6.78,5-4.74,0-7.5-3.06-7.5-9.12V116l-1-.24c-.78-.24-1-.72,0-.9,1.32-.18,6.12-.48,6.12-4.68,0-2.46-1.68-4.68-3.9-4.68-2.76,0-5.82,3.36-7.14,5.34v3.42l-3.3,1.8c-.18.12-1.38.9-1.56,1.08-.48.42-.54.42-.48.12a13.45,13.45,0,0,0,.12-2V101.57C339.18,100.13,338.76,99.53,337.26,99.23Z"/><path d="M366.72,99.47a14.32,14.32,0,0,0-2.22-.18c-.54,0-.54-.3-.29-.42a59.63,59.63,0,0,0,7.5-4.14c1.31-.78,2.15,1,2.15,2.46v17.22l-3.3,1.8c-.18.12-1.38.9-1.56,1.08-.48.42-.54.42-.48.12a13.45,13.45,0,0,0,.12-2V101.81C368.64,100.37,368.22,99.77,366.72,99.47Z"/><path d="M393.12,115.49v-7.8c0-1.08-1.08-.84-1.08-1.14,0-.48,9.06-3.9,10.2-3.9,1,0,6,1.62,6,5.1,0,6.12-5.82,8.28-10.08,8.94-1,5.22-7.14,9.36-10.56,11.7-.54.36-1,0-.6-.36a19,19,0,0,0,6-11.1c-4.56-.3-10.62-1.86-10.62-8.28V102c0-1.44-.42-2-1.92-2.34a14.42,14.42,0,0,0-2.22-.18c-.54,0-.54-.3-.3-.42a58.27,58.27,0,0,0,7.5-4.14c1.32-.78,2.16,1,2.16,2.46v8.16C387.6,110,388,114.59,393.12,115.49Zm5.22-.18c4.32-1,4.8-4.08,4.8-5.34,0-2.88-3.18-4.08-4.8-4.26v9.6Z"/><path d="M423.12,94.55c7.56,0,11.58,4.56,12.18,9.48,1.62-.06,3.6-.18,4.08-.24,2-.36,2.28-.3,1.62.18-.42.3-2.7,2.58-3.54,3.36l-.12.12h-2.22c-1.56,6.66-10,9.42-14.4,9.72-.72.06-.6-.42,0-.66,4.8-2.1,8.16-4.08,8.46-9.06h-2.64c-.72,0-5.52.18-6.3.3-2,.36-2.28.3-1.62-.18.42-.3,2.7-2.58,3.54-3.36l.12-.12h6.78c-.72-5.34-3.9-7.62-7.08-7.62-4.32,0-7.08,2.7-7.08,4.68,0,.48-.12.66-.3.72a11.25,11.25,0,0,0-3.72,1.92c-.3.24-.72.48-.48-.24C411.06,101.75,414.24,94.55,423.12,94.55Z"/><path d="M457.5,103.43a17.58,17.58,0,0,1,4.2.48v-2.34c0-1.44-.42-2-1.92-2.34a14.42,14.42,0,0,0-2.22-.18c-.54,0-.54-.3-.3-.42a58.27,58.27,0,0,0,7.5-4.14c1.32-.78,2.16,1,2.16,2.46v27.6l-3.3,1.8c-.18.12-1.38.9-1.56,1.08-.48.42-.54.42-.48.12a15,15,0,0,0,.12-2V111.05c0-2.64-2.82-4.5-6.78-4.5-2.58,0-6.48,1.38-10.5,4.5-.6.48-1.32.06-.9-.48A16.16,16.16,0,0,1,457.5,103.43Z"/><path d="M483.6,94.55c7.56,0,11.58,4.56,12.18,9.48,1.62-.06,3.6-.18,4.08-.24,2-.36,2.28-.3,1.62.18-.42.3-2.7,2.58-3.54,3.36l-.12.12H495.6c-1.56,6.66-10,9.42-14.4,9.72-.72.06-.6-.42,0-.66,4.8-2.1,8.16-4.08,8.46-9.06H487c-.72,0-5.52.18-6.3.3-2,.36-2.28.3-1.62-.18.42-.3,2.7-2.58,3.54-3.36l.12-.12h6.78c-.72-5.34-3.9-7.62-7.08-7.62-4.32,0-7.08,2.7-7.08,4.68,0,.48-.12.66-.3.72a11.25,11.25,0,0,0-3.72,1.92c-.3.24-.72.48-.48-.24C471.54,101.75,474.72,94.55,483.6,94.55Z"/><path d="M505.38,99.47a14.42,14.42,0,0,0-2.22-.18c-.54,0-.54-.3-.3-.42a58.27,58.27,0,0,0,7.5-4.14c1.32-.78,2.16,1,2.16,2.46v17.22l-3.3,1.8c-.18.12-1.38.9-1.56,1.08-.48.42-.54.42-.48.12a15,15,0,0,0,.12-2V101.81C507.3,100.37,506.88,99.77,505.38,99.47Z"/><path d="M518.76,99.05a14.42,14.42,0,0,0-2.22-.18c-.54,0-.54-.3-.3-.42a58.27,58.27,0,0,0,7.5-4.14c1.32-.78,2.16,1,2.16,2.46v1.62h8.28c.72,0,5.52-.18,6.3-.3,2-.36,2.28-.3,1.62.18-.42.3-2.7,2.58-3.54,3.36l-.12.12H525.9v6c2.94-1.62,7.38-4.56,9.24-4.56,4,0,7.5,2.58,7.5,7,0,4.86-6.06,6.72-9.84,6.72-3.18,0-5.52-1.86-6.9-2.46v.48c0,4.26-8.7,12.06-9.9,12.66-.36.18-.66,0-.3-.36,1.08-1,5-7.68,5-11.52V101.39C520.68,100,520.26,99.35,518.76,99.05Zm15.66,15.54c2.4,0,2.94-.18,2.94-2.88,0-3.3-2.82-5.52-4.74-5.52-1.68,0-4.08,2.16-6.18,3.12C528.54,111.83,531.84,114.59,534.42,114.59Z"/><path d="M563.76,94c0-1.44-.42-2-1.92-2.34a14.42,14.42,0,0,0-2.22-.18c-.54,0-.54-.3-.3-.42a58.27,58.27,0,0,0,7.5-4.14c1.32-.78,2.16,1,2.16,2.46v3.18c3.3-2.7,7.5-6,12.6-6,5.4,0,8.28,3.66,8.28,8.22,0,7.32-7.5,9.24-11,9.48v3.66c0,4.62.78,9.24,7.08,10.68.84.18.66.48-.66.48-11.28,0-12.42-6.6-12.42-11.58s-1.14-4.38-1.14-4.74,1-.3,4.8-2.22c1.74-.9,1.56,1,3.06,1s3.66-1.2,3.66-4.8-2.4-6.48-4.74-6.48c-4,.06-9.78,8-14.28,14.16-.42.6-.66.48-.6.18s.12-7.74.12-8.64Z"/><path class="b" d="M594.66,99.23a14.42,14.42,0,0,0-2.22-.18c-.54,0-.54-.3-.3-.42a58.27,58.27,0,0,0,7.5-4.14c1.32-.78,2.16,1,2.16,2.46v9.72A12.66,12.66,0,0,1,611,103c3.18,0,7.92,2.52,7.92,6.54,0,3-2.7,5.34-6.06,6.24V119c0,5.4,1.5,7.38,4.14,7.38,2.34,0,6.78-1.62,6.78-10V101.51c0-1.44-.42-2-1.92-2.34a14.42,14.42,0,0,0-2.22-.18c-.54,0-.54-.3-.3-.42a58.27,58.27,0,0,0,7.5-4.14c1.32-.78,2.16,1,2.16,2.46v.84c4,2.28,8.34,4.68,11.76,7a6,6,0,0,0,.72-2.94c0-3.24-2.22-3.84-2.46-3.9a6.06,6.06,0,0,0-5,.84c-.48.3-1,.12-.18-.66,1.56-1.62,5.16-4,6.6-4,1.2,0,6.36,1.62,6.36,4.8,0,1.68-2.16,5.1-4.62,6.9,2.94,2.1,4.92,4.08,4.92,5.76,0,3.3-4.2,5.52-6.42,5.52-3.72,0-4.92-2.46-7.08-3.78-.72-.48-.36-.78.42-.54a8,8,0,0,0,5.1.3c1.5-.54,4-3.78-.9-7.62A53.75,53.75,0,0,0,629,99.53v15.18c0,7.2-5.64,14.7-13.56,14.7-5,0-7.8-3.06-7.8-9.12V116l-1-.24c-.78-.24-1-.72,0-.9,1.32-.18,6.12-.48,6.12-4.68,0-2.46-1.68-4.68-3.9-4.68-2.76,0-5.82,3.36-7.14,5.34v3.42l-3.3,1.8c-.18.12-1.38.9-1.56,1.08-.48.42-.54.42-.48.12a15,15,0,0,0,.12-2V101.57C596.58,100.13,596.16,99.53,594.66,99.23Z"/><path d="M670.62,110.21c0-2.7-1.56-4.14-4.62-4.14-1.92,0-5.22,2.58-6.9,3.66v4l-3.3,1.8c-.18.12-1.38.9-1.56,1.08-.48.42-.54.42-.48.12a15,15,0,0,0,.12-2V101.87c0-1.44-.42-2-1.92-2.34a14.42,14.42,0,0,0-2.22-.18c-.54,0-.54-.3-.3-.42a58.27,58.27,0,0,0,7.5-4.14c1.32-.78,2.16,1,2.16,2.46v10.26c2.16-.9,6.18-4,9.42-4,4.68,0,7.92,1.68,7.92,5.94,0,4.62-6.66,6.78-10.8,7.62-.48.12-.72-.06-.36-.24C667.26,115.85,670.62,113.87,670.62,110.21Z"/><path d="M692.64,103.43a17.58,17.58,0,0,1,4.2.48v-2.34c0-1.44-.42-2-1.92-2.34a14.42,14.42,0,0,0-2.22-.18c-.54,0-.54-.3-.3-.42a58.27,58.27,0,0,0,7.5-4.14c1.32-.78,2.16,1,2.16,2.46v27.6l-3.3,1.8c-.18.12-1.38.9-1.56,1.08-.48.42-.54.42-.48.12a15,15,0,0,0,.12-2V111.05c0-2.64-2.82-4.5-6.78-4.5-2.58,0-6.48,1.38-10.5,4.5-.6.48-1.32.06-.9-.48A16.16,16.16,0,0,1,692.64,103.43Z"/><path d="M708.3,99.05a14.42,14.42,0,0,0-2.22-.18c-.54,0-.54-.3-.3-.42a58.27,58.27,0,0,0,7.5-4.14c1.32-.78,2.16,1,2.16,2.46v1.62h8.28c.72,0,5.52-.18,6.3-.3,2-.36,2.28-.3,1.62.18-.42.3-2.7,2.58-3.54,3.36l-.12.12H715.44v6c2.94-1.62,7.38-4.56,9.24-4.56,4,0,7.5,2.58,7.5,7,0,4.86-6.06,6.72-9.84,6.72-3.18,0-5.52-1.86-6.9-2.46v.48c0,4.26-8.7,12.06-9.9,12.66-.36.18-.66,0-.3-.36,1.08-1,5-7.68,5-11.52V101.39C710.22,100,709.8,99.35,708.3,99.05ZM724,114.59c2.4,0,2.94-.18,2.94-2.88,0-3.3-2.82-5.52-4.74-5.52-1.68,0-4.08,2.16-6.18,3.12C718.08,111.83,721.38,114.59,724,114.59Z"/><path d="M739.08,91.07a14.42,14.42,0,0,0-2.22-.18c-.54,0-.54-.3-.3-.42a58.27,58.27,0,0,0,7.5-4.14c1.32-.78,2.16,1,2.16,2.46V106c1.26-.06,5.28-.18,6-.3,2-.36,2.28-.3,1.62.18-.42.3-2.7,2.58-3.54,3.36l-.12.12h-4v7.44h2.22c.72,0,5.52-.18,6.3-.3,2-.36,2.28-.3,1.62.18-.42.3-2.7,2.58-3.54,3.36l-.12.12H741v-10.8c-1.26.06-5.28.18-6,.3-2,.36-2.28.3-1.62-.18.42-.3,2.7-2.58,3.54-3.36L737,106h4V93.41C741,92,740.58,91.37,739.08,91.07Z"/><path d="M763.86,91.07a14.42,14.42,0,0,0-2.22-.18c-.54,0-.54-.3-.3-.42a58.27,58.27,0,0,0,7.5-4.14c1.32-.78,2.16,1,2.16,2.46V106c1.26-.06,5.28-.18,6-.3,2-.36,2.28-.3,1.62.18-.42.3-2.7,2.58-3.54,3.36l-.12.12h-4v7.44h2.22c.72,0,5.52-.18,6.3-.3,2-.36,2.28-.3,1.62.18-.42.3-2.7,2.58-3.54,3.36l-.12.12h-11.7v-10.8c-1.26.06-5.28.18-6,.3-2,.36-2.28.3-1.62-.18.42-.3,2.7-2.58,3.54-3.36l.12-.12h4V93.41C765.78,92,765.36,91.37,763.86,91.07Z"/><path d="M784.14,99.47a14.42,14.42,0,0,0-2.22-.18c-.54,0-.54-.3-.3-.42a58.27,58.27,0,0,0,7.5-4.14c1.32-.78,2.16,1,2.16,2.46v17.22l-3.3,1.8c-.18.12-1.38.9-1.56,1.08-.48.42-.54.42-.48.12a15,15,0,0,0,.12-2V101.81C786.06,100.37,785.64,99.77,784.14,99.47Z"/><path d="M826.26,109.91a7.43,7.43,0,0,1-7.62,7.44c-8.76,0-9.6-7.56-9.6-5v2l-3.3,1.8c-.18.12-1.38.9-1.56,1.08-.48.42-.54.42-.48.12a15,15,0,0,0,.12-2v-7.56h-.42c-.72,0-5.52.18-6.3.3-2,.36-2.28.3-1.62-.18.42-.3,2.7-2.58,3.54-3.36l.12-.12h4.68v-2.16c0-1.44-.42-2-1.92-2.34a14.42,14.42,0,0,0-2.22-.18c-.54,0-.54-.3-.3-.42a58.27,58.27,0,0,0,7.5-4.14c1.32-.78,2.16,1,2.16,2.46v6.78c1.56-.06,4.92-.18,5.58-.3,2-.36,2.28-.3,1.62.18-.42.3-2.7,2.58-3.54,3.36l-.12.12h-3.3c.6,2.94,2.76,4.68,7,4.68,2.46,0,5.88-1.14,5.88-4.44,0-3.66-4.26-8.1-6.54-7.44-.72.18-1,.12-1-.12a3.17,3.17,0,0,1,.54-.66l2.94-2.7h4.14c.72,0,5.52-.18,6.3-.3,2-.36,2.28-.3,1.62.18-.42.3-2.7,2.58-3.54,3.36l-.12.12h-4.86C818.64,100.55,826.26,103.31,826.26,109.91Z"/><path d="M842.64,94.55c7.56,0,11.58,4.56,12.18,9.48,1.62-.06,3.6-.18,4.08-.24,2-.36,2.28-.3,1.62.18-.42.3-2.7,2.58-3.54,3.36l-.12.12h-2.22c-1.56,6.66-10,9.42-14.4,9.72-.72.06-.6-.42,0-.66,4.8-2.1,8.16-4.08,8.46-9.06h-2.64c-.72,0-5.52.18-6.3.3-2,.36-2.28.3-1.62-.18.42-.3,2.7-2.58,3.54-3.36l.12-.12h6.78c-.72-5.34-3.9-7.62-7.08-7.62-4.32,0-7.08,2.7-7.08,4.68,0,.48-.12.66-.3.72a11.25,11.25,0,0,0-3.72,1.92c-.3.24-.72.48-.48-.24C830.58,101.75,833.76,94.55,842.64,94.55Z"/></svg>