<svg xmlns="http://www.w3.org/2000/svg" xmlns:xlink="http://www.w3.org/1999/xlink" viewBox="0 0 1125 180"><defs><style>.a{fill:#fff;}.b{fill:url(#a);}</style><radialGradient id="a" cx="-29.4" cy="-177.7" r="1755.58" gradientUnits="userSpaceOnUse"><stop offset="0" stop-color="#faaffa"/><stop offset="0.25" stop-color="#f2f279"/><stop offset="0.45" stop-color="#4cfff0"/><stop offset="0.6" stop-color="#5fcc29"/><stop offset="0.9" stop-color="#0045a6"/><stop offset="1" stop-color="#001466"/></radialGradient></defs><path class="a" d="M113.56,29.29a21.63,21.63,0,0,0-3.33-.27c-.81,0-.81-.45-.45-.63,4.14-1.71,7.11-3.78,11.25-6.21,2-1.17,3.24,1.44,3.24,3.69v4.32h18.45c1.08,0,8.28-.27,9.45-.45,3.06-.54,3.42-.45,2.43.27-.63.45-4,3.87-5.31,5l-.18.18H124.27V48.91c5.13-2.25,15.75-9.27,19.8-9.27,7.56,0,15.12,7.2,15.12,14.85,0,8.1-12.42,15.21-19.53,15.21s-12.78-6.84-15-6.84h-.36v4.41l-5,2.7c-.27.18-2.07,1.35-2.34,1.62-.72.63-.81.63-.72.18a22.52,22.52,0,0,0,.18-3v-36C116.44,30.64,115.81,29.74,113.56,29.29Zm28,35.19c7.83,0,9.9-3.6,6.75-11.07-1.62-3.78-5.31-8.1-9.09-8.1-3,0-9.81,4.68-14.4,6.66C129,56.83,135.52,64.48,141.55,64.48Z"/><path class="a" d="M170.8,36C174,34,178.09,36,178.09,40.9c0,4.5-7.11,5.76-7.11,14.58,0,5.4,2.61,10.44,11.7,10.44,10.17,0,14.4-6.3,15.84-11.07H188.17v3.78l-4.95,2.7c-.27.18-2.07,1.35-2.34,1.62-.72.63-.81.63-.72.18a22.52,22.52,0,0,0,.18-3V41.26l3.06-1.35c3.78-2.07,7.83-5.4,9.36-5.4,4.59,0,13.86,2.88,13.86,13.5,0,12.42-12.6,21.15-26.46,21.15-6.57,0-16.47-2-16.47-10.53,0-7.29,7.29-9.72,7-14.76-.18-3.6-3.33-3.78-5.22-3-.63.27-.72-.09-.36-.36C167.11,39.1,169.72,36.85,170.8,36Zm28.26,13.77c-.63-7.38-7-8.82-10.89-8.46v8.46Z"/><path class="a" d="M245.23,39.73c1.08,0,8.28-.27,9.45-.45,3.06-.54,3.42-.45,2.43.27-.63.45-4.05,3.87-5.31,5l-.18.18h-5.76V63l-5,2.7c-.27.18-2.07,1.35-2.34,1.62-.72.63-.81.63-.72.18a22.52,22.52,0,0,0,.18-3V44.77H225.88a22.8,22.8,0,0,0-6,15c0,14.58,14.76,21.69,18.18,23.76,1.53.9,1.26,1.53-.18,1.26-6.3-1.17-26.73-5.67-26.73-22.41,0-11.88,14.13-23.13,16.11-23.13.54,0,3.24.45,4.86.45Z"/><path class="a" d="M267.28,25.6a21.63,21.63,0,0,0-3.33-.27c-.81,0-.81-.45-.45-.63,4.14-1.71,7.11-3.78,11.25-6.21,2-1.17,3.24,1.44,3.24,3.69V39.64a5,5,0,0,1,2.25-.72c3.24-.09,6.84,1.44,10.35,6.75,1.35-2.16,4.68-6.75,8.64-6.75s6.66,4.14,10.08,9.45c3.69,5.67,8.28,14.13,12,14.13.9,0,2.25-.54,3.6-2.34.45-.54.72,0,.54.54-.81,2.16-4.59,7.2-9.63,7.2-3.69,0-5-2.07-7.56-6.75-1.62,3.06-5.13,6.75-8.28,6.75-5.13,0-11.07-9.27-14.4-15.57-2.43-4.68-4.05-6.66-7.56-7V62.05c1.89-.09,7.92-.27,9-.45,3.06-.54,3.42-.45,2.43.27-.63.45-4.05,3.87-5.31,5l-.18.18H271.69c-1.08,0-8.28.27-9.45.45-3.06.54-3.42.45-2.43-.27.63-.45,4.05-3.87,5.31-5l.18-.18h4.86V29.11C270.16,27,269.53,26.05,267.28,25.6Zm24.57,22.23c3.24,5.85,8.19,14.67,11.7,14.67a6.55,6.55,0,0,0,4.23-2.34l-2.52-4.41c-3.87-6.48-7.47-11.07-10.08-11.07-1.44,0-2.79,1.44-3.69,2.43Z"/><path class="a" d="M337.48,34.51c11.34,0,17.37,6.84,18.27,14.22,2.43-.09,5.4-.27,6.12-.36,3.06-.54,3.42-.45,2.43.27-.63.45-4.05,3.87-5.31,5l-.18.18h-3.33c-2.34,10-15,14.13-21.6,14.58-1.08.09-.9-.63,0-1,7.2-3.15,12.24-6.12,12.69-13.59h-4c-1.08,0-8.28.27-9.45.45-3.06.54-3.42.45-2.43-.27.63-.45,4-3.87,5.31-5l.18-.18h10.17c-1.08-8-5.85-11.43-10.62-11.43-6.48,0-10.62,4-10.62,7,0,.72-.18,1-.45,1.08a16.87,16.87,0,0,0-5.58,2.88c-.45.36-1.08.72-.72-.36C319.39,45.31,324.16,34.51,337.48,34.51Z"/><path class="a" d="M412.72,57.55c0,6.93-5.67,11.16-11.43,11.16-13.14,0-14.4-11.34-14.4-7.47V64.3L381.94,67c-.27.18-2.07,1.35-2.34,1.62-.72.63-.81.63-.72.18a22.52,22.52,0,0,0,.18-3V54.49h-.63c-1.08,0-8.28.27-9.45.45-3.06.54-3.42.45-2.43-.27.63-.45,4.05-3.87,5.31-5l.18-.18h7V46.21c0-2.16-.63-3.06-2.88-3.51a21.63,21.63,0,0,0-3.33-.27c-.81,0-.81-.45-.45-.63,4.14-1.71,7.11-3.78,11.25-6.21,2-1.17,3.24,1.44,3.24,3.69V49.45c2.34-.09,7.38-.27,8.37-.45,3.06-.54,3.42-.45,2.43.27-.63.45-4.05,3.87-5.31,5l-.18.18h-4.95c.9,4.41,4.14,7,10.44,7,3.69,0,8.82-1.71,8.82-6.66,0-5.49-6.39-12.15-9.81-11.16-1.08.27-1.53.18-1.44-.18a4.76,4.76,0,0,1,.81-1l4.41-4.05h6.21c1.08,0,8.28-.27,9.45-.45,3.06-.54,3.42-.45,2.43.27-.63.45-4.05,3.87-5.31,5l-.18.18h-7.29C401.29,43.51,412.72,47.65,412.72,57.55Z"/><path class="a" d="M442,47.83a26.37,26.37,0,0,1,6.3.72V45c0-2.16-.63-3.06-2.88-3.51a21.63,21.63,0,0,0-3.33-.27c-.81,0-.81-.45-.45-.63,4.14-1.71,7.11-3.78,11.25-6.21,2-1.17,3.24,1.44,3.24,3.69v41.4l-5,2.7c-.27.18-2.07,1.35-2.34,1.62-.72.63-.81.63-.72.18a22.52,22.52,0,0,0,.18-3V59.26c0-4-4.23-6.75-10.17-6.75-3.87,0-9.72,2.07-15.75,6.75-.9.72-2,.09-1.35-.72C423.43,55.39,428.92,47.83,442,47.83Z"/><path class="a" d="M481.12,34.51c11.34,0,17.37,6.84,18.27,14.22,2.43-.09,5.4-.27,6.12-.36,3.06-.54,3.42-.45,2.43.27-.63.45-4.05,3.87-5.31,5l-.18.18h-3.33c-2.34,10-15,14.13-21.6,14.58-1.08.09-.9-.63,0-1,7.2-3.15,12.24-6.12,12.69-13.59h-4c-1.08,0-8.28.27-9.45.45-3.06.54-3.42.45-2.43-.27.63-.45,4.05-3.87,5.31-5l.18-.18H490c-1.08-8-5.85-11.43-10.62-11.43-6.48,0-10.62,4-10.62,7,0,.72-.18,1-.45,1.08a16.87,16.87,0,0,0-5.58,2.88c-.45.36-1.08.72-.72-.36C463,45.31,467.8,34.51,481.12,34.51Z"/><path class="a" d="M532.78,38.29v-8.1c0-2.16-.63-3.06-2.88-3.51a21.63,21.63,0,0,0-3.33-.27c-.81,0-.81-.45-.45-.63,4.14-1.71,7.11-3.78,11.25-6.21,2-1.17,3.24,1.44,3.24,3.69v13a24,24,0,0,1,13.95,2.34c.18.09.09.09-.18.36a45.32,45.32,0,0,0-4.59,4.68c-.27.36-.45.72-.63.54a17.16,17.16,0,0,0-8.55-4.5v24.3c3.6.09,7.74,0,12.6-.36.9-.09-.72,1.53-2.25,3.06-1.17,1.08-2.07,2.16-2.88,2.34-7.56,1.44-35.19.72-35.19-11.25C512.89,49.54,525.94,41.08,532.78,38.29Zm0,24.93V40.27c-5.31,2.52-10.35,9.45-10.35,15.3C522.43,59.35,525.49,62.05,532.78,63.22Z"/><path class="a" d="M606,65.38V43.51c0-1.53-2.16-1.62-2.16-2.16s15.3-6.75,18.72-6.75c1.8,0,11.61,4.5,11.61,13,0,15.75-17.91,22.59-27.27,22.59s-20.52-7-20.52-18.45V32c0-2.16-.63-3.06-2.88-3.51a21.63,21.63,0,0,0-3.33-.27c-.81,0-.81-.45-.45-.63,4.14-1.71,7.11-3.78,11.25-6.21,2-1.17,3.24,1.44,3.24,3.69V46.48C594.16,55.12,598.66,63,606,65.38ZM625,50.53c0-6-7.56-10.17-10.44-10.17a2.49,2.49,0,0,0-.81.09V65.74C622.51,63.85,625,54.13,625,50.53Z"/><path class="a" d="M640.33,63.13c-6.75-8.73-2.52-17.64,2.52-23,5.31-5.94,12.15-8.37,20.43-3.87,7.29,4,11.07,14.31,3.33,24.48C658.06,72,645,69.25,640.33,63.13Zm18.81-20.61c-5.22-4-11.25-4.41-13.95-1.62-3.69,3.87-2.34,12.42,1,16.74,4,5.13,13.05,7.56,16.2,4.5C667.69,56.92,663.91,46.3,659.14,42.52Z"/><path class="a" d="M704.23,58c0-4-2.34-6.21-6.93-6.21-2.88,0-7.83,3.87-10.35,5.49v5.94l-5,2.7c-.27.18-2.07,1.35-2.34,1.62-.72.63-.81.63-.72.18a22.52,22.52,0,0,0,.18-3V45.49c0-2.16-.63-3.06-2.88-3.51a21.63,21.63,0,0,0-3.33-.27c-.81,0-.81-.45-.45-.63,4.14-1.71,7.11-3.78,11.25-6.21,2-1.17,3.24,1.44,3.24,3.69V54c3.24-1.35,9.27-5.94,14.13-5.94,7,0,11.88,2.52,11.88,8.91,0,6.93-10,10.17-16.2,11.43-.72.18-1.08-.09-.54-.36C699.19,66.46,704.23,63.49,704.23,58Z"/><path class="a" d="M737.26,47.83a26.37,26.37,0,0,1,6.3.72V45c0-2.16-.63-3.06-2.88-3.51a21.63,21.63,0,0,0-3.33-.27c-.81,0-.81-.45-.45-.63,4.14-1.71,7.11-3.78,11.25-6.21,2-1.17,3.24,1.44,3.24,3.69v41.4l-4.95,2.7c-.27.18-2.07,1.35-2.34,1.62-.72.63-.81.63-.72.18a22.52,22.52,0,0,0,.18-3V59.26c0-4-4.23-6.75-10.17-6.75-3.87,0-9.72,2.07-15.75,6.75-.9.72-2,.09-1.35-.72C718.72,55.39,724.21,47.83,737.26,47.83Z"/><path class="a" d="M765.7,36C768.85,34,773,36,773,40.9c0,4.5-7.11,5.76-7.11,14.58,0,5.4,2.61,10.44,11.7,10.44,10.17,0,14.4-6.3,15.84-11.07H783.07v3.78l-5,2.7c-.27.18-2.07,1.35-2.34,1.62-.72.63-.81.63-.72.18a22.52,22.52,0,0,0,.18-3V41.26l3.06-1.35c3.78-2.07,7.83-5.4,9.36-5.4,4.59,0,13.86,2.88,13.86,13.5,0,12.42-12.6,21.15-26.46,21.15-6.57,0-16.47-2-16.47-10.53,0-7.29,7.29-9.72,7-14.76-.18-3.6-3.33-3.78-5.22-3-.63.27-.72-.09-.36-.36C762,39.1,764.62,36.85,765.7,36ZM794,49.81c-.63-7.38-7-8.82-10.89-8.46v8.46Z"/><path class="a" d="M811.87,29.29a21.63,21.63,0,0,0-3.33-.27c-.81,0-.81-.45-.45-.63,4.14-1.71,7.11-3.78,11.25-6.21,2-1.17,3.24,1.44,3.24,3.69V51.61c1.89-.09,7.92-.27,9-.45,3.06-.54,3.42-.45,2.43.27-.63.45-4,3.87-5.31,5l-.18.18h-5.94V67.81h3.33c1.08,0,8.28-.27,9.45-.45,3.06-.54,3.42-.45,2.43.27-.63.45-4,3.87-5.31,5l-.18.18H814.75V56.65c-1.89.09-7.92.27-9,.45-3.06.54-3.42.45-2.43-.27.63-.45,4-3.87,5.31-5l.18-.18h5.94V32.8C814.75,30.64,814.12,29.74,811.87,29.29Z"/><path class="a" d="M842.65,41.26a21.63,21.63,0,0,0-3.33-.27c-.81,0-.81-.45-.45-.63,4.14-1.71,7.11-3.78,11.25-6.21,2-1.17,3.24,1.44,3.24,3.69v2.43h12.42c1.08,0,8.27-.27,9.44-.45,3.06-.54,3.42-.45,2.43.27-.63.45-4,3.87-5.31,5l-.18.18h-18.8v9c4.41-2.43,11.06-6.84,13.85-6.84,6,0,11.25,3.87,11.25,10.44,0,7.29-9.09,10.08-14.76,10.08-4.76,0-8.27-2.79-10.34-3.69V65c0,6.39-13.05,18.09-14.85,19-.54.27-1,0-.45-.54,1.62-1.44,7.47-11.52,7.47-17.28V44.77C845.53,42.61,844.9,41.71,842.65,41.26Zm23.48,23.31c3.61,0,4.41-.27,4.41-4.32,0-5-4.22-8.28-7.1-8.28-2.53,0-6.12,3.24-9.27,4.68C857.32,60.43,862.27,64.57,866.13,64.57Z"/><path class="a" d="M902.77,47.83a26.37,26.37,0,0,1,6.3.72V45c0-2.16-.63-3.06-2.88-3.51a21.73,21.73,0,0,0-3.33-.27c-.81,0-.81-.45-.45-.63,4.14-1.71,7.11-3.78,11.25-6.21,2-1.17,3.24,1.44,3.24,3.69v41.4L912,82.21c-.27.18-2.08,1.35-2.34,1.62-.72.63-.81.63-.72.18a22.52,22.52,0,0,0,.18-3V59.26c0-4-4.23-6.75-10.17-6.75-3.87,0-9.72,2.07-15.75,6.75-.9.72-2,.09-1.35-.72C884.23,55.39,889.72,47.83,902.77,47.83Z"/><path class="a" d="M941.92,34.51c11.33,0,17.36,6.84,18.26,14.22,2.43-.09,5.4-.27,6.12-.36,3.06-.54,3.42-.45,2.43.27-.63.45-4.05,3.87-5.31,5l-.18.18h-3.33c-2.34,10-15,14.13-21.59,14.58-1.08.09-.9-.63,0-1,7.2-3.15,12.24-6.12,12.68-13.59h-4c-1.08,0-8.28.27-9.45.45-3.06.54-3.42.45-2.43-.27.63-.45,4.05-3.87,5.31-5l.18-.18h10.16c-1.08-8-5.84-11.43-10.61-11.43-6.48,0-10.62,4-10.62,7,0,.72-.18,1-.45,1.08a16.87,16.87,0,0,0-5.58,2.88c-.45.36-1.08.72-.72-.36C923.83,45.31,928.6,34.51,941.92,34.51Z"/><path class="a" d="M993.57,38.29v-8.1c0-2.16-.63-3.06-2.88-3.51a21.63,21.63,0,0,0-3.33-.27c-.81,0-.81-.45-.45-.63,4.14-1.71,7.11-3.78,11.25-6.21,2-1.17,3.24,1.44,3.24,3.69v13a24,24,0,0,1,14,2.34c.18.09.09.09-.18.36a45.32,45.32,0,0,0-4.59,4.68c-.27.36-.45.72-.63.54a17.16,17.16,0,0,0-8.55-4.5v24.3c3.6.09,7.74,0,12.6-.36.9-.09-.72,1.53-2.25,3.06-1.17,1.08-2.07,2.16-2.88,2.34-7.56,1.44-35.18.72-35.18-11.25C973.69,49.54,986.73,41.08,993.57,38.29Zm0,24.93V40.27c-5.31,2.52-10.35,9.45-10.35,15.3C983.22,59.35,986.28,62.05,993.57,63.22Z"/><path class="a" d="M282.67,140.38V118.51c0-1.53-2.16-1.62-2.16-2.16s15.3-6.75,18.72-6.75c1.8,0,11.61,4.5,11.61,13.05,0,15.75-17.91,22.59-27.27,22.59s-20.52-7-20.52-18.45V107c0-2.16-.63-3.06-2.88-3.51a21.63,21.63,0,0,0-3.33-.27c-.81,0-.81-.45-.45-.63,4.14-1.71,7.11-3.78,11.25-6.21,2-1.17,3.24,1.44,3.24,3.69v21.42C270.88,130.12,275.38,138,282.67,140.38Zm19.08-14.85c0-6-7.56-10.17-10.44-10.17a2.49,2.49,0,0,0-.81.09v25.29C299.23,138.85,301.75,129.13,301.75,125.53Z"/><path class="a" d="M318,116.53a21.63,21.63,0,0,0-3.33-.27c-.81,0-.81-.45-.45-.63,4.14-1.71,7.11-3.78,11.25-6.21,2-1.17,3.24,1.44,3.24,3.69v14.58c3.24-3.51,8.46-5.49,13.86-5.49,4.77,0,11.88,3.78,11.88,9.81,0,4.5-4.05,8-9.09,9.36v4.77c0,8.1,2.25,11.07,5.94,11.07a9.41,9.41,0,0,0,6.93-3.69c.45-.54,1,.09.72.72-1.35,2.88-5.85,7.56-10.17,7.56-7.11,0-11.25-4.59-11.25-13.68v-6.39l-1.44-.36c-1.17-.36-1.53-1.08,0-1.35,2-.27,9.18-.72,9.18-7,0-3.69-2.52-7-5.85-7-4.14,0-8.73,5-10.71,8v5.13l-4.95,2.7c-.27.18-2.07,1.35-2.34,1.62-.72.63-.81.63-.72.18a22.52,22.52,0,0,0,.18-3V120C320.92,117.88,320.29,117,318,116.53Z"/><path class="a" d="M362.14,138.13c-6.75-8.73-2.52-17.64,2.52-22.95,5.31-5.94,12.15-8.37,20.43-3.87,7.29,4,11.07,14.31,3.33,24.48C379.87,147,366.82,144.25,362.14,138.13ZM381,117.52c-5.22-4-11.25-4.41-13.95-1.62-3.69,3.87-2.34,12.42,1,16.74,4,5.13,13.05,7.56,16.2,4.5C389.5,131.92,385.72,121.3,381,117.52Z"/><path class="a" d="M417,122.83a26.37,26.37,0,0,1,6.3.72V120c0-2.16-.63-3.06-2.88-3.51a21.63,21.63,0,0,0-3.33-.27c-.81,0-.81-.45-.45-.63,4.14-1.71,7.11-3.78,11.25-6.21,2-1.17,3.24,1.44,3.24,3.69v41.4l-4.95,2.7c-.27.18-2.07,1.35-2.34,1.62-.72.63-.81.63-.72.18a22.52,22.52,0,0,0,.18-3V134.26c0-4-4.23-6.75-10.17-6.75-3.87,0-9.72,2.07-15.75,6.75-.9.72-2,.09-1.35-.72C398.41,130.39,403.9,122.83,417,122.83Z"/><path class="a" d="M441.79,138.13c-6.75-8.73-2.52-17.64,2.52-22.95,5.31-5.94,12.15-8.37,20.43-3.87,7.29,4,11.07,14.31,3.33,24.48C459.52,147,446.47,144.25,441.79,138.13Zm18.81-20.61c-5.22-4-11.25-4.41-14-1.62-3.69,3.87-2.34,12.42,1,16.74,4,5.13,13.05,7.56,16.2,4.5C469.15,131.92,465.37,121.3,460.6,117.52Z"/><path class="a" d="M508.75,121.12c3.06-.54,3.42-.45,2.43.27-.63.45-4.05,3.87-5.31,5l-.18.18h-17c-1.08,0-8.28.27-9.45.45-3.06.54-3.42.45-2.43-.27.63-.45,4.05-3.87,5.31-5l.18-.18h17C500.38,121.57,507.58,121.3,508.75,121.12Z"/><path class="a" d="M518.38,104.29a21.63,21.63,0,0,0-3.33-.27c-.81,0-.81-.45-.45-.63,4.14-1.71,7.11-3.78,11.25-6.21,2-1.17,3.24,1.44,3.24,3.69v4.32h18.45c1.08,0,8.28-.27,9.45-.45,3.06-.54,3.42-.45,2.43.27-.63.45-4,3.87-5.31,5l-.18.18H529.09v13.68c5.13-2.25,15.75-9.27,19.8-9.27,7.56,0,15.12,7.2,15.12,14.85,0,8.1-12.42,15.21-19.53,15.21s-12.78-6.84-15-6.84h-.36v4.41l-5,2.7c-.27.18-2.07,1.35-2.34,1.62-.72.63-.81.63-.72.18a22.52,22.52,0,0,0,.18-3v-36C521.26,105.64,520.63,104.74,518.38,104.29Zm28,35.19c7.83,0,9.9-3.6,6.75-11.07-1.62-3.78-5.31-8.1-9.09-8.1-3,0-9.81,4.68-14.4,6.66C533.77,131.83,540.34,139.48,546.37,139.48Z"/><path class="a" d="M576.16,104.29a21.63,21.63,0,0,0-3.33-.27c-.81,0-.81-.45-.45-.63,4.14-1.71,7.11-3.78,11.25-6.21,2-1.17,3.24,1.44,3.24,3.69v25.74c1.89-.09,7.92-.27,9-.45,3.06-.54,3.42-.45,2.43.27-.63.45-4,3.87-5.31,5l-.18.18h-5.94v11.16h3.33c1.08,0,8.28-.27,9.45-.45,3.06-.54,3.42-.45,2.43.27-.63.45-4.05,3.87-5.31,5l-.18.18H579v-16.2c-1.89.09-7.92.27-9,.45-3.06.54-3.42.45-2.43-.27.63-.45,4-3.87,5.31-5l.18-.18H579V107.8C579,105.64,578.41,104.74,576.16,104.29Z"/><path class="a" d="M625.57,140.92v-11.7c0-1.62-1.62-1.26-1.62-1.71,0-.72,13.59-5.85,15.3-5.85,1.44,0,9,2.43,9,7.65,0,9.18-8.73,12.42-15.12,13.41-1.53,7.83-10.71,14-15.84,17.55-.81.54-1.44,0-.9-.54a28.5,28.5,0,0,0,9-16.65c-6.84-.45-15.93-2.79-15.93-12.42v-10c0-2.16-.63-3.06-2.88-3.51a21.63,21.63,0,0,0-3.33-.27c-.81,0-.81-.45-.45-.63,4.14-1.71,7.11-3.78,11.25-6.21,2-1.17,3.24,1.44,3.24,3.69V126C617.29,132.73,617.92,139.57,625.57,140.92Zm7.83-.27c6.48-1.53,7.2-6.12,7.2-8,0-4.32-4.77-6.12-7.2-6.39v14.4Z"/><path class="a" d="M653.2,104.2a21.63,21.63,0,0,0-3.33-.27c-.81,0-.81-.45-.45-.63,4.14-1.71,7.11-3.78,11.25-6.21,2-1.17,3.24,1.44,3.24,3.69v24.75c4.14-1.08,13.68-5.94,13.68-8.73a4,4,0,0,0-2.16-3.42c-.54-.27-.63-.81.36-.81a32.9,32.9,0,0,0,8.37-1.08c.9-.18,1.08.09,1.08,1.71,0,5.31-8.91,10.08-15.75,13.23h9.45a75.42,75.42,0,0,0,8.46-.72c1.34,0,2.15,2.25,2.15,4.59,0,7.38-10.79,13.59-17.72,15.75-.9.27-1.08-.09-.45-.54,4-2.52,9.44-8.1,9.44-13.5v-.54H663.91v10.71l-4.95,2.7c-.27.18-2.07,1.35-2.34,1.62-.72.63-.81.63-.72.18a22.52,22.52,0,0,0,.18-3v-36C656.08,105.55,655.45,104.65,653.2,104.2Z"/><path class="a" d="M698,116.26a21.63,21.63,0,0,0-3.33-.27c-.81,0-.81-.45-.45-.63,4.14-1.71,7.11-3.78,11.25-6.21,2-1.17,3.24,1.44,3.24,3.69v2.43h12.42c1.08,0,8.27-.27,9.44-.45,3.06-.54,3.42-.45,2.43.27-.63.45-4,3.87-5.31,5l-.18.18h-18.8v9c4.41-2.43,11.06-6.84,13.85-6.84,6,0,11.25,3.87,11.25,10.44,0,7.29-9.09,10.08-14.76,10.08-4.76,0-8.27-2.79-10.34-3.69V140c0,6.39-13.05,18.09-14.85,19-.54.27-1,0-.45-.54,1.62-1.44,7.47-11.52,7.47-17.28V119.77C700.9,117.61,700.27,116.71,698,116.26Zm23.48,23.31c3.61,0,4.41-.27,4.41-4.32,0-4.95-4.22-8.28-7.1-8.28-2.53,0-6.12,3.24-9.27,4.68C712.69,135.43,717.64,139.57,721.5,139.57Z"/><path class="a" d="M752.28,101.59a21.54,21.54,0,0,0-3.33-.27c-.8,0-.8-.45-.45-.63,4.15-1.71,7.11-3.78,11.25-6.21,2-1.17,3.24,1.44,3.24,3.69v26.19h2.79c1.08,0,8.28-.27,9.45-.45,3.06-.54,3.42-.45,2.43.27-.63.45-4,3.87-5.31,5l-.18.18H745.81c.09,4.59,3,10.26,11.24,10.26,6.21,0,10.89-2.7,16.38-6.3,1-.63,1.35,0,.45.9-4.23,4.05-12.42,9.45-22.59,9.45-6.3,0-12.95-2.07-12.95-9.9,0-8.1,9.27-17.55,16.82-20.7v-8C755.16,102.94,754.53,102,752.28,101.59Zm2.88,22.77v-9.54a24.8,24.8,0,0,0-8.18,9.54Z"/><path class="a" d="M800.44,109.51c11.33,0,17.36,6.84,18.26,14.22,2.43-.09,5.4-.27,6.12-.36,3.06-.54,3.42-.45,2.43.27-.63.45-4,3.87-5.31,5l-.18.18h-3.33c-2.34,10-15,14.13-21.6,14.58-1.07.09-.89-.63,0-1,7.2-3.15,12.24-6.12,12.69-13.59h-3.95c-1.08,0-8.29.27-9.46.45-3.05.54-3.41.45-2.42-.27.63-.45,4-3.87,5.3-5l.18-.18h10.17c-1.08-8-5.85-11.43-10.61-11.43-6.49,0-10.62,4-10.62,7,0,.72-.18,1-.45,1.08a16.87,16.87,0,0,0-5.58,2.88c-.45.36-1.08.72-.72-.36C782.35,120.31,787.11,109.51,800.44,109.51Z"/><path class="a" d="M248.7,87.26a10.58,10.58,0,0,0-4.55-11.64c.32-.24.58-.46.79-.64s.81-.55,1.12-.75L250.24,72a10.16,10.16,0,0,0,9.45,5.94,23.67,23.67,0,0,0,4-.45c1.46-.13,7-.35,8-.35h12.24a10,10,0,0,0,6.53-2.43A16.29,16.29,0,0,0,300,77.9a15.62,15.62,0,0,0,7.7-2.11,15.39,15.39,0,0,0,8.14,2.11A18.6,18.6,0,0,0,325.72,75a10.63,10.63,0,0,0,8,3.49c.28,0,.58,0,.9,0,8.31-.58,20.6-4.87,27-14.22a10.76,10.76,0,0,0,4.8,1.1,17.34,17.34,0,0,0,2.63-.23v.77c0,.34,0,1-.05,1.38a10.08,10.08,0,0,0,9.9,11.91A10.67,10.67,0,0,0,386,76.33c.34-.24.81-.55,1.12-.75l.64-.35a26.56,26.56,0,0,0,13.56,3.48A21.29,21.29,0,0,0,419.2,69.3a10.51,10.51,0,0,0,2.32.27,11.39,11.39,0,0,0,7-2.43c4.88-3.78,8.65-4.63,9.59-4.63h.17V81c0,.34,0,1,0,1.38a10.09,10.09,0,0,0,9.9,11.91h0a10.64,10.64,0,0,0,7.05-2.79c.34-.24.81-.55,1.12-.75l4.59-2.5a10,10,0,0,0,5.21-8.78V60.86a10,10,0,0,0,2.13,2,10.33,10.33,0,0,0,9.11,15.61c.29,0,.59,0,.91,0,8-.56,19.7-4.55,26.29-13.19,4.34,9.08,17.08,14.3,35.89,14.3A54.31,54.31,0,0,0,550,78.8l.3-.06a14,14,0,0,0,6.89-4.17c.19-.19.39-.39.6-.58l.29-.28c2.76-2.76,7.36-7.37,4.66-13.88a10.14,10.14,0,0,0-9.42-6.25h-.59a10.64,10.64,0,0,0,5-3.89,38.81,38.81,0,0,1,3.12-3.15l.48-.43a10.05,10.05,0,0,0-2.27-16.49l-.11-.06a35,35,0,0,0-8.33-2.87V23.26c0-7.84-5.4-14-12.29-14a11.79,11.79,0,0,0-6,1.67c-1.07.62-2.07,1.23-3,1.81a49.5,49.5,0,0,1-7,3.78c-.22.09-.44.19-.65.3a10.29,10.29,0,0,0-5.49,11.59,10.18,10.18,0,0,0,3.55,5.6,56.35,56.35,0,0,0-6.81,5.12A10.68,10.68,0,0,0,508.06,38a14,14,0,0,0-1.77.12c-4.2-7.64-12.54-13.63-25.17-13.63a29.36,29.36,0,0,0-17.35,5.35,11.56,11.56,0,0,0-16-4.06c-1.07.62-2.07,1.23-3,1.81a49.5,49.5,0,0,1-7,3.78q-.33.13-.66.3a10.36,10.36,0,0,0-5.61,7.52c-1,.27-1.86.58-2.73.91a10.32,10.32,0,0,0-.22-5.44,10.16,10.16,0,0,0-9.88-7,23.67,23.67,0,0,0-4,.45c-1.46.13-7,.34-8,.35h-6.21a10.06,10.06,0,0,0-6.18,2.13A11.57,11.57,0,0,0,378.59,27c-1.07.62-2.07,1.23-3,1.81a49.5,49.5,0,0,1-7,3.78c-.22.09-.44.19-.65.3A10.41,10.41,0,0,0,363,38.1l-.33,0c-4.2-7.64-12.54-13.63-25.17-13.63a29.17,29.17,0,0,0-24.19,12.11c-3.39-4.19-7.72-7.7-14.06-7.7a16.3,16.3,0,0,0-8.87,2.72,20.31,20.31,0,0,0-2.37-1.2V22.18c0-7.84-5.4-14-12.29-14a11.79,11.79,0,0,0-6,1.67c-1.07.62-2.07,1.23-3,1.81a49.5,49.5,0,0,1-7,3.78c-.22.09-.44.19-.65.3a10.29,10.29,0,0,0-5.49,11.59,10.15,10.15,0,0,0,.67,1.87l-1,.16c-1.47.13-7,.34-8,.35H232.1c-.47,0-1.78-.17-2.34-.24a20.63,20.63,0,0,0-2.53-.21c-4.59,0-9.43,3.53-13.34,7.37C209.63,28.7,201,24.51,192.76,24.51c-3.81,0-6.77,1.88-10.14,4.1a14.08,14.08,0,0,0-9.2-3.38,14.78,14.78,0,0,0-8.11,2.45l-.35.25a9.23,9.23,0,0,0-.36-1.53,10.16,10.16,0,0,0-9.88-7,23.67,23.67,0,0,0-4,.45c-1.46.13-7,.34-8,.35h-9.47c-1.88-4.93-6.16-8.3-11.27-8.3a11.82,11.82,0,0,0-6,1.67c-1.07.62-2.06,1.23-3,1.81a49.42,49.42,0,0,1-7,3.78c-.23.09-.44.19-.66.3a10.26,10.26,0,0,0,1.13,18.91V68.8c0,.34,0,1,0,1.38a10.09,10.09,0,0,0,9.91,11.91,10.69,10.69,0,0,0,7-2.79c.34-.24.82-.55,1.13-.75l3.58-2a24.51,24.51,0,0,0,11.6,3.1c6.1,0,13.71-2.79,19.68-7.48,4.61,4.41,11.82,6.94,20.82,6.94a40.65,40.65,0,0,0,22.77-6.66c4.24,11.07,15.78,18.94,33.08,22.15a13.78,13.78,0,0,0,2.44.23A10.41,10.41,0,0,0,248.7,87.26ZM258.24,55l-.07.06-2,2-.27.26V53.83a9.82,9.82,0,0,0,2.84-2l.06,0,1.4-1.35v3A10.25,10.25,0,0,0,258.24,55Z"/><path class="a" d="M1014.07,53.58h-.6a10.59,10.59,0,0,0,5-3.89,40.51,40.51,0,0,1,3.12-3.15l.49-.43a10,10,0,0,0-2.28-16.49l-.11-.06a35,35,0,0,0-8.33-2.87V23.26c0-7.84-5.4-14-12.29-14a11.82,11.82,0,0,0-6,1.67c-1.07.62-2.06,1.23-3,1.81a49.42,49.42,0,0,1-7,3.78q-.33.13-.66.3A10.29,10.29,0,0,0,977,28.43a10.13,10.13,0,0,0,3.55,5.6,56.35,56.35,0,0,0-6.81,5.12A10.68,10.68,0,0,0,968.86,38a14.12,14.12,0,0,0-1.78.12c-4.2-7.64-12.53-13.63-25.16-13.63a29.41,29.41,0,0,0-17.35,5.35,11.57,11.57,0,0,0-16-4.06c-1.07.62-2.06,1.23-3,1.81a49.42,49.42,0,0,1-7,3.78c-.23.09-.45.19-.67.3a10.33,10.33,0,0,0-5.6,7.52,32.42,32.42,0,0,0-4.24,1.51,10.13,10.13,0,0,0-10.3-11.25,23.88,23.88,0,0,0-4,.45c-1.46.13-7,.34-8,.35h-4.33a11.62,11.62,0,0,0-16.39-4.74c-1.08.62-2.07,1.23-3,1.81a49.42,49.42,0,0,1-7,3.78l-.65.29a10.67,10.67,0,0,0-1.82,1.17V25.87c0-7.84-5.4-14-12.29-14a11.85,11.85,0,0,0-6,1.67c-1.06.62-2.06,1.23-3,1.81a49.5,49.5,0,0,1-7,3.78c-.23.09-.45.19-.67.3A10.34,10.34,0,0,0,798,26.76a25.46,25.46,0,0,0-10.38-2.25c-3.82,0-6.77,1.88-10.14,4.1a14.08,14.08,0,0,0-9.21-3.38,14.75,14.75,0,0,0-8.1,2.45l-.51.36c-.31.23-.73.57-1.22,1a11.68,11.68,0,0,0-9.39-4.87,11.85,11.85,0,0,0-6,1.67c-1.06.62-2.06,1.23-3,1.81a49.42,49.42,0,0,1-7,3.78c-.23.09-.45.19-.67.3a10.35,10.35,0,0,0-5.6,7.52,31.94,31.94,0,0,0-9.39,4.34C714,40.26,708.66,38,701.08,38a19.5,19.5,0,0,0-4.13.46c0-7.8-5.43-13.89-12.29-13.89a11.79,11.79,0,0,0-6,1.67c-1.07.62-2.07,1.23-3,1.81-1.32.8-2.5,1.52-3.66,2.16a25,25,0,0,0-3.92-2.7A27.33,27.33,0,0,0,655,24c-4.66,0-11.38,1.42-17.92,7.79-4.64-4.58-10.58-7.17-14.56-7.17-1.36,0-4.18,0-14.18,3.79-1.47.55-2.87,1.08-4.17,1.61V25.06c0-7.84-5.4-14-12.29-14a11.79,11.79,0,0,0-6,1.67c-1.07.62-2.07,1.23-3,1.81a49.42,49.42,0,0,1-7,3.78,6.62,6.62,0,0,0-.66.3,10.26,10.26,0,0,0,1.14,18.91V51.79c0,17.57,15.84,28.45,30.52,28.45a42.59,42.59,0,0,0,26.47-9.91,25.51,25.51,0,0,0,18.89,8.14A26.85,26.85,0,0,0,669.74,72,10,10,0,0,0,679,78h0A10.7,10.7,0,0,0,686,75.25c.34-.24.81-.55,1.12-.75l.7-.38a10.4,10.4,0,0,0,8.48,4.29,11.75,11.75,0,0,0,2.56-.29c9.21-1.89,14.93-5.11,18.47-8.57a11.47,11.47,0,0,0,6.44-2.41c4.87-3.78,8.65-4.63,9.59-4.63h.17V81c0,.34,0,1-.06,1.38a10.09,10.09,0,0,0,2.14,8.23A10,10,0,0,0,741,94,10.2,10.2,0,0,0,741,108a10.33,10.33,0,0,0-7.89-3.49,23.88,23.88,0,0,0-4,.45c-1.46.13-7,.34-8,.35h-4.33a11.62,11.62,0,0,0-16.39-4.74c-1.08.62-2.07,1.23-3,1.81-1.76,1.07-3.27,2-4.82,2.77a10.92,10.92,0,0,0-8-3.67,12,12,0,0,0-2.36.24q-.37.07-.75.18a22.84,22.84,0,0,1-5.66.71,11.54,11.54,0,0,0-1.88.15v-1.94c0-7.84-5.4-14-12.3-14a11.85,11.85,0,0,0-6,1.67c-1.06.62-2.06,1.23-3,1.81a49.42,49.42,0,0,1-7,3.78l-.64.29a10.24,10.24,0,0,0-.14,18.37,17.62,17.62,0,0,0-5.57-1.06c-1.33,0-3.15,0-11.85,3.31l-.11,0v-1.27c0-7.84-5.4-14-12.29-14a11.85,11.85,0,0,0-6,1.67c-1.06.62-2.06,1.23-3,1.81a49.5,49.5,0,0,1-7,3.78l-.64.29a10.84,10.84,0,0,0-1.47.89v-7.33c0-7.84-5.4-14-12.29-14a11.85,11.85,0,0,0-6,1.67c-1.06.62-2.06,1.23-3,1.81a49.5,49.5,0,0,1-7,3.78c-.23.09-.45.19-.67.3a10.86,10.86,0,0,0-2.44,1.7,10.57,10.57,0,0,0-5.91-1.76,23.88,23.88,0,0,0-4,.45c-1.46.13-7,.34-8,.35h-9.47c-1.88-4.93-6.17-8.3-11.27-8.3a11.85,11.85,0,0,0-6,1.67c-1.06.62-2.06,1.23-3,1.81a49.5,49.5,0,0,1-7,3.78c-.22.09-.44.19-.65.3A10.29,10.29,0,0,0,504.64,106a10.16,10.16,0,0,0,3,5.12l-.34.06c-1.47.13-7,.34-8,.35h-17a10.07,10.07,0,0,0-3.14.51,25,25,0,0,0-9.64-9.56A27.33,27.33,0,0,0,456.45,99c-4.45,0-10.8,1.3-17.06,7a12,12,0,0,0-10.6-6.83,11.79,11.79,0,0,0-6,1.67c-1.07.62-2.07,1.23-3,1.81a49.5,49.5,0,0,1-7,3.78q-.33.14-.66.3a10.36,10.36,0,0,0-5.61,7.52,32.92,32.92,0,0,0-5.17,1.93,24.87,24.87,0,0,0-11.46-13.62A27.39,27.39,0,0,0,376.8,99c-5,0-12.48,1.64-19.49,9.42a34.88,34.88,0,0,0-4.69,6.22,22.94,22.94,0,0,0-10-2.42,33,33,0,0,0-3.87.23c-.3-7.51-5.59-13.3-12.28-13.3a11.79,11.79,0,0,0-6,1.67c-1.07.62-2.07,1.23-3,1.81-1.84,1.12-3.41,2.06-5,2.88-4.39-3.78-9.57-5.89-13.17-5.89-1.35,0-4.17,0-14.18,3.79-1.47.55-2.86,1.08-4.17,1.61v-4.94c0-7.84-5.4-14-12.29-14a11.79,11.79,0,0,0-6,1.67c-1.07.62-2.07,1.23-3,1.81a49,49,0,0,1-7,3.78q-.33.14-.66.3a10.26,10.26,0,0,0,1.14,18.91v14.24c0,17.57,15.84,28.45,30.52,28.45a42.45,42.45,0,0,0,27.19-10.53,10,10,0,0,0,10,9.23,10.65,10.65,0,0,0,6.94-2.68c1.13,12.58,9.17,20.54,21.11,20.54,9.46,0,16.81-8.17,19.22-13.32,0-.1.1-.2.14-.3A10.88,10.88,0,0,0,369,153a26.71,26.71,0,0,0,5,.48,27.3,27.3,0,0,0,20.27-9.14,11,11,0,0,0,9.2-2.19c4.88-3.78,8.65-4.63,9.59-4.63h.17V156c0,.34,0,1-.05,1.38a10.09,10.09,0,0,0,9.9,11.91h0a10.64,10.64,0,0,0,7.05-2.79c.34-.24.81-.55,1.12-.75l4.59-2.5a10,10,0,0,0,5.21-8.78v-4.22a26.52,26.52,0,0,0,12.59,3.18c8.72,0,16.66-4.13,22.36-11.62a33.05,33.05,0,0,0,3-4.63c.52-.07,1.06-.15,1.68-.26,1.46-.13,7-.34,8-.35h17a10,10,0,0,0,5.57-1.7v8.89c0,.34,0,1-.06,1.38a10.1,10.1,0,0,0,9.91,11.91,10.7,10.7,0,0,0,7.06-2.79c.34-.24.81-.55,1.12-.75l3.58-2a24.55,24.55,0,0,0,11.61,3.1c7.95,0,18.46-4.74,24.56-12.24v4A10,10,0,0,0,579,157.85h17.64a10,10,0,0,0,7-2.91l.07-.07,2-2c.77-.75,2-2,2.52-2.41a12.42,12.42,0,0,0,1.58-1.46,19.44,19.44,0,0,0,1.93,1,17,17,0,0,1-2.06,2.24,5,5,0,0,0-.41.39,10.39,10.39,0,0,0,7.33,17.83,11.13,11.13,0,0,0,6.18-1.9l.26-.18c4.91-3.35,13.2-9,17.49-17.19a31.64,31.64,0,0,0,5.49-2.31,10.07,10.07,0,0,0,9.86,8.09,10.7,10.7,0,0,0,7.06-2.79c.34-.24.81-.55,1.12-.75l.12-.07a10.39,10.39,0,0,0,7.08,2.75,11.87,11.87,0,0,0,3.39-.51l.1,0a49.75,49.75,0,0,0,12.78-6.21,19.24,19.24,0,0,1-1.34,2.12A10.45,10.45,0,0,0,684,162.8a10.24,10.24,0,0,0,9.52,6.31,11,11,0,0,0,4.87-1.16c3.26-1.63,8.64-7,11-9.65a58.55,58.55,0,0,0,4.73-5.87,22.69,22.69,0,0,0,5,.56,29.76,29.76,0,0,0,15.83-4.44c4,3.29,9.59,5.16,16.38,5.16,15.11,0,25.67-8.55,29.51-12.23l.15-.15a11.41,11.41,0,0,0,3.42-7.12,9.8,9.8,0,0,0,3.18,3.63,10.25,10.25,0,0,0-1.27,7.24,10.36,10.36,0,0,0,10.38,8.37c.28,0,.59,0,.91,0,7.8-.55,19.14-4.37,25.8-12.59a10.69,10.69,0,0,0,8.19,3.75,11.36,11.36,0,0,0,7-2.43c4.88-3.78,8.65-4.63,9.59-4.63h.17V156c0,.34,0,1,0,1.38a10.09,10.09,0,0,0,9.91,11.91h0a10.67,10.67,0,0,0,7.06-2.79c.33-.24.81-.55,1.12-.75l4.58-2.5a10,10,0,0,0,5.21-8.78v-41.4c0-7.84-5.4-14-12.29-14a11.82,11.82,0,0,0-6,1.67c-1.07.62-2.06,1.23-3,1.81a49.42,49.42,0,0,1-7,3.78c-.23.09-.45.19-.67.3a10.36,10.36,0,0,0-5.61,7.52,31.87,31.87,0,0,0-6.17,2.44,10.33,10.33,0,0,0-8-3.63,14.12,14.12,0,0,0-1.78.12c-4.2-7.64-12.53-13.63-25.16-13.63a29.35,29.35,0,0,0-25.7,14.34l-.94.16-.81.06V98.17c0-7.84-5.39-14-12.29-14-.17,0-.34,0-.52,0a10,10,0,0,0,1.21-4.72V76.74a36.25,36.25,0,0,0,13.67,2.42c11.78,0,22.08-4.55,28.7-11.75.33,0,.64,0,1,0V71.5a10,10,0,0,0,9.91,11.35h13.22a10.19,10.19,0,0,0,10.23,11.26A11,11,0,0,0,843,93c3.26-1.63,8.64-7,11-9.65a57.17,57.17,0,0,0,4.73-5.87,22.69,22.69,0,0,0,5,.56c7.78,0,15.88-3,20.61-8.6a11.5,11.5,0,0,0,5-2.25c4.88-3.78,8.66-4.63,9.6-4.63h.17V81c0,.34,0,1-.06,1.38a10.1,10.1,0,0,0,9.91,11.91h0A10.67,10.67,0,0,0,916,91.54c.34-.24.81-.55,1.12-.75l4.58-2.5a10,10,0,0,0,5.22-8.78V60.86a9.78,9.78,0,0,0,2.13,2,10.25,10.25,0,0,0-1.27,7.24,10.36,10.36,0,0,0,10.38,8.37c.28,0,.59,0,.91,0,8-.56,19.7-4.55,26.29-13.19,4.34,9.08,17.07,14.3,35.89,14.3a54.31,54.31,0,0,0,9.52-.72l.3-.06a14,14,0,0,0,6.88-4.17c.19-.19.39-.39.61-.58l.29-.28c2.75-2.76,7.36-7.37,4.66-13.88A10.14,10.14,0,0,0,1014.07,53.58ZM566.4,112.21l.15-.15a10.53,10.53,0,0,0,2.49,1.3v1.89A27.4,27.4,0,0,0,566.4,112.21Zm176.05-3-.33.27a10,10,0,0,0-1.07-1.51A9.7,9.7,0,0,0,742.45,109.21Z"/><path class="a" d="M852,122.83a26.37,26.37,0,0,1,6.3.72V120c0-2.16-.63-3.06-2.88-3.51a21.63,21.63,0,0,0-3.33-.27c-.81,0-.81-.45-.45-.63,4.14-1.71,7.11-3.78,11.25-6.21,2-1.17,3.24,1.44,3.24,3.69v41.4l-5,2.7c-.27.18-2.07,1.35-2.34,1.62-.72.63-.81.63-.72.18a22.52,22.52,0,0,0,.18-3V134.26c0-4-4.23-6.75-10.17-6.75-3.87,0-9.72,2.07-15.75,6.75-.9.72-2,.09-1.35-.72C833.46,130.39,839,122.83,852,122.83Z"/><path class="b" d="M113.56,29.29a21.63,21.63,0,0,0-3.33-.27c-.81,0-.81-.45-.45-.63,4.14-1.71,7.11-3.78,11.25-6.21,2-1.17,3.24,1.44,3.24,3.69v4.32h18.45c1.08,0,8.28-.27,9.45-.45,3.06-.54,3.42-.45,2.43.27-.63.45-4,3.87-5.31,5l-.18.18H124.27V48.91c5.13-2.25,15.75-9.27,19.8-9.27,7.56,0,15.12,7.2,15.12,14.85,0,8.1-12.42,15.21-19.53,15.21s-12.78-6.84-15-6.84h-.36v4.41l-5,2.7c-.27.18-2.07,1.35-2.34,1.62-.72.63-.81.63-.72.18a22.52,22.52,0,0,0,.18-3v-36C116.44,30.64,115.81,29.74,113.56,29.29Zm28,35.19c7.83,0,9.9-3.6,6.75-11.07-1.62-3.78-5.31-8.1-9.09-8.1-3,0-9.81,4.68-14.4,6.66C129,56.83,135.52,64.48,141.55,64.48Z"/><path class="b" d="M170.8,36C174,34,178.09,36,178.09,40.9c0,4.5-7.11,5.76-7.11,14.58,0,5.4,2.61,10.44,11.7,10.44,10.17,0,14.4-6.3,15.84-11.07H188.17v3.78l-4.95,2.7c-.27.18-2.07,1.35-2.34,1.62-.72.63-.81.63-.72.18a22.52,22.52,0,0,0,.18-3V41.26l3.06-1.35c3.78-2.07,7.83-5.4,9.36-5.4,4.59,0,13.86,2.88,13.86,13.5,0,12.42-12.6,21.15-26.46,21.15-6.57,0-16.47-2-16.47-10.53,0-7.29,7.29-9.72,7-14.76-.18-3.6-3.33-3.78-5.22-3-.63.27-.72-.09-.36-.36C167.11,39.1,169.72,36.85,170.8,36Zm28.26,13.77c-.63-7.38-7-8.82-10.89-8.46v8.46Z"/><path class="b" d="M245.23,39.73c1.08,0,8.28-.27,9.45-.45,3.06-.54,3.42-.45,2.43.27-.63.45-4.05,3.87-5.31,5l-.18.18h-5.76V63l-5,2.7c-.27.18-2.07,1.35-2.34,1.62-.72.63-.81.63-.72.18a22.52,22.52,0,0,0,.18-3V44.77H225.88a22.8,22.8,0,0,0-6,15c0,14.58,14.76,21.69,18.18,23.76,1.53.9,1.26,1.53-.18,1.26-6.3-1.17-26.73-5.67-26.73-22.41,0-11.88,14.13-23.13,16.11-23.13.54,0,3.24.45,4.86.45Z"/><path class="b" d="M267.28,25.6a21.63,21.63,0,0,0-3.33-.27c-.81,0-.81-.45-.45-.63,4.14-1.71,7.11-3.78,11.25-6.21,2-1.17,3.24,1.44,3.24,3.69V39.64a5,5,0,0,1,2.25-.72c3.24-.09,6.84,1.44,10.35,6.75,1.35-2.16,4.68-6.75,8.64-6.75s6.66,4.14,10.08,9.45c3.69,5.67,8.28,14.13,12,14.13.9,0,2.25-.54,3.6-2.34.45-.54.72,0,.54.54-.81,2.16-4.59,7.2-9.63,7.2-3.69,0-5-2.07-7.56-6.75-1.62,3.06-5.13,6.75-8.28,6.75-5.13,0-11.07-9.27-14.4-15.57-2.43-4.68-4.05-6.66-7.56-7V62.05c1.89-.09,7.92-.27,9-.45,3.06-.54,3.42-.45,2.43.27-.63.45-4.05,3.87-5.31,5l-.18.18H271.69c-1.08,0-8.28.27-9.45.45-3.06.54-3.42.45-2.43-.27.63-.45,4.05-3.87,5.31-5l.18-.18h4.86V29.11C270.16,27,269.53,26.05,267.28,25.6Zm24.57,22.23c3.24,5.85,8.19,14.67,11.7,14.67a6.55,6.55,0,0,0,4.23-2.34l-2.52-4.41c-3.87-6.48-7.47-11.07-10.08-11.07-1.44,0-2.79,1.44-3.69,2.43Z"/><path class="b" d="M337.48,34.51c11.34,0,17.37,6.84,18.27,14.22,2.43-.09,5.4-.27,6.12-.36,3.06-.54,3.42-.45,2.43.27-.63.45-4.05,3.87-5.31,5l-.18.18h-3.33c-2.34,10-15,14.13-21.6,14.58-1.08.09-.9-.63,0-1,7.2-3.15,12.24-6.12,12.69-13.59h-4c-1.08,0-8.28.27-9.45.45-3.06.54-3.42.45-2.43-.27.63-.45,4-3.87,5.31-5l.18-.18h10.17c-1.08-8-5.85-11.43-10.62-11.43-6.48,0-10.62,4-10.62,7,0,.72-.18,1-.45,1.08a16.87,16.87,0,0,0-5.58,2.88c-.45.36-1.08.72-.72-.36C319.39,45.31,324.16,34.51,337.48,34.51Z"/><path class="b" d="M412.72,57.55c0,6.93-5.67,11.16-11.43,11.16-13.14,0-14.4-11.34-14.4-7.47V64.3L381.94,67c-.27.18-2.07,1.35-2.34,1.62-.72.63-.81.63-.72.18a22.52,22.52,0,0,0,.18-3V54.49h-.63c-1.08,0-8.28.27-9.45.45-3.06.54-3.42.45-2.43-.27.63-.45,4.05-3.87,5.31-5l.18-.18h7V46.21c0-2.16-.63-3.06-2.88-3.51a21.63,21.63,0,0,0-3.33-.27c-.81,0-.81-.45-.45-.63,4.14-1.71,7.11-3.78,11.25-6.21,2-1.17,3.24,1.44,3.24,3.69V49.45c2.34-.09,7.38-.27,8.37-.45,3.06-.54,3.42-.45,2.43.27-.63.45-4.05,3.87-5.31,5l-.18.18h-4.95c.9,4.41,4.14,7,10.44,7,3.69,0,8.82-1.71,8.82-6.66,0-5.49-6.39-12.15-9.81-11.16-1.08.27-1.53.18-1.44-.18a4.76,4.76,0,0,1,.81-1l4.41-4.05h6.21c1.08,0,8.28-.27,9.45-.45,3.06-.54,3.42-.45,2.43.27-.63.45-4.05,3.87-5.31,5l-.18.18h-7.29C401.29,43.51,412.72,47.65,412.72,57.55Z"/><path class="b" d="M442,47.83a26.37,26.37,0,0,1,6.3.72V45c0-2.16-.63-3.06-2.88-3.51a21.63,21.63,0,0,0-3.33-.27c-.81,0-.81-.45-.45-.63,4.14-1.71,7.11-3.78,11.25-6.21,2-1.17,3.24,1.44,3.24,3.69v41.4l-5,2.7c-.27.18-2.07,1.35-2.34,1.62-.72.63-.81.63-.72.18a22.52,22.52,0,0,0,.18-3V59.26c0-4-4.23-6.75-10.17-6.75-3.87,0-9.72,2.07-15.75,6.75-.9.72-2,.09-1.35-.72C423.43,55.39,428.92,47.83,442,47.83Z"/><path class="b" d="M481.12,34.51c11.34,0,17.37,6.84,18.27,14.22,2.43-.09,5.4-.27,6.12-.36,3.06-.54,3.42-.45,2.43.27-.63.45-4.05,3.87-5.31,5l-.18.18h-3.33c-2.34,10-15,14.13-21.6,14.58-1.08.09-.9-.63,0-1,7.2-3.15,12.24-6.12,12.69-13.59h-4c-1.08,0-8.28.27-9.45.45-3.06.54-3.42.45-2.43-.27.63-.45,4.05-3.87,5.31-5l.18-.18H490c-1.08-8-5.85-11.43-10.62-11.43-6.48,0-10.62,4-10.62,7,0,.72-.18,1-.45,1.08a16.87,16.87,0,0,0-5.58,2.88c-.45.36-1.08.72-.72-.36C463,45.31,467.8,34.51,481.12,34.51Z"/><path class="b" d="M532.78,38.29v-8.1c0-2.16-.63-3.06-2.88-3.51a21.63,21.63,0,0,0-3.33-.27c-.81,0-.81-.45-.45-.63,4.14-1.71,7.11-3.78,11.25-6.21,2-1.17,3.24,1.44,3.24,3.69v13a24,24,0,0,1,13.95,2.34c.18.09.09.09-.18.36a45.32,45.32,0,0,0-4.59,4.68c-.27.36-.45.72-.63.54a17.16,17.16,0,0,0-8.55-4.5v24.3c3.6.09,7.74,0,12.6-.36.9-.09-.72,1.53-2.25,3.06-1.17,1.08-2.07,2.16-2.88,2.34-7.56,1.44-35.19.72-35.19-11.25C512.89,49.54,525.94,41.08,532.78,38.29Zm0,24.93V40.27c-5.31,2.52-10.35,9.45-10.35,15.3C522.43,59.35,525.49,62.05,532.78,63.22Z"/><path class="b" d="M606,65.38V43.51c0-1.53-2.16-1.62-2.16-2.16s15.3-6.75,18.72-6.75c1.8,0,11.61,4.5,11.61,13,0,15.75-17.91,22.59-27.27,22.59s-20.52-7-20.52-18.45V32c0-2.16-.63-3.06-2.88-3.51a21.63,21.63,0,0,0-3.33-.27c-.81,0-.81-.45-.45-.63,4.14-1.71,7.11-3.78,11.25-6.21,2-1.17,3.24,1.44,3.24,3.69V46.48C594.16,55.12,598.66,63,606,65.38ZM625,50.53c0-6-7.56-10.17-10.44-10.17a2.49,2.49,0,0,0-.81.09V65.74C622.51,63.85,625,54.13,625,50.53Z"/><path class="b" d="M640.33,63.13c-6.75-8.73-2.52-17.64,2.52-23,5.31-5.94,12.15-8.37,20.43-3.87,7.29,4,11.07,14.31,3.33,24.48C658.06,72,645,69.25,640.33,63.13Zm18.81-20.61c-5.22-4-11.25-4.41-13.95-1.62-3.69,3.87-2.34,12.42,1,16.74,4,5.13,13.05,7.56,16.2,4.5C667.69,56.92,663.91,46.3,659.14,42.52Z"/><path class="b" d="M704.23,58c0-4-2.34-6.21-6.93-6.21-2.88,0-7.83,3.87-10.35,5.49v5.94l-5,2.7c-.27.18-2.07,1.35-2.34,1.62-.72.63-.81.63-.72.18a22.52,22.52,0,0,0,.18-3V45.49c0-2.16-.63-3.06-2.88-3.51a21.63,21.63,0,0,0-3.33-.27c-.81,0-.81-.45-.45-.63,4.14-1.71,7.11-3.78,11.25-6.21,2-1.17,3.24,1.44,3.24,3.69V54c3.24-1.35,9.27-5.94,14.13-5.94,7,0,11.88,2.52,11.88,8.91,0,6.93-10,10.17-16.2,11.43-.72.18-1.08-.09-.54-.36C699.19,66.46,704.23,63.49,704.23,58Z"/><path class="b" d="M737.26,47.83a26.37,26.37,0,0,1,6.3.72V45c0-2.16-.63-3.06-2.88-3.51a21.63,21.63,0,0,0-3.33-.27c-.81,0-.81-.45-.45-.63,4.14-1.71,7.11-3.78,11.25-6.21,2-1.17,3.24,1.44,3.24,3.69v41.4l-4.95,2.7c-.27.18-2.07,1.35-2.34,1.62-.72.63-.81.63-.72.18a22.52,22.52,0,0,0,.18-3V59.26c0-4-4.23-6.75-10.17-6.75-3.87,0-9.72,2.07-15.75,6.75-.9.72-2,.09-1.35-.72C718.72,55.39,724.21,47.83,737.26,47.83Z"/><path class="b" d="M765.7,36C768.85,34,773,36,773,40.9c0,4.5-7.11,5.76-7.11,14.58,0,5.4,2.61,10.44,11.7,10.44,10.17,0,14.4-6.3,15.84-11.07H783.07v3.78l-5,2.7c-.27.18-2.07,1.35-2.34,1.62-.72.63-.81.63-.72.18a22.52,22.52,0,0,0,.18-3V41.26l3.06-1.35c3.78-2.07,7.83-5.4,9.36-5.4,4.59,0,13.86,2.88,13.86,13.5,0,12.42-12.6,21.15-26.46,21.15-6.57,0-16.47-2-16.47-10.53,0-7.29,7.29-9.72,7-14.76-.18-3.6-3.33-3.78-5.22-3-.63.27-.72-.09-.36-.36C762,39.1,764.62,36.85,765.7,36ZM794,49.81c-.63-7.38-7-8.82-10.89-8.46v8.46Z"/><path class="b" d="M811.87,29.29a21.63,21.63,0,0,0-3.33-.27c-.81,0-.81-.45-.45-.63,4.14-1.71,7.11-3.78,11.25-6.21,2-1.17,3.24,1.44,3.24,3.69V51.61c1.89-.09,7.92-.27,9-.45,3.06-.54,3.42-.45,2.43.27-.63.45-4,3.87-5.31,5l-.18.18h-5.94V67.81h3.33c1.08,0,8.28-.27,9.45-.45,3.06-.54,3.42-.45,2.43.27-.63.45-4,3.87-5.31,5l-.18.18H814.75V56.65c-1.89.09-7.92.27-9,.45-3.06.54-3.42.45-2.43-.27.63-.45,4-3.87,5.31-5l.18-.18h5.94V32.8C814.75,30.64,814.12,29.74,811.87,29.29Z"/><path class="b" d="M842.65,41.26a21.63,21.63,0,0,0-3.33-.27c-.81,0-.81-.45-.45-.63,4.14-1.71,7.11-3.78,11.25-6.21,2-1.17,3.24,1.44,3.24,3.69v2.43h12.42c1.08,0,8.27-.27,9.44-.45,3.06-.54,3.42-.45,2.43.27-.63.45-4,3.87-5.31,5l-.18.18h-18.8v9c4.41-2.43,11.06-6.84,13.85-6.84,6,0,11.25,3.87,11.25,10.44,0,7.29-9.09,10.08-14.76,10.08-4.76,0-8.27-2.79-10.34-3.69V65c0,6.39-13.05,18.09-14.85,19-.54.27-1,0-.45-.54,1.62-1.44,7.47-11.52,7.47-17.28V44.77C845.53,42.61,844.9,41.71,842.65,41.26Zm23.48,23.31c3.61,0,4.41-.27,4.41-4.32,0-5-4.22-8.28-7.1-8.28-2.53,0-6.12,3.24-9.27,4.68C857.32,60.43,862.27,64.57,866.13,64.57Z"/><path class="b" d="M902.77,47.83a26.37,26.37,0,0,1,6.3.72V45c0-2.16-.63-3.06-2.88-3.51a21.73,21.73,0,0,0-3.33-.27c-.81,0-.81-.45-.45-.63,4.14-1.71,7.11-3.78,11.25-6.21,2-1.17,3.24,1.44,3.24,3.69v41.4L912,82.21c-.27.18-2.08,1.35-2.34,1.62-.72.63-.81.63-.72.18a22.52,22.52,0,0,0,.18-3V59.26c0-4-4.23-6.75-10.17-6.75-3.87,0-9.72,2.07-15.75,6.75-.9.72-2,.09-1.35-.72C884.23,55.39,889.72,47.83,902.77,47.83Z"/><path class="b" d="M941.92,34.51c11.33,0,17.36,6.84,18.26,14.22,2.43-.09,5.4-.27,6.12-.36,3.06-.54,3.42-.45,2.43.27-.63.45-4.05,3.87-5.31,5l-.18.18h-3.33c-2.34,10-15,14.13-21.59,14.58-1.08.09-.9-.63,0-1,7.2-3.15,12.24-6.12,12.68-13.59h-4c-1.08,0-8.28.27-9.45.45-3.06.54-3.42.45-2.43-.27.63-.45,4.05-3.87,5.31-5l.18-.18h10.16c-1.08-8-5.84-11.43-10.61-11.43-6.48,0-10.62,4-10.62,7,0,.72-.18,1-.45,1.08a16.87,16.87,0,0,0-5.58,2.88c-.45.36-1.08.72-.72-.36C923.83,45.31,928.6,34.51,941.92,34.51Z"/><path class="b" d="M993.57,38.29v-8.1c0-2.16-.63-3.06-2.88-3.51a21.63,21.63,0,0,0-3.33-.27c-.81,0-.81-.45-.45-.63,4.14-1.71,7.11-3.78,11.25-6.21,2-1.17,3.24,1.44,3.24,3.69v13a24,24,0,0,1,14,2.34c.18.09.09.09-.18.36a45.32,45.32,0,0,0-4.59,4.68c-.27.36-.45.72-.63.54a17.16,17.16,0,0,0-8.55-4.5v24.3c3.6.09,7.74,0,12.6-.36.9-.09-.72,1.53-2.25,3.06-1.17,1.08-2.07,2.16-2.88,2.34-7.56,1.44-35.18.72-35.18-11.25C973.69,49.54,986.73,41.08,993.57,38.29Zm0,24.93V40.27c-5.31,2.52-10.35,9.45-10.35,15.3C983.22,59.35,986.28,62.05,993.57,63.22Z"/><path class="b" d="M282.67,140.38V118.51c0-1.53-2.16-1.62-2.16-2.16s15.3-6.75,18.72-6.75c1.8,0,11.61,4.5,11.61,13.05,0,15.75-17.91,22.59-27.27,22.59s-20.52-7-20.52-18.45V107c0-2.16-.63-3.06-2.88-3.51a21.63,21.63,0,0,0-3.33-.27c-.81,0-.81-.45-.45-.63,4.14-1.71,7.11-3.78,11.25-6.21,2-1.17,3.24,1.44,3.24,3.69v21.42C270.88,130.12,275.38,138,282.67,140.38Zm19.08-14.85c0-6-7.56-10.17-10.44-10.17a2.49,2.49,0,0,0-.81.09v25.29C299.23,138.85,301.75,129.13,301.75,125.53Z"/><path class="b" d="M318,116.53a21.63,21.63,0,0,0-3.33-.27c-.81,0-.81-.45-.45-.63,4.14-1.71,7.11-3.78,11.25-6.21,2-1.17,3.24,1.44,3.24,3.69v14.58c3.24-3.51,8.46-5.49,13.86-5.49,4.77,0,11.88,3.78,11.88,9.81,0,4.5-4.05,8-9.09,9.36v4.77c0,8.1,2.25,11.07,5.94,11.07a9.41,9.41,0,0,0,6.93-3.69c.45-.54,1,.09.72.72-1.35,2.88-5.85,7.56-10.17,7.56-7.11,0-11.25-4.59-11.25-13.68v-6.39l-1.44-.36c-1.17-.36-1.53-1.08,0-1.35,2-.27,9.18-.72,9.18-7,0-3.69-2.52-7-5.85-7-4.14,0-8.73,5-10.71,8v5.13l-4.95,2.7c-.27.18-2.07,1.35-2.34,1.62-.72.63-.81.63-.72.18a22.52,22.52,0,0,0,.18-3V120C320.92,117.88,320.29,117,318,116.53Z"/><path class="b" d="M362.14,138.13c-6.75-8.73-2.52-17.64,2.52-22.95,5.31-5.94,12.15-8.37,20.43-3.87,7.29,4,11.07,14.31,3.33,24.48C379.87,147,366.82,144.25,362.14,138.13ZM381,117.52c-5.22-4-11.25-4.41-13.95-1.62-3.69,3.87-2.34,12.42,1,16.74,4,5.13,13.05,7.56,16.2,4.5C389.5,131.92,385.72,121.3,381,117.52Z"/><path class="b" d="M417,122.83a26.37,26.37,0,0,1,6.3.72V120c0-2.16-.63-3.06-2.88-3.51a21.63,21.63,0,0,0-3.33-.27c-.81,0-.81-.45-.45-.63,4.14-1.71,7.11-3.78,11.25-6.21,2-1.17,3.24,1.44,3.24,3.69v41.4l-4.95,2.7c-.27.18-2.07,1.35-2.34,1.62-.72.63-.81.63-.72.18a22.52,22.52,0,0,0,.18-3V134.26c0-4-4.23-6.75-10.17-6.75-3.87,0-9.72,2.07-15.75,6.75-.9.72-2,.09-1.35-.72C398.41,130.39,403.9,122.83,417,122.83Z"/><path class="b" d="M441.79,138.13c-6.75-8.73-2.52-17.64,2.52-22.95,5.31-5.94,12.15-8.37,20.43-3.87,7.29,4,11.07,14.31,3.33,24.48C459.52,147,446.47,144.25,441.79,138.13Zm18.81-20.61c-5.22-4-11.25-4.41-14-1.62-3.69,3.87-2.34,12.42,1,16.74,4,5.13,13.05,7.56,16.2,4.5C469.15,131.92,465.37,121.3,460.6,117.52Z"/><path class="b" d="M508.75,121.12c3.06-.54,3.42-.45,2.43.27-.63.45-4.05,3.87-5.31,5l-.18.18h-17c-1.08,0-8.28.27-9.45.45-3.06.54-3.42.45-2.43-.27.63-.45,4.05-3.87,5.31-5l.18-.18h17C500.38,121.57,507.58,121.3,508.75,121.12Z"/><path class="b" d="M518.38,104.29a21.63,21.63,0,0,0-3.33-.27c-.81,0-.81-.45-.45-.63,4.14-1.71,7.11-3.78,11.25-6.21,2-1.17,3.24,1.44,3.24,3.69v4.32h18.45c1.08,0,8.28-.27,9.45-.45,3.06-.54,3.42-.45,2.43.27-.63.45-4,3.87-5.31,5l-.18.18H529.09v13.68c5.13-2.25,15.75-9.27,19.8-9.27,7.56,0,15.12,7.2,15.12,14.85,0,8.1-12.42,15.21-19.53,15.21s-12.78-6.84-15-6.84h-.36v4.41l-5,2.7c-.27.18-2.07,1.35-2.34,1.62-.72.63-.81.63-.72.18a22.52,22.52,0,0,0,.18-3v-36C521.26,105.64,520.63,104.74,518.38,104.29Zm28,35.19c7.83,0,9.9-3.6,6.75-11.07-1.62-3.78-5.31-8.1-9.09-8.1-3,0-9.81,4.68-14.4,6.66C533.77,131.83,540.34,139.48,546.37,139.48Z"/><path class="b" d="M576.16,104.29a21.63,21.63,0,0,0-3.33-.27c-.81,0-.81-.45-.45-.63,4.14-1.71,7.11-3.78,11.25-6.21,2-1.17,3.24,1.44,3.24,3.69v25.74c1.89-.09,7.92-.27,9-.45,3.06-.54,3.42-.45,2.43.27-.63.45-4,3.87-5.31,5l-.18.18h-5.94v11.16h3.33c1.08,0,8.28-.27,9.45-.45,3.06-.54,3.42-.45,2.43.27-.63.45-4.05,3.87-5.31,5l-.18.18H579v-16.2c-1.89.09-7.92.27-9,.45-3.06.54-3.42.45-2.43-.27.63-.45,4-3.87,5.31-5l.18-.18H579V107.8C579,105.64,578.41,104.74,576.16,104.29Z"/><path class="b" d="M625.57,140.92v-11.7c0-1.62-1.62-1.26-1.62-1.71,0-.72,13.59-5.85,15.3-5.85,1.44,0,9,2.43,9,7.65,0,9.18-8.73,12.42-15.12,13.41-1.53,7.83-10.71,14-15.84,17.55-.81.54-1.44,0-.9-.54a28.5,28.5,0,0,0,9-16.65c-6.84-.45-15.93-2.79-15.93-12.42v-10c0-2.16-.63-3.06-2.88-3.51a21.63,21.63,0,0,0-3.33-.27c-.81,0-.81-.45-.45-.63,4.14-1.71,7.11-3.78,11.25-6.21,2-1.17,3.24,1.44,3.24,3.69V126C617.29,132.73,617.92,139.57,625.57,140.92Zm7.83-.27c6.48-1.53,7.2-6.12,7.2-8,0-4.32-4.77-6.12-7.2-6.39v14.4Z"/><path class="b" d="M653.2,104.2a21.63,21.63,0,0,0-3.33-.27c-.81,0-.81-.45-.45-.63,4.14-1.71,7.11-3.78,11.25-6.21,2-1.17,3.24,1.44,3.24,3.69v24.75c4.14-1.08,13.68-5.94,13.68-8.73a4,4,0,0,0-2.16-3.42c-.54-.27-.63-.81.36-.81a32.9,32.9,0,0,0,8.37-1.08c.9-.18,1.08.09,1.08,1.71,0,5.31-8.91,10.08-15.75,13.23h9.45a75.42,75.42,0,0,0,8.46-.72c1.34,0,2.15,2.25,2.15,4.59,0,7.38-10.79,13.59-17.72,15.75-.9.27-1.08-.09-.45-.54,4-2.52,9.44-8.1,9.44-13.5v-.54H663.91v10.71l-4.95,2.7c-.27.18-2.07,1.35-2.34,1.62-.72.63-.81.63-.72.18a22.52,22.52,0,0,0,.18-3v-36C656.08,105.55,655.45,104.65,653.2,104.2Z"/><path class="b" d="M698,116.26a21.63,21.63,0,0,0-3.33-.27c-.81,0-.81-.45-.45-.63,4.14-1.71,7.11-3.78,11.25-6.21,2-1.17,3.24,1.44,3.24,3.69v2.43h12.42c1.08,0,8.27-.27,9.44-.45,3.06-.54,3.42-.45,2.43.27-.63.45-4,3.87-5.31,5l-.18.18h-18.8v9c4.41-2.43,11.06-6.84,13.85-6.84,6,0,11.25,3.87,11.25,10.44,0,7.29-9.09,10.08-14.76,10.08-4.76,0-8.27-2.79-10.34-3.69V140c0,6.39-13.05,18.09-14.85,19-.54.27-1,0-.45-.54,1.62-1.44,7.47-11.52,7.47-17.28V119.77C700.9,117.61,700.27,116.71,698,116.26Zm23.48,23.31c3.61,0,4.41-.27,4.41-4.32,0-4.95-4.22-8.28-7.1-8.28-2.53,0-6.12,3.24-9.27,4.68C712.69,135.43,717.64,139.57,721.5,139.57Z"/><path class="b" d="M752.28,101.59a21.54,21.54,0,0,0-3.33-.27c-.8,0-.8-.45-.45-.63,4.15-1.71,7.11-3.78,11.25-6.21,2-1.17,3.24,1.44,3.24,3.69v26.19h2.79c1.08,0,8.28-.27,9.45-.45,3.06-.54,3.42-.45,2.43.27-.63.45-4,3.87-5.31,5l-.18.18H745.81c.09,4.59,3,10.26,11.24,10.26,6.21,0,10.89-2.7,16.38-6.3,1-.63,1.35,0,.45.9-4.23,4.05-12.42,9.45-22.59,9.45-6.3,0-12.95-2.07-12.95-9.9,0-8.1,9.27-17.55,16.82-20.7v-8C755.16,102.94,754.53,102,752.28,101.59Zm2.88,22.77v-9.54a24.8,24.8,0,0,0-8.18,9.54Z"/><path class="b" d="M800.44,109.51c11.33,0,17.36,6.84,18.26,14.22,2.43-.09,5.4-.27,6.12-.36,3.06-.54,3.42-.45,2.43.27-.63.45-4,3.87-5.31,5l-.18.18h-3.33c-2.34,10-15,14.13-21.6,14.58-1.07.09-.89-.63,0-1,7.2-3.15,12.24-6.12,12.69-13.59h-3.95c-1.08,0-8.29.27-9.46.45-3.05.54-3.41.45-2.42-.27.63-.45,4-3.87,5.3-5l.18-.18h10.17c-1.08-8-5.85-11.43-10.61-11.43-6.49,0-10.62,4-10.62,7,0,.72-.18,1-.45,1.08a16.87,16.87,0,0,0-5.58,2.88c-.45.36-1.08.72-.72-.36C782.35,120.31,787.11,109.51,800.44,109.51Z"/><path class="b" d="M852,122.83a26.37,26.37,0,0,1,6.3.72V120c0-2.16-.63-3.06-2.88-3.51a21.63,21.63,0,0,0-3.33-.27c-.81,0-.81-.45-.45-.63,4.14-1.71,7.11-3.78,11.25-6.21,2-1.17,3.24,1.44,3.24,3.69v41.4l-5,2.7c-.27.18-2.07,1.35-2.34,1.62-.72.63-.81.63-.72.18a22.52,22.52,0,0,0,.18-3V134.26c0-4-4.23-6.75-10.17-6.75-3.87,0-9.72,2.07-15.75,6.75-.9.72-2,.09-1.35-.72C833.46,130.39,839,122.83,852,122.83Z"/></svg>